<svg version="1.0" xmlns="http://www.w3.org/2000/svg" width="266.667" height="266.667" viewBox="0 0 200 200"><path d="M91.11 3.217c-.12 0-.298 0-.357.079h-.535c-.298.078-.595.078-.774.157-.892.392-1.07.47-1.546.706-.297.235-.654.392-.714.47-.118.158-.356.314-.475.393-.892.706-2.855 3.374-2.855 3.923 0 0-.06.078-.06.157-.059.078-.178.235-.237.392-.06.157-.12.393-.179.471-.238.55-.594 1.648-.594 1.805 0 .157 0 .235-.06.314-.178.235-.595 2.746-.713 4.158-.06 1.02-.06 4.55 0 4.63 0 .078.059.627.059 1.176.06 1.177.178 3.06.297 3.61.06.156.06.627.12 1.02.059.392.118 1.176.178 1.647.119.47.178.942.178 1.099 0 .078.06.392.119.627.06.314.119.706.178.863.12.785.238 1.57.357 2.04 0 .236.12.55.12.707.059.235.118.549.178.863.119.313.178.549.178.549 0 .078 0 .235.06.392.059.236.118.471.118.628.06.235.12.392.12.47.059.158.237.864.535 2.12.06.235.119.548.119.627 0 .157 1.01 4.08 1.308 4.864.06.236.178.55.238.785.06.314.178.55.178.55.06.078.06.156.06.235 0 0 .06.235.119.392.297.785.535 1.726.892 3.06.119.47.297 1.099.357 1.334l.118.47s.298.864.417 1.178c.06.157.119.235.178.235l.12.157c.059.078.237 0 .475-.235l.119-.157-.179-.471c-.178-.55-.475-1.57-.773-2.59-.06-.392-.238-.863-.297-1.176-.119-.236-.178-.471-.178-.55 0-.078-.179-.706-.417-1.333l-.119-.471c0-.079-.06-.157-.06-.236a.46.46 0 0 1-.118-.313c-.06-.157-.179-.55-.297-.864-.12-.392-.357-1.176-.476-1.804-.179-.628-.357-1.256-.417-1.334 0-.078-.118-.47-.178-.863-.06-.314-.178-.706-.178-.863-.06-.157-.12-.314-.12-.47 0-.08-.178-.864-.356-1.727-.238-.785-.416-1.57-.416-1.648 0-.078 0-.157-.06-.157 0-.078-.06-.235-.06-.314-.059-.157-.118-.627-.178-.941-.238-.942-.594-2.746-.713-3.766 0-.157-.12-.785-.238-1.413-.238-1.412-.298-1.883-.298-2.275-.06-.157-.06-.55-.119-.863-.119-1.099-.178-1.805-.237-2.432 0-.628-.06-1.648-.179-2.747-.06-1.098.06-5.1.179-5.413.059-.157.118-.785.118-1.099 0-.157.06-.392.06-.47.119-.315.357-1.335.357-1.491 0-.079.119-.393.238-.785s.297-.785.356-1.02c.06-.157.179-.314.238-.392 0-.079.06-.157.06-.157 0-.079.119-.314.297-.628.12-.314.238-.628.238-.706l.06-.079c.059 0 .178-.157.237-.235.12-.314 1.368-1.883 1.666-2.119.06-.078.178-.156.237-.235l.12-.157c.059 0 .237-.157.475-.314s.416-.235.416-.235.12-.079.298-.157c.297-.235 1.07-.55 1.308-.55.06 0 .179-.078.238-.078.06-.078.179-.157.179-.078.059 0 .237 0 .535-.079.238 0 .594-.078.713-.078.536 0 1.487.078 1.547.078 0 .079.297.079.654.157.476.079.892.157 1.19.236.059.078.178.078.237.157.06.078.12.078.179.078 0-.078.118-.078.178 0 .119.079 1.368.628 1.606.706.06 0 .178.079.238.157.118.079.535.314.594.314 0-.078.12 0 .179.078.06.079.119.157.178.157.06 0 .179.079.297.157.12.157.238.236.298.236 0 0 .06.078.119.078 0 .079.119.157.178.157.06 0 .12 0 .179.079 0 .078.059.078.119.078.059 0 .118.078.178.157.178.235.238.314.595.55.178.156.416.313.475.391l.12.157c.059 0 .178.157.356.314.179.236.535.55.714.706.238.236.416.471.416.55.06 0 .12.078.12.078.059 0 .237.157.415.392l.655.864c.535.627 1.784 2.353 2.081 2.903.06.078.178.313.297.47.12.157.238.393.298.471.06.079.297.55.594 1.099.298.47.536.941.595 1.098.06.079.238.47.416.785.714 1.412 3.152 7.61 3.39 8.552 0 .079.06.235.06.314.06.078.119.314.178.47.06.158.179.471.238.55.06.235.833 2.51 1.546 4.472.179.55.298.942.357 1.02 0 .157.12.393.238.706.714 2.04.952 3.06.773 3.06-.06 0-.06 0-.06-.078 0-.157-.772-.47-1.248-.47-1.13 0-1.546-.158-2.795-.864-.298-.157-.536-.392-.595-.392-.06-.079-.178-.157-.297-.236-.774-.47-1.428-1.098-1.428-1.255-.119-.47-.357-.55-1.07-.55-.476-.078-.714 0-.833.08-.476.235-.654-.158-.595-1.492.06-.392.12-.941.12-1.255.059-.235.059-.47.059-.55 0-.235.119-.156.238.08.178.47.595.784.951.784.238 0 .714-.392.892-.706.179-.393.298-.55.298-.55.06 0 .06.393.119.785 0 .392.06.785.119.785 0 .078.06.157.06.235 0 .079.118.236.237.392.119.157.357.393.416.55.357.392.595.392 1.13-.236.773-.863.952-1.255.773-1.961-.06-.157-.06-.393-.06-.55 0-.078 0-.235-.059-.235-.06-.078-.06-.314-.06-.55 0-.313 0-.47-.118-.705-.535-1.099-1.011-1.334-1.546-.628-.417.55-.535.785-.535.942 0 .078-.06.157-.06.157-.06 0-.119-.55 0-.707 0-.078 0-.235-.06-.313 0-.157-.059-.314-.059-.393-.06-.235-.357-.706-.654-1.177a.684.684 0 0 1-.119-.314c0-.156-.297-.549-.476-.706-.238-.078-.654.157-.832.628-.238.47-.298.392-.417-.706 0-.55-.238-1.177-.416-1.57-.238-.313-.952-1.02-1.249-1.255-.06-.078-.238-.235-.357-.47a6.808 6.808 0 0 0-.535-.864c-.178-.235-.416-.627-.535-.784a2.198 2.198 0 0 0-.476-.628c-.178-.078-.357-.235-.357-.235s-.178-.157-.357-.236c-.119-.157-.297-.314-.356-.392-.06-.079-.179-.157-.179-.157-.06 0-.297-.157-.535-.314-.535-.314-.833-.392-1.546-.55-.298-.078-.595-.078-.654-.156-.06 0-.357 0-.536-.078-.238 0-.832-.157-1.249-.236-.416-.078-.951-.157-1.07-.235-.714-.314-1.606-.314-2.082 0-.356.235-1.248 1.49-1.248 1.726 0 0-.06.078-.06.157a.684.684 0 0 0-.119.314.71.71 0 0 1-.119.392c-.06.078-.119.314-.178.47-.06.236-.12.472-.179.628 0 .157-.06.314-.06.471 0 .157 0 .314-.059.314 0 .079-.06.235-.06.392-.059.236-.059.55-.118.707 0 .156-.06.627-.119.941 0 .392 0 .785-.06.863 0 .079-.059.314-.059.471-.06.235-.119.942-.178 1.648-.298 2.432-.298 5.335 0 8.238.06.55.06 1.099.119 1.256.06 1.02.416 4.001.535 4.315 0 .078.06.392.119.706 0 .392.119.863.178 1.177 0 .314.12.706.179.942 0 .235.119.706.178.941.06.314.178.942.238 1.334.119.47.238 1.02.238 1.177.238.863.297 1.255.357 1.57.06.156.119.47.119.548.06.157.178.471.178.707.06.235.178.549.238.706 0 .157.119.549.178.784.12.314.238.785.298.942.119.235.178.55.238.706.059.157.118.392.178.47 0 .158.119.472.178.785l.12.471.237.079c.179 0 .238.078.238.157.06.235.178 1.333.238 1.647 0 .471.178 1.177.297 1.413.06.157.12.392.12.47 0 .079.059.157.118.236a.562.562 0 0 1 .238.314c.119.47.476.706.654.392.06-.157 0-.235-.178-.863-.179-.392-.357-.785-.357-.942-.178-.47-.476-2.275-.595-3.687 0-.157-.06-.393-.119-.471 0-.079-.06-.236-.06-.392-.059-.314-.237-.471-.415-.471-.179 0-.238-.079-.298-.393 0-.156-.06-.392-.119-.549-.119-.235-.475-1.569-.535-1.804 0-.157-.06-.314-.06-.393l-.118-.47c-.06-.236-.179-.471-.179-.628 0-.079-.06-.314-.119-.55-.119-.706-.475-2.353-.594-2.667 0-.157-.06-.392-.12-.47 0-.393-.059-.707-.178-1.256-.06-.314-.178-.785-.178-1.099-.12-.706-.238-1.255-.298-1.334v-.392c0-.078-.059-.314-.118-.47-.06-.158-.06-.315-.06-.471.06-.157.06-.314 0-.314 0-.079-.119-.628-.119-1.177-.06-.55-.178-1.256-.178-1.57-.06-.313-.06-.706-.12-1.02 0-.313-.059-.706-.059-.941-.06-.157-.06-.706-.119-1.255 0-.471 0-.942-.06-1.099V28.64c0-.078.06-.314.12-.628 0-.235.06-.863.06-1.412.059-.47.059-1.02.118-1.098.06-.157.179-1.177.238-1.805 0-.157.06-.47.06-.785.059-.235.059-.549.119-.784 0-.236.118-.785.356-1.883.179-.707.536-1.727.655-1.884.059-.078.118-.156.118-.235l.12-.157c.059-.078.118-.157.118-.235.12-.314.952-.393 1.844-.236.357.157 1.19.314 1.487.393h.238c.06.078.416.157.773.235.594.079.654.079 1.487.314.535.078 1.13.392 1.962 1.098.476.314 1.368 1.413 1.606 1.883.357.864 1.19 1.805 1.487 1.805.178 0 .594.863.654 1.412.357 2.59.357 2.276-.06 4.708-.178 1.256-.297 3.139-.178 4.08l.06.392-.239-.078c-.297 0-.416.078-.535.628 0 .235-.06.47-.119.549 0 .157-.06.314-.06.47 0 .158 0 .315-.059.315-.119.235 0 4.158.12 5.021.059.236.059.628.059.863.06.236.06.628.119.785.06.235.06.392.06.47-.06 0 0 .236.118.471l.119.471c0 .236.535 1.805.654 1.962.06.078.12.157.12.235 0 .079.118.314.237.55.119.235.357.705.535 1.02.12.392.298.705.357.705 0 .079.179.314.297.628.476.863 2.2 3.296 2.736 3.845l.892 1.177c.476.549 1.011 1.177 1.25 1.412.356.47.832 1.099 1.07 1.334.356.47 1.189 1.648 1.367 1.961.12.157.357.628.595.942.179.235.416.706.535 1.02.12.235.298.47.357.47 0 .08.06.158.06.236 0 .079.06.157.119.236.059.078.119.313.178.392 0 .157.06.235.06.235.059 0 .059.079.059.079 0 .078.119.314.238.549.119.314.238.55.238.55 0 .078 0 .156.06.156.059.079.178.314.356.55.297.549.654.94.892.94.297 0 .535-.234.535-.47 0-.078.06-.235.06-.314.06-.078.119-.47.119-1.49.06-.785.06-1.491.06-1.491.059 0 .059-.471.059-.942.119-1.804.119-1.804.416-2.118a.553.553 0 0 0 .178-.236c0-.078.06-.235.179-.47a1 1 0 0 0 .178-.471c-.06 0 0-.236.06-.471.119-.392.06-1.883-.06-3.452-.06-.471-.178-1.334-.178-1.962a36.294 36.294 0 0 0-.357-2.59c0-.078-.06-.391-.119-.705a6.571 6.571 0 0 0-.178-.628c-.06-.078-.12-.314-.179-.47 0-.236-.06-.393-.06-.472-.059 0-.356-.784-.356-.941 0 0-.06-.157-.12-.235-.118-.079-.177-.314-.237-.393a.684.684 0 0 0-.119-.314c-.119-.235-.595-1.647-.773-2.197-.06-.156-.119-.392-.178-.47 0-.157-.06-.314-.06-.393v-.157l.179.157c.118.236.237.393.356.785.06.078.179.157.298.314l.238.157.119-.314c.059-.314 0-.55-.357-1.177-.12-.235-.238-.392-.238-.47 0 0-.179-.315-.416-.707-1.011-1.334-1.011-1.412-1.011-1.648 0-.549-.536-1.098-.774-.784-.178.235-.237.157-.297-.079-.119-.235-.119-.235 0-.314.06-.078.178-.078.238-.078.06.078.178 0 .238-.078l.119-.157-.12-.471c-.059-.236-.237-.785-.297-1.177-.118-.392-.297-.785-.297-.863-.06-.079-.119-.157-.119-.236 0-.078-.178-.47-.357-1.02-.178-.47-.357-1.02-.416-1.177-.06-.156-.119-.313-.178-.392 0-.078-.06-.235-.12-.47-.059-.158-.118-.393-.178-.471l-.119-.314c0-.157-.297-.942-.416-1.256-.06-.078-.178-.47-.535-1.49-.06-.157-.12-.314-.12-.393 0-.078-.059-.157-.118-.235 0-.079-.06-.157-.06-.235.06 0 0-.157-.119-.314a2.012 2.012 0 0 1-.118-.471s-.12-.392-.298-.785c-.178-.392-.297-.784-.297-.784 0-.079-.12-.393-.238-.706-.119-.314-.357-.864-.416-1.177l-.357-.942c-.12-.157-.298-.628-.416-.942-.12-.392-.238-.706-.298-.706 0-.078-.119-.235-.178-.314 0-.156-.12-.392-.179-.549-.06-.078-.178-.392-.238-.627-.356-.785-.535-1.099-.951-1.805-.238-.47-.476-.863-.476-.863a3.744 3.744 0 0 1-.357-.706 3.54 3.54 0 0 1-.416-.706c-.119-.079-.238-.314-.416-.55-.12-.235-.536-.863-.952-1.412-.357-.55-.713-1.02-.713-1.098 0-.079-.12-.236-.238-.393-.12-.078-.476-.47-.773-.863a18.602 18.602 0 0 0-1.666-1.726c-.06-.079-.178-.157-.178-.235l-.178-.236c-.357-.235-.833-.628-1.19-.941-.178-.236-.595-.55-.951-.785-.357-.235-.714-.47-.892-.628-.12-.078-.298-.157-.417-.157-.06 0-.238-.078-.357-.235-.178-.157-.297-.235-.356-.235-.06 0-.417-.157-.833-.393a7.063 7.063 0 0 0-.952-.392c-.119 0-.297-.078-.356-.078-.06 0-.238-.079-.417-.079-.238-.078-.416-.078-.416-.157-.238-.235-2.379-.47-3.211-.314zm14.094 31.62c.06.157.06.314.06.393 0 .157.06.314.119.47.06.079.119.314.119.314 0 .157.297 1.099.654 2.04.119.393.238.707.238.785 0 0 .06.157.178.314.06.078.119.235.119.314l.238.47c.119.236.238.471.238.55.06.157.119.235.119.314.06.157.178.392.297.627.119.236.297.55.357.706.119.236.238.471.297.55.06.157.238.392.357.627.178.236.297.471.297.55 0 0 .06.157.179.235.06.078.178.314.238.47.06.158.178.315.178.315.06 0 .179.157.238.313.06.157.178.393.297.471.12.157.179.314.179.314 0 .079.178.314.654 1.02.119.157.297.47.476.706.119.236.357.55.416.628.535.785 1.011 1.648.952 1.883 0 .157 0 .314.118.55.06.156.12.313.12.392 0 .235.654 1.255 1.546 2.51 2.438 3.217 2.795 3.688 3.092 3.923.357.236.357.236.298 1.177-.06.393-.06 1.727-.12 2.825 0 1.098-.059 2.04-.059 2.119-.06 0-.06 0-.06-.079 0 0-.118-.314-.237-.55-.179-.313-.357-.627-.417-.862-.237-.628-.416-1.02-.654-1.413-.119-.313-.238-.47-.238-.549 0 0-.06-.157-.178-.314-.119-.157-.178-.314-.178-.392 0 0-.12-.235-.238-.392-.179-.236-.298-.393-.298-.471 0 0-.178-.314-.475-.706-.238-.314-.774-1.099-1.19-1.648-.951-1.334-1.01-1.412-1.07-1.412-.12 0-.417-.393-.417-.471 0 0-.119-.157-.297-.314s-.357-.392-.357-.47c-.06-.158-.832-1.1-1.546-1.884-.238-.235-.535-.627-.595-.706a11.687 11.687 0 0 0-.773-1.177.434.434 0 0 1-.178-.314l-.238-.314c-.179-.156-.298-.392-.298-.47a2.493 2.493 0 0 0-.297-.55.74.74 0 0 1-.238-.47s-.119-.236-.238-.393c-.119-.157-.238-.313-.238-.392a.684.684 0 0 0-.118-.314c-.06 0-.12-.157-.12-.157 0-.078-.118-.314-.237-.549a10.444 10.444 0 0 1-.655-1.412c0-.079-.059-.236-.059-.393-.119-.235-.357-1.02-.416-1.49-.238-1.648-.298-2.354-.357-3.531-.06-1.02 0-3.139.119-3.688 0-.157.06-.47.06-.628.059-.156.059-.313.118-.313l.12.313zm2.557.079c.238.157.476.314.536.392.119 0 .357.157.594.314.238.157.476.235.476.314 0 .078.595.392 1.19.785.237.157.951.47 1.486.627.06.079.536.079 1.011.079.892.078.952.078 1.25.627.178.236.653.785.772.864.179.156.476.941.476 1.333 0 .079.06.157.06.236.06.078.119.235.178.392 0 .157.06.314.06.392.059 0 .059.079.059.157 0 .157.06.236.06.314a.71.71 0 0 1 .118.392c.06.157.12.314.12.393.059.078.178.392.297.627.06.314.297.864.416 1.177.595 1.57.892 2.276.892 2.433 0 .078.06.157.06.235.059.079.178.392.237.706.06.314.179.706.179.785.119.392.476 3.138.476 4.158 0 .236.06.471.06.55.059 0 .118 1.49.118 1.961 0 .079-.06.079-.178.079-.12 0-.179.078-.298.235-.119.235-.119.235-.238.785-.119.627-.356.392-1.843-1.805-.298-.314-.595-.706-.654-.706l-.12-.157a.434.434 0 0 0-.178-.314c-.06-.157-.238-.392-.297-.628-.179-.392-.773-1.49-.892-1.49 0-.079-.06-.157-.06-.157 0-.079-.119-.314-.238-.55a6.528 6.528 0 0 0-.356-.627 10.61 10.61 0 0 0-.714-1.256l-.178-.235c0-.079-.179-.314-.357-.628-.179-.235-.417-.549-.536-.784-.118-.157-.416-.55-.594-.863-.238-.314-.476-.707-.595-.864-.06-.235-.178-.392-.238-.549-.416-.549-.773-1.02-.832-1.255 0-.079-.06-.157-.12-.236a18.405 18.405 0 0 1-.654-1.255 5.607 5.607 0 0 1-.416-.706c-.119-.157-.178-.314-.178-.392 0 0-.12-.157-.179-.393-.119-.157-.238-.314-.238-.392 0-.157-.416-1.177-.594-1.57-.12-.156-.238-.47-.298-.627 0-.235-.119-.47-.178-.55-.06-.156-.178-.47-.416-1.49-.06-.235-.179-.47-.238-.628 0-.078-.06-.157 0-.235.06-.157.178-.079.238.157.06.314.416.706.594.706.179 0 .179 0 .179-.392-.12-.785 0-.863.713-.471zM87.303 52.178c-.119 0-.237.078-.297.078-.119 0-.892.47-2.26 1.412-.297.236-.654.471-.773.471-.178.079-.297.157-.357.157-.119 0-.357.157-.535.235-.833.314-2.379 1.177-2.914 1.57-.119.078-.357.157-.476.314a1.256 1.256 0 0 0-.416.313c-.06 0-.298.236-.595.393-.238.157-.476.392-.476.392s-.238.235-.535.392c-.297.236-.535.471-.595.471l-.119.157c-.059 0-.237.078-.416.235-.178.157-.357.236-.416.314-.06 0-.179.157-.238.236-.119.157-.357.313-.535.392-.179.078-.417.235-.476.314-.06.157-.238.235-.357.314-.238.157-.951 1.098-1.487 1.883l-.594.784c-.179.236-.298.55-.298.55 0 .078-.06.157-.119.235-.06.078-.178.235-.238.392-.059.157-.178.393-.297.471-.06.079-.178.392-.297.628-.12.314-.238.549-.238.627-.238.314-.416 1.02-.476 1.727 0 .235-.119.784-.178 1.177-.12.47-.179 1.098-.238 1.333-.06.314-.12.707-.12.863-.118.393 0 .55.417.393.06 0 .12-.079.12-.157 0-.079.059-.157.118-.236.06-.156.119-.627.119-1.02 0-.078.06-.156.119-.156.119 0 .119 0 .06-.079-.238-.078-.179-.55.118-.706.06 0 .12-.079.179-.47 0-.158 0-.158-.12-.158-.059 0-.118 0-.118-.078-.06-.079 0-.079 0-.079.119 0 .178-.392.178-.549 0 0 .06-.157.12-.157.059-.078.178-.157.178-.314s.119-.549.178-.549c0 0 .06-.078.06-.235 0-.079.059-.236.059-.314.06-.079.119-.157.119-.236 0-.078.178-.078.238 0 .06.157.238.236.238.079 0-.079-.06-.157-.179-.235-.119 0-.178-.157-.119-.157 0-.079.06 0 .12.078.059.079.178.079.237.079.06-.079.06-.079-.06-.236-.178-.235-.118-.392.358-1.255.059-.079.119-.236.178-.314.714-1.256 1.903-2.746 2.379-3.139l.119-.157c0-.078.06-.156.178-.235a2.812 2.812 0 0 0 1.13-.785c.238-.156.535-.392.654-.47 1.011-.706 1.487-1.177 1.487-1.334 0 0 .06-.079.178-.079.12 0 .298-.078.417-.157.535-.47 1.843-1.333 1.962-1.333.06 0 .179-.079.298-.157.773-.471.951-.55 1.19-.55.118-.078.415-.156.653-.313.179-.079.476-.157.595-.236.476-.157 1.368-.706 2.081-1.334l.476-.313.476-.314c.119-.079.238-.157.297-.157.238 0 .417-.55.298-.785-.12-.078-.179-.078-.417.079zm76.123 1.49c-.178.079-.416.157-.594.236a1.99 1.99 0 0 1-.655.157c-.119 0-.297 0-.356.078-.12.079-.357.157-1.13.314-.179.078-.476.157-.536.235-.119 0-.237.079-.297.079s-.178 0-.238.078c-.06 0-.178.157-.297.236-.179.078-.357.157-.476.157-.119.078-.297.157-.416.157-.179.078-.535.235-.833.392-.297.078-.773.314-.951.47-.238.08-.595.314-.774.314-.237.079-.535.236-.713.314-.179.079-.416.236-.476.236-.535.157-1.427.627-1.546.784-.12.157-.833.471-1.487.785-.178 0-.357.157-.416.235-.238.236-.357.236-.714-.157l-.357-.313c-.06 0-.178-.079-.238-.157-.297-.236-.654-.393-.832-.393-.12.079-.654.079-1.19.157-.594 0-1.07.079-1.07.079-.06.078-.179.078-.357 0-.297 0-1.13.235-1.249.392 0 0-.119.078-.178.078-.357 0-1.011 1.256-.892 1.805 0 .157 0 .314-.06.392-.06.079-.119.314-.119.471 0 .157-.06.236-.119.236-.06.078-.119.156-.119.235.06.157-.356.392-1.486.785a4.194 4.194 0 0 0-.714.313c-.119.079-.357.157-.476.236-.119 0-.357.157-.535.157-.119.078-.297.157-.416.235-.12 0-.536.157-.952.314-.476.235-1.13.47-1.487.706-.416.157-.773.314-.832.392-.12 0-.238.079-.357.079s-.357.078-.595.157c-.238.157-.713.314-1.01.392-.358.079-.952.314-1.31.47-.415.158-.891.315-1.07.393-.535.157-1.665.55-1.903.628-.06.078-.297.157-.416.157-.416.078-1.011.235-1.13.314-.06.078-.238.078-.416.157-.238.078-.417.157-.476.157-.06.078-.297.078-.535.156-.833.157-1.844.393-2.32.55-1.308.392-2.497.47-5.174.157h-1.962c-.179.078-.357 0-.416 0 0-.079-.12-.079-.238-.079a.51.51 0 0 1-.476 0c-.119 0-.476-.078-.773-.157-.595 0-.833-.078-1.546-.235-.238-.079-.536-.157-.595-.157-.298-.079-1.13-.314-1.13-.392-.06-.079-.119-.079-.179-.079-.059 0-.178-.078-.297-.078-.357-.236-1.07-.471-1.19-.471 0 .078-.059.078-.059 0-.06 0-.178-.079-.357-.157-.119 0-.297-.078-.356-.078-.238-.079-1.25-.55-1.666-.628a1.343 1.343 0 0 1-.416-.236c-.06-.078-.119-.078-.178-.078-.06 0-.298-.078-.476-.235-.238-.157-.476-.236-.595-.314-.119 0-.178-.079-.178-.079s-.12-.157-.298-.235a2.59 2.59 0 0 1-.594-.392c-.12-.079-.476-.314-.714-.393-.238-.157-.535-.314-.595-.392-1.13-.706-1.724-1.177-1.903-1.334-.119-.157-.238-.235-.297-.235 0 0-.238-.236-.535-.55-.238-.235-.476-.47-.536-.47 0 0-.118-.079-.237-.236-.12-.157-.179-.235-.238-.235l-.357-.314c-.476-.392-1.011-.785-1.249-.863-.238-.078-.714-.55-.773-.706 0-.079-.06-.157-.12-.236 0-.078-.059-.156-.059-.313 0-.393-.237-.863-.475-.863-.298 0-.476.549-.298.784.06.157.179.392.179.55.238.784.416.94 1.843 1.804.476.314.476.314.773.55.12.156.298.313.417.392.06.078.238.235.297.392.12.157.238.235.297.235 0 0 .12.079.179.157.238.314.951.942 1.01.942.06 0 .18.078.239.157.119.235 1.605 1.255 1.784 1.255l.238.157a.848.848 0 0 0 .297.235c.06 0 .357.157.654.393 1.07.627 1.368.863 2.2 1.177.298.157.595.313.655.313.119.079.714.314 1.368.471.178.079.476.236.713.314.238.079.536.235.774.235.237.079.594.236.892.393.237.078.713.235 1.07.314.357.157.714.313.833.313.119.079.475.157.892.236.119 0 .297 0 .476.078.237.079 1.189.157 3.21.236.596 0 1.19 0 1.31.078.059 0 .832 0 1.664.079 1.547 0 2.38-.079 3.33-.393.417-.078.893-.235 1.31-.314.118 0 .297 0 .297-.078 0 0 .237 0 .475-.078a7.12 7.12 0 0 0 1.25-.393c.118-.078.356-.157.534-.157.417-.078.714-.157 1.13-.392.179 0 .595-.157.892-.235.298-.157.595-.236.714-.314.06 0 .298-.079.535-.157.357-.079.833-.314 1.07-.392.18-.157.774-.314.893-.314.06 0 .178-.079.238-.079.119-.078.357-.157.595-.235.416-.079.773-.236.892-.314.06-.078.713-.314 1.07-.392.178-.079.416-.157.476-.236.119-.078.476-.235.713-.314a5.37 5.37 0 0 0 1.011-.392c.298-.157.595-.235.655-.235.119 0 .416-.157.892-.393.476-.235 1.308-.627 1.665-.706.297-.078.892-.314.951-.392l.476-.157c.238-.078.535-.157.654-.235.238-.157 2.26-1.02 2.617-1.099.179 0 .238.079.06.236-.179.235-.06.392.237.392.179 0 .357.078.595.392.06.079.179.157.238.079.119 0 .238.078.535.313.179.157.417.314.536.471.119.079.475.314.773.471.713.47.951.628 1.13.785.06.078.119.157.178.157.06 0 .119 0 .119.078.06 0 .238.235.416.392.476.471.833.942.952 1.256l.119.314c.119 0 .297 1.569.178 1.804-.06.236-.951.785-1.487.942-.475.157-2.319.157-2.795 0-.594-.236-.713-.236-1.368 0-.773.235-.951.392-1.248.784-.417.471-.774 1.727-.774 2.511 0 .314-.119 1.02-.237 1.648 0 .235-.06.55-.06.628 0 .392-.297 1.255-.476 1.49-.713.863-1.546 1.02-3.806.942-1.665-.157-2.2-.157-2.973-.314-.476 0-.892-.078-1.011-.078a.15.15 0 0 1-.238 0c-.12-.157-2.26-.157-2.617 0-.119.078-.357.078-.416.157-.12 0-.298.078-.417.156-.06 0-.178.079-.237.079-.12 0-.833.628-1.071.941-.357.393-.714.942-.714 1.02 0 0-.06.079-.119.236a.684.684 0 0 0-.119.314s-.059.157-.118.235a1.853 1.853 0 0 0-.298.628c-.178.392-.178.392-.713 1.412-.179.47-.476.863-.536 1.02a.869.869 0 0 0-.297.392c-.178.157-.714.628-.773.628-.06 0-.12.079-.179.079-.237.235-.951.392-1.427.392-.654 0-1.843-.314-3.092-.863-.298-.079-.714-.236-.952-.314-.297-.079-.535-.157-.595-.235-.178-.157-1.843-.707-2.26-.785-1.486-.235-2.2-.157-2.616.314-.179.314-.238.314-1.309 0-.713-.157-2.14-.706-2.319-.863-.06 0-.297-.157-.476-.236-.238-.157-.594-.314-.773-.47-.238-.079-.416-.157-.416-.157-.06.078-.12 0-.12 0 0-.079-.178-.079-.296-.157-.357 0-.476-.079-.298-.157.06-.079.12-.079.06-.157 0-.079-.655-.55-1.13-.785-.179-.078-.417-.314-.536-.392-.475-.392-1.784-1.099-1.903-1.02-.06.078-.416-.079-.594-.235-.238-.236-.476-.236-.536-.157 0 .157-.297.235-.475.078-.06 0-.298-.157-.476-.235-.238-.079-.416-.157-.416-.157-.238-.157-.417-.157-.536.078l-.119.157.179.314c.06.157.178.235.238.157.06 0 .119 0 .119.078.06 0 .178.079.356.079.12.078.357.157.536.235.119 0 .357.079.476.079.297 0 .475.157.773.784.06.079.238.236.297.236.06.078.238.235.357.392.119.235.238.392.297.392 0 0 .06.079.12.079.059.157.891 1.412 1.248 1.883.119.157.238.314.238.392.06.157 1.249 1.49 1.308 1.49.06 0 .06.08.06.08 0 .078 0 .156.06.156 0 0 .178.157.356.393.178.157.297.313.357.313l.119.157.119.157c.06 0 .119.079.178.157 1.19 1.491 1.606 1.962 1.725 2.197.06.079.178.157.238.236.06.078.119.156.119.235 0 .078.06.235.178.314.06.078.178.157.178.314.06.078.179.314.298.47.476.707 1.13 1.805 1.13 1.962l.119.157c.119.078.238.314.297.47.06.236.178.471.297.55.06.157.12.314.12.392 0 0 .059.079.178.157.06.079.119.157.119.236 0 .235.178.706.297.706.06 0 .06.078.06.157 0 .078.059.157.118.235.06 0 .12.235.179.47.06.393.178.55.297.472.06 0 .06 0 .06.156-.06.157 0 .236.06.393.118.078.178.314.237.549.06.157.238.785.476 1.334.178.55.357 1.02.357 1.098 0 0 .119.236.238.393.118.157.237.392.237.47 0 .079.06.236.12.393a.71.71 0 0 1 .118.392c0 .235.179.706.298.785 0 0 .06.078 0 .157 0 .078.178.627.297.706 0 0 .06.157.06.392 0 .157.059.47.118.628.06.235.12.549.179.706.06.157.119.392.119.392 0 .079.06.157.06.157 0 .079 0 .157.059.314 0 .078.119.55.238.942.119.47.237.863.297 1.02 0 .078.06.235.06.313.118.55.237 1.099.297 1.256 0 .078.119.47.119.863.119.55.178.784.297.941.119.157.119.157.06.314-.06.236.059 1.413.178 1.491.06 0 .06.157.06.314s.059.314.059.314c.119.235.238 2.197.297 3.53v.864c-.06.47-.06.863-.06.941v1.334c0 .157-.059.706-.118.785 0 .078.06.157.119.235.06.157.06.157 0 .157s-.12.078-.12.157c0 .078 0 .157-.059.157 0 0-.178.392-.238.549 0 .157-.118.392-.297.706-.06.236-.178.392-.178.47 0 .08-.06.158-.12.315-.059.157-.118.235-.118.314.06.078 0 .078-.06.078s-.238.079-.356.235c-.06.157-.238.393-.357.471-.179.079-.357.314-.417.393-.297.313-.535.549-.713.549-.06 0-.12.078-.179.078-.06.079-.119.157-.238.157-.059.079-.237.157-.356.236-.12.078-.238.078-.298.156-.06 0-.475.079-.892.236-.476.157-1.07.314-1.368.314-.297.078-.535.157-.594.157-.536.47-3.747.549-5.412.235-.298-.078-.773-.157-1.07-.235-.239 0-.536-.079-.655-.079-.06-.078-.773-.078-1.487-.157h-1.367c0-.078-.179 0-.298.079-.297.078-.654.078-2.735.157-.417 0-1.011 0-1.25-.079h-.118c-.12.079-.238.079-.357-.078-.179-.079-.357-.157-.476-.236-.119-.078-.357-.157-.476-.314-1.13-.627-1.367-.784-1.843-1.098-.298-.157-.654-.314-.773-.392-.12-.157-.357-.236-.476-.314-.12-.079-.595-.392-1.011-.628-.416-.314-.773-.55-.773-.55-.12-.078-.12.236 0 .393.06.157.06.157 0 .314-.12.079-.12.079.475.392.238.236.476.393.536.393.06.078.178.157.357.235.118.079.237.157.237.235.06 0 .12.079.179.079.06 0 .297.157.595.314.297.235.832.549 1.13.706.237.157.654.392.832.55.179.156.416.235.595.313.119.078.297.157.416.235.06.079.297.157.535.236.179 0 .536.157.714.157.535.157 2.914.078 3.628-.079.416-.078 2.795 0 3.39.079.237.078.594.157.773.157.238.078.654.157 1.07.235.357 0 .654.078.714.078 0-.078.119 0 .297 0 .654.236 1.546.236 2.974 0 .416 0 .476 0 .535.157.06.157.119.864.06.864 0 .078 0 .235-.06.392 0 .157 0 .628-.06.941-.059.863-.059 1.57 0 3.139.06.706.06 1.804.12 2.432 0 1.412 0 1.57.118 2.354 0 .314.06.706.06.785 0 .47.06 1.333.119 1.49 0 .079.06.314 0 .55 0 .313 0 .549.06.549v2.668c.059.157.059.392 0 .627 0 .236 0 .314.059.393.06.078.06.078 0 .235-.06.078-.06.314-.06.785 0 .392-.06.863-.06 1.02-.059.235-.059.392 0 .549.06.157.06.314.06 2.197 0 .627 0 1.412.06 1.804v1.413c0 .235 0 .549.06.627.059.079.059.236 0 .314-.06.236 0 3.139.059 4.002V164.064c-.06 4.787-.06 6.356.06 6.513 0 .157.059.392.059.47.06.314.297.471.416.236.06-.079.119-.157.178-.157.06 0 .06-.942.06-2.354-.06-2.51 0-3.845.119-4.001.06-.079.06-.157 0-.157s-.06-.863-.12-3.06c0-2.825 0-3.688-.118-5.963-.06-1.648-.06-5.336-.06-8.553 0-1.726-.06-3.844-.06-4.708-.059-1.961-.237-4.864-.296-5.021 0-.079 0-.942-.06-1.883 0-1.02 0-2.276-.06-2.825-.059-.941-.059-1.255.06-2.432.06-.706.06-1.57.06-1.962 0-.706 0-.706.178-.706 0 0 .238-.078.535-.157.238-.078.535-.157.714-.157.297-.078 1.487-.549 1.546-.627.06-.079.12-.079.179-.079.237 0 1.427-.863 2.081-1.412.357-.314.833-.942.833-1.099l.119-.157c.118-.157.773-1.412.773-1.569 0-.078 0-.157.06-.235.059-.079.118-.314.118-.55.06-.156.179-.549.238-.706.178-.706.119-6.826-.06-7.689-.118-.392-.237-1.02-.356-1.57 0-.156-.06-.47-.12-.627a2.508 2.508 0 0 1-.118-.55c0-.156-.06-.47-.12-.784-.059-.314-.118-.627-.118-.784-.06-.157-.654-2.668-.773-3.217-.238-.706-.298-1.099-.357-1.334-.119-.785-.892-3.06-1.011-3.06-.06 0-.06 0-.06-.079.06-.078-.118-.549-.178-.549s-.06 0 0-.078c.06-.157-1.546-4.394-2.379-6.199-.178-.47-.476-1.02-.535-1.255-.119-.157-.178-.314-.238-.392 0 0-.119-.236-.178-.393-.12-.157-.238-.392-.298-.47-.356-.236-.416-.314-.356-.471.118-.079.118-.157-.179-.628-.119-.235-.357-.706-.476-.863-.178-.157-.416-.55-.535-.785-.178-.235-.297-.47-.357-.549 0 0-.178-.235-.357-.55-.178-.235-.356-.47-.416-.47l-.06-.078c0-.236-.891-1.256-1.01-1.177l-.12-.157c-.059-.157-.059-.236-.118-.236-.06 0-.12-.078-.179-.235-.06-.079-.178-.157-.238-.157-.059 0-.178-.157-.356-.392-.179-.157-.298-.314-.357-.314 0 0-.06-.079 0-.079 0-.078-.06-.235-.238-.313-.119-.079-.238-.157-.238-.236 0 0-.119-.157-.297-.314-.298-.235-.476-.47-.476-.627 0-.079-.119-.314-.297-.471a6.886 6.886 0 0 1-.476-.785l-.476-.627c-.119-.079-.238-.236-.238-.314 0-.079-.773-1.177-.892-1.177s-.178-.314-.119-.314c0-.079.238.078.476.235.238.157.535.314.654.393.12.078.297.157.357.235.476.314 2.557 1.648 2.617 1.648.06 0 .119 0 .178-.079.119 0 .119 0 .119.157-.06.079 0 .157.416.392.298.157.536.314.595.314 0 .079.535.236 1.19.471.118.079.475.235.713.235.892.314 1.19.471 1.19.707.059.392.416.235 1.01-.55.179-.235.238-.235.714-.313.416 0 1.665.156 2.141.313.06.079.238.079.297.079.179.078.893.392 1.785.706.178.078.535.235.773.314.178.078.357.157.476.157.356.157.594.235.892.314.178 0 .297.078.356.078 0 .079.06.079.179.079s.178 0 .178.078c.06 0 .179.078.298.078s.416 0 .713.079c.595.078 1.487-.079 1.665-.314.06-.078.179-.157.179-.157.357.236 2.022-1.49 2.32-2.432.059-.157.178-.392.297-.55.059-.156.118-.313.118-.47 0-.079.06-.157.12-.236 0 0 .059-.078.059-.156 0-.079.06-.157.119-.236 0-.078.119-.314.238-.47.06-.236.178-.471.238-.55.06-.078.119-.235.06-.314 0-.078 0-.157.059-.157s.178-.157.178-.313l.178-.236c.06 0 .12 0 .12-.078 0-.079.059-.079.059-.079.06 0 .238-.078.357-.235.832-.863 2.26-1.02 4.698-.706.535.078.892.157 2.795.314 1.249.156 3.509 0 3.509-.157 0-.079.06-.079.119-.079.178 0 1.13-.628 1.19-.784.059-.079.178-.236.296-.314a.553.553 0 0 0 .179-.236c0-.078.06-.157.06-.235.059-.079.118-.235.118-.47.06-.158.12-.393.12-.472.059-.078.178-.706.237-1.02 0-.157 0-.549.06-.863 0-.235 0-.549.06-.706.059-.078.059-.392.059-.628.059-.313.059-.549.118-.627.06-.079.12-.314.179-.471.178-.785 1.01-1.177 2.14-.942.239.079.596.079.655.157 1.368.236 2.736 0 3.27-.627.06-.079.18-.079.417-.079.238.079.357 0 .417 0 0-.078.118-.157.178-.157.119 0 .178-.078.178-.235 0-.314.12-.47.476-.706.179-.157.416-.393.535-.628.298-.47.714-1.02 1.011-1.334.12-.157.238-.392.298-.47 0-.158.119-.314.238-.471.178-.157.297-.314.297-.393l.178-.235c.06-.079.238-.157.298-.235.06-.079.238-.157.357-.236h.237l-.178.157c-.178.235-.416.942-.476 1.49 0 .393 0 .472.357.55.297.079.595-.157.535-.55 0-.078-.06-.235 0-.313 0 0 0-.078-.06-.078-.178-.236.18-.942.715-1.413.237-.235.356-.235 3.27-.235.417 0 .833.078 1.309.314.832.47 3.39 2.118 3.628 2.432.059 0 .118.078.178.078s.119.079.178.157c.12 0 .179.079.238.079.06 0 .12.078.179.157.06 0 .06.078.119.078 0-.078 1.13.706 1.367.942.12.078.298.235.357.314a.434.434 0 0 1 .179.313c0 .079-.06.236-.179.393-.06.078-.238.392-.357.627-.297.393-.832.785-1.308.864-.119.078-.357.156-.476.235-.119.078-.297.157-.357.157-.059-.079-.356 0-.594 0a5.024 5.024 0 0 0-1.13.314c-.06.078-.298.078-.535.157-.238 0-.476.078-.536.078-.06 0-.238.079-.416.157-.238.078-.416.157-.476.157-.06.078-.238.235-.357.314-.178.078-.416.314-.475.47-.12.236-.238.393-.238.393-.06 0-.417.706-.417.863-.059.078-.118.157-.118.235-.06.079-.12.157-.06.314 0 .157 0 .314-.06.314-.059.078-.059.157-.059.314s0 .235-.06.235c-.059 0-.059.079-.059.079 0 .078 0 .314-.06.47 0 .157-.059.628-.118.942-.06.392-.12.628-.12.706-.059 0-.059.079 0 .157 0 .079-.059.314-.118.55-.06.235-.12.47-.12.549.06.157 0 .313-.118.627-.06.157-.119.393-.119.471 0 .079-.06.157-.06.314-.118.157-.237.078-.654-.47-.119-.158-.416-.472-.535-.629-.178-.156-.416-.392-.476-.549-.119-.078-.356-.314-.535-.549-.357-.392-.951-.863-1.07-.863-.06 0-.179-.079-.298-.157l-.238-.157c-.119 0-1.308-.863-1.605-1.255-.892-1.02-1.309-2.354-1.13-4.002.06-.392.06-.863.06-.941.059-.079.118-.236.178-.314.06 0 .119-.157.119-.236 0-.078.06-.157.119-.235l.059-.079c0-.078.178-.313.416-.627.536-.706.417-.942-.357-.55-.356.157-.713.55-.892 1.02-.119.236-.237.628-.297.864-.119.313-.178.549-.238.941 0 .236-.06.628-.06.706-.118.314.18 1.805.358 2.119 0 .078.059.157.059.157 0 .157.357.863.416.863.06 0 .06 0 .06.078 0 .079.06.236.238.471.773.942.951 1.099 3.092 2.432.179.157.416.314.535.393.06.078.179.157.238.235 0 0 .06.079.06.157l.06.078c.059 0 .178.079.237.236.119.157.416.47.833.941.297.314.832.942.892 1.02.119.157.416.471.535.471.119 0 .476-.47.476-.706.06-.078.119-.628.238-1.177.238-1.098.416-2.275.416-2.668.06-.157.06-.47.119-.784.06-.236.178-.706.238-1.02.06-.55.119-.628.416-1.491.238-.55.654-.942 1.13-1.177.178 0 .476-.157.654-.235.12 0 .535-.157.833-.157.357-.079.654-.157.713-.236.06 0 .238-.078.476-.078.179-.079.714-.157 1.19-.314 1.13-.392 1.605-.628 2.022-1.412.356-.628.416-.55.416.47a9.73 9.73 0 0 1-.297 2.433c-.06.235-.12.392-.12.392-.178.235-.297.235-.416.079-.416-.471-1.13-.628-1.367-.314-.238.235-.06.549.356.549.12 0 .179.314.06.47-.06.08-.06.158 0 .315.238.549.178.627-.357.47-.357-.078-.476-.078-.595 0-.357.157-.238.863.179.942.119.078.357.314.951.941.179.236.357.393.417.393.059 0 .178.157.237.235.06.157.179.314.179.314.06 0 .178.078.297.235.12.157.238.314.298.314.059.079.237.236.356.314.773.785 1.13.863 1.368.235.238-.627.714-1.176 1.13-1.176.476 0 .535-.55.06-1.02-.12-.079-.238-.236-.238-.314-.06 0-.06-.079-.12-.079-.059 0-.594-.47-1.01-.863-.179-.157-.298-.235-.357-.235 0 0-.178-.157-.357-.393l-.357-.313c-.06 0-.119-.079-.178-.157-.06-.236-.06-.236.06-.393.059-.078.118-.314.178-.392a.71.71 0 0 1 .119-.392c0-.157.06-.236.06-.314 0-.157.059-.392.118-.55.06-.235.06-.706.12-1.569 0-.627 0-1.177.059-1.333 0-.157-.06-.236-.357-.314-.179 0-.179-.157-.12-.314.239-.392.12-.55-.475-1.099-.119-.157-.297-.235-.357-.235s-.178-.078-.238-.235c-.119-.157-.297-.236-.416-.314-.06-.079-.178-.157-.178-.157l-.238-.157c-.12-.079-.238-.157-.298-.235-.06 0-.178-.079-.297-.079-.06-.078-.178-.157-.238-.235-.06 0-.238-.236-.476-.314a7.448 7.448 0 0 1-.713-.55.848.848 0 0 0-.298-.235c-.06 0-.178-.078-.297-.157l-.238-.157c-.06 0-.238-.078-.357-.235-.119-.157-.297-.235-.357-.235-.059 0-.475-.236-.951-.55-.416-.313-.833-.549-.952-.549-.06 0-.178-.078-.238-.157-.118-.078-.237-.078-.416-.078h-.357c0-.079-.238-.079-.654 0h-1.13c-1.724-.079-1.605-.079-1.724.157-.179.314-.298.314-.238.078 0-.235.297-.628.416-.628 0 0 .178-.157.297-.313.179-.157.357-.314.417-.314 0 0 .178-.157.297-.314.119-.236.416-.55.714-.863.297-.314.475-.55.535-.706.06-.314.238-.628.416-.707.179 0 .238-.156.654-1.02.12-.156.298-.47.476-.706.179-.157.297-.392.297-.47 0-.079.06-.157.12-.236.059 0 .237-.235.356-.392.179-.314.476-.785 1.07-1.57.12-.235.18-.392.18-.549 0-.157 0-.313.059-.392.06-.157 0-.392-.179-.55-.178-.078-1.01-.156-1.249-.078zm.595 1.02c0 .157-.178.471-.476.863-.238.393-.594.864-.773 1.099-.119.314-.357.628-.416.706-.12.157-.179.314-.179.314 0 .078-.237.47-.535.941-.357.471-.595.864-.595.942 0 .078-.594.785-1.13 1.412-.237.157-.416.393-.416.393s-.119.157-.238.235c-.178.157-.356.314-.475.392-.12.157-.298.314-.357.393-.06.157-.12.235-.179.235-.119.078-.892-.47-.951-.628-.06-.157-.298-.235-.298-.078 0 .078 0 .157-.059.157-.119 0 .119.392.357.549.119.078.297.235.357.314l.119.157-.179.235c-.476.706-1.665.785-2.32.157a2.777 2.777 0 0 0-.534-.47 2.769 2.769 0 0 1-.536-.707 2.602 2.602 0 0 0-.238-.47c-.06 0-.119-.236-.237-.471-.298-.863-.357-1.02-.595-1.256-.12-.157-.357-.314-.476-.392-.119 0-.238-.079-.357-.157-.06-.157-.119-.157-.238-.078-.119 0-.178 0-.178-.079 0-.078.06-.157.119-.157.238 0 1.725-.784 1.843-.941.06-.079.12-.079.179-.079.06 0 .119-.078.238-.078.119-.157.832-.471.951-.471.06 0 .12 0 .892-.47.179-.158.476-.236.536-.236.119 0 .178-.079.237-.079.06-.078.238-.157.417-.235.416-.157 1.368-.55 1.487-.706.119 0 .178-.079.237-.079.06 0 .238-.078.476-.157.238-.157.595-.313.892-.392.238-.078.476-.157.536-.157.059-.078.475-.157.892-.314.416-.078.892-.235 1.13-.235.237-.079.535-.157.773-.157h.356l-.059.235zm-14.749 4.237c1.011.471 1.011.55-.178 1.02-.476.157-.892.314-.952.393-.06.078-.178.078-.357.078-.297-.078-.356-.078-.416 0l-.119.157c-.06 0-.119.078-.178.078l-.12.157c-.118-.157-1.843.55-2.437.942-.238.157-.298.078-.12-.235.12-.079.179-.314.238-.55.06-.157.12-.392.179-.549 0-.078.06-.314.06-.392 0-.236.297-.706.416-.706.06 0 .178-.079.238-.079.178-.157.832-.314 1.605-.392.535 0 .654.078.298.392-.179.079-.476.314-.655.55-.237.235-.059.47.179.313.476-.314.892-.784.892-.941 0-.079.06-.079.119-.079.06 0 .178-.078.297-.157.238-.157.714-.157 1.011 0zm2.022 1.491c.417.47.476.47.476.079 0-.079-.06-.236-.06-.236-.059 0-.059-.078-.059-.157 0-.078.06-.078.416.079.476.235.773.627 1.07 1.334.12.313.239.549.298.627 0 0 .06.079.06.157 0 .236.892 1.413 1.19 1.648.177.078.356.235.415.235.298.236.714.393 1.19.471.178.079.238.157.119.235-.06.079-.238.393-.476.628-.773 1.256-1.546 2.197-1.725 2.197 0 0-.06-.235-.119-.55-.06-.235-.119-.548-.178-.705 0-.079-.06-.236-.06-.236 0-.314-.773-1.412-1.189-1.726-.119 0-.178-.078-.178-.157 0-.078-.357-.314-.417-.314s-.238-.157-.416-.392c-.178-.157-.357-.314-.416-.314-.06 0-.12-.078-.238-.078a1.256 1.256 0 0 0-.416-.314c-.12 0-.417-.236-.595-.392-.179-.079-.357-.236-.416-.236-.06 0-.179-.078-.238-.157 0-.157-.12-.235-.179-.314-.178 0-.832-.706-.832-.863 0 0 .178-.078.416-.157.416-.157.714-.313.892-.392.357-.235.595-.314.654-.235.06.078.12.078.298 0 .297-.236.356-.157.713.235zm18.971 15.065c.06.078.298.314.536.47 1.546 1.334 1.546 1.334 1.368 1.57-.06.078-.12.157-.12.235l-.237.157c-.179 0-.179 0-.536-.47-.535-.628-1.308-1.648-1.486-1.962l-.179-.314.238.078c.12 0 .298.079.416.236zM68.213 68.655a.869.869 0 0 0-.297.392c-.06.078-.12.314-.238.392-.178.314-.238.471-.416.863-.06.236-.238.628-.714 1.57-.119.235-.238.47-.238.549-.06.078-.297.549-.535 1.098-.297.471-.535.942-.595 1.099-.06.235-.357.863-.476 1.098 0 .157-.059.314-.118.471-.06.235-.179.706-.298 1.098l-.238.785c0 .079-.06.157-.06.314-.059.078-.118.235-.178.47 0 .158-.119.471-.178.785-.119.314-.178.628-.238.785-.119.392-.297 1.02-.357 1.177-.06.157-.178.628-.357 1.098-.119.55-.297 1.02-.356 1.177 0 .079-.06.157-.06.236 0 .078-.119.313-.238.706-.357 1.098-.535 1.49-.773 2.354-.238.863-.535 1.961-.535 2.118 0 .079-.06.236-.12.392-.059.236-.118.393-.118.393 0 .078-.06.235-.119.392 0 .157-.119.392-.178.55-.12.47-.238 1.176-.238 1.725 0 .942.297 2.668.476 2.904 0 .078.059.235.059.392.06.314.357 1.255.654 2.04.12.392.298.863.298 1.02.118.392.416 1.334.535 1.57.06.078.119.234.178.391.06.236.238.55.357.707.06.235.178.392.178.47l.238.314c.12.157.238.393.357.55.357.784 1.903 3.06 2.022 3.06 0 0 .06.078.06.156.06.079.178.314.356.471.357.392.655.706.893 1.02.237.314.773.863.892.863.237 0 .654 0 .654-.078.119-.079-.12-.471-.238-.55-.06 0-.12-.078-.12-.078 0-.078-.296-.47-.415-.47l-.12-.158c0-.078-.237-.313-.475-.627-.535-.628-1.427-1.805-1.784-2.354a22.75 22.75 0 0 0-.892-1.491c-.298-.55-.654-1.02-.714-1.177l-.119-.157c0-.078-.119-.235-.178-.47-.179-.314-.654-1.491-.654-1.57 0-.078-.06-.314-.179-.55a5.58 5.58 0 0 1-.178-.548c0-.079-.06-.314-.12-.55-.118-.235-.237-.627-.356-.863a4.495 4.495 0 0 0-.178-.706c-.298-.941-.417-1.569-.536-2.824-.119-1.02 0-1.727.298-2.747.06-.078.178-.47.238-.784.059-.236.118-.55.178-.628 0-.078 0-.157.06-.235 0-.236.118-.785.237-.942 0-.078.06-.314.12-.628.178-.549.297-.941.356-.941 0-.079.119-.235.178-.47.06-.158.179-.629.298-.864.06-.314.178-.628.178-.706 0 0 0-.157.06-.235.178-.393.594-1.57.594-1.648 0-.079.06-.392.179-.628.06-.314.119-.55.119-.706-.06-.078 0-.235.119-.392.178-.236.178-.314.178-.628 0-.392 0-.47.06-.47s.178-.158.238-.315c.237-.706.416-1.569.535-2.118.06-.314.178-.706.238-.863.119-.157.178-.392.178-.392 0-.157.476-1.256.654-1.648.12-.157.238-.471.298-.628.059-.078.178-.314.237-.47.06-.08.179-.315.179-.393.06-.157.119-.235.178-.235.06 0 .06 0 .06-.079 0-.078.06-.235.178-.392.12-.157.179-.314.179-.392 0-.079 0-.079.06-.079.059 0 .118-.157.177-.392.12-.236.298-.628.417-.942.178-.235.297-.627.416-.706.06-.157.178-.392.297-.55.298-.313.298-.313 0-.548-.237-.314-.416-.314-.654 0zm82.07 5.1c-.119.157-.119.549-.178 1.333-.06 1.413 0 1.57.119 3.531 0 .236 0 .628.06.863v.785c.059.47.178 1.962.237 2.668.06.392.06.784.06.941.059.785.119 1.334.178 1.413.06 0 .06.156.06.392 0 .314 0 .392.118.392.06 0 .06.079.06.314-.06.157 0 .47 0 .55.06.156.06.47.119.784.06.47.119.784.357 1.57 0 .235.06.47.119.627.06.392.356 1.648.535 2.51.06.314.178.628.297.785.06.157.12.314.12.393 0 0 .059.235.178.47.059.236.118.393.118.471l.714 2.04c.12.235.179.47.179.55 0 .078.416 1.098.475 1.255.06.078.12.235.179.392.06.235.119.47.178.55.06.156.12.235.12.313 0 .079.118.392.237.55 0 .078.119.313.178.47.12.157.238.55.357.785.12.314.238.706.357.863.06.157.178.392.238.47 0 .079.06.158.06.236a1 1 0 0 0 .178.47c.119.236.178.393.178.472l.12.313c.059.157.118.393.118.393 0 .078 0 .157.06.157.059 0 .178.313.297.706.178.392.357.784.476 1.02.119.157.178.47.238.549 0 .078.059.392.178.55.06.235.178.627.238.862.06.236.178.471.178.471.06.079.06.157.06.235 0 .157.119.471.238.864.119.313.238.706.238.784 0 .079.059.236.118.314l.12.314c-.06.078 0 .235.059.314.06.157.119.235.119.314-.06 0 0 .156.06.235.059.157.118.314.118.392 0 .079.12.393.238.785.06.314.179.55.179.628 0 0 .059.156.059.313a.71.71 0 0 1 .119.393c0 .078 0 .157.06.157 0 .078.059.235.059.392.06.157.119.314.119.392.119.236.178.55.238.863.06.236.119.471.178.55 0 0 .06.157 0 .157 0 .078.06.313.12.549.118.314.177.549.118.549 0 .078.06.157.06.235.059.079.118.236.118.314 0 .157.06.314.06.471.06.078.119.235.119.314 0 .078.06.235.119.392 0 .157.06.236.06.314 0 .078.178.863.237.942 0 .078.12.47.179.863.118.47.237.863.237.941.06.236.298 1.256.238 1.256 0 0 .06.078.06.156.06.079.119.236.119.314 0 0 .06.157.06.314.059.079.059.236.118.236 0 .706.06 1.02.12 1.02 0 .078.059.313.059.627.059.236.118.628.178.785 0 .157.06.47.119.706 0 .314 0 .706.06.863.059.236.059.628.059.785 0 .157.06.392.06.392 0 .079.059.314.059.55.119 1.02.178 1.725.238 1.804.06.078.06.392.06 1.02 0 .157 0 .392.059.392.06.079.06.236 0 .393 0 .156 0 .313.06.392.118.078.118.157.059.157-.12.157-.06 1.02.059 1.177.06.157.06.157 0 .235-.119.079-.119.314 0 1.726 0 .942.06 1.805.06 1.883 0 .55.178 3.06.237 3.06 0 .079.06.471.06.785 0 .392 0 .863.06.942 0 .156.059.941.059 1.647.06.785.119 1.648.178 1.805 0 .47.06.784.06 1.334.06.235.06 1.177.119 2.118.06.942.119 1.805.06 1.883 0 .236-.06.314-.12.157-.06-.078-.119-.078-.178-.078-.238 0-.238.314.06 1.412.059.392.772.628.95.314.06-.079.18-1.962.12-2.276v-1.098c-.06-1.177-.12-2.59-.238-3.766-.06-.47-.12-.863-.12-1.02 0-.628-.118-1.726-.118-1.805-.06 0-.06-.627-.119-1.255 0-.706-.06-1.57-.06-1.962-.059-.314-.059-.863-.118-1.098 0-.157 0-.55-.06-.706v-1.256c-.06-.47-.06-1.098-.119-1.412-.06-.314-.06-.55 0-.55.06-.078.06-.156.06-.235-.06-.078-.06-.392-.06-.706-.06-.314-.06-.706-.06-.941-.059-.157-.059-.707-.059-1.256-.06-.549-.119-1.098-.178-1.255 0-.157-.12-.47-.12-.785-.059-.549-.059-.627-.118-1.49a4.487 4.487 0 0 1-.119-.628s-.06-.157-.06-.236c0-.627-.059-1.098-.118-1.177-.06 0-.06-.078 0-.235 0-.157 0-.314-.06-.392 0-.157-.06-.471-.119-.863-.06-.314-.119-.785-.178-.942 0-.157-.06-.55-.06-.706-.06-.235-.119-.628-.238-.942a3.204 3.204 0 0 1-.178-.784c0-.079 0-.236-.06-.314-.059 0-.118-.235-.118-.47-.179-.55-.357-1.256-.417-1.335 0-.078-.06-.314-.119-.47 0-.157-.06-.55-.119-.785a4.487 4.487 0 0 1-.119-.628c-.06-.157-.119-.392-.178-.549-.06-.235-.178-.55-.178-.706-.06-.392-.238-1.02-.476-1.883-.06-.157-.179-.471-.179-.785-.178-.628-.356-1.255-.416-1.255 0 0-.06-.157-.06-.314-.059-.157-.118-.392-.178-.55 0-.156-.06-.392-.119-.549a.71.71 0 0 0-.119-.392c-.06-.157-.238-.863-.178-.863 0-.078-.06-.078-.06-.157a.46.46 0 0 1-.118-.314c0-.078 0-.157-.06-.157 0-.078-.06-.235-.119-.47-.06-.157-.178-.628-.357-1.02-.297-.864-.416-1.177-.416-1.334 0-.079-.06-.236-.119-.393-.119-.47-.178-.47-.178-.784-.06-.157-.12-.236-.179-.314l-.06-.079a.684.684 0 0 0-.118-.313c-.06-.157-.12-.236-.12-.314.06 0 0-.157-.118-.314-.06-.157-.119-.314-.119-.392 0-.079-.297-.785-.357-.863-.06 0-.06-.079-.06-.157 0-.079-.059-.236-.178-.393-.119-.157-.178-.314-.178-.392 0-.157-.476-1.412-.773-1.883-.06-.079-.179-.392-.238-.55-.06-.156-.179-.549-.298-.706-.118-.235-.178-.392-.178-.47 0-.079-.06-.236-.119-.471-.297-.706-.773-2.04-.773-2.197-.06-.078-.119-.235-.238-.392a.778.778 0 0 1-.178-.471c0-.157-.298-1.02-.417-1.177 0-.078-.06-.235-.119-.47-.059-.158-.059-.315-.118-.393-.06 0-.179-.392-.357-.942-.06-.235-.179-.549-.298-.706a1 1 0 0 1-.178-.47c0-.079-.06-.314-.119-.471-.06-.157-.119-.314-.119-.393 0-.078-.06-.157-.06-.313-.059-.079-.118-.157-.059-.236.06-.078.06-.157 0-.157-.06-.078-.06-.157-.06-.314a.684.684 0 0 0-.118-.313c-.06-.079-.06-.157 0-.314 0-.157 0-.236-.06-.236-.06-.078-.06-.157-.06-.314a.684.684 0 0 0-.118-.313c-.06-.157-.12-.236-.06-.314.06-.079 0-.236-.06-.393-.118-.157-.118-.235-.059-.313.06-.079 0-.314-.237-1.02-.06-.236-.12-.707-.179-1.02-.06-.314-.119-.628-.119-.707-.06-.078-.06-.157 0-.235.06-.078.06-.157 0-.235-.06 0-.06-.157 0-.314 0-.157 0-.314-.06-.314-.059-.079-.059-.157-.059-.314s-.06-.392-.119-.47c-.119-.236-.119-.315-.06-.471.06-.157.06-.236 0-.236-.059-.157-.059-.863 0-1.02.06-.078.06-.235 0-.235-.059-.157-.118-.55-.118-1.256 0-.313-.06-.627-.06-.706-.06-.078-.06-.235 0-.392.06-.079.06-.235 0-.235 0-.079-.06-.393-.119-.628-.059-.314-.059-.628-.118-.628 0-.078 0-.157.059-.157.06-.078.06-.157 0-.157-.06-.078 0-.47.06-.549 0-.078 0-.392-.06-.785-.119-.549-.119-.706-.06-.863.06 0 .06-.235.06-.47.06-.393.119-.628.297-.707.06 0 .12-.078.12-.157 0-.078.059-.156.059-.156.178-.157-.12-.314-.476-.314-.357 0-.416 0-.476.157zM82.665 77.05c-.357.235-.536.392-.952.942-.535.627-.535.627-.892 1.177-.178.235-.416.549-.476.706-.119.078-.238.392-.357.627-.118.236-.237.471-.297.55 0 .078-.06.157-.06.235 0 0-.059.157-.118.235-.12.079-.179.157-.12.157 0 .079 0 .079-.059.079-.119 0-.178 0-.178.235-.06.47-.238 1.02-.416 1.02-.06.079-.12.079-.12.157.06.079-.118.235-.178.235-.06-.078-.119 0-.119.079 0 0 .06.078.12.078.118 0 .059 0-.12.628-.119.314-.238.628-.238.706a.684.684 0 0 0-.119.314c-.059.079-.059.235-.059.314 0 .078-.06.235-.119.314-.06.157-.178.47-.178.706-.06.314-.179.628-.179.706-.06.157-.178.47-.178.785-.06.314-.12.549-.12.627a.71.71 0 0 1-.118.393c0 .157-.06.47-.119.863 0 .314-.06.706-.06.863-.059.157-.059.55-.059.941 0 .393-.06.707-.06.785-.059.157-.059.235.06.392.06.157.119.393.119.628 0 .785.357 1.02.773.55l.12-.236-.06-.942c-.06-.863-.06-.863.06-1.02.118-.157.118-.157 0-.47-.12-.393-.12-.863-.06-1.02.119-.157.119-.236.06-.236-.06-.078-.12-.157-.06-.235 0-.236.119-.314.178-.157.06.078.119.157.178.157.12 0 .12 0-.059-.157-.119-.235-.119-.314-.119-.706.06-.314.06-.55.119-.55.06-.078.06-.235.06-.392 0-.392.178-.784.297-.784.06 0 .119 0 .119-.079 0-.078 0-.078-.06-.078s-.06-.471.06-.628c0-.157.06-.314.06-.47 0-.158.059-.236.118-.236 0-.079.06-.157.06-.157 0-.079.06-.157.178-.236.119-.078.119-.078.06-.235-.12-.235.059-.47.237-.314.06.079.12.079.179 0 0-.078-.06-.078-.06-.157h-.238c-.119-.078-.119-.314 0-.47.12-.157.179-.236.179-.314 0 0 .06-.079.119-.079.06 0 .06 0 0-.157-.12-.235-.12-.235.06-.392.237-.314.416-.706.416-.785 0-.078.059-.235.118-.313.06-.079.12-.157.12-.236-.06-.157.178-.392.297-.47l.119-.158c0-.156.178-.235.297-.156.06.078.06.078 0-.157-.06-.157 0-.236.06-.393.059-.078.119-.314.119-.392.059-.235.059-.314.178-.314.06 0 .119-.078.178-.235.12-.393.179-.393.298-.471.06 0 .297-.314.535-.628.238-.314.595-.706.773-.941.297-.393.416-.55.297-.785-.119-.157-.297-.078-.594.157zm83.08.706c-.237.157-.178.706.12.863.06 0 .06.236-.06.393-.06.078-.06.157-.06.392.06.157.06.235-.059.235-.06.079-1.07-.314-1.13-.392-.06-.078-.119-.078-.178-.078-.06 0-.12-.079-.179-.157-.059-.079-.119-.157-.178-.157-.06 0-.238.392-.238.549 0 .078-.06.157-.06.235-.059.079-.118.157-.118.236 0 .078 0 .235-.06.235-.238.157-.713.314-1.01.392-.536.079-.595.079-.595.393v.314c.059.156 1.427.156 1.665 0 .119-.079.297-.157.416-.236.119-.078.238-.235.357-.392.119-.314.238-.314.476 0 .178.157.297.314.297.314.06 0 .178.157.892 1.098.416.47.773.942 1.19 1.334.178.157.654-.078.654-.314 0-.157.178-.863.297-1.02 0-.078.06-.235.119-.392 0-.079.06-.314.119-.392.06-.079.119-.157.119-.236 0-.078.06-.235.178-.392.12-.236.12-.392-.06-.628-.059-.078-.118-.157-.178-.157s-.178-.078-.356-.235c-.179-.157-.357-.236-.357-.236-.06 0-.238-.156-.476-.313-.178-.236-.357-.393-.416-.393-.06 0-.06-.078 0-.235 0-.314-.12-.47-.357-.47-.12 0-.238 0-.357-.08-.178-.156-.297-.156-.416-.078zm1.25 3.531c.416.314.475.392.416.55-.12.313-.535.078-1.011-.628-.297-.471-.238-.471.595.078zM146.12 79.09c-.238.235-.297.628-.297 1.412.06.393.06.863.06 1.02 0 .157 0 .393.059.471.06.157.06.47.119.785.06.314.06.627.119.706.06.235.238.941.238 1.098.06.079.06.157.06.236.059 0 .059.157.059.235 0 .236.118.706.237.863 0 .079.06.314.06.55 0 .235.06.549.119.627.06.079.119.236.119.314.06.078.178.392.297.706.06.314.179.628.238.785 0 .157.06.314.119.392 0 .079.06.157.06.314 0 .314.118.47.297.392.178 0 .178 0 .178.55.06.313.12.627.12.784.059.079.118.236.118.314 0 0 0 .157.06.235.059.236.297.785.416 1.177.06.157.119.314.178.314.06 0 .06.157.12.314 0 .157 0 .47.059.628.178.47.654 1.883.773 2.275.06.157.119.314.119.392 0 .079.06.236.119.314.06.079.119.236.119.314 0 .079.535 1.648.594 1.726.12.157.12-.235 0-.392-.119-.157-.238-.706-.356-1.099 0-.078 0-.156-.06-.235 0-.078.06-.078.119-.078.119 0 .119 0 .119-.236-.06-.157-.238-.549-.416-.784-.06-.079-.06-.157 0-.157.06-.079 0-.157-.06-.314s-.119-.314-.119-.47c0-.236 0-.393-.119-.786 0-.078-.06-.156-.06-.235-.059-.078-.059-.157-.118-.235 0-.079-.12-.393-.238-.706-.119-.314-.238-.785-.297-.942a1 1 0 0 1-.179-.47s0-.158-.06-.236c-.059-.157-.118-.392-.178-.55 0-.156-.06-.313-.119-.313 0 0-.06-.079-.119-.236 0-.157-.059-.313-.178-.392a.684.684 0 0 1-.119-.314c0-.157-.06-.314-.119-.47-.119-.236-.178-.393-.119-.471l-.119-.314c-.06-.157-.119-.393-.178-.471-.12-.55-.238-.863-.416-.863-.179 0-.238-.157-.12-.55.06-.313.06-.313-.059-.47-.119-.157-.119-.314-.119-.47a.643.643 0 0 0 0-.472.46.46 0 0 1-.119-.313c0-.079 0-.157-.06-.236-.059 0-.059-.157-.059-.235a.71.71 0 0 0-.119-.393c-.119-.078-.119-.078-.06-.235.06-.235.06-.235-.059-.235-.119-.079-.178-.314-.059-.314.06 0 .06-.079 0-.157-.06-.079-.06-.157-.06-.314 0-.078-.059-.235-.118-.392-.12-.157-.12-.157-.06-.236.119-.157.119-.706 0-1.333-.06-.157-.06-.393-.06-.55 0-.078-.059-.157-.118-.235-.06-.157 0-.235.06-.392.059-.157.118-.471.118-.707 0-.313 0-.392-.119-.392s-.178.079-.238.157zM99.792 89.212c-.119.078-.297.078-.356.157-.536.078-.774.157-1.19.392-.238.078-.476.235-.535.235-.238.079-1.011.628-1.665 1.02-.357.236-.655.393-.714.393 0 0-.297.157-.535.313-.298.236-.714.471-.892.55-.536.235-1.011.549-1.665.941-.179.079-.357.157-.417.157-.119 0-.178 0-.178.079 0 0-.12.157-.238.235-.178.157-.357.314-.476.47-.06.08-.178.158-.178.158-.12 0-.535.549-1.011 1.255-.238.392-.654.942-.833 1.255-.178.314-.357.55-.357.628-.475.942-.713 1.962-.773 2.982 0 .392 0 .863-.06 1.02 0 .47.12.706.298.627.06 0 .119 0 .119.079.178.314.654-.157.535-.55-.06-.235.06-1.882.238-2.667.179-.706.476-1.334 1.011-2.04.06-.157.298-.55.535-.863a7.646 7.646 0 0 1 1.844-1.883c.297-.157.535-.393.595-.471.06 0 .119-.078.178-.078.12 0 1.665-.785 1.963-1.02.06 0 .297-.157.475-.314.179-.079.357-.157.417-.236.06 0 .119-.078.238-.157.06 0 .237-.157.475-.235.179-.078.417-.235.536-.392.119-.079.297-.157.297-.157.06 0 .119 0 .178-.079 0 0 .238-.157.536-.235.238-.157.475-.235.594-.314.06 0 .179-.078.238-.157.179-.078.417-.078.417 0 0 0-.238 1.099-.298 1.412 0 .157-.119.628-.238 1.02-.238 1.02-.357 2.354-.416 4.237 0 1.491 0 1.648.238 2.825.06.314.06.55.06.628.059.314.118.627.178.706.06.157.178.47.238.863.178.863.238.863.475 1.648.12.314.298.627.298.706.178.157.06.314-.12.314-.059 0-.237 0-.356.078-.119.079-.476.079-.773.157-.654 0-1.249.235-1.606.47-.178.158-.357.236-.416.315a.553.553 0 0 0-.298.157c-.118.157-.237.235-.356.313-.06.079-.179.236-.238.236-.595.47-1.13.941-1.19.941-.06 0-.119.079-.238.079-.237.235-.654.314-1.07.235-.178-.078-.357-.078-.416-.078-.12 0-.595-.236-.654-.314 0 0-.179-.079-.298-.157-.178-.157-.416-.314-.654-.628-.476-.627-.773-.627-.773-.078 0 .314.06.392.238.706.297.392 1.546 1.255 1.962 1.334.12 0 .298 0 .417.078.773.236 1.486 0 2.616-.863.238-.235.714-.627 1.011-.784.238-.236.595-.471.654-.628.12-.079.238-.157.298-.157s.178 0 .238-.078c.06-.079.238-.079.416-.079.178-.078.535-.078.773-.157.833-.157 1.19-.157 1.487 0 .119.079.297.157.357.157s.238.079.357.157c.178.078.297.157.356.157.238-.157.774-.863.833-1.255.06-.079.06-.079.06 0 0 .235.535.863.773.941h.654c.535.079.654-.078 1.01-.706.655-1.099.417-3.766-.594-7.69-.119-.392-.238-.862-.297-.94-.12-.55-.833-2.198-1.428-3.296-.06-.157-.119-.314-.178-.393 0-.078-.119-.235-.178-.313-.357-.55-1.309-2.433-1.309-2.59 0 0-.119-.235-.297-.47-.297-.471-.357-.471-.952-.314zm.833 1.883c.416.863.773 1.49.892 1.726.178.235.654 1.177.773 1.334 0 .078.06.157.12.235.059.079.177.392.237.628.119.235.238.47.297.55 0 .078.06.156.06.234 0 0 .06.236.178.55.298.706.892 3.06 1.011 3.687 0 .157.06.314.06.393.119.235.238 1.412.297 2.667.06.942-.178 1.805-.595 1.884-.119.078-.297 0-.713-.314-.595-.393-.833-.471-.773-.079.059.157.059.157-.238.079-.179-.079-.179-.079-.357.157-.238.313-.238.313-.476 0a1.914 1.914 0 0 1-.357-.314c-.416-.393-1.368-3.688-1.605-5.571-.179-1.412.059-5.335.297-5.806.06 0 .06-.079.06-.157-.06-.079-.06-.157 0-.157 0-.079.059-.314.118-.55.06-.235.179-.705.238-1.02.06-.392.179-.627.179-.627s.178.235.297.47zm-.833 3.452c-.416.628-.238 1.883.357 2.432.357.393.833.393 1.07.157.417-.549.536-1.255.298-1.883-.178-.392-.357-.627-.714-.627-.119 0-.178-.079-.178-.079-.06-.078-.238-.078-.416-.078-.298-.079-.357-.079-.417.078zm1.25 4.394c-.358.078-.833.47-.952.706-.06.157-.12.235-.12.235-.178 0 0 .942.239 1.177.119.236.892.707.892.628.06 0 .119 0 .178.079.416.47 1.07.392 1.546-.157.06-.079.179-.157.238-.236 0-.078.06-.235.12-.392.178-.942-.358-1.883-.893-1.57-.178.08-.178.08-.238-.078-.06-.235-.119-.314-.357-.392h-.297c-.119-.079-.238 0-.357 0zm.237 1.098c.357.393.595.393.833 0 .119-.235.357.393.238.785-.12.314-.655.314-1.19-.078-.416-.314-.535-.55-.357-.785.179-.314.12-.314.476.078zm-25.216-5.963c-.178.157-.178.785 0 1.413.12.235.179.47.179.549 0 .078.476.706 1.13 1.57.178.234.654.705 1.01 1.098.358.313.655.627.655.627 0 .079.119.157.297.236.179.157.298.235.298.313.06 0 .178.157.356.236.12.157.298.235.417.314.238.157 1.01.549 1.308.549 0 .078.12.078.179.157.119 0 .237.078.297.078.119 0 .357.079.535.157.535.236 1.368.236 1.427.079.179-.471-.059-.863-.475-.863-.179.078-.357 0-.536-.079-.118-.078-.297-.157-.356-.157-.06 0-.12 0-.12-.157-.118-.157-.178-.235-.178-.078 0 .078-.06.078-.178.078-.12 0-.179-.078-.179-.157 0-.078-.059-.078-.178 0-.119 0-.238 0-.357-.157-.119-.078-.178-.156-.238-.156-.119.156-.238 0-.238-.236 0-.157 0-.235-.059-.235-.06.078-.06.078-.06.157 0 .078-.059.157-.059.157-.119 0-.654-.393-.892-.628-.119-.079-.297-.314-.416-.392-.417-.393-.536-.471-.773-.785-.179-.078-.357-.314-.476-.392-.298-.157-1.19-1.413-1.309-1.805-.06-.157-.178-.314-.237-.392-.06-.157-.12-.471-.06-.706.06-.314-.416-.55-.714-.393zm75.35 5.414c.06.157-.06.236-.178 0-.179-.157-.179 0 0 .55.119.156.178.392.178.392 0 .157.298.47.416.47.06 0 .12 0 .179.079 0 .078-.06.078-.06.078-.178 0-.119.393.12.707.059.078.178.313.178.392 0 .078.06.235.06.235a.71.71 0 0 1 .118.393c0 .157.06.313.179.392.06.078.119.235.178.55.06.391.297 1.176.535 1.647 0 .078.06.235.12.314 0 .078.059.157.118.157.12 0 .12.078.12.157 0 .078.059.156.118.235.06 0 .119.157.119.235 0 .157.06.314.178.393.06.078.12.235.12.313 0 .079.059.157.118.236.12.078.12.157.12.47-.06.314-.06.314.118.393.06.078.12.157.12.235-.06.079.296 1.256.475 1.57.06.078.119.235.119.235 0 .157.773 2.197.951 2.59.12.156.238.313.298.313.119 0 .238.235.119.392 0 .079 0 .236.119.471.059.157.118.392.118.47 0 .08 0 .158.06.158.06.078.06.157.06.235 0 .079.059.157.059.157a.46.46 0 0 1 .119.314c.06.314.476 1.49.595 1.648 0 .078.059.235.059.47.06.157.119.393.178.471 0 .079.06.157.06.236 0 .078.06.313.119.47.06.157.119.393.06.393 0 .078 0 .157.059.235.178.235.297.628.297.863 0 .236.06.314.06.392.06 0 .119.157.178.314 0 .236.06.471.119.55.06.078.119.235.119.313 0 .079 0 .314.06.55 0 .235.059.627.118.863.06.314.06.47.12.47 0 0 .059.157.059.314 0 .314 0 .55.06 1.099.059.157.118.627.178 1.098.06 1.02.119 1.256.238 1.256.059 0 .059-.079.059-.157-.06-.079-.06-.079.06-.079.237.157.237.079.237-.078-.06-.785-.06-1.02-.178-1.256-.06-.235-.178-.941-.238-1.412 0-.078 0-.314-.06-.392 0-.157 0-.157.06-.157.06.078.178.078.238.078.297 0 .595.628.595 1.57.06.156.06.392.06.549.118.549.178 1.804.178 2.432 0 .392.059.706.059.706.06.079 0 3.06-.06 3.217-.059 0-.059.236-.059.471v.392c-.06.079-.119.55-.238 1.334-.06.236-.119.55-.119.706 0 .236-.06.471-.119.628 0 .235-.06.392-.119.55 0 .078-.06.235-.06.313 0 .079-.059.314-.118.55-.06.156-.119.47-.119.705-.06.157-.06.393-.119.471a.71.71 0 0 0-.119.393c0 .078 0 .156-.06.156 0 .079-.118.314-.118.707-.06.313-.179.706-.238.784 0 .157-.06.236-.06.314 0 .079-.06.235-.119.314 0 .157-.06.314 0 .392 0 .079-.06.236-.06.393-.059.078-.118.313-.118.549 0 .235 0 .392-.06.392-.059.079-.059.236-.059.392 0 .236 0 .471-.06.55-.059.157-.118 1.883-.118 3.687 0 .393.06 1.334.06 1.413.059 0 .059.314.059.627 0 .393.059.628.059.707.06 0 .06.156.06.313 0 .314.297 2.59.416 2.825v.235c0 .079.06.236.06.393.059.157.118.314.118.47 0 .079.06.55.179.942.297 1.49.297 1.648.356 1.805 0 .157.06.47.12.627.059.157.178.628.237.942.06.314.179.706.238.785 0 .156.06.313.06.392 0 .157.06.235.06.314.059.078.118.235.059.392 0 .157.06.314.119.392.059.157.118.314.118.393 0 .078 0 .157.06.235 0 0 .119.314.178.628.06.392.12.784.179.941.06.236.119.471.119.628.06.157.119.706.238 1.255.119.55.237 1.177.237 1.334.238 1.256.417 4.316.298 4.708-.06.078-.06.314-.06.47 0 .08 0 .236-.06.236-.178.235.298.392.536.235.12-.078.238-.47.238-.784 0-.157 0-.236.06-.236.118-.078.118-.549.059-1.255-.06-.392-.06-.941-.06-1.255 0-.471-.118-1.491-.237-1.648 0-.079-.06-.235-.06-.392 0-.314-.178-1.57-.476-2.747-.06-.235-.06-.47-.06-.47-.059 0-.059-.157-.059-.314-.06-.157-.119-.55-.237-.942-.12-.314-.179-.706-.238-.863 0-.157-.06-.314-.06-.392 0 0-.06-.157-.06-.314-.059-.157-.178-.628-.297-1.098-.119-.393-.238-.863-.238-1.02 0-.157-.178-.707-.297-1.256s-.238-1.098-.238-1.177c0-.078-.06-.314-.119-.549a3.532 3.532 0 0 1-.178-1.02c-.06-.314-.179-.785-.238-1.02-.06-.157-.06-.392-.06-.47.06 0 0-.158 0-.315-.059-.157-.118-.627-.178-1.02-.06-.47-.06-.863-.119-.863 0-.078-.06-.47-.06-.941-.118-1.57-.118-1.805-.118-2.668v-.863c0-.235 0-.55.06-.628v-.392c-.06-.235.059-2.118.178-2.197.06 0 .06-.078 0-.157-.06-.157-.06-.235 0-.235.06-.079.06-.236.06-.393 0-.156.059-.392.059-.47.059-.157.119-.55.178-.785.06-.314.119-.55.178-.628 0-.078.06-.157.06-.235 0-.079 0-.157.06-.157.059-.078.059-.235.059-.392a.71.71 0 0 1 .119-.393c0-.157.06-.235.06-.313-.06 0-.06-.157 0-.314.118-.314.416-1.962.416-2.197 0-.079.059-.157.059-.314.119-.157.238-.706.297-1.099 0-.078.06-.47.12-.784.178-1.02.178-1.256.237-2.903 0-1.57 0-1.726-.119-1.805-.06-.078-.06-.078 0-.235.06-.079.06-.157 0-.314s-.06-.314 0-.392c.06-.157 0-1.491-.119-1.884-.06-.078-.06-.549-.06-1.098-.059-.628-.059-.942-.118-1.02-.06-.078-.12-.157-.12-.235 0-.157-.296-.707-.415-.942-.06-.078-.238-.157-.417-.157h-.356c-.12 0-.298-.55-.357-.863 0-.078-.06-.392-.12-.628 0-.235-.118-.627-.178-.941-.06-.314-.178-.785-.238-1.177-.118-.392-.178-.863-.237-1.099-.06-.392-.238-.941-.417-1.333-.119-.236-.238-.628-.297-1.02-.06-.236-.178-.471-.178-.55-.06-.078-.12-.157-.12-.235a.684.684 0 0 0-.118-.314c-.06-.078-.12-.235-.06-.314 0-.078-.06-.157-.06-.235-.059-.079-.118-.157-.118-.236 0-.078-.06-.235-.12-.392-.059-.078-.178-.314-.178-.47-.06-.079-.119-.236-.178-.314l-.119-.157c0-.079-.06-.157-.119-.314a.684.684 0 0 1-.119-.314c0-.235-.178-.628-.416-1.255-.12-.157-.298-.55-.416-.864-.12-.313-.238-.549-.298-.627 0-.079-.06-.157-.06-.157 0-.157-.237-.706-.356-.942-.06-.078-.119-.157-.06-.314 0-.156-.356-1.098-.475-1.255-.06 0-.06-.078-.06-.157 0-.078-.06-.235-.178-.392-.12-.157-.179-.314-.179-.392 0-.079-.356-1.02-.416-1.02 0-.079-.119-.314-.178-.628-.12-.314-.238-.628-.298-.706-.06-.079-.119-.157-.119-.236 0-.157-.416-1.334-.594-1.569 0-.078-.06-.157-.06-.235 0-.157-.595-1.727-.654-1.805-.06 0-.119-.157-.119-.235-.119-.236-.238-.314-.238-.079zm-65.477 2.276h-1.487c-1.665.078-2.379.156-2.795.235-.179.078-.357.078-.357 0-.12 0-1.13.157-1.19.235 0 .079-.119.079-.237 0-.12 0-.357 0-.476.079-.12.078-.357.078-.417.157-.059 0-.416.078-.713.235-.298.157-.595.236-.654.236-.06 0-.12 0-.12.078 0 0-.118.078-.237.078-.12.079-.357.157-.595.314-.178.157-.416.236-.476.236s-1.07.706-1.486 1.02c-.774.627-.952.784-1.19 1.02-.119.078-.238.235-.297.314-.06 0-.416.313-.714.706-.297.392-.595.784-.654.941-.357.393-1.19 1.57-1.249 1.726-.06.157-.178.314-.297.471-.298.236-1.25 1.412-1.25 1.57l-.118.156c-.06 0-.179.079-.297.236l-.238.314c-.12.078-.179.156-.179.235 0 0-.119.157-.297.314-.179.157-.297.314-.297.314 0 .078-.06.157-.12.235-.178 0-.773.706-1.308 1.412-.119.157-.238.314-.297.314l-.535.706-.536.707c-.06 0-.832.784-1.189 1.255-.416.47-.476.55-.714.785-.119.156-.238.313-.238.392 0 0-.119.078-.178.078a5.165 5.165 0 0 0-.535.393c-.12.157-.476.47-.714.627-.297.236-.535.471-.535.55-.06.078-.12.156-.179.156s-.178.079-.297.236c-.06.157-.178.235-.238.235s-.178.079-.178.157c-.06.079-.179.157-.238.157-.06 0-.119 0-.119.079 0 .078-.119.156-.178.235-.12 0-.238.157-.298.157 0 .078-.119.235-.297.314-.297.235-1.249 1.098-1.368 1.255a.869.869 0 0 0-.297.392 1.914 1.914 0 0 0-.357.314c-.06.079-.179.157-.238.236l-.119.157c-.06 0-.119.078-.119.078-.119.235-1.427 1.648-1.487 1.648l-.119.157c0 .078-.06.235-.178.235l-.119.157c0 .078-.119.235-.297.392-.179.157-.298.314-.298.393a.892.892 0 0 1-.238.235c-.178.078-.773.863-2.14 2.668-.179.235-.357.47-.357.549 0 .078-.06.157-.06.157-.06 0-.178.078-.238.235-.06.157-.119.236-.178.236l-.12.157c-.059.078-.118.313-.237.392-.238.314-.654 1.02-.714 1.177-.06.078-.178.314-.297.549-.06.157-.178.392-.178.47 0 0 0 .08-.06.08 0 0-.178.235-.297.47-.179.235-.416.706-.595 1.02-.178.235-.297.47-.297.55 0 0-.12.235-.298.47-.119.235-.356.628-.475.863-.12.235-.298.47-.357.628-.12.078-.238.314-.298.392-.297.628-.535.942-.713 1.099-.12.078-.298.235-.357.392a8.225 8.225 0 0 1-1.13 1.177c-.178.078-.476.314-.714.549-.178.157-.416.314-.535.314-.238.078-.654.235-.773.314-.06 0-.357.078-.952.235-.059.079-.356.079-.594.157-.238.079-.535.157-.595.157-.119.078-.416.078-.773.157-1.13 0-1.784.078-2.082.157-.119.078-.594.157-1.07.235-.416.079-.833.157-.892.236-.06 0-.297.078-.535.157-.476.156-1.25.549-1.309.627-.06.079-.119.079-.238.079-.06 0-.178.078-.237.157-.12.078-.179.157-.238.157-.06 0-.12.078-.12.078 0 .078-.118.078-.178.157-.178 0-.713.314-.713.392l-.238.157c-.12.079-.298.236-.357.392-.06.079-.178.157-.178.157-.06 0-.179.079-.238.157-.12.157-.179.236-.238.236 0 0-.179.157-.357.392-.238.235-.416.47-.416.47-.12 0-.833.864-2.2 2.668-.714.942-1.369 1.727-1.369 1.727l-.119.157c-.06.156-.119.235-.119.235s-.297.314-.594.706c-.298.392-.595.706-.595.706-.119.079-.892.863-1.13 1.177a2.559 2.559 0 0 1-.297.314c-.06 0-.417.235-.773.47-.357.315-.714.55-.773.55 0 0-.12.079-.12.157-.059.078-.178.157-.237.157-.06 0-.12.078-.238.078-.476.393-.714.55-1.606.942-.178.078-.416.235-.535.314-.179.078-.416.157-.654.235-.238.079-.417.157-.417.157-.119.079-.773.392-1.07.392-.12.079-.357.157-.476.236-.178 0-.595.157-.951.235-.357.079-.774.157-.892.236-.12.078-.417.078-.655.078-1.07.157-2.14.235-2.2.235-.179.079-3.033.314-3.33.236-.714-.079-1.071-.236-1.13-.55-.179-.549-.774-.392-.774.236 0 .157.06.314.238.55.298.391.595.47 1.428.548.892 0 .892 0 1.724-.078.357 0 1.13-.079 1.665-.079.952-.078 1.547-.156 1.606-.235.06 0 .298 0 .535-.078.298 0 .714 0 .952-.079.178-.078.535-.078.714-.157.178 0 .356 0 .356-.078.06 0 .357-.157.655-.157.594-.157.654-.236 2.081-.785 1.011-.47 1.665-.784 1.784-.941 0-.079.06-.079.179-.079.238 0 .654-.157.951-.47.12-.079.298-.236.417-.236.178 0 1.13-.785 1.13-.941 0-.079.059-.079.118-.157.536-.157 1.309-.785 1.725-1.334.119-.157.238-.314.297-.314.12 0 1.666-2.04 3.569-4.63.356-.47.713-.94.892-1.02.119-.078.297-.313.416-.47.119-.157.238-.236.238-.236.06 0 .119-.078.178-.156 0-.157.238-.314.357-.471.179-.157.476-.393.595-.55.357-.392.714-.706.773-.706.06 0 .238-.078.357-.235.178-.157.297-.235.357-.235s.238-.157.475-.236c.238-.157.476-.314.536-.314.06 0 .178-.078.238-.078.118-.079.356-.235.594-.235.179-.079.595-.236.833-.314.595-.314.951-.393 1.368-.393.178 0 .416 0 .535-.078.119 0 .535-.079 1.01-.079.893-.078 1.071-.078 1.25-.156.06-.079.357-.079.654-.079.357-.078.654-.157.714-.157.119-.078.297-.078.475-.157.536-.078 1.309-.392 1.428-.549.06 0 .178-.078.238-.078.119 0 .594-.236.713-.393.12 0 .179-.078.238-.078.06 0 .12-.079.179-.157.059-.079.178-.157.178-.079 0 0 .178-.078.297-.235.12-.157.357-.314.417-.392.119-.079.237-.236.356-.314.06-.079.298-.392.536-.628.238-.235.535-.706.713-.941.12-.314.417-.707.595-1.02.178-.236.416-.628.535-.785.06-.235.298-.55.417-.785.475-.706.713-1.02.951-1.569.119-.314.297-.628.416-.863.12-.157.179-.314.238-.392.179-.314.773-1.334.833-1.491.06-.079.238-.235.297-.47.12-.158.417-.629.595-.864.238-.314.416-.628.416-.628s.12-.078.179-.235c.119-.157.238-.314.238-.392.059-.079.178-.236.356-.393.179-.157.357-.392.476-.549.12-.157.476-.628.773-.941.298-.314.654-.785.773-.942l.298-.392c.119-.079.773-.863 1.19-1.334.178-.236.475-.628.772-.863.238-.236.595-.628.833-.863.535-.628.773-.942 1.19-1.177.178-.157.475-.393.713-.55.178-.235.535-.549.833-.784.297-.235.654-.55.713-.628.12-.157.238-.235.298-.235 0 0 .118-.079.237-.236.12-.156.238-.235.298-.235 0 0 .119-.078.178-.157.06-.078.238-.235.357-.314.297-.235.892-.863 1.07-1.098.06-.079.298-.314.417-.392.238-.236.654-.707 1.308-1.57.179-.235.357-.392.416-.392.06 0 .238-.235.476-.628.238-.314.595-.706.833-.941.178-.157.476-.55.654-.785.178-.235.416-.47.416-.47.06 0 .238-.236.417-.393.119-.235.416-.55.535-.706.178-.157.416-.47.595-.706l.356-.471c.06 0 .12-.079.238-.235l.476-.628c.654-.785 1.725-2.354 1.844-2.59 0-.156.06-.235.119-.235s.119-.078.237-.157c.536-.706 1.487-1.569 1.904-1.804.118-.157.416-.314.594-.471.179-.157.357-.235.357-.235.06 0 .119-.079.178-.157.06-.079.298-.236.476-.314.238-.079.417-.236.476-.236.06 0 .178-.078.297-.078.12-.079.298-.157.476-.314.12-.078.297-.157.357-.157s.238-.078.357-.078c.119-.079.476-.236.773-.314.357-.079.476-.157.535-.236 0-.156.06-.156.12-.078h.237c.06 0 .535 0 1.07-.078.476 0 1.011-.079 1.19-.079.119-.078.654-.078 1.19-.157h2.021c1.665-.078 2.141-.235 2.082-.628-.06-.235-1.546-.549-1.665-.313zm2.022 4.472c-.06 0-.12.157-.12.235-.059.157-.237.236-.713.236-.119 0-.297 0-.357.078-.06 0-.357 0-.595.079-.297 0-.535.078-.594.078-.06.079-.238.079-.357.079-.178 0-.297.078-.357.078-.119.078-.238.078-.416.157-.12 0-.298.078-.357.078-.178.157-.238.079-.297-.157-.06-.156-.12-.235-.12-.235-.059 0-.118-.078-.178-.235-.178-.157-.357-.157-.535.157-.119.157-.119.157 0 .313.119.236.178.471.06.471-.06 0-.179.079-.238.157-.12.079-.238.157-.298.157-.119 0-.297.079-.416.157-.357.235-.833.47-1.07.628-.179.078-.357.157-.417.235-.06.079-.238.157-.297.235-.12.079-.238.157-.357.157-.06 0-.119.079-.178.079-.06.078-.12.157-.238.157-.298.078-.654.314-.654.47 0 0-.06.079-.12.079-.059 0-.416.157-.773.392-.297.236-.594.393-.654.393 0 0-.178.157-.297.235l-.357.314c-.06 0-.119 0-.178.078 0 .079-.12.157-.238.236-.12 0-.179.157-.238.235 0 .079-.06.157-.119.079-.06 0-.297.156-.476.392-.178.157-.297.314-1.07.863a5.205 5.205 0 0 0-.833.706c0 .079-.06.079-.06.079-.059 0-.178.156-.356.313l-.357.314c-.178 0-1.546 1.256-1.546 1.413 0 .157-.417.47-.714.706-.119.078-.357.314-.595.627-.237.314-.475.55-.535.55-.178.157-1.07 1.177-1.784 2.197l-1.011 1.333-.773 1.02c-.119.236-.654.864-.773 1.02-.238.157-.892 1.02-.892 1.099 0 0-.179.235-.357.392-.416.471-.654.785-1.13 1.491-.595.863-1.725 2.432-2.141 2.825-.595.627-2.795 3.609-2.855 3.923-.06.078-.119.235-.178.235-.119.079-.178.157-.178.157 0 .079-.12.314-.952 1.412-.178.314-.416.707-.476.785-.06.157-.357.55-.654.942-.297.47-.595.863-.595 1.02-.06.078-.178.313-.297.47-.178.079-.357.393-.476.55-.06.156-.357.549-.594.784-.298.314-.595.706-.655.863-.119.236-.297.471-.475.628a4.603 4.603 0 0 0-.536.55c-.238.235-.356.392-.832.784-.12.078-.298.235-.476.314-.357.314-.416.392-.654.549-.12.078-.238.157-.298.235a.553.553 0 0 1-.297.157c-.119 0-.476.157-.773.314-.357.157-.833.314-1.011.392-.416.157-1.13.471-1.249.628-.06 0-.178.079-.357.079-.119 0-.357.078-.416.156a2.688 2.688 0 0 1-.595.314c-.654.157-1.308.471-1.487.55-.059.078-.297.235-.535.313-.297.079-.594.236-.654.314-.119.079-.178.157-.238.157 0 0-.06.079-.178.157a.406.406 0 0 1-.298.157c-.06 0-.119 0-.119.078 0 0-.178.157-.416.393-.297.157-.476.314-.476.392-.06 0-.119.079-.178.079-.06 0-.178.078-.238.156-.06.079-.178.157-.238.157-.119.079-1.01.863-1.427 1.334-.357.314-.535.471-.833.706-.178.157-1.427 1.413-1.605 1.648a1.214 1.214 0 0 0-.238.235c-.12.079-.952.785-1.011.942-.06 0-.12.078-.179.078-.06 0-.238.157-.892.628-.238.236-.357.314-.713.55-.06 0-.298.156-.417.313-.297.236-1.19.785-1.784 1.177-.297.157-.654.471-.714.55l-.356.313a2.873 2.873 0 0 0-.595.55c-.178.156-.476.392-.654.47-.179.157-.357.314-.417.393-.059.078-.178.157-.178.157-.06 0-.178.078-.178.156-.06.079-.179.157-.179.157-.06 0-.238.157-.357.314-.178.157-.416.314-.535.393-.119.078-.238.156-.238.235 0 0-.178.157-.416.314s-.416.235-.476.314c-.06 0-.178.078-.238.157-.06.078-.297.235-.475.313-.238.157-.417.314-.476.314-.12 0-.773.314-1.011.55-.12 0-.238.078-.416.156-.12 0-.357.157-.536.236-.238.078-.654.235-.892.392a7.5 7.5 0 0 0-.892.314c-.178.078-.476.235-.595.235s-.535.157-.832.236c-.357.157-.654.235-.714.235 0 0-.178.079-.238.079-.119.078-.535.156-.892.235-.416 0-.892.157-1.01.157-.298.157-1.19.314-1.547.314-.119 0-.476.078-.714.157-.297.078-.654.157-.892.157-.238.078-.594.156-.773.235-.238.078-.654.157-.832.235-.238.079-.595.157-.774.314-.237.079-.475.157-.594.157-.12.079-.238.079-.238.157-.06 0-.298.157-.535.235-.238.079-.536.157-.655.236-.297.157-.594.314-.892.392-.119 0-.238.079-.238.079s-.178.156-.356.156c-.773.236-1.07.628-.595.864.297.235.951.157 1.13-.079.119-.078.892-.47 1.546-.706.179-.079.357-.235.416-.314.06 0 .179-.078.298-.078.178 0 .416-.079.535-.157.238-.079.892-.314 1.427-.471.06 0 .179-.079.298-.079.119-.078.238-.156.356-.156.12 0 .179 0 .179-.079.06 0 .297-.078.595-.078.297-.079.594-.157.654-.157a.406.406 0 0 1 .297-.157c.238 0 .833-.079 2.498-.314.416-.079.833-.157.892-.235.119-.079.297-.079.357-.079.178 0 .476-.078 1.07-.392.179 0 .476-.079.773-.157l.476-.157c.06-.079.179-.079.298-.079.059 0 .178 0 .178-.078.06-.078.119-.078.178-.078.06 0 .12-.079.179-.157.06 0 .238-.079.476-.157.178 0 .475-.157.773-.314.178-.079.535-.236.773-.314.178-.078.357-.157.476-.235.059 0 .119-.079.178-.079.06 0 .119-.078.178-.078.06-.079.298-.236.595-.314.297-.157.654-.314.773-.47.12-.158.238-.236.238-.236.06 0 .179-.157.357-.236.119-.157.357-.314.416-.392.417-.314.833-.628.892-.706 0-.079.12-.157.238-.236.06-.078.179-.156.238-.235.119-.157.297-.235.535-.392.06 0 .12-.079.12-.157.059-.079.178-.157.237-.157.179-.157.654-.55.952-.863l.238-.157c.059 0 .119 0 .119-.079.118-.156 2.616-1.883 2.735-1.883.06 0 .179-.078.298-.235.059-.078.297-.235.416-.314.178-.078.297-.235.357-.314.06 0 .119-.078.178-.078.06 0 .119-.079.178-.157.06 0 .12-.079.12-.079.059 0 .178-.156.356-.313.179-.157.476-.471.773-.628.298-.236.536-.47.595-.55.06 0 .119-.078.119-.078.06 0 .238-.157.357-.314.178-.157.297-.314.357-.314.06-.078.713-.627.773-.706.06-.078.773-.706.832-.706 0 0 .12-.157.298-.314.416-.47.892-.941.951-.941.06 0 .298-.236.773-.706.179-.157.476-.393.714-.55.238-.157.416-.235.476-.313.06 0 .238-.157.416-.236.179-.078.357-.235.416-.314.06-.078.238-.157.476-.235.238-.079.476-.235.595-.314.416-.157 1.308-.55 1.725-.706.178-.079.356-.157.416-.157 0-.078.06-.078.119-.078.06 0 .238-.079.357-.157.178-.079.356-.157.475-.157.179-.079.357-.157.417-.236.06-.078.238-.157.416-.157.119-.078.297-.078.476-.157.119-.078.297-.156.416-.156.416-.157 1.07-.471 1.308-.707.179-.157.298-.235.357-.235.06 0 .12-.078.179-.078 0-.079.178-.157.297-.236.119 0 .238-.157.297-.235.06-.079.179-.157.238-.157.06 0 .179-.079.238-.157.06-.079.179-.157.238-.157 0 0 .178-.157.297-.392l.357-.314c.12 0 .714-.55.714-.706 0 0 .06-.079.119-.079.178-.078 2.26-2.981 2.498-3.452l.237-.314c.298-.392.893-1.334.893-1.412 0-.157.297-.55.416-.55 0 0 .178-.235.357-.549.178-.235.535-.784.832-1.177.298-.392.773-1.098 1.07-1.569.714-1.098 1.904-2.668 2.023-2.668 0 0 1.368-1.569 1.546-1.883.357-.47.833-1.255.892-1.412.119-.314.357-.628.595-.785.178-.078.594-.627.594-.706 0-.078.298-.47.357-.47.12 0 3.925-4.944 3.925-5.1 0 0 .238-.314.595-.628.297-.314.535-.628.535-.628 0-.078.06-.157.179-.157.06-.078.238-.314.416-.47.119-.158.238-.315.297-.315 0 0 .12-.078.12-.156.059-.079.118-.157.178-.157 0 0 .178.313.238.392 0 .078.356.55.356.55.06 0 .179.156.238.313.06.157.179.314.238.392.06 0 .12.079.12.079 0 .078.059.157.118.235.06.079.119.236.238.314.06.078.178.314.297.392.12.079.298.314.417.55.178.156.356.392.535.47l.238.314c0 .079.594.706.951.863l.179.236c0 .078.654.706.832.784.06 0 .179.157.357.314.297.314.714.706 1.19 1.02.178.157.297.314.297.314 0 .078.06.078.06.078.059 0 .297.157.475.393.238.157.535.47.714.549.178.078.297.235.297.314 0 0 .179.157.416.314.179.157.476.392.655.47.238.314.416.393.892.785.119.078.416.314.535.392.178.157.297.236.357.236s.594.392.654.47c0 .079.297.236.595.393.238.235.594.47.713.549.06.079.238.157.357.235.12 0 .297.079.416.157.357.236.833.236 1.07 0 .12-.235.18-1.02.06-1.647-.119-.393-.773-2.276-1.01-2.668-.239-.392-.952-2.119-1.547-3.688-.178-.392-.357-.784-.416-.863-.06-.078-.12-.235-.179-.47 0-.158-.06-.393-.06-.55 0-.078-.118-.314-.177-.628-.06-.235-.179-.549-.238-.549-.12-.078-.12-.157-.12-.314.06-.078 0-.47-.118-.784-.238-1.02-.298-1.413-.298-1.648 0-.314-.119-.785-.237-.941-.06-.079-.06-.157 0-.236.059-.078-.06-1.334-.238-2.197-.06-.392.06-.235.416.392.297.628.476.942.892 1.491.119.157.178.314.178.314 0 .157.476.079.536-.078.06 0 .119-.079.119-.079.119 0 .416-.392.475-.784.12-.314.12-1.413 0-1.648 0 0 0-.314-.06-.706 0-.314 0-.706-.059-.863-.06-.628-.06-.863-.06-1.491 0-.55 0-.706-.059-.785-.118 0-.118-.078-.059-.157.06-.078.06-.157 0-.157 0 0 0-.078.06-.078.059-.157.654-.157.654-.079.06 0 .119.079.119 0 .06 0 .119.079.178.236.654 1.726 3.27 5.178 3.985 5.178.594 0 .832-.706.832-2.118 0-.628 0-1.02-.06-1.099-.059 0-.059-.078-.059-.157.06-.078-.297-1.412-.357-1.49-.06-.079-.119-.079-.119 0-.059 0-.059-.079-.118-.236-.06-.157-.12-.392-.238-.549-.179-.235-.179-.235-.298-.157-.238.157-.238.392-.06.942.06.235.18.627.239.863.297 1.098.416 2.981.178 2.981-.119 0-1.01-.941-1.606-1.726-.713-.941-.951-1.412-1.367-2.51-.238-.471-.179-.55.654-.628.357 0 .654-.079.713-.079 0-.078.238-.078.417-.078.475 0 .594-.157.654-.706 0-.314 0-.314-.179-.55-.178-.157-.178-.157-.356-.078zm-4.64 2.668c.06.392.239 2.197.298 3.217.06 1.176.06 1.961-.06 1.961-.059 0-.118-.078-.356-.628-.119-.157-.178-.313-.238-.392-.06-.078-.178-.235-.238-.392-.119-.314-.297-.785-.476-.942-.356-.627-.535-.941-.535-1.02.06-.078 0-.078-.06-.157-.178-.078-.416-.392-.356-.549 0-.157 0-.157-.12-.078-.059.078-.118.157-.118.078-.06-.078 0-.235.119-.235 0 0 .06 0 .06-.079 0-.078.059-.078.118-.078.06 0 .12-.079.238-.079a.406.406 0 0 1 .298-.157c.059-.078.237-.157.297-.235.06-.078.178-.157.238-.157.119 0 .178 0 .238-.078 0-.079.06-.079.119-.079.119 0 .178-.078.238-.157.237-.157.297-.078.297.236zm-3.448 1.726s-.06.157-.12.157c-.178.078-.356.47-.416.941-.119 1.256.536 2.04 1.13 1.334.12-.157.238-.314.238-.392.06-.236.179-.157.238.078 0 .079.06.393.06.628.178.863.237 1.334.237 1.648 0 .157.06.706.179 1.177.06.549.119 1.098.178 1.177.06.47.595 2.746.833 3.138 0 .157.06.235.06.314 0 .078.059.314.178.55.06.234.119.391.119.47 0 0 .06.078.119.235.059.157.178.314.178.471.06.157.238.628.416 1.02.179.392.357.942.476 1.098.06.157.178.393.238.471 0 .079.06.157.06.236 0 0 .118.235.178.47.297.471.773 1.648.773 1.727 0 .078.06.235.178.47.298.785.357 1.491.179 1.177-.06 0-.12-.078-.179-.078-.06 0-.297-.157-.535-.314-.178-.078-.357-.235-.416-.235-.06 0-.12-.079-.179-.079a2.124 2.124 0 0 0-.594-.47c-1.309-.942-1.487-1.02-1.665-1.256-.06-.079-.179-.157-.179-.157-.06 0-.892-.706-1.308-1.02-.06-.078-.179-.078-.238-.157-.06-.078-.298-.235-.535-.47-.476-.471-.774-.707-1.07-.942-.12 0-.239-.157-.298-.236-.06-.078-.179-.235-.238-.235a4.05 4.05 0 0 1-.654-.55c-.238-.313-.654-.627-.714-.627-.06 0-.178-.078-.714-.706a.848.848 0 0 0-.297-.235l-.238-.157c-.06-.157-.297-.393-.535-.628-.178-.157-.476-.55-.714-.785-.178-.235-.416-.392-.416-.392-.06 0-.06-.078-.06-.078 0-.079-.118-.236-.178-.393-.119-.078-.238-.235-.297-.314 0-.078-.238-.392-.476-.706-.238-.392-.416-.706-.476-.784-.06-.079-.119-.236-.178-.314-.179-.157-.06-.471.119-.628.119 0 .178-.157.238-.157l.119-.157c.059 0 .416-.314.475-.392l.357-.314c.12-.157.357-.314.416-.392.06-.079.238-.236.357-.236.06-.078.298-.235.417-.392.178-.157.416-.392.475-.392.12-.079.476-.314.773-.628.298-.235.714-.55.952-.785.238-.157.476-.313.535-.392.06 0 .476-.314.892-.628.476-.235.833-.549.833-.549s.06-.078.178-.078c.06-.079.238-.157.298-.236.119-.157.238-.157.238.079zm19.268 17.183c-.06.47-.06.47.06.706.119.079.119.157.119.314-.06.157.119 1.57.237 1.648.06.157.12.47.06.549-.06 0-.06.078 0 .078 0 .079 0 .314.06.628 0 .235 0 .628.059.785.06.078.06.392.06.627 0 .157 0 .863.059 1.413.06.549.119 1.177.119 1.334-.06.156 0 .313 0 .47.119.236.178.785.119.942v.47c.06.158.06.471.06.707 0 .314 0 .549.059.549 0 .078.06.235.06.392-.06.706 0 1.805.059 1.883.059 0 .059.157 0 .393-.06.235-.06.392 0 .47.059.157.119 1.413.059 1.57v.235c.06.079.06.314.06.47-.06.158-.06.315-.06.393.06.628.06 1.334.06 2.433.059 1.098.059 1.569.118 1.569 0 0 .06.863.12 2.118 0 .706 0 1.256.059 1.256 0 .078 0 .627.06 1.255v1.805c.118 1.726.118 2.275.118 4.001.06 1.726-.06 5.728-.119 6.67-.06.627-.119 1.883-.119 2.118v.392c0 .471.12 1.177.238 1.256.06.078.238.157.417.235h.356v-.314c0-.235-.06-.392-.119-.549-.118-.235-.178-1.02-.059-1.962.238-2.04.297-8.003.178-10.67 0-.707-.06-1.962-.119-2.825-.059-.785-.118-2.04-.178-2.825-.06-.706-.06-1.412-.119-1.569v-1.255c-.06-.471-.06-1.256-.06-1.648-.118-1.49-.118-2.354-.118-3.295-.06-.471-.06-.942-.06-1.02-.06 0-.06-.707-.119-1.491-.06-.706-.119-1.57-.119-1.883-.06-.314-.06-.706-.119-.863 0-.785-.06-1.491-.178-2.197 0-.314-.06-.942-.06-1.256-.059-.235-.059-.784-.118-1.098-.06-.314-.06-.785-.06-1.02 0-.392-.06-.55-.238-.628-.06-.078-.06-.078 0-.157.12-.157.12-.157.06-1.098-.06-.863-.298-2.04-.417-2.276-.06-.157-.475-.706-.535-.706v.471zm6.066.942v.941c.06.157.06.392.12.47 0 .08.059.393 0 .707v1.255c0 1.02-.06 2.04-.06 2.197 0 .079 0 .314-.06.471v.628c-.06.157 0 .47.06.784 0 .314.06.55 0 .628-.12.157-.179.785-.06 1.02.06.157.06.235 0 .314-.178.235-.238 1.098-.119 1.412.06.236.06.236 0 .393-.119.156-.178 1.412-.178 2.432 0 .235-.06.47-.06.55-.06 0-.06.391-.119.784 0 .392-.059.863-.119 1.098-.059.236-.059.314.06.393.06.156.06.156 0 .392-.06.157-.119.314-.06.47 0 .08 0 .236-.059.314-.06.236-.178 1.413-.178 1.962-.06.157-.06.47-.12.628 0 .078-.059.784-.118 1.412-.06.706-.06 1.412-.12 1.57 0 .156-.059.705-.059 1.255-.06.627-.119 1.177-.119 1.255 0 .079-.06.628-.06 1.177-.059 1.255-.118 2.51-.178 3.295v1.02c-.059.55-.118 2.433-.237 3.688-.06.55-.06 1.255-.12 1.648 0 .47-.059 1.177-.059 1.569-.06.47-.06.942-.06 1.02 0 .079-.059.706-.059 1.255-.119 1.884-.119 1.962.06 2.276.119.235.178.235.416.235.357-.078.357-.157.297-.549-.06-.157-.06-.47 0-.785 0-.235 0-.549.06-.784 0-.55.119-2.197.178-2.276 0-.078 0-.627.06-1.177 0-1.412.119-2.981.178-3.844.06-.628.12-2.119.238-5.022v-1.02c.06-.157.06-.627.06-1.255.059-1.256.297-4.473.356-5.022.06-.157.12-.863.179-1.49.06-1.02.238-4.08.357-4.865 0-.157 0-.785.059-1.412.06-.55.06-1.099.06-1.177.059-.079.059-.628.059-1.334.06-.628.06-1.334.119-1.57v-2.275c.06-1.02.06-1.961.06-2.04.118-.392.059-3.295 0-3.452-.06-.079-.06-.236 0-.236.118-.235 0-1.098-.179-1.098 0 0-.119-.157-.178-.314-.12-.47-.298-.392-.298.079zm6.364.078c-.12.157-.179.55-.06.785 0 .157.06.235 0 .235 0 .078 0 3.06.06 3.53 0 .393.06 2.747.06 4.316 0 .785.059 1.412.059 1.49.059 0 .059.236 0 .393-.06.393-.06 1.334 0 1.648v.078c0 .079 0 .785-.06 1.648 0 .863 0 1.805-.06 2.04-.059.236-.059.47 0 .628.06.235.06 1.334-.059 2.354-.06.392-.06.863-.06.941v1.099c-.059.314-.059 1.02-.059 1.569-.06.55-.06 1.255-.06 1.648-.059.47-.059.784 0 1.02.06.235.06.392 0 .47-.059 0-.059.236-.059.393v4.943c0 2.04 0 4.394.06 5.257.06.863.06 1.961.06 2.354-.06.784 0 .941.356 1.098.119.079.178.079.297 0 .179-.157.179-.628.06-3.845-.06-1.569 0-12.553 0-13.73.06-.393.06-.942.119-1.256 0-.863.119-6.198.119-6.669v-2.432c0-.236-.06-3.217-.12-4.394v-4.237c-.059-3.531-.059-3.374-.416-3.531-.118 0-.178 0-.237.157z"/></svg>