<svg version="1.0" xmlns="http://www.w3.org/2000/svg" width="266.667" height="266.667" viewBox="0 0 200 200"><path d="M146.036 2.47c-.093 0-.928.05-1.855.1-2.132 0-2.503.05-2.874.05-.186.05-.557.05-.742.05-.278 0-.649.101-.927.152a2.9 2.9 0 0 1-.65.1c-.092 0-.277.05-.37.101-.093.1-.186.151-.371.151-.093 0-.278.05-.464.151-.185.1-.37.201-.463.201-.093 0-.742.252-.742.303.185.05-.093.201-.37.201-.094 0-.372.05-.557.1-.186.101-.464.152-.65.202-.185.05-.37.1-.463.151-.093 0-.37.1-.649.1-.278.051-.556.152-.649.202-.093.05-.37.101-.464.101-.092.05-.37.151-.556.252-.278.1-.556.201-.742.201-.278.05-1.205.302-2.225.554-.185.05-.37.1-.464.05-.092 0-.278.05-.463.151-.186.101-.371.152-.464.152 0 0-.185.05-.185.1-.093.05-.278.1-.371.1-.093 0-.186.051-.278.051-.093.05-.186.101-.278.101 0 0-.186.05-.186.1-.093.051-.185.101-.278.101 0 0-.185.05-.278.151-.278.101-.371.151-.65.151-.185 0-.37.05-.648.152-.278.1-.464.15-.557.15-.092.051-.927.353-1.205.554-.185.05-.464.202-.649.252-.37.1-.556.202-1.205.504-.186.15-.557.252-.557.252-.092 0-.185.05-.278.1-.093.05-.185.1-.278.1-.278.051-1.762.857-1.762.958 0 .1-.092.15-.37.15-.186 0-.371.051-.65.303-.185.15-.37.252-.37.252-.093 0-.279.05-.371.1-.186.1-.464.151-.65.202-.092.05-.278.1-.37.15-.093.101-.279.152-.464.202-.278.1-.37.151-.37.252-.094.1-.186.15-.279.201-.185.05-.37.151-.464.252-.092.1-.278.201-.37.201-.093 0-.65.303-.65.403 0 .101-.649.403-.927.453-.185.05-.37.05-.37.101 0 .05-.557.353-.65.353-.092 0-.185.1-.278.15-.093.101-.278.202-.37.252-.093 0-.279.101-.279.151-.185.202-.834.504-1.02.504-.093 0-.185 0-.185.05s-.093.05-.093.05c-.093 0-.464.152-.742.303-.37.201-.649.352-.742.352-.092 0-.463.202-2.132 1.007-.093.101-.278.202-.278.202-.093.1-.557.302-1.113.503-.278.1-1.39.705-1.39.756 0 .05-.093.05-.279.05-.185.05-1.483.755-1.947 1.108-.185.15-.464.251-.556.251-.186.05-.65.302-.65.403l-.556.302c-.278.151-.649.353-.742.453-.092.101-.185.152-.278.152-.092 0-.927-1.108-.927-1.209 0-.05-.093-.201-.278-.403-.185-.201-.464-.654-.742-.956-.556-.856-1.39-1.964-1.669-2.266-.185-.101-.278-.302-.278-.302 0-.05-.093-.202-.185-.302-1.02-1.31-1.113-1.46-1.855-3.072-.185-.352-.37-.705-.463-.806-.093-.1-.186-.251-.186-.352-.093-.353-.556-1.108-.834-1.31-.093-.15-.371-.402-.464-.603-.278-.303-.742-.705-1.298-1.108-.093-.05-.278-.202-.464-.353-.556-.402-.741-.503-.834-.503A.588.588 0 0 1 86.416 7c-.556-.302-.927-.453-1.298-.504-.186 0-.371-.05-.371-.1-.37-.303-1.576-.403-1.947-.202-.093.05-.186.151-.186.202l-.278.15c-.185 0-.37.101-.37.202a.588.588 0 0 1-.372.151l-.185.1c0 .051-.093.101-.093.152-.092.05-.185.1-.185.15 0 .102-.093.202-.278.303-.278.151-.835.554-.835.604 0 0-.185.151-.278.252-.185.151-.556.403-.742.655-.278.251-.556.503-.649.553-.185.05-.37.151-.37.151-.093.05-.186.152-.279.252-.185.05-.278.151-.278.202 0 .05-.093.15-.278.251-.186.101-.278.151-.278.202 0 .05-.928.554-1.113.554-.093 0-.278.201-.278.352 0 .1-.371.302-.556.302-.186 0-.65.252-1.67 1.007-.092.101-.37.252-.463.302-.185.101-.278.151-.278.202 0 0-.186.15-.371.302-.278.201-.464.352-.464.403l-.37.302c-.279.1-.464.252-.464.302 0 0-.093.1-.278.201-.464.303-.65.504-.742.655 0 .1-.093.201-.278.252-.186.05-.278.15-.278.201 0 .1-.279.403-.65.604-.185.101-.37.252-.463.353 0 .1-.186.252-.37.352-.186.101-.28.202-.28.252 0 0-.092.05-.092.1-.278.101-.556.454-.556.504 0 .05-.093.101-.093.151-.278.05-.834.504-.834.605 0 .05-.093.1-.186.15-.093.051-.185.152-.185.252-.093.101-.186.151-.371.202-.371.1-.464.15-.464.252 0 .1-.092.201-.278.251-.185.101-.649.605-.649.705 0 .05-.093.1-.093.1-.092 0-.278.102-.463.202-.093.151-.278.252-.278.252-.186.05-.557.403-.557.504 0 .05-.185.15-.37.302-.186.15-.372.302-.372.352 0 .151-.185.353-.37.353-.186 0-.279.05-.371.15 0 .101-.186.252-.371.303-.093.1-.278.252-.371.352-.093.101-.278.202-.371.202-.093 0-.649.352-.742.604-.092.05-.185.151-.278.151 0 0-.185.1-.37.252a1.197 1.197 0 0 1-.372.352c-.092.05-.185.151-.185.202 0 .05-.093.201-.278.352-.927 1.108-1.206 1.209-2.69.806-.277-.05-.555-.101-.74-.151-.186 0-.557-.05-.743-.101-.927-.252-1.669-.403-1.854-.403-.093 0-.371-.05-.556-.1-.186 0-.557-.05-.835-.05-.185 0-.464-.051-.464-.102-.092 0-.185-.05-.278-.05-.092 0-.278 0-.37-.05-.093 0-.557-.151-1.113-.252-.65-.1-1.298-.302-1.67-.353-.37-.1-.834-.201-1.02-.251-1.02-.252-1.297-.302-1.483-.302-.092 0-.278-.05-.37-.101-.279-.151-.835-.353-1.206-.403-.742-.1-1.298-.201-1.39-.252 0-.05-.093-.05-.186-.05s-.186-.05-.278-.05c-.093-.05-.464-.151-.928-.252-.37-.1-.741-.202-.834-.252-.186 0-.278-.05-.37-.05-.094 0-.186-.05-.28-.05-.092-.051-.185-.101-.37-.101-.093-.05-.278-.101-.37-.101-.094-.05-.279-.1-.464-.151-.279-.05-.464-.1-.557-.1-.093-.051-.37-.102-.556-.202-.186-.05-.556-.1-.65-.151-.185-.101-.741-.202-1.575-.403-.186 0-.835-.151-1.391-.302-.464-.151-1.02-.252-1.113-.252-.093 0-.278-.05-.37-.1-.094-.051-.464-.152-.743-.202-1.112-.302-1.205-.302-1.205-.353 0-.05-1.576-.453-1.669-.453-.093 0-.185 0-.185-.05 0 0-.279-.1-.464-.151-.185-.05-.556-.202-.742-.252-.278-.1-.463-.15-.556-.15-.093 0-.464-.152-.835-.303-.37-.151-.834-.302-.927-.302-.185-.05-.37-.1-.463-.151-.186-.05-.464-.151-.65-.202-.556-.1-1.668-.553-1.761-.604 0-.05-.093-.05-.278-.05-.093 0-.278-.05-.464-.151-.37-.151-1.669-.554-1.947-.554-.093 0-.185-.05-.278-.1-.093-.102-1.855-.756-2.04-.756a.588.588 0 0 1-.37-.151c-.186-.05-.372-.1-.465-.1-.185 0-.278-.051-.463-.051a8.883 8.883 0 0 0-.742-.302c-.37-.101-.927-.202-1.113-.302-.649-.202-.556-.202-1.205-.252-.37-.05-.742-.05-.927-.1h-.556c-.279.05-.279.1-.279.301 0 .353.279.554 1.391 1.209.927.503 1.298.755 2.225 1.36.464.301.557.352 2.597 1.51 1.761 1.007 3.523 2.115 3.709 2.316.185.201.741.503 1.854 1.108.556.302 1.113.604 1.298.755.278.1.556.302.742.403.185.1.556.352.927.554.37.251.742.503.927.554.093.1.464.352.65.503.277.201.741.554 1.02.755.277.252.741.605 1.02.856.185.202.463.403.463.453.092 0 1.298 1.36 1.298 1.41 0 0 .093.101.093.151.463.504 1.39 1.863 1.854 2.619.649.906.742 1.208 1.113 1.762.092.201.463.755.834 1.158.371.453.927 1.007 1.113 1.259.463.453 1.02 1.007 1.205 1.158.093 0 .093.05.093.1l.37.303c.186.15.372.252.372.302 0 0 .185.201.463.403.557.503.835.705.927.805.093.101.371.302.557.454.556.503 1.112.956 1.483 1.309.186.15.371.402.557.503.185.151.463.504.741.755.279.303.557.554.557.605 0 .05.185.201.37.352.093.151.464.554.835.957.278.352.556.654.556.705 0 .05.371.604.65.856.278.302 1.39 1.56 1.483 1.661.093.05.278.302.464.504.185.252.463.554.649.654.092.05.185.152.185.202 0 .05.278.352.65.755.092.05.092.151.092.202 0 .05.093.15.185.201.093.05.186.201.186.302 0 .151.092.302.37.554.186.151.372.403.372.453a.94.94 0 0 0 .463.504c.093.1.186.15.186.201.185.302.463.655.556.755.093 0 .185.101.185.151 0 .101.464.252.742.252.278 0 .65.202.65.302 0 .05.185.151.37.353.742.604.927.906.65.906-.094 0-.28.05-.465.1a.588.588 0 0 1-.37.152c-.093 0-.835.403-.928.554-.278.251-.092.604.186.755.185.05.278.352.093.504 0 .05-.093.15-.186.251-.093.151-.185.252-.185.302-.278.353-.371.554-.371.655 0 .1-.093.151-.093.201-.093.05-.185.101-.185.151 0 .101-.186.353-.279.554-.092.05-.092.151-.092.202.092.05 0 .1-.093.15 0 0-.093.051-.093.101 0 0 0 .101-.092.152 0 .05-.186.2-.279.352a2.842 2.842 0 0 1-.463.655c-.186.15-.278.302-.278.352 0 0-.186.151-.371.352-.186.152-.371.303-.371.353 0 0 0 .1-.093.151-.278.252-.649.755-.649.806 0 .05 0 .1-.093.1-.092.05-.741 1.108-.834 1.41 0 .1-.093.302-.186.504-.185.352-.278.705-.185 1.812.093.454.093.907.093 1.007 0 .151.092.303.092.403.093.05.186.202.186.252 0 .201.093.352.185.453.093.05.093.202.093.302-.093.05 0 .151 0 .202.093 0 .093.1.093.201 0 .151 0 .302.092.353.093.05.093.15.093.251 0 .05 0 .151.093.202.093.05.185.302.185.554.093.453.186.654.371.906 0 .1.093.252.093.403.093.201.185.352.37.503.186.101.186.202.186.403s.093.353.186.504c.185.1.37.402.37.604.093.252.279.503.279.554.093.05.093.201.185.302 0 .252.186.554.371.654.093.05.186.101.186.202 0 .05 0 .1.092.1l.186.202c.092.1.185.201.278.252 0 .05.093.15 0 .201 0 .05.093.151.185.252 0 .05.186.252.279.453 0 .151.185.403.278.504.092.15.185.302.278.402.093.101.278.302.463.454.186.1.371.251.371.251 0 .05.093.151.278.252.186.151.279.252.279.352 0 .05 0 .101.092.152.093 0 .093.05.093.1-.093.05 0 .151.278.252.186.151.371.302.464.453.185.302.463.604 1.02.957.185.15.37.302.37.352 0 .05.093.101.186.151.093.05.186.202.186.303.092.1.278.251.556.402.185.151.37.252.37.302-.092 0 0 .101.093.151.093.05.186.101.186.152 0 .1.278.352.556.503.093.1.186.151.186.201 0 0 .092.152.278.252.185.1.278.252.278.252 0 .05.093.151.185.252.186.05.279.201.371.302.093.05.186.201.371.201.093.05.186.151.186.202 0 .05.092.201.278.302.093.1.278.252.37.352.093.101.372.302.65.504.278.15.463.352.463.352 0 .05.186.202.464.353.185.201.464.403.649.503a.845.845 0 0 0 .278.252s.186.151.371.252c.371.403 1.39 1.057 1.576 1.057 0 0 .093.05.093.151 0 .05.185.252.556.504.371.251.742.503.928.654.556.453 2.04 1.41 2.225 1.51.093 0 .185.102.185.102 0 .05.557.503.65.553 0 0 .185.151.278.252.185.1.463.353.741.504.186.15.557.403.742.554.556.553 1.484 1.158 2.133 1.46.185.1.37.201.463.302 0 .1.093.201.093.201 0 .05.093.151.093.202l.278.302c.185.05.278.201.37.302.093.05.279.201.464.302.186.05.279.151.279.201 0 .101 1.576 1.31 1.947 1.41.092.05.185.101.185.252 0 .1.093.201.278.302.186.1.278.202.278.202 0 .05.186.15.279.302.185.15.37.251.37.302 0 0 .186.15.464.302.371.201.556.352.464.403 0 .05.185.201.37.352.279.202.464.353.464.353l.371.201c.186.151.37.252.37.302 0 .05.094.1.186.151.093.05.186.101.186.151 0 .05.185.202.37.302.279.151.464.353.557.454.093.15.278.352.556.503.279.151.464.353.464.453.093.101.185.151.185.151s.093.05.093.101l.371.201c.185.05.37.151.464.202.185.302.278.403.463.403 0 0 .093.1.186.251.092.303.37.504.649.504.092 0 .185.05.185.151 0 .05.093.201.186.252 0 .1.092.201.092.252 0 .05.093.1.093.15.093.05.185.101.185.152 0 0 .093.1.279.15.092 0 .185.101.185.152 0 .15.278.403.464.503.092.05.185.151.278.252.37.453.556.655.834.806.186.1.371.201.464.302 0 .1.185.201.278.201.186.05.278.151.278.302.093.101.278.302.371.453.186.101.278.202.278.252l.186.1c.185.051.278.152.278.202 0 0 0 .05.093.05.092 0 .092.051.092.101 0 .05.093.151.186.151.093.05.185.151.185.202 0 .1.371.604.557.705 0 .05.092.1.092.201l.186.1c.092.051.185.102.278.202 0 .101.093.202.185.252 0 .05.093.1.093.151 0 0 .093.1.186.151.092.05.185.1.185.202 0 .05 0 .1.093.1.092 0 .092.05.185.101.186.302.464.554.556.554.093.05.186.1.279.302 0 .201.092.302.185.352.185.05.185.101.185.202-.092.05 0 .15.186.252.185.1.278.251.278.352 0 .05 0 .151.093.151 0 .05.093.1.093.202.092.1.185.15.185.15.093.05.185.152.185.252.093.101.186.202.279.252.092.05.185.202.278.302 0 .151.092.252.185.302.186.151.371.403.278.453 0 .05.093.05.186.101.278.05.278.1.278.202 0 .15.093.201.278.302.186.05.278.15.278.15-.092.051.464.655.65.756.092.05.092.201.092.353 0 .15.093.251.185.302 0 .05.093.1.093.15 0 .051.093.152.278.252.186.152.279.252.65 1.058 0 .1.185.352.37.554l.371.403c0 .05.093.15.186.251 0 .101.092.202.092.302-.092.05 0 .101.093.151 0 0 .093.101.093.202 0 .1.093.15.278.252.185.05.185.1.185.302 0 .15.093.201.186.251.093 0 .093.101.093.252s0 .252.092.252c.093.05.278.352.278.604.093.1.186.302.279.453.185.101.278.303.37.403 0 .151.093.252.186.353.093.05.185.1.185.15-.092.051.186.655.279.706.092.05.092.15.092.201 0 .05.093.201.186.353.092.1.185.251.092.302 0 0 0 .1.093.1.093.05.186.302.278.504.278.906.371 1.208.464 1.309 0 .05.093.201.093.302 0 .151.092.302.185.403 0 .1.186.302.186.453 0 .202.092.403.185.504.093.05.185.302.278.503.186.655.186.655.371.755.093.05.093.202.093.454.092.201.185.503.278.705.093.201.185.402.185.453 0 .05.093.352.186.654.092.302.278.806.37 1.058 0 .302.093.654.186.755.093.1.186.403.186.554 0 .201.092.403.092.453.093.151.186.655.371 1.662.093.352.093.604.186.654 0 .05 0 .202.092.353 0 .15 0 .352.093.402.093.152.185.655.185.957.093.202.186.806.279 1.209 0 .05-.093.05-.186.05-.185 0-.278.05-.463.151 0 .1-.093.151-.186.151-.185 0-.185.151 0 .353 0 .1.093.251.093.302-.093.1-.093.15 0 .15.185.101.37 3.676.185 3.878-.092.05-.092.302-.185.554-.093.554-.371 1.258-.464 1.309-.092.05-.092.15-.092.252 0 .05-.093.352-.186.654-.185.302-.278.655-.37.755-.094.303-.279.605-.372.806 0 .05-.185.252-.185.453a5.195 5.195 0 0 1-.464.806c-.185.252-.278.503-.278.554 0 .1-.093.252-.185.352-.278.252-.371.655-.186.755.093.05.093.101-.092.152-.279.1-.371.201-.464.654 0 .1-.093.302-.186.353-.092.05-.092.15 0 .201 0 .1 0 .151-.092.151-.093 0-.093.05-.093.151 0 .1 0 .151-.093.151 0 .05-.092.1-.092.202-.093.201-.186.302-.279.553 0 .101 0 .152.093.152.278.05.186.302 0 .352-.37.05-.463.151-.556.453a.938.938 0 0 1-.186.504c-.092.15-.185.402-.278.554-.093.15-.185.251-.185.302-.093 0-.093.05-.093.1 0 .101-.093.252-.185.454-.093.251-.186.302 0 .302.092.05.092.201 0 .201-.186 0-.464.151-.557.352 0 .252-.278.655-.463.806 0 .05-.093.151-.093.202 0 .1-.185.302-.556.805-.186.151-.279.302-.279.353 0 0-.092.15-.185.251-.185.151-.278.303-.278.353 0 0-.093.1-.186.1-.092.05-.185.152-.185.202 0 .1-.556.705-.742.755-.093.05-.185.151-.278.252 0 .05-.093.151-.185.151 0 0-.186.1-.279.201-.185.152-.463.353-.741.454-.464.302-1.206.705-1.577 1.007-.185.15-.556.352-.741.453-.557.252-.65.554-.371.856.092.15.185.201.742.201h.556l.463-.302c.279-.15.557-.302.557-.403.093-.05.37-.201.556-.352.371-.202 1.298-.755 2.41-1.611.279-.202.557-.504.743-.705.185-.202.37-.454.556-.605.37-.453.649-.755.649-.856 0-.05.278-.402.464-.503 0-.05.092-.1.092-.1 0-.101.371-.706.65-1.159.092-.15.278-.403.278-.554.092-.1.185-.201.185-.252.093 0 .093-.1.093-.2 0-.152.092-.303.185-.454.093-.1.186-.201.186-.302 0-.05.092-.202.185-.353.093-.15.185-.352.185-.453 0-.1.093-.252.186-.352.185-.202.556-1.007.556-1.26 0-.05 0-.15.093-.2.093-.05.37-.655.37-.957.094-.151.186-.302.186-.353.093 0 .093-.1.093-.15-.093-.101 0-.152.093-.202 0-.05.092-.151.092-.252 0-.201.186-.604.371-.705 0-.05.186-.302.186-.554.092-.251.185-.503.278-.503 0-.05.093-.202.185-.353.371-.755.371-.856.464-.906.093-.05.185-.302.278-.655 0-.15.093-.352.186-.402.092-.101.185-.252.185-.353 0-.05.093-.252.185-.403.093-.15.186-.352.186-.453 0-.1 0-.15.093-.201.092 0 .092-.1.092-.202 0-.1.093-.201.093-.302.093-.05.186-.252.186-.403.092-.201.185-.453.278-.553 0-.101.092-.303.092-.504.093-.201.093-.352.093-.403.093-.05.093-.201.093-.302.093-.352.093-.352.185-.1.186.352.278 1.107.371 1.711 0 .353.093.655.093.705.185.252.556.504.556.453.093 0 .186-.05.371-.05.371 0 .371 0 .65-.252.185-.251.185-.302.185-.906-.093-.352-.093-.655-.186-.655 0-.05 0-.201-.093-.402 0-.151 0-.454-.092-.554 0-.101-.093-.604-.186-1.108-.092-.453-.185-.957-.185-1.158-.278-1.007-.464-1.51-.556-1.611-.093-.05-.093-.05 0-.101.092-.05.092-.151 0-.252 0-.1 0-.252-.093-.302 0-.302-.186-1.007-.278-1.259-.093-.15-.093-.352-.093-.453 0-.05-.093-.201-.186-.302 0-.1-.092-.352-.092-.604s0-.403-.186-.453c-.092-.05-.092-.252-.185-.554 0-.252-.093-.504-.186-.604 0-.152-.092-.252 0-.303.093-.1.093-.453-.092-.906-.093-.201-.093-.403-.093-.554 0-.1-.093-.302-.185-.403-.186-.201-.279-.302-.186-.352.093-.05.093-.202 0-.353-.093-.15-.093-.352-.093-.402 0-.202-.37-1.31-.463-1.41-.093-.05-.093-.151 0-.151 0-.05-.093-.101-.093-.151-.093-.05-.185-.101-.093-.101 0-.1-.185-.755-.278-.906-.093-.101-.185-.202-.185-.302 0-.202-.278-1.058-.464-1.209 0-.1-.093-.201-.093-.252 0 0-.092-.15-.185-.201-.186-.1-.186-.151-.093-.202.093-.1-.093-.604-.278-.755-.093-.05-.093-.15-.093-.302 0-.201-.092-.352-.185-.554-.186-.201-.278-.302-.186-.302.093-.05-.092-.705-.278-.856l-.185-.403c-.093-.503-.278-.856-.742-1.51 0-.05-.185-.202-.185-.403-.279-.453-.371-.554-.557-.655-.092 0-.092-.1-.092-.15.092-.152-.186-.605-.371-.655 0-.05-.093-.101 0-.151 0-.101-.093-.252-.278-.454-.093-.2-.279-.453-.371-.604 0-.1-.093-.251-.186-.302 0-.1-.093-.15-.093-.201 0-.202-.37-.604-.556-.756-.093-.05-.185-.15-.185-.2 0-.051-.093-.152-.186-.253-.092-.1-.185-.251-.185-.352 0-.05-.093-.1-.093-.151-.185 0-.185-.1-.185-.302 0-.202-.093-.353-.186-.504-.092-.05-.185-.201-.185-.252 0-.1-.278-.453-.557-.604-.092-.05-.185-.15-.185-.201 0-.05 0-.1-.093-.151-.092 0-.092-.05-.092-.151 0-.101-.093-.252-.186-.353-.185-.15-.278-.302-.278-.403-.093-.1-.185-.201-.37-.251-.094-.05-.186-.101-.186-.151.185-.101-.557-.705-.835-.705-.185 0-.278-.101 0-.151.186-.05.093-.353-.37-.655 0-.05-.186-.201-.279-.302-.093-.151-.185-.302-.278-.302-.093-.05-.185-.1-.185-.202 0-.1-.557-.705-.742-.856-.093-.05-.186-.15-.186-.201a4.953 4.953 0 0 0-.463-.755c-.186-.151-.278-.302-.278-.302 0-.05-.093-.151-.279-.202-.185-.1-.278-.252-.278-.302 0-.151-.278-.453-.463-.503-.093 0-.186-.05-.186-.152 0-.1 0-.2-.185-.251-.093-.05-.186-.101-.093-.151 0-.05-.093-.101-.093-.151-.092-.05-.185-.101-.185-.151 0-.05-.093-.152-.186-.202-.185-.05-.278-.15-.278-.252 0-.05-.092-.15-.278-.251-.185-.101-.278-.252-.37-.353-.094-.1-.094-.201-.186-.201 0 0-.093-.05-.093-.101-.093-.1-.278-.201-.464-.352-.185-.101-.278-.252-.37-.303 0-.15-.557-.654-1.113-1.007-.186-.1-.278-.302-.371-.402-.093-.101-.185-.202-.278-.252-.093-.05-.186-.151-.186-.151 0-.05-.185-.202-.463-.453a2.853 2.853 0 0 0-.557-.454c0-.05-.092-.1-.185-.15 0-.05-.093-.152-.185-.252-.093-.151-.186-.252-.371-.252-.093-.05-.186-.1-.186-.151.093-.1-.278-.453-.834-.806-.186-.15-.371-.252-.278-.252 0-.05-.742-.704-1.02-.856-.093-.1-.186-.201-.186-.251 0-.101-.278-.302-1.02-.756-.278-.201-.556-.402-.649-.503 0-.05-.092-.151-.278-.252-.093-.05-.185-.1-.185-.15.092-.051-.093-.202-.279-.353-.185-.151-.556-.403-.741-.554-.093-.151-.371-.302-.557-.353-.185-.05-.278-.15-.278-.15 0-.202-1.39-1.36-1.576-1.36-.093 0-.093 0-.093-.05.093-.051-.278-.403-.834-.706-.278-.15-.464-.302-.464-.352 0-.05-.093-.151-.185-.201-.186-.05-.278-.101-.186-.151l-.37-.303a5.063 5.063 0 0 1-.65-.453c-.092-.1-.278-.252-.463-.302-.093-.1-.186-.201-.186-.252 0-.05-.092-.15-.278-.201-.093-.05-.185-.151-.185-.201 0-.05-.093-.152-.278-.303a5.063 5.063 0 0 1-.65-.453l-.37-.302c-.093 0-.093-.05-.186-.1 0-.05-.185-.202-.37-.353-.186-.1-.372-.252-.372-.252 0-.05-.092-.15-.278-.201-.093-.05-.185-.151-.185-.202 0 0-.093-.1-.278-.15-.279-.101-.65-.403-.65-.555 0-.05-.834-.654-1.112-.805-.186-.1-.186-.151-.186-.151s-.185-.151-.463-.302c-.186-.151-.371-.302-.371-.353 0 0-.278-.201-.65-.403l-.555-.402c0-.05-.279-.202-.557-.403-.37-.151-.741-.403-.834-.504l-.278-.302c-.557-.352-.835-.503-1.02-.654-.093-.101-.278-.303-.464-.353-.185-.1-.278-.201-.278-.252 0 0-.093-.1-.186-.15-.185 0-.37-.202-.556-.353a.81.81 0 0 0-.556-.353c-.278-.1-.371-.15-.278-.251 0-.101-.093-.202-.278-.303-.186-.1-.279-.2-.279-.2 0-.102-.649-.605-1.02-.807-.185-.1-.37-.251-.463-.402-.093-.101-.186-.202-.278-.252-.093 0-.186 0-.279-.05-.092 0-.092 0 0-.05.186-.051-.092-.303-.741-.857-.093-.15-.371-.352-.464-.453a2.007 2.007 0 0 0-.463-.352c-.186-.101-.279-.252-.371-.303 0-.1-.371-.453-.742-.805-.186-.1-.371-.252-.464-.353 0-.1-.278-.251-.463-.302-.371-.201-.557-.403-.65-.654 0-.101-.092-.302-.278-.454-.185-.1-.37-.251-.37-.302 0 0-.093-.1-.186-.15-.093 0-.185-.101-.185-.152 0-.1-.464-.453-.65-.604-.092 0-.185-.1-.185-.151 0-.05-.278-.403-.649-.806-.37-.402-.742-.856-.834-1.007-.557-.705-1.113-1.41-1.206-1.46-.092 0-.185-.252-.37-.654-.093-.05-.279-.504-.557-.957-.278-.403-.464-.806-.464-.907-.092-.05-.185-.251-.278-.453-.556-1.007-.649-1.208-.649-1.309 0-.1-.092-.453-.278-.755a7.291 7.291 0 0 0-.37-1.007c-.094-.202-.186-.453-.279-.554-.185-.1-.185-.201-.093-.252.093-.05.093-.1 0-.252-.37-.755-.649-2.064-.463-2.87.185-.906.278-1.258.37-1.309 0-.05.093-.1 0-.15 0 0 0-.051.093-.051.093-.05.093-.1.093-.202 0-.15.37-.654.835-1.258.185-.202.37-.403.37-.454l.186-.1c0-.05.093-.1.093-.202 0-.05.092-.1.092-.15.278-.101 1.298-1.31 1.298-1.46 0-.051.093-.152.186-.303.093-.1.185-.252.185-.302 0-.1 0-.202.093-.202.185-.1.464-.654.464-.805 0-.1.092-.151.092-.151.093-.05.186-.1.186-.151 0-.05.092-.202.092-.252.093-.05.279-.252.371-.453.093-.202.279-.353.279-.403 0 0 .092-.151.092-.352.093-.152.186-.353.278-.403.093-.151.093-.202 0-.302-.092-.151 0-.403.279-.403.092-.05.37-.151.741-.202.279-.1.65-.251.928-.302.185-.05.37-.15.37-.15s.186-.051.279-.102c.185-.05.463-.1.649-.2.185-.102.37-.152.463-.152 0 0 .186-.05.464-.151.185-.05.556-.201.742-.252.278-.05.927-.252 1.576-.403a12.876 12.876 0 0 1 1.576-.453c.278-.05.65-.201.927-.252.186-.1.371-.15.464-.15.093 0 1.669-.504 2.318-.756.278-.1.649-.201.742-.201 0 0 .092-.05.185-.05 0-.051.186-.101.371-.152 1.298-.352 1.576-.453 1.67-.453.092 0 .184 0 .184-.05.093 0 .279-.1.557-.151.278-.05.742-.101 1.02-.202.278-.05.463-.1.556-.1.093 0 2.225-.504 3.43-.806.65-.201 1.299-.352 1.392-.352 0 0 .185-.05.278-.101 0-.05.185-.1.278-.1.093 0 .556-.051 1.02-.152.37-.1 2.225-.352 3.245-.453.37 0 .835-.1 1.02-.1.742-.152 4.08-.404 4.821-.404.279 0 .65 0 .835-.05.093 0 .834-.05 1.669-.1 1.947-.051 2.225-.051 2.318-.051h.742c.278-.05 1.298-.05 2.225-.05.927-.05 1.762-.05 1.854-.05h2.504c1.762 0 2.41 0 3.245.1.556.05 1.391.1 1.67.1.37 0 .648 0 .648.051.093 0 .371.05.742.05.649 0 1.205.05 1.39.101 0 .05.372.05.835.1.464.051.927.101 1.206.101.185.05.649.101 1.112.152.371.05.742.1.835.15.093 0 .37.05.742.05.649 0 1.483.051 1.483.102 0 0 .093.05.278.05.093.05.278.1.371.151.093.05.371.1.65.1.277 0 .463.051.463.051 0 .05.093.05.185.05.093 0 .278 0 .371.05.093.051.927.152 1.855.253.185.05.556.1.649.15.185 0 .37.051.37.051.093 0 .279.05.371.05.186.05.371.101.65.151.185 0 .556.101.834.151.278.05.649.101.742.101.092 0 .278.05.37.1.186 0 .279.051.464.051.186 0 .464.05.742.202.093.05.37.05 1.298.1.37.05.37.05.278.302-.093.202-.093.202.556.756.371.302.65.654.742.705.093.1.371.302.557.453.185.201.463.453.649.554.092.1.185.251.278.302.093.05.185.1.185.15 0 .102.371.454.464.454.093.05.556.403 1.02.856.092.151.278.302.278.302s.185.151.37.353c.279.302.743.654.928.654l.185.1c.093.102.279.152.279.152a.45.45 0 0 1 .185.05c.093.101.927.403 1.113.403.185 0 .278.201.092.302-.37.151-1.298.353-1.39.302a.73.73 0 0 0-.464 0c-.185.05-.464.101-.742.101-.278 0-.556 0-.649.05-.834.202-2.503.403-3.894.454-2.318 0-3.709.05-3.709.1a.275.275 0 0 1-.278 0c-.186-.05-.278-.05-.65 0-.37.1-.463.1-.555 0 0-.1.092-.15.37-.15.464-.102.557-.202.557-.555 0-.302-.093-.453-.371-.805-.278-.252-.835-.302-1.298-.101-.186.05-.186.1 0 .252.093.1.185.201.278.251.185.05 0 .152-.278.152-.093 0-.278.05-.371.1a.474.474 0 0 1-.371 0c-.185 0-1.298.05-2.874.202-.557.05-1.67.251-2.226.402-.185.05-.37.101-.463.101-.093-.1.742-.705 1.576-1.158.464-.201.65-.403.742-.604 0-.1.185-.252.185-.403.464-.554.371-2.115-.092-2.568-.093-.05-.093-.1 0-.151.092-.05 0-.201-.279-.403-.092-.05-.185-.201-.278-.302a1.407 1.407 0 0 0-.463-.453c-.093-.1-.279-.252-.279-.302-.092-.1-.556-.403-1.205-.755-.649-.353-1.113-.655-1.113-.705 0-.05-.092-.101-.278-.101-.185 0-.463-.1-.649-.201-.278-.101-.649-.252-.834-.303-.278-.05-.464-.1-.464-.15-.093 0-.278-.051-.464-.101-.185-.05-.556-.101-.741-.202-.65-.15-1.484-.201-2.04-.201-.186.05-.835.05-1.298.1-.557 0-1.113.05-1.298.05a2.9 2.9 0 0 1-.65.102c-.278.05-.463.1-1.297.503-.928.403-1.206.554-1.299.655 0 .1-.185.251-.463.402-.464.403-.65.605-.927 1.511-.093.201-.186.353-.186.403-.185.1-.185.906-.093 1.208.093.151.186.403.186.554.093.151.185.353.278.403l.37.403c.094.15.372.302.557.403.093.1.278.201.278.201 0 .05.279.201.557.403.37.15.649.403.834.453.093.1.371.252.464.302.185.05.556.202.834.353.278.1.557.201.65.201.185 0 .37.05.463.1.093.101.278.152.37.152 0 0 .094.05.186.05.093.05.186.1.278.1.186 0 .279.051.371.051.093.05.186.1.279.1.092 0 .278 0 .37.051.186.05 1.02.151 1.298.151.093 0 .371.05.557.101.185.05.37.1.463.1.093 0 .279 0 .371.051.093 0 .278.05.464.1.278.051.37.303.185.504-.278.302-.463.604-.556.907-.093.453-.185 1.712-.093 1.963.093.101.186.454.278.756.371 1.057.65 1.41 1.391 1.36.835 0 1.02-.253.835-1.109-.093-.705-.093-.956.37-1.762.186-.352.186-.352.65-.1.185.1.37.2.463.2 0 0 .093.051.186.051 0 .05.092.1.185.1 0 0 .093 0 .093.051 0 .05 1.205.705 1.298.705.093 0 .185 0 .185.05s.093.152.279.303c.185.1.556.402.834.604.278.252.556.403.65.453 0 0 .092.05.092.1 0 0 .093.101.185.101.093.05.186.151.186.202 0 .1.092.252.185.302 0 .1.093.201.093.252 0 0 .185.302.464.604.278.302.649.604.649.705.092.15.278.302.37.352 0 .101.093.252.186.353 0 .1.093.352.278.554.093.201.186.503.186.805.092.252.185.856.185 1.36.093.503.093.906.093.956v.403c0 .151 0 .302-.093.353-.093.05 0 .15 0 .302.093.15.093.252 0 .302-.185.151-.185.503 0 .856 0 .1.093.302.093.403 0 .15.092.302.092.403.742 1.158.742 1.309.186 1.158-.835-.202-2.04-.202-2.41-.05 0 .05-.28.1-.557.1-.186 0-.557.05-.742.1l-.37.101c-.094 0-.372.101-.65.202-.278.1-.649.201-.834.252a.588.588 0 0 0-.371.15c-.093.051-.186.101-.371.101-.278 0-.927.05-1.02.151a.275.275 0 0 1-.278 0c-.093 0-.278.05-.371.101-.186.05-.371.05-1.484.05-.741 0-1.576 0-1.854.05-.371.051-1.762.101-2.133.101-.185 0-.463 0-2.132-.1-.557-.05-1.298-.1-1.67-.151-.741-.101-2.595-.151-3.523-.151-1.298 0-2.132.05-2.596.1-.278.05-.742.101-.927.101-.278.05-.556.1-.65.151-.092 0-.185.05-.277.05-.093 0-.371 0-.464.05-1.39.202-1.669.253-1.669.303-.093.05-.185.05-.37.05-.093 0-.279.05-.464.101-.186.1-.557.201-.742.201-.278.05-.464.151-.556.151 0 .05-.093.05-.186.05-.185 0-.927.353-.927.454 0 .1-.186.201-.371.201-.278 0-1.02.655-1.205 1.007 0 .101-.093.202-.186.252-.556.302-.37 1.259.371 1.914.371.352.927.956 1.205 1.158.093.1.279.251.464.352.186.1.37.202.37.252 0 .05 1.392.806 1.763.906.185.05.278.151.278.151 0 .05.093.101.278.101.278.1.927.352 1.39.604.279.1.557.252.835.353.186.05.464.15.557.201.185.1.649.252 1.112.453.371.202 1.02.453 1.298.554.279.151.557.252.557.252.092 0 .185.05.278.1 0 .05.185.101.185.101.093 0 .278.101.464.252a2.97 2.97 0 0 0 1.113.504c.185.05.37.15.556.302.093.1.37.251.649.352.464.202 1.113.504 1.298.604.37.252 1.669.957 1.854.957 0 0 .371.201.742.453.371.202.742.403.835.403 0 0 .092 0 .092.05 0 0 .279.202.742.454.371.201 1.02.604 1.484.805.37.252.834.504 1.02.554l.834.453c.186.151.927.504 1.484.856.556.302 1.112.604 1.112.655l.186.1c.092 0 .185.05.278.101.185.202 1.113.705 1.39.755.186.05.279.101.186.152 0 .15.093.251.557.402.185.05.37.151.37.202 0 .1.65.503.928.554.092 0 .185.05.185.1.093.101.185.202.278.252.186.1.278.202.278.202s.279.15.557.352c.278.151.556.352.556.352 0 .05.185.202.65.454.185.05.277.15.277.201 0 .05.278.201.557.403.278.15.649.403.927.554.185.201.556.403.742.554.556.251.927.503 1.112.705.093.1.278.15.371.2.093 0 .186.051.186.152 0 .05.092.151.278.252.185.05.278.15.278.201 0 0 .093.1.278.202.185.05.278.15.278.201 0 0 .093.1.278.151.093.05.278.252.371.352.093.101.278.252.464.303.093.05.185.15.185.201 0 .05.186.201.371.302.186.1.464.353.65.504.37.352.834.755 1.112.956.093.05.185.151.185.151 0 .05.093.151.278.252.186.1.279.202.279.252l.185.1s.093.05.093.101c0 .05 0 .101.092.101 0 0 .186.151.371.352.186.202.464.403.464.454l.185.1c0 .101.557.554.835.655.093.1.185.151.093.201 0 .05.092.151.185.252.186.1.278.201.278.252.093.05.186.15.371.252.093.15.186.251.278.352 0 .05.093.1.186.1.092.051.37.353.37.404 0 .05.186.251.464.503s.464.453.464.504c0 .05 0 .1.093.1 0 .05.185.151.278.302.741.806 1.02 1.159 1.112 1.31.093.15.186.302.371.402l.371.403c0 .151.186.302.278.353 0 .1.186.251.186.352.092.1.185.202.278.252.093.1.37.403.649.755.093.1.185.302.185.403.093.151.279.352.464.554.093.05.093.15.093.15 0 .051 0 .102.092.102.093 0 .093.05.093.15 0 .051 0 .152.093.202.278.302.37.453.37.554.093.05.186.252.279.352.093.151.185.353.278.403 0 .05.093.302.278.453l.371.806c.093.252.278.554.278.604.093.05.186.202.186.353.092.1.185.252.278.352.093.1.185.302.278.453.185.403.278.705.37.856.094.101.094.252.186.353 0 .05.093.15.186.201 0 .05.093.1.093.202 0 .05.092.201.185.302.093.1.185.201.185.252 0 .05 0 .15.093.2.093.051.186.253.278.504.093.202.278.403.371.454 0 .05.093.201.093.302 0 .15.093.251.093.352.092.05.185.1.185.151 0 .05.093.151.186.302.092.101.185.202.185.252 0 .1.093.151.093.252.185.1.278.302.463.654 0 .05.093.202.186.303 0 .05.092.201.092.251 0 .05.093.202.186.353 0 .15.185.453.37.654.094.252.186.554.279.655.185.554.37 1.007.556 1.208 0 .151.186.504.278.705 0 .252.186.504.186.554.093.05.093.151.185.202.093.05.093.201.093.302 0 .1 0 .201.093.251 0 0 .185.252.37.554.093.353.279.605.279.605.093.1.185.352.278.755 0 .201.185.453.278.604.093.151.186.403.278.504 0 .1.093.402.093.604.093.252.185.654.278.906 0 .252.093.453.093.504.093.15.278.503.37 1.007 0 .201.094.503.186.654.093.202.093.453.093.554.093.353.278 1.259.37 1.863.186.705.279 1.31.279 1.964.093.403.093.503.278.554.093.05.093.05 0 .1-.093 0-.093 1.914.093 1.964 0 .05.093.252 0 .453v3.374c.093 1.158.093 2.165.093 2.215.092.152 0 .252-.093.353-.093.1-.093.201 0 .503.093.605.093.655-.278.705h-.278c-.093 0-.093.05-.093.151 0 .101 0 .151-.093.151s-.093.605 0 1.058c.093.201.093.705.093 1.158v1.712c0 .806-.093 1.863-.371 2.87-.093.201-.185.705-.185 1.108-.093.403-.186.906-.279 1.107-.092.202-.092.605-.185.907 0 .302-.093.554-.186.654 0 .05-.092.202-.092.353 0 .15-.093.453-.186.705 0 .252-.092.554-.092.705 0 .201-.093.352-.093.403-.093.1-.278.604-.464 1.309 0 .15-.092.302-.092.352-.093 0-.093.252-.186.504-.093.251-.093.503-.185.554-.186.251-.279.453-.279.704 0 .101-.092.202-.092.252-.093 0-.278.302-.371.604-.186.303-.371.655-.464.756 0 .1-.092.302-.185.403 0 .1-.093.251-.093.251 0 .05-.093.151-.093.252-.092.201-.741 1.31-1.02 1.662-.092.15-.185.352-.185.402 0 .101 0 .152-.093.152-.092.05-.185.201-.278.352 0 .151-.185.252-.185.302-.093 0-.093.05-.093.1 0 .102-.278.555-.556.806-.093.101-.186.252-.186.303 0 .1-.278.453-.37.453 0 0-.093.15-.093.352-.093.353 0 .453.37.453.186 0 .371.05.557.151.278.101.556.05.556-.15 0-.152.278-.403.65-.706.277-.15.37-.302.37-.402 0-.302.556-1.36.927-1.763.093-.05.093-.201.093-.302 0-.1.093-.252.185-.302.093-.1.186-.302.279-.503.092-.151.278-.403.37-.605.093-.201.279-.453.279-.654.185-.604.185-.655.37-.655.093-.05.186-.1.186-.15 0-.202.185-.605.278-.706l.186-.403c.092-.201.092-.453.185-.503 0-.05 0-.202.093-.302 0-.1.092-.151.092-.151.093 0 .279-.353.279-.554 0-.151.092-.202.185-.151.186.05.186.654 0 1.762 0 .403-.093.806 0 .856 0 .05 0 .151-.093.151-.092.05-.185.504-.37 1.36 0 .15 0 .554-.093.856 0 .302-.093.805-.093 1.007-.093.251-.185.604-.278.755 0 .151 0 .302-.093.302 0 .05 0 .1.093.151.093.05.093.1-.093.302-.093.1-.185.353-.278.554-.093.252-.278.504-.278.604-.093.101-.093.302-.186.403-.092.403-.463 1.108-.649 1.46-.092.202-.185.454-.185.554 0 .05-.093.202-.093.302a.938.938 0 0 0-.185.504c-.093.201-.186.554-.278.805-.093.252-.186.504-.186.605 0 .15 0 .403-.093.554-.092.201-.185.553-.185.755-.093.201-.093.503-.185.705-.093.201-.093.453-.186.654 0 .202-.093.504-.185.655-.093.201-.186.352-.186.403 0 .05-.093.201-.278.403-.185.15-.278.352-.278.402 0 .05-.093.202-.186.353-.185.1-.278.252-.278.302 0 .05-.092.201-.185.352-.371.403-.65.806-.65.907 0 0 0 .1-.092.15-.742.806-.834 2.116-.093 2.972.371.453.371.503.65.755.185.15.37.403.463.503.093.101.185.202.278.252.186.151.65.806.742 1.259.093.252.278.453.278.453 0 .05.093.202.093.353 0 .251.185.755.37 1.107 0 .101 0 .101-.277.151-.371.101-.742 0-1.206-.201-.185-.05-.556-.201-.742-.252-.185-.1-.463-.201-.463-.302l-.371-.201c-.186-.05-.464-.202-.742-.403-.834-.504-1.854-1.058-2.04-1.108l-.185-.1c0-.05-.093-.101-.186-.101l-.278-.151c0-.05-.093-.101-.093-.101-.092 0-.927-.504-1.205-.755-.185-.101-.278-.202-.37-.252-.372-.201-.65-.504-1.113-1.007-.279-.252-.557-.554-.65-.604 0-.101-.278-.403-.463-.655-.186-.302-.371-.604-.464-.654-.278-.202-.463-.554-.834-1.209-.186-.302-.464-.655-.557-.806-.092-.1-.278-.302-.278-.402a1.197 1.197 0 0 0-.37-.353 5.665 5.665 0 0 1-.557-.403c-.556-.402-1.113-.453-2.318-.352-.649.1-1.669.05-2.318-.05-.185 0-.464-.05-.742-.101-1.02-.05-1.854-.151-2.596-.353-.185-.05-.37-.05-.927-.1-.556-.05-1.205-.151-1.205-.252 0-.05-.093-.05-.279-.1-.37 0-1.205-.253-1.298-.303 0-.05-.185-.151-.278-.201-1.02-.302-2.596-1.058-3.245-1.561a6.51 6.51 0 0 0-.835-.554 3.302 3.302 0 0 1-.463-.302c0-.1-.371-.504-.65-.655-.185-.1-.37-.252-.463-.352-.093-.101-.185-.252-.278-.353-.185-.05-.278-.201-.278-.252-.093-.05-.186-.15-.278-.251-.186-.05-.279-.202-.371-.302-.093-.101-.186-.252-.278-.302-.186-.05-.279-.202-.371-.252-.371-.554-2.504-1.662-3.802-2.014a3.658 3.658 0 0 1-.556-.202c-.278-.15-1.298-.503-1.391-.503 0 0-.185-.05-.37-.151a4.593 4.593 0 0 0-.743-.302c-.278-.05-.463-.151-.556-.151 0-.05-.556-.202-.742-.252-.185 0-.463-.1-.649-.202-.463-.15-1.205-.302-1.298-.302 0 .05-.093.05-.185 0 0-.05-.278-.1-.464-.201-.927-.202-1.762-.453-1.947-.604-.371-.151-1.205-.454-1.298-.454-.093 0-.835-.201-1.484-.453-.278-.1-.649-.201-.741-.251-.186-.05-.371-.101-.464-.152-.278-.1-.927-.302-1.113-.302 0 0-.092 0-.092-.05s-.928-.302-1.113-.302c0 0-.093 0-.093-.05s-.093-.05-.093-.05c-.092 0-.278-.051-.463-.051-.093-.05-.278-.1-.371-.1-.093 0-.185-.051-.37-.051-.094-.05-.186-.1-.372-.05-.093 0-.185 0-.185-.05-.278-.202-1.67-.202-2.318 0-.186 0-.371.05-.464.05-.093 0-.278.05-.37.05-.464.15-2.319.403-3.246.453-1.39.1-2.04.1-2.503.05-.65-.1-1.67-.352-1.855-.453a5.04 5.04 0 0 0-.649-.302c-.37-.1-.742-.252-.927-.352-.186-.101-.556-.303-.835-.403-.556-.252-1.02-.655-1.02-.856 0-.101 0-.151.093-.151.742-.05.927 0 1.391.05.185 0 .464.05.556.05.093 0 .186.05.278.101.186.1.371.1 1.299.202.185 0 .649.1 1.02.15.278.05.649.152.834.152.185.05.556.1.742.201.278.05.556.1.649.1.093 0 .278.051.37.101.186.101.742.202.928.151.093 0 .185.05.278.101.186.1 1.205.1 1.762.05.37-.05 1.112-.302 1.483-.553.557-.252.835-.403 1.02-.453.093 0 .371-.05.464-.152.278-.1 1.669-.503 1.854-.503 0 0 .093-.05.186-.05.092-.05.37-.151.649-.252.742-.202 1.205-.403 1.483-.655.093-.201.093-.201-.092-.302-.093-.05-.371-.1-.557-.15-.37-.051-.37-.051-.649.05a.588.588 0 0 1-.37.15c-.093 0-.372.05-.557.101-.185.05-.464.151-.65.202-.277.05-.463.15-.648.201-.093.05-.371.1-.556.151-.186 0-.557.1-.835.151-.278.1-.464.151-.464.151-.185 0-1.02.353-1.298.554-.556.302-1.112.453-1.576.453-.185 0-.37 0-.37-.05s-.093-.05-.186-.05-.65-.101-1.113-.252c-.463-.101-1.113-.252-1.298-.302-.185 0-.649-.101-.834-.151-.279-.101-.65-.151-.835-.202a2.9 2.9 0 0 1-.649-.1c-.185-.05-.464-.05-.556-.05-.835-.051-1.206-.102-1.484-.202-.463-.101-1.576-.151-2.781-.101h-.742l-.278.302c-.186.202-.279.403-.279.554 0 .201.371.906.464.906 0 0 .185.101.37.252.094.151.465.403.835.554.279.151.65.302.835.403.093.05.37.201.463.302.093.1.279.201.279.201.092 0 .278.05.463.151.186.101.464.202.65.302.185.05.463.101.556.152.092.05.185.1.278.1.093 0 .185.05.278.1.093 0 .185.051.278.051.093 0 .371.101.556.151.186.101.371.151.464.151 0-.05.186 0 .464.05.556.051 1.669.051 2.781-.05.371-.05.928-.1 1.298-.15.371-.051.742-.051.742-.101.186-.05.927-.151 1.02-.151.093 0 1.02-.151 1.576-.252.557-.1 1.298-.1 1.855.1.092 0 .278.05.37.05.186 0 .928.152 1.113.253.093 0 .278.05.371.1.186 0 .464.101.742.202.37.15 1.298.503 1.947.705.093.05.278.1.278.05l.186.1c.092 0 .185.051.278.051.185 0 1.483.453 1.669.554.093.05.556.201.834.252.186.05.278.1.278.1 0 .05.093.05.186.05 0 0 .278.051.464.101.185.05.463.101.649.152.092.05.278.1.37.15.093.05.186.101.279.101.185 0 .556.101.834.202.371.05.742.15.835.15 0 0 .092 0 .092.051 0 0 .093.05.278.05.093.05.464.152.65.252.556.202.834.302 1.02.353.092 0 .185.05.278.15.092.051.278.101.37.101.093 0 1.113.403 2.226.856 1.02.403 2.04.957 2.132 1.058 0 .1.093.15.186.201.093 0 .185.151.278.252.185.1.278.252.464.352.092.05.185.151.185.202 0 .05.186.201.278.352.186.101.464.302.557.403 0 .1.185.202.185.202s.093.1.278.2c.186.253.65.605.742.656.093 0 .185.1.185.15.093.101.279.202.279.252.834.705 1.39 1.058 1.669 1.108.092.05.278.1.278.201.092.101.185.152.185.152.093 0 .927.453 1.02.553 0 0 .185.101.464.151.185.101.37.152.37.202 0 .05 1.113.503 1.299.554.092 0 .37.05.556.1.649.252.834.303 1.02.303.093 0 .37.05.649.15.464.101.464.101 2.04.403.649.05 1.205.151 1.205.202.093 0 .278 0 .464.05.185 0 .463.05.556.1.093.051.464.051.927.102.371 0 1.113 0 1.577.05.37.05.927.05 1.02 0h.834c.927 0 1.113.1 1.854 1.46 0 .151.186.302.186.353.093.05.093.15.093.15 0 .152.463.957.649 1.008 0 .05.092.1.092.15 0 .051.093.303.278.555.093.251.279.503.279.654.092.1.185.252.278.302.093 0 .185.101.278.202 0 .1.093.15.185.201 0 .05.093.1.093.151 0 .05.186.202.371.302.278.101.464.252.464.302 0 0 .278.202.649.353 1.39.755 2.874 1.56 2.874 1.662 0 .05.093.15.185.15.093.05.186.152.186.152 0 .05.093.1.185.15.557.303 1.855 1.058 1.947 1.21.093.05.279.25.557.402.185.151.556.403.649.503.093.101.37.303.649.454.185.1.37.251.464.302 0 .05.092.201.278.302.092.15.278.252.37.302.186.201.557.503.835.655.464.352 1.576.251 1.762-.152 0-.1.092-.2.092-.302.093-.15.371-1.712.371-1.963-.092-.101-.092-.302-.092-.504-.093-.15-.093-.403-.186-.604-.093-.151-.093-.453-.185-.655-.186-.755-.464-1.712-.65-2.014-.092-.15-.277-.403-.37-.604-.093-.151-.186-.352-.278-.453 0-.1-.186-.353-.278-.504 0-.201-.186-.503-.371-.654-.279-.302-.742-1.41-.742-1.763 0-.15.093-.352.278-.553.464-.554.742-.856.835-1.007 0-.05.278-.454.556-.806.185-.353.463-.755.463-.906.093-.101.186-.202.186-.252.093 0 .093-.202.185-.353 0-.201.093-.402.093-.453.093-.05.093-.252.093-.403.092-.15.092-.402.185-.554 0-.15.093-.553.186-.906 0-.352.092-.705.185-.755.093-.05.093-.202.093-.353 0-.15.093-.402.093-.503.278-.403.649-1.51.556-1.561-.093 0 0-.1.093-.151 0-.1.092-.252.092-.353 0-.1 0-.201.093-.251.093-.05.65-1.31.65-1.561 0-.151.092-.302.185-.453.185-.101.185-.252.185-.605 0-.302 0-.402.093-.503.185-.1.278-.403.278-1.209.093-.503.093-.856.185-1.057.093-.201.186-.604.186-.957.092-.352.092-.856.185-1.107.093-.202.093-.554.093-.756 0-.15 0-.503.093-.755 0-.201.092-.806.092-1.259.093-.453.186-1.057.186-1.309.092-.302.092-1.158.185-1.964 0-.755 0-1.41.093-1.46.093-.201.185-1.36.278-3.021 0-.957 0-2.064.093-2.417.185-.755.185-1.057.185-1.611 0-.252.093-.504.093-.554.185-.1.185-.554.093-.856-.093-.252-.093-.302 0-.352.092-.05.092-.152.092-.303 0-.503 0-.604.093-.654.093-.1.093-.856 0-.957-.093-.05 0-.1 0-.15.093-.051.186-.253.186-.504v-2.317c-.093-.453-.093-.856 0-1.107 0-.101 0-.252-.093-.302v-.252c.093-.1.093-.202.093-.655v-2.92c-.279-.604-.279-.907-.279-1.108.093-.806 0-2.266-.185-2.518-.093-.201-.093-.201-.185-1.107 0-.453-.093-.806-.093-.856-.093 0-.093-.151-.093-.252 0-.1-.093-.252-.185-.352 0-.101-.093-.353-.093-.605 0-.352 0-.503-.186-.604-.092-.151-.185-.604-.185-1.007 0-.05-.093-.201-.093-.352-.185-.152-.185-.303-.092-.504 0-.201 0-.302-.093-.302-.186 0-.464-.353-.278-.403.092-.05 0-.1-.093-.201-.185-.101-.185-.101-.093-.151.093-.05.093-.151.093-.302-.185-.504-.185-.605-.278-.655-.278-.151-.278-.252-.371-.604 0-.151 0-.353-.093-.453-.185-.151-.185-.202-.092-.252.092-.1.092-.151-.093-.302-.278-.101-.278-.202-.371-.605 0-.251-.093-.453-.093-.503-.093 0-.093-.05 0-.151 0-.05 0-.1-.093-.1-.092 0-.092-.051-.092-.102 0-.05-.093-.1-.186-.15-.092-.05-.092-.05 0-.152.093-.15.093-.15-.092-.251-.186-.101-.279-.353-.279-.856 0-.05-.092-.202-.278-.252-.185-.1-.278-.202-.278-.252.093-.05.093-.1 0-.151-.093-.1-.093-.151 0-.201.093-.151 0-.403-.278-.705 0-.05-.093-.151-.093-.202 0-.05-.093-.1-.093-.15-.092-.051-.185-.202-.185-.404-.093-.15-.185-.352-.278-.402 0-.101-.093-.202-.093-.252 0-.05 0-.151-.093-.202-.092-.05-.185-.352-.092-.352.092-.05-.093-.453-.278-.655-.186-.1-.279-.15-.186-.251 0-.05-.093-.151-.185-.302-.186-.101-.278-.252-.278-.303 0-.05-.093-.15-.093-.201-.093-.05-.186-.151-.186-.252 0-.05-.092-.1-.185-.15-.093-.051-.093-.102-.093-.202.093-.05 0-.202-.093-.302-.092-.101-.185-.252-.092-.302 0-.101-.093-.202-.278-.303-.093-.1-.186-.15-.186-.201.093-.05-.185-.352-.278-.352 0 0-.093-.101 0-.202 0-.201-.093-.252-.278-.302-.186-.1-.186-.151-.186-.352.093-.151.093-.252 0-.303-.092 0-.092-.15-.092-.251-.093-.353-.186-.655-.371-.756-.093-.05-.186-.201-.186-.352-.092-.1-.185-.302-.37-.403-.279-.252-.371-.453-.093-.503.185 0 .092-.151-.186-.302l-.278-.303c0-.05-.185-.251-.278-.402-.186-.151-.278-.303-.278-.353.092-.05-.186-.604-.278-.654-.093 0-.093-.151-.093-.252-.093-.252-.278-.504-.464-.504-.092 0-.278-.15-.185-.251 0-.05-.093-.152-.186-.202-.092-.05-.185-.1-.092-.201 0-.05 0-.101-.186-.151-.278 0-.37-.101-.185-.202.093 0 .093-.05 0-.1s-.186-.101-.186-.202c0-.05-.185-.252-.278-.453-.185-.201-.37-.352-.278-.403 0-.05-.093-.201-.185-.302-.093-.1-.186-.201-.186-.302 0-.05-.093-.151-.185-.201-.093 0-.186-.101-.186-.152 0 0 0-.1-.092-.15 0-.05-.093-.152-.186-.202-.278-.352-.37-.504-.464-.504-.092 0-.185-.2-.278-.453 0-.201-.649-.906-.927-1.057-.185-.1-.278-.151-.185-.201.092-.05.092-.101 0-.152-.093 0-.186-.15-.371-.302-.093-.15-.186-.251-.278-.251-.093 0-.093-.05-.093-.151.093-.05 0-.152-.278-.252-.093-.1-.278-.252-.278-.353-.093-.05-.186-.201-.279-.251-.092-.05-.185-.101-.185-.152 0-.05-.093-.15-.185-.2-.093-.102-.186-.152-.186-.202 0 0-.093-.101-.278-.202-.186-.1-.278-.201-.186-.201l-.185-.1c0-.051-.185-.102-.185-.152-.093-.151-.279-.302-.464-.403 0-.05-.093-.1-.093-.1 0-.05-.092-.101-.185-.151-.093-.101-.093-.152 0-.303.093-.201-.093-.453-.464-.654-.185-.05-.37-.151-.463-.302-.186-.101-.464-.252-.65-.403-.37-.202-.927-.655-.927-.806-.092 0-.185-.1-.278-.15-.278-.101-.37-.152-.37-.353 0-.202-.279-.453-.65-.604-.37-.152-.649-.353-.741-.554-.093-.151 0-.202.185-.101.093.05.093.05.093 0 0 0-.093-.05-.093-.1-.093-.051-.185-.051-.185-.051 0 .1-.835-.202-1.02-.353-.093-.1-.279-.201-.371-.201l-.093-.05c0-.05-.093-.151-.185-.252-.186-.05-.279-.151-.279-.201 0-.05-.185-.152-.278-.252-.185-.151-.37-.252-.37-.302 0-.101-.557-.504-1.113-.705-.093-.101-.278-.202-.278-.252l-.279-.151c-.185-.1-.37-.202-.37-.252-.093-.1-.186-.15-.279-.201-.185 0-.37-.101-.37-.202-.093-.1-.186-.201-.279-.201-.092-.05-.092-.1 0-.151 0-.05 0-.1-.092-.1-.093 0-.186 0-.186-.051 0-.05-.093-.05-.185-.05-.093 0-.186-.05-.279-.101 0-.05-.092-.151-.463-.353-.186-.1-.278-.201-.278-.201 0-.05 0-.05-.093-.05s-.093-.05-.093-.05c0-.051-.185-.152-.37-.253-.279-.1-.279-.15-.186-.201.093-.1.093-.201-.093-.201-.092 0-.37-.101-.556-.202-.835-.503-1.113-.654-1.113-.705 0-.05-.092-.05-.092-.05-.186 0-.557-.202-.557-.302.093-.202-1.854-1.259-2.41-1.259-.186 0-.093-.151.092-.151.093-.05-.556-.453-1.762-1.007-.37-.151-.463-.252-.37-.353 0-.05 0-.1-.186-.15-.185-.051-.278-.101-.278-.101 0-.101-.464-.302-.927-.454a2.693 2.693 0 0 1-.742-.402c-.185-.101-.556-.353-.834-.504-.279-.15-.464-.252-.464-.302 0-.05-1.02-.554-1.113-.503-.092 0-.185-.152-.37-.303-.464-.352-1.206-.705-1.484-.755-.371 0-.742-.252-.742-.403 0-.1-.093-.201-.464-.352-.278-.1-.37-.252-.463-.353-.093-.15-.093-.201-.371-.201-.185 0-.37 0-.464-.1-.092-.101-.092-.101 0-.101.093 0 .186 0 .186-.05l-1.67-.907c-.277-.1-.74-.302-.926-.453-.742-.353-1.762-.806-1.948-.856l-.092-.05c0-.101-1.206-.655-1.947-.957-.279-.101-.742-.302-1.113-.453a9.062 9.062 0 0 0-1.298-.554c-1.855-.806-3.616-1.662-3.616-1.813 0-.05-.093-.151-.186-.201-.092 0-.185-.101-.185-.101 0-.1-.278-.403-.835-.906-.556-.504-.463-.806.279-1.31.185-.15.278-.251.278-.302 0-.15.741-.503 1.112-.503.093 0 .371-.05.464-.05.556-.202 2.874-.554 4.172-.706.279-.05.65-.1.835-.1.37-.05 1.947-.05 3.245.05h.835c.185.05.37.05.463.05.278.101 3.338.252 3.895.202.556-.1.927-.1 3.616-.1 1.112-.051 2.132-.051 2.225-.102.185 0 .556-.1.834-.1.186-.05.464-.1.557-.1.092 0 .278-.051.37-.102.093-.05.279-.1.372-.1.185 0 .463-.05.741-.151.186-.05.464-.101.464-.101.093 0 .278-.05.464-.151.092-.05.37-.151.556-.151.185-.05.37-.1.463-.1.464-.202 1.67-.202 2.597.05.37.05 1.39.1 1.483.05 0-.05.278-.05.556-.05.557.05.928.2 1.113.402 0 .05.093.101.278.101.093 0 .186 0 .186.05.092.05.927 0 1.02-.05.092-.1.556-.151.556-.05.093 0 .185.05.37.05.094 0 .372.05.65.05.185.05.464.101.649.101.093 0 .185 0 .185.05s.093.05.279.05c.185 0 .463.051.649.101.185.101.463.151.649.202.185 0 .37.05.556.1.093 0 .37.05.556.101.278 0 .371.05.464.1 0 .051.093.102.185.102.093 0 .279.05.371.1.186 0 .371.05.371.05.093 0 .186.051.278.051.093.05.186.1.278.1.186 0 .279 0 .279.051.092 0 .278.05.556.1.185.051.464.102.464.202.185.1.463.252.649.252.092 0 .185.05.185.1.093 0 .278.101.464.152.185.05.37.1.463.15.186.051.464.152.835.253.092 0 .185.1.278.1l.185.101c.093 0 .279.1.557.201.185.101.463.202.556.252.185.05.278.1.278.1 0 .051.186.102.371.152s.556.201.835.302c.185.151.463.252.556.302.093 0 .185.05.278.1 0 .102.278.202.556.303l.464.252c0 .05.185.201.556.352.278.1.464.252.464.302l.556.302c.278.101.557.302.742.454.093.1.464.302.742.453.278.1.556.251.556.302 0 0 .464.352 1.113.654.649.353 1.205.705 1.298.756.093.1.278.201.463.251.186.101.464.202.65.303 1.02.704 3.894 2.265 4.172 2.265.093 0 .093.05.185.151.093.05.279.152.557.252.185.1.463.202.463.252l.464.252c.185.05.37.15.37.201.094.05.279.151.557.252.278.151.835.403 1.298.654 1.298.705 1.576.806 1.762.806.093 0 .185.05.278.1 0 .102.186.152.186.152l.185.1c0 .05.093.101.185.152.093.05.279.1.371.15l.186.101c.185 0 .556.202.556.302 0 .05 0 .05.093.05 0 0 .185.102.37.152l.372.201c.092 0 1.669.756 2.503 1.158.093.05.278.151.37.151.094.05.28.101.28.152.092.1.184.15.277.15.093 0 .278.101.464.202.278.151.556.302.742.352.834.353 1.205.504 1.298.504.092 0 .092.05.092.05 0 .05.371.252.742.403.093.05.278.1.371.202.37.15 1.02.402 1.113.402.092 0 .463.151.741.302.279.152.65.353.928.454.185.05.463.201.556.251.185.101.278.151.37.151l.186.101s.186.05.278.1c.186 0 .279.051.279.051 0 .1.185.202.834.403.371.1.835.252 1.02.352.186.05.371.101.464.101.092 0 .185 0 .278.05 0 .05.185.101.37.152.093 0 .279.05.279.1s.093.05.278.05c.186 0 .37.051.556.152.093.05.279.1.371.1.093 0 .278.05.464.101.093.1.278.151.37.151 0 0 .279.05.557.151.278.05.742.151.927.202.186.05.557.1.742.15.093.051.278.101.37.101.094 0 .186.05.186.101.093.05.186.05.371.05.186-.05.278 0 .371.05.093.051.278.152.464.152.185.05.556.15.649.252.185.05.37.1.463.1.186 0 .835.151.835.202.093 0 .278.05.556.05.186.05.371.1.464.1 0 .102.185.152 1.112.303.279.05.557.1.65.151.278.1 1.761.403 2.04.403.185 0 .37.05.463.1.093.05.37.101.742.152.37.05.834.15 1.112.251.279.05.835.202 1.206.252.278.05.834.201 1.205.252 1.113.302 2.04.05 2.04-.554 0-.151.185-.201.556-.05.371.1 1.67.201 1.855.05.092-.05.185-.1.185-.151l.186-.1c.185-.102.092-.152-.279-.404-.37-.201-1.39-.503-1.761-.503-.186 0-.927-.252-1.02-.403v-.302c-.093-.151-.093-.252-.093-.252s0-.201-.093-.403c0-.251 0-.503-.092-.503 0-.05 0-.202-.093-.353 0-.15 0-.352-.093-.402-.092-.05-.092-.05 0-.101 0-.05.093-.1 0-.1v-.655c0-.353 0-.655-.092-.705-.093-.101-.093-.605-.093-1.108-.093-.554-.093-1.007-.186-1.007v-.353c-.092-.201-.092-.402-.185-.453a.663.663 0 0 1-.186-.453c-.092-.151-.185-.503-.185-.705-.093-.252-.185-.604-.278-.755 0-.151-.093-.403-.186-.554-.092-.151-.185-.302-.092-.352 0-.05-.093-.202-.186-.403-.185-.403-.278-.554-.463-1.158-.093-.303-.278-.554-.278-.554-.093 0-.093-.151-.186-.302 0-.151-.093-.353-.185-.504-.093-.1-.279-.352-.279-.554-.092-.201-.278-.503-.37-.705-.186-.201-.279-.453-.279-.503 0-.151-.278-.554-.649-.856 0-.1-.092-.202-.092-.252 0-.1-.093-.252-.279-.403-.185-.15-.278-.352-.278-.453 0-.1-.092-.201-.092-.252-.093 0-.093-.1-.186-.15 0-.101-.093-.253-.185-.404-.093-.1-.278-.352-.464-.503-.093-.151-.278-.302-.278-.353-.093-.05-.093-.15-.093-.15 0-.051-.092-.101-.092-.101-.093-.05-.186-.101-.186-.252 0-.1-.093-.252-.185-.353-.093-.05-.279-.251-.279-.402a1.956 1.956 0 0 0-.37-.302c-.093-.05-.186-.152-.186-.202 0-.05 0-.1-.093-.1-.092 0-.092-.05-.185-.152-.093-.201-.37-.654-.556-.805-.186-.101-.371-.302-.371-.353 0-.1-.65-.755-.835-.856 0-.05-.092-.1-.092-.15l-.186-.303c-.185-.1-.278-.252-.278-.252 0-.05-.185-.15-.278-.302-.186-.1-.371-.252-.371-.252 0-.1-.371-.402-.464-.453-.092 0-.185-.1-.185-.201-.093-.1-.371-.302-.556-.403-.186-.151-.371-.252-.371-.352 0-.101-.093-.202-.186-.202-.093-.05-.37-.302-.556-.503-.186-.202-.464-.403-.556-.504-.093-.05-.186-.15-.279-.252-.092-.15-.741-.705-1.112-.956-.093-.101-.186-.151-.186-.202 0 0-.185-.1-.278-.201-.185-.1-.37-.151-.37-.202 0-.05-.557-.553-.835-.704-.186-.05-.464-.252-.557-.353-.092-.151-.37-.352-.649-.453-.185-.151-.463-.252-.556-.353-.927-.704-4.821-3.02-5.192-3.02 0 0-.093-.051-.093-.101 0-.101-.278-.252-1.113-.655-.37-.201-.741-.352-.834-.403-.371-.201-1.391-.654-1.484-.654-.092 0-.927-.353-1.112-.453-.093-.101-1.113-.504-1.577-.655-.092 0-.37-.1-.463-.201a4.593 4.593 0 0 1-.742-.303c-.278-.05-.742-.251-1.02-.352-.278-.151-.649-.252-.742-.252-.092 0-.278-.05-.463-.15-.186-.102-.371-.152-.464-.152l-.37-.1c-.094-.101-.372-.152-.557-.202-.65-.201-1.205-.403-1.484-.504a.588.588 0 0 0-.37-.15c-.093 0-.279-.051-.464-.152-.278-.15-.556-.251-1.67-.604-.37-.1-.834-.201-.926-.252-.186-.05-.278-.1-.371-.1-.186 0-.557-.101-.927-.202-.186-.1-2.04-.554-2.226-.604-.463-.1-1.112-.302-1.112-.302 0-.05-.093-.05-.186-.05s-.278-.05-.556-.152c-.186-.05-.464-.15-.65-.2-.277-.051-.648-.152-.834-.253l-.741-.201c-.186-.05-.464-.1-.65-.201-.278-.101-.927-.202-1.483-.252-.093-.05-.278-.101-.278-.151-.093 0-.186-.05-.278-.05-.093 0-.279-.051-.371-.101-.093-.05-.278-.101-.371-.101-.093 0-.186-.05-.278-.05 0-.05-.093-.101-.278-.101-.093-.05-.279-.1-.371-.1-.093-.051-.464-.152-.742-.202-.371-.05-.65-.151-.65-.151l-.37-.101c-.185-.05-.464-.1-.556-.151-.186-.05-.464-.1-.557-.151-.092-.05-.278-.1-.37-.1-.093 0-.279-.051-.464-.051l-.927-.252c-.279-.05-.65-.151-.742-.151-.093 0-.186 0-.278-.05 0-.05-.186-.101-.464-.151-.185-.05-.649-.202-1.02-.252-.278-.1-.649-.151-.649-.151-.093 0-.185-.05-.278-.1-.093 0-.278-.102-.37-.102-.372-.1-1.392-.604-1.67-.755-.093-.05-.093-.15-.093-.201 0-.05-.185-.202-.278-.302-.185-.101-.278-.202-.37-.303 0-.1-.186-.251-.464-.453a2.603 2.603 0 0 1-1.02-1.007c-.093-.1-.278-.302-.464-.352-.093-.1-.278-.202-.278-.252 0-.05-.093-.151-.278-.201-.093-.05-.186-.151-.186-.151 0-.05-.092-.151-.278-.202-.37-.252-1.298-1.108-1.298-1.259l-.278-.15c-.278-.101-.37-.202-.278-.303.093-.201-.464-.453-.927-.453-.186 0-.371 0-.371-.05-.093 0-.278-.05-.464-.05-.185-.051-.556-.101-.649-.152-.556-.1-.556-.15-.927-.15a8.328 8.328 0 0 1-1.113-.202c-.093-.1-1.39-.252-1.669-.252-.092 0-.185 0-.185-.05-.093-.05-.835-.252-1.298-.252-.186-.05-.557-.1-.835-.151a7.22 7.22 0 0 0-.742-.1c-.185 0-.37-.051-.556-.102a2.9 2.9 0 0 1-.649-.1c-.278 0-.464-.05-.556-.05 0-.05-.186-.05-.278-.101-.093 0-.557-.05-.928-.101-.37-.05-.834-.1-.927-.151-.185 0-.37 0-.463-.05-.186 0-.279 0-.371-.05-.093 0-.371 0-.742-.051-.278-.05-.835-.1-1.113-.151-.37-.05-.834-.05-1.02-.1-2.596-.253-3.616-.353-4.543-.404-.37 0-.835-.05-1.113-.05-1.112-.201-9.735-.201-12.053-.05-.186.05-1.113.05-1.948.1-1.947.05-3.245.151-3.894.202-.278.05-.927.1-1.483.1-2.318.202-3.895.403-4.266.554-.185.101-.278.101-.556.05-.278 0-.463 0-2.04.303-.649.1-1.669.352-1.854.453 0 0-.278.05-.371.1-.185 0-.464.101-.65.152-.185.1-.37.15-.463.15-.092 0-.185.051-.278.051-.185.05-.463.151-.742.202-.278 0-.649.1-.741.15-.186 0-.835.152-1.391.303-.65.1-1.298.251-1.391.302-.185 0-.556.1-.742.15-.185.051-.556.102-.742.202a6.34 6.34 0 0 0-.927.252c-.37.1-.834.252-1.112.352-.279.101-.65.252-.835.303-.278.05-.649.201-.834.251-.279.101-.65.202-.742.252-.65.151-1.762.453-1.855.504-.092 0-.185.05-.185.05-.278 0-1.484.352-2.225.604-.65.202-1.206.403-1.67.504-.185.05-.463.15-.648.251-.464.202-.557.152-1.206-.553-.185-.202-.556-.504-.649-.605-.37-.302-.463-.352-1.298-1.208-.278-.353-.649-.705-.834-.755-.093-.05-.186-.151-.186-.151 0-.101-.649-.756-.834-.907-.093-.05-.186-.1-.186-.15 0-.051-.185-.202-.37-.404-.093-.201-.279-.402-.279-.453 0-.05-.092-.201-.278-.302-.093-.15-.185-.302-.185-.352 0-.05 0-.101-.093-.151-.093 0-.093-.05-.093-.101 0-.05-.278-.403-1.02-1.31a16.56 16.56 0 0 0-.742-.855c-.092-.151-.185-.252-.185-.302-.093 0-.185-.101-.834-.957-.186-.302-.464-.604-.557-.655 0-.05-.185-.302-.37-.503a6.429 6.429 0 0 0-.557-.705 6.429 6.429 0 0 0-.556-.705 3.573 3.573 0 0 1-.742-.906c-.278-.302-.556-.605-.556-.655-.093-.05-.186-.201-.279-.352-.278-.302-.463-.554-.556-.756-.093-.1-.278-.352-.463-.554-.186-.2-.371-.453-.464-.503 0-.05-.371-.453-.742-.906a8.341 8.341 0 0 1-.649-.806s-.185-.252-.464-.554c-.278-.302-.649-.856-.927-1.208-.463-.705-.741-1.058-1.483-1.813a16.109 16.109 0 0 1-1.298-1.46 3.581 3.581 0 0 1-.371-.453c-.186-.151-.278-.302-.278-.353l-.186-.201a10.4 10.4 0 0 1-.649-.856c-.278-.353-.742-.907-1.02-1.259-.37-.352-.649-.705-.742-.806 0-.1-.185-.251-.185-.352-.093-.05-.278-.252-.37-.403-.094-.151-.28-.352-.372-.503-.556-.705-.463-.756.835-.202.185.1.37.151.463.151.093 0 .371.1.742.252.278.151.742.302.927.352.186.05.464.151.464.151 0 .05.093.05.185.05 0 0 .278.102.557.253.185.201.463.302.556.302 0 0 .185.05.278.1.093.101 1.298.605 1.67.705.092.05.277.151.555.252.186.151.557.302.928.403.278.151.649.252.741.302.093.05.464.201.742.302.278.1.557.202.65.252.185.15.463.302.741.302.185.05.278.1.834.352.186.101.557.252.835.353.37.151.742.302.834.352.186.101.371.151.464.151 0 0 .278.152.65.303.37.15.648.302.648.302.093 0 .278.05.371.1.093.05.464.202.742.302.278.05.649.252.927.353l.556.201c.093 0 .279.05.371.101.093.1.371.201.65.252.185.05.648.252 1.02.403.277.15.648.251.741.251 0 0 .093.05.185.05.093.101.742.303.928.303 0 0 .185.05.278.15.093.102.37.202.649.253.278.05.463.15.463.15.093.051.279.152.464.202l.37.1c0 .102 1.392.454 1.577.404.093-.05.742.201.927.352.093.1.279.151.279.151.092 0 .185.05.37.1.093.051.279.102.371.102.186 0 .464.1.742.201.556.201.835.302 1.484.352.278.05.741.152 1.205.303.464.15.927.302 1.205.352.371 0 1.113.201 1.206.302.185.151 2.225.453 2.781.453.464 0 .928-.15.928-.302 0 0 0-.05.092-.05.093 0 .186-.1.371-.252.093-.151.278-.302.278-.352.093 0 .093-.101.186-.202.093-.15.185-.302.278-.403.093-.15.278-.402.37-.604.279-.503 1.299-1.661 1.763-2.014.463-.302.556-.403 1.112-1.007.186-.201.464-.453.65-.554.092-.1.277-.201.277-.252.093-.05.279-.251.464-.453.464-.352.927-.856 1.02-1.057.185-.202.556-.655.649-.655 0-.05.185-.201.37-.403.094-.15.28-.402.372-.453.185-.15.37-.302.834-.805.093-.101.278-.252.278-.252.093-.05.557-.554.557-.655 0-.05 0-.1.092-.15.093 0 .65-.605.835-.907.093-.05.185-.201.278-.252 0-.1.093-.201.093-.252 0 0 .093-.15.185-.251.186-.202 1.113-1.51 1.206-1.763 0-.05.185-.251.278-.453.185-.15.278-.302.278-.352 0 0 .093-.101.093-.151.278-.403.37-.454.463-.705 0-.151.093-.302.093-.403.093-.1.278-.504.464-.906.092-.151.278-.504.278-.756.185-.403.649-1.56.834-1.661.186-.151.278.1.557 1.107 0 .353.092.705.185.756.093.1.186.352.186.604.092.252.278.503.278.655.092.1.185.352.278.503.185.453 1.112 2.014 1.39 2.266.186.15.464.604.557.654 0 .101.185.252.278.353.093.1.278.352.371.453 0 .1.185.302.278.403 0 .05.093.151.093.151 0 .05.093.201.278.352.186.202.278.353.278.403 0 0 .093.151.278.252.093.151.279.302.279.352.092.152 1.112 1.36 1.39 1.561.093.101.279.252.371.302.093.101.186.152.186.202 0 .05.185.15.278.302.185.151.463.352.556.453.278.302.557.604 1.02.957.186.15.371.352.464.403 0 .1.556.554.741.705.186.15.557.453.742.654.093.1.278.302.464.403l.37.302c0 .05.186.151.279.252.185.1.464.302.556.403.093.1.371.302.464.352.185.1.278.202.278.302.093.05.185.151.278.151.186.05.371.151.464.252.463.453 1.854.453 2.04 0 0-.1.092-.201.185-.252.093-.05.186-.1.186-.15 0 0 .185-.202.37-.353l.371-.302c0-.101 1.484-1.158 1.67-1.209 0-.05.092-.1.092-.1 0-.05.185-.202.556-.353.278-.151.464-.302.464-.302 0-.05.185-.151.37-.252.094-.05.279-.15.279-.201 0-.05.093-.1.278-.202.186-.05.278-.15.278-.15s.371-.252.927-.555c.464-.251 1.02-.604 1.206-.704.278-.101.556-.303.649-.403.093-.101.464-.302.742-.453.278-.202.556-.403.741-.504.093-.151.371-.302.464-.352.186-.101.278-.202.278-.202 0-.1.557-.503 1.113-.805.37-.202.742-.454.834-.554.835-.655 5.564-3.324 5.842-3.324 0 0 .185-.05.278-.15 0-.051.278-.202.464-.252.092-.05.927-.454 1.761-.907.742-.403 1.577-.805 1.67-.856.185 0 .277-.1.277-.1 0-.05 1.67-.957 2.69-1.46 1.02-.555 1.39-.706 1.483-.706.093 0 .463-.15.834-.352.742-.403 1.577-.806 2.504-1.057.278-.101.649-.252.742-.353.092-.05.278-.1.278-.1.185 0 1.112-.252 1.205-.303 0-.05.093-.05.186-.05.092 0 .278-.05.463-.1.464-.101.464-.101-.093.956a9.317 9.317 0 0 1-.463.856c-.093.302-.278.604-.278.705-.093.1-.093.252-.186.302 0 .1-.093.252-.185.302 0 .1-.093.302-.186.403-.092.15-.092.302-.185.352-.835 1.26-1.484 2.367-1.484 2.568 0 .101-.092.202-.092.252-.186.151-.557.655-.928 1.46-.092.151-.185.403-.37.604-.186.303-.371.605-.371.756-.093.201-.371.705-.65 1.158-.092.201-.185.403-.278.503 0 .101-.092.202-.185.302 0 .05-.093.202-.093.353 0 .151-.092.252-.092.302-.093.05-.186.1-.186.151 0 .1-.185.453-.278.806-.185.403-.37.805-.464.956 0 .101-.092.303-.092.353-.093.05-.093.352-.186.554-.093.252-.185.604-.185.805a2.58 2.58 0 0 0-.186.907c-.741 3.172-.649 2.82-.927 4.783-.093.554-.185 1.058-.185 1.158-.093.151-.093.403-.093.655-.093.252-.093.503-.093.554-.185.554-.278.906-.278 1.259a2.542 2.542 0 0 0-.185.856c-.186.453-.279 1.057-.557 2.114-.092.202-.185.453-.185.554-.093.1-.093.453-.186.806-.092.654-.185.805-.37 1.259-.093.15-.093.201.092.352.186.1.278.201.278.252 0 .05.093.1.186.15.278.152 1.02-.05 1.112-.25 0-.102.093-.152.186-.202 0-.05.093-.101.093-.151 0-.101 0-.202.092-.302 0-.05.093-.353.186-.655.185-1.158.278-1.36.37-1.611.093-.151.186-.504.279-.806 0-.302.093-.654.185-.755.093-.151.093-.453.093-.655.093-.201.185-.705.278-1.108.093-.402.186-.856.186-1.057v-.403c.092 0 .278-1.812.37-2.668.093-.151.093-.403.186-.554.093-.151.185-.756.278-1.31.093-.604.278-1.309.278-1.56.093-.202.186-.655.278-1.007.093-.302.186-.705.279-.957.092-.201.185-.554.278-.806 0-.251.092-.554.185-.705.093-.15.093-.402.186-.604 0-.15.092-.352.185-.403.093-.1.186-.251.186-.402.092-.152.185-.303.278-.403 0-.05.092-.202.092-.302 0-.101.093-.303.279-.454.092-.15.278-.352.278-.453a7.43 7.43 0 0 1 .463-.956c0-.05.186-.353.371-.605.093-.201.278-.453.278-.554.093-.05.186-.251.279-.453.092-.15.185-.402.278-.453 0-.1.092-.201.092-.252 0-.1.093-.251.186-.352.093-.1.185-.252.185-.302 0-.1.278-.655.464-.907.093-.1.556-.805.927-1.46.186-.251.371-.554.371-.654.278-.302.37-.554.464-.907 0-.15.185-.402.278-.503.093-.1.278-.403.37-.705.464-1.007.557-1.108.742-.806.093.151.186.151.371.151.186-.05.371-.05.371-.05.186 0 1.391-1.662 1.576-2.216.093-.1.186-.302.279-.453 1.112-1.158 1.298-1.41 1.298-1.661.092-.252.092-.302-.278-.453l-.371-.202.185-.352a2.63 2.63 0 0 1 .371-.554c.185-.151.185-.353.278-.604 0-.403.093-.504.371-.907.093-.1.185-.252.185-.352.093-.151.928-1.058 1.113-1.209 0-.05.093-.15.093-.251.093-.05.185-.252.37-.353.093-.151.279-.302.372-.403.092-.1.37-.352.556-.554.278-.201.649-.553.927-.755.186-.201.464-.403.464-.453.093 0 .278-.151.463-.352.279-.353.557-.554.928-.856.185-.05.278-.152.278-.152 0-.05.556-.402 1.02-.704.278-.152.556-.353.649-.403 0-.101.185-.151.278-.202.185-.1.556-.403.556-.453 0 0 .093-.1.278-.15.371-.152.371-.404.093-.706-.185-.201-.185-.201-.742-.201-.278 0-.556.05-.741.05zm-1.855 1.056c.278.101.186.303-.463.655-.464.302-1.762 1.209-1.762 1.31 0 .05-.556.553-.742.654l-.37.302a5.314 5.314 0 0 1-.743.654 2.853 2.853 0 0 1-.556.454c-.093.1-.185.201-.185.251a18.4 18.4 0 0 0-.742.756c0 .05-.464.554-.742.856-.185.201-.556.805-.649 1.007 0 .1-.093.251-.185.352 0 .05-.186.302-.186.504-.278.654-.37.906-.463.956 0 .05-.186.202-.279.353a1.49 1.49 0 0 1-.278.302s-.092.05-.092.151c-.093.1-.186.252-.371.352-.371.403-.557.655-.65.806 0 .1-.092.202-.185.252-.093.1-.185.403-.093.705.093.252.186.302.557.252.278 0 .278.15.185.453-.185.251-.278.302-.37.201-.093-.05-.186-.05-.279-.05-.093 0-.278-.05-.37-.1-.279-.051-.742-.051-1.02.05-.093.05-.372.1-.557.1-.093.05-.278.1-.37.151-.094 0-.186.05-.279.05l-.556.101c-.835.252-1.206.302-1.298.302l-.186.101c0 .05-.278.1-.463.151-.186 0-.65.151-.928.302a3.89 3.89 0 0 1-.741.302c-.186 0-1.113.403-1.762.705-.278.202-.65.302-.65.302-.185.05-.37.151-1.76.856-.557.252-1.206.605-1.392.705-.278.101-.463.252-.463.252 0 .05-1.113.655-1.206.655 0 0-.37.15-.649.302-.37.201-.742.352-.742.352-.092 0-.741.403-.741.453 0 .05-.093.151-.278.151-.186.05-1.02.454-1.762.856-.835.454-1.484.806-1.576.806 0 0-.186.05-.279.151-.556.353-1.02.604-1.112.604 0 0-.093.05-.093.101-.093.1-.278.201-.464.302a3.73 3.73 0 0 0-.463.202c0 .05-.371.251-.835.503-1.112.655-1.947 1.158-2.596 1.712-.185.151-.37.252-.37.252s-.186.1-.372.252c-.185.15-.37.251-.463.302-.093.05-.278.15-.464.302-.185.15-.37.352-.556.403-.186.1-.371.201-.371.302a.694.694 0 0 1-.278.15l-.186.101c0 .05-.37.303-.834.554-.927.504-1.762 1.058-2.504 1.46a7.495 7.495 0 0 1-.741.454c-.464.302-1.02.654-1.113.755-.093.1-.185.151-.278.201-.278.101-1.391.957-1.67 1.26-.463.503-.555.503-1.02.1-.092-.151-.37-.353-.555-.504-.464-.302-1.762-1.36-2.226-1.812-.092-.101-.278-.302-.463-.403-.093-.05-.186-.151-.186-.201 0 0-.092-.101-.185-.152-.186-.05-.371-.251-.464-.352-.093-.1-.278-.352-.463-.504-.186-.2-.464-.453-.557-.553a5.37 5.37 0 0 0-.649-.554c-.463-.353-.556-.453-.742-.705a12.934 12.934 0 0 0-1.112-1.259c-.186-.252-.371-.453-.371-.504 0-.05-.093-.2-.278-.302-.186-.1-.278-.302-.371-.453-.093-.201-.186-.302-.65-.856-.37-.352-.834-1.108-1.205-1.661-.185-.252-.37-.454-.37-.504 0 0-.186-.201-.279-.403-.092-.15-.278-.352-.278-.453-.092-.1-.463-.906-.556-1.208-.093-.101-.186-.353-.186-.554-.092-.252-.185-.453-.278-.504-.092 0-.185-.302-.185-.654-.093-.302-.093-.756-.186-.957-.092-.201-.092-.604-.185-.906 0-.252-.093-.554-.185-.605-.093-.1-.093-.302-.093-.453 0-.453-.371-.604-1.206-.554-.37 0-.927.302-.927.504-.092.1-.185.302-.278.453-.185.151-.278.353-.278.504-.093.15-.278.402-.464.705-.185.2-.463.755-.556 1.107-.185.604-.834 2.266-.927 2.417-.093.1-.186.252-.186.353 0 .05-.185.302-.37.503-.371.453-1.113 1.46-1.113 1.561 0 .1-.371.705-.65.957-.092.15-.185.302-.185.403 0 .15-.092.201-.092.251-.093 0-.186.05-.186.101 0 .05-.093.151-.185.252-.093.1-.186.201-.186.252-.092.05-.185.15-.278.201-.093.1-.185.201-.185.252 0 .1-.928 1.107-1.113 1.259-.093.05-.649.604-1.484 1.46-.185.251-.37.453-.37.554 0 .05-.093.15-.186.15-.185.051-.278.101-.278.152 0 .05-.556.654-.742.856-.093.1-.463.403-.742.654-.463.453-.741.806-1.298 1.209-.092.05-.185.15-.185.201-.093.05-.278.252-.464.504-.278.201-.463.352-.463.402 0 0-.093.05-.093.101-.278.1-1.205 1.209-1.576 1.762-.093.152-.278.403-.371.554-.093.202-.278.403-.371.554-.185.1-.278.202-.37.202-.28 0-.928-.151-1.392-.302-.278-.101-.463-.152-.556-.152 0 0-.278-.05-.464-.1a7.534 7.534 0 0 1-1.02-.252c-.37-.05-.834-.201-1.112-.252-.186-.05-.464-.15-.65-.15l-.927-.253c-.37-.15-.741-.251-.834-.251 0 0-.093-.05-.185-.05-.093-.051-.279-.101-.464-.152-.185-.05-.464-.1-.65-.201-.555-.151-1.483-.453-2.132-.604-.37-.101-.834-.252-.927-.302a.588.588 0 0 0-.37-.152l-.557-.201c-.278-.1-.835-.302-1.205-.453-.371-.1-1.299-.453-1.855-.705-.649-.201-1.39-.504-1.669-.604-.278-.101-.742-.252-.927-.353-.186-.1-.556-.201-.65-.251-.092-.05-.463-.152-.74-.303-.28-.1-.464-.201-.557-.201 0 0-.464-.201-1.02-.403-.556-.252-1.113-.503-1.391-.604-.278-.05-.742-.252-1.113-.403-.556-.302-1.761-.755-1.947-.755 0 0-.556-.252-.927-.453a.588.588 0 0 0-.37-.151c-.094 0-.279-.101-.557-.202a7.55 7.55 0 0 0-.835-.352c-.278-.151-.834-.353-1.205-.554-1.113-.504-1.205-.554-1.762-.755-.37-.151-.649-.252-.742-.303-.092-.05-.278-.15-.556-.251-.185-.05-.556-.151-.649-.202-.093-.05-.649-.251-1.113-.402-1.298-.454-2.781-1.108-3.616-1.662-.37-.202-.556-.302-.741-.302-.093.05-.186 0-.279-.05-.092-.05-.556-.05-.834 0-.371.1-.093.855.464 1.208.278.1.556.453.556.503 0 .05.093.101.093.151.092.05.185.101.185.202.093.1.742.755 1.113 1.208.278.252.37.605.185.605-.185-.05-.927-.655-1.39-1.108-.279-.302-.742-.655-1.206-.957-.186-.05-.371-.252-.65-.403-.185-.15-.926-.604-1.575-1.007-.742-.352-1.577-.805-1.855-.956l-.649-.353c-.185-.1-1.205-.755-1.483-.957-.093-.1-.371-.302-.65-.453-.556-.252-.927-.503-.927-.554 0-.05-.556-.402-1.298-.805-.741-.403-1.39-.806-1.576-.907-.278-.251-.742-.503-1.113-.654-.37-.1-.649-.302-1.39-.755-.186-.152-.557-.353-.65-.403-.185-.101-.278-.202-.185-.202.093 0 1.762.504 1.947.554.186.1 1.298.453 1.298.453.093 0 .371.101.65.202.37.15.834.302 1.112.352.278.1.649.202.834.252.371.151.928.352 1.577.554.185.1.37.15.463.15 0 0 .279.102 1.02.353.093.05.464.151.742.252.278.05.556.151.556.151s.186.1.464.151c.37.101.649.202.927.302.093.05.278.101.464.101.093 0 .185 0 .185.05s.186.101.371.151c.278.05.835.202 1.298.353.371.151 1.02.302 1.391.403.37.1.65.201.835.201.556.202 1.854.554 2.04.554.092.05.185.05.278.1.278.101 1.39.353 1.483.353.093 0 .186.05.371.1.093.051.464.152.742.202.278.05.649.151.834.202.186.1.65.201 1.02.302.371.1.742.201.835.252.092 0 .278.05.463.1.093 0 .278.05.371.05.093.051.278.101.556.152.186.05.557.1.742.201l.371.1c.186 0 .278.051.927.253.186.05.464.1.65.15.185 0 .37.051.37.051 0 .05.278.1.557.1.092.051 1.947.454 2.04.504.278.1 1.483.403 1.761.453.093 0 .464.101.835.202.278.05.556.15.649.15.092 0 .37.051.649.152.278.05.834.201 1.298.252.649.15.927.201 1.947.302.185.05.464.1.556.1 0 .05.278.05.464.101.37 0 1.205.151 1.576.252.093.05.278.05.371.05.093 0 .185 0 .278.05 0 0 .371.152.835.252.741.202.834.202 1.761.252 1.02 0 1.298-.05 1.484-.453.185-.403.834-1.208 1.113-1.41.092-.05.185-.201.185-.252 0-.1.649-.604.834-.604.093 0 .093-.05.093-.1 0 0 0-.05.093-.05s.093 0 .093-.051c0-.05.278-.252.556-.453.37-.202.649-.403.649-.504l.464-.252c.092-.1.37-.251.463-.352.093-.151.278-.302.371-.353.186-.05.371-.201.464-.302.092-.15 1.112-1.007 1.205-1.057l.371-.302c.185-.202.464-.403.649-.554.185-.1.37-.252.37-.252 0-.1.65-.604.743-.654.092 0 .092-.05.092-.101 0-.1.65-.604.835-.705l.185-.1c0-.051.093-.101.186-.202.649-.453 1.112-.806 1.205-.957 0-.05.186-.201.278-.302.186-.1.464-.352.65-.604.278-.252.556-.504.741-.604.093-.05.186-.152.186-.202 0 0 .185-.15.463-.302.278-.151.464-.302.464-.352 0-.101.37-.403.742-.655.278-.151.649-.403 1.761-1.259.186-.15.464-.302.557-.352.092 0 .278-.151.463-.302.186-.151.65-.454 1.206-.756.463-.251.927-.503.927-.554 0-.05.092-.05.092-.05.093 0 .279-.1.928-.554.092-.1.278-.252.37-.302.093-.05.279-.201.371-.352.186-.252.928-.856 1.113-.856.093 0 .093-.05.093-.151 0-.101.093-.202.37-.353.279-.15.464-.302.557-.403.093-.1.278-.302.556-.453.279-.15.464-.302.464-.352 0-.05 1.113-.605 1.205-.605.557 0 2.318.856 3.06 1.46.186.101.371.303.556.404.371.2 1.391 1.41 1.391 1.61 0 0 0 .051.093.051 0 0 .185.353.464.705.556.957.649 1.057.834 1.611.186.554.278.756.464 1.007.092.101.185.302.278.403 0 .151.185.403.37.604.186.202.279.403.279.454l.37.503c.186.252.464.554.65.705.093.151.185.252.185.302 0 .05.093.1.093.202.093.05.37.453.649.805.278.403.556.856.65.957.37.403.555.755.74 1.007.094.1.186.252.186.302.093 0 .186.201.278.403.186.453.928 1.259 1.299 1.46.278.151.37.201.741.201.557 0 .65-.05.65-.302 0-.1.092-.201.185-.302.093 0 .185-.1.185-.15 0-.051.093-.152.278-.253.186-.1.279-.201.279-.201 0-.05.463-.302.649-.352.185 0 .556-.303.556-.403l.37-.101c.186-.05.279-.1.372-.201l.37-.202c.186-.05.464-.201.65-.352.185-.151.37-.302.649-.353.278-.05 1.205-.503 1.576-.805.093-.05.185-.101.278-.101 0 0 .278-.05.371-.151.185-.1.742-.353 1.298-.604.556-.252.927-.454.927-.504 0-.05.093-.15.278-.201.371-.101 1.577-.655 2.04-.907.186-.15.557-.251.742-.302.093-.1.278-.15.371-.251.093-.05.278-.152.464-.202.556-.201 1.947-.856 2.967-1.46.092-.05.278-.202.37-.252.186-.05.65-.302 1.02-.554 1.02-.554 2.226-1.158 2.597-1.309.092-.05.463-.201.741-.352.279-.151.742-.353.835-.403.185-.05.742-.353 1.298-.604.464-.252 1.02-.504 1.113-.504.278-.1.741-.302 1.576-.705.278-.15.742-.352 1.02-.403.185-.05.556-.15.649-.251l.37-.101c.094 0 .279-.05.279-.1.185-.102 1.854-.655 2.04-.655.093 0 .278-.05.463-.151.279-.05.557-.152.742-.202.093-.05.278-.1.371-.201.093-.101.371-.151.835-.151.092-.05 1.298-.353 1.576-.453.093-.05.37-.101.463-.152.093-.05.279-.05.371-.1.186-.05.371-.101 1.02-.252.65-.1.742-.151.927-.201.093 0 .371-.101.557-.151.185-.05.649-.202.927-.252.185-.1.556-.151.649-.202.65-.15 1.39-.352 1.576-.503.464-.252.65-.302 1.02-.453.186-.05.464-.101.65-.151.556-.202 1.576-.303 2.688-.353.557 0 1.113-.05 1.298-.05.093 0 .278.05.371.1zM30.691 28.451c.185.15.278.302.37.403 0 .1.186.352.371.553.464.454.557.705.371.605-.185-.101-.741-.605-.741-.756 0-.05-.186-.201-.279-.402-.185-.152-.37-.403-.463-.504 0-.252.092-.252.37.1zm1.669 2.215c.185.1.556.604.556.655 0 .1.464.654.649.805.093.05.185.151.278.252 0 .1.186.252.278.302a18.814 18.814 0 0 1 1.855 2.266c.092.151.185.353.278.353 0 .05.093.1.093.1 0 .05.185.302.463.605.65.654.835 1.007.835 1.158v.15l-.278-.15c-.093-.101-.371-.252-.557-.353-.185-.15-.37-.302-.37-.352-.093-.202-.65-.856-1.113-1.31-.278-.15-.464-.402-.557-.503-.092-.1-.185-.252-.37-.352-.093-.101-.186-.202-.186-.252 0-.05-.37-.604-.464-.755a4.695 4.695 0 0 1-.649-.907c-.185-.403-.649-1.057-.927-1.46-.278-.352-.093-.453.186-.252zm72.878 19.789c.186.1.371.15.464.15 0 0 .185.051.278.101.093.101.278.151.371.151 0 0 .093 0 .093.05 0 0 .092.051.278.101.185 0 .278.05.278.101 0 0 .278.151.65.252.555.201 1.946.957 1.854 1.007h-.835c-.834.05-.834.05-1.02-.05-.742-.554-2.225-.705-3.152-.403-.186.1-.464.15-.464.15a.588.588 0 0 0-.37.152c-.094.05-.28.201-.465.302-.278.151-1.02.755-1.02.806 0 0-.092.15-.185.251-.278.202-.37.554-.37.957 0 1.31 0 1.31.277 1.561.186.302.835.604 1.391.755.278.101.464.151.464.252 0 .201-.093.201-.927-.151-.371-.151-.65-.252-.65-.252-.185 0-1.483-.705-1.854-.956-.185-.152-.463-.353-.649-.353-.093-.05-.185-.05-.185-.151.092-.05 0-.151-.093-.252-.093-.1-.186-.201-.278-.252-.093-.15-.278-.402-.464-.453-.37-.1 0-1.812.464-2.114 0-.05.092-.101.092-.101 0-.05.093-.151.279-.252.092-.05.185-.151.185-.151 0-.05.186-.201 1.02-.655 1.02-.604 1.669-.755 3.43-.704.835 0 .835 0 1.113.15zm28.558 7.653c.279.1.557.151.65.151.092 0 .185.05.37.1.093.051.371.102.557.152.185 0 .37.05.463.05 0 .05.742.202 1.391.353l.742.201c.185.05.463.1.742.151l.37.1c0 .051.186.102.464.152l.742.201c.649.202.927.252 1.298.302.185 0 .37.05.464.101.092.05.463.202.927.302 1.669.453 3.43.907 3.523 1.007a.45.45 0 0 1 .186.05c.092 0 .463.101.834.152.278.1.742.201.927.251.186.05.371.101.464.152.185.05.742.2.927.2 0 0 .186.051.371.152.093.05.464.151.65.201.463.101.74.202 1.019.353l.37.1c.094 0 .279.05.464.101.186.101.464.151.65.202.278.05.37.1.463.15l.093.051c.093 0 .278.05.463.151.186.1.371.151.464.151 0 0 .278.1.556.151.186.101.464.202.557.202.092 0 .463.1.834.251.278.151.742.353.835.403.185.05.37.151.556.151.185.05.464.151.742.252.185.1.463.201.463.201 0-.05.279.05.557.202.185.1.463.201.556.201 0 0 .093.05.278.101.093.05.278.151.371.151.093.05.464.201.835.352.278.202.834.403 1.02.504 1.112.453 1.761.806 2.874 1.41 1.298.705 2.596 1.46 2.874 1.661.093.05.371.152.557.252.185.101.37.252.463.302 0 .05.093.101.093.101.093 0 .093.05.093.05 0 .05.092.151.185.202.093.05.65.352 1.205.705.557.352 1.02.604 1.02.604.093 0 .093.05.093.05 0 .05.093.101.093.202.556.352.834.554.927.654.093.05.278.252.556.403.65.453.742.504.928.755.092.151.278.303.37.353.093.05.186.1.186.15 0 .051.093.152.278.253.185.15.37.352.464.453.092.1.278.252.37.302.093.1.279.252.371.352.279.252.371.353.65.605.092.1.37.302.556.503.185.202.463.403.556.504l.278.15c0 .101.65.756.835.857.092.1.185.201.185.251 0 0 .093.202.278.353.093.151.279.352.371.403.093.1.186.252.278.302l.186.201c0 .05.093.202.278.302.093.05.185.151.185.202.093.15.279.352.464.554.185.1.278.302.37.403 0 .05.094.15.186.2 0 .051.093.102.093.152 0 0 .093.1.093.201.093.05.185.151.185.202 0 .05.093.1.093.201.093.05.185.1.185.151 0 .05.093.151.186.252.278.352.556.755.556.856 0 0 0 .05.093.05 0 0 .185.202.278.454.093.251.278.553.464.704.092.151.185.303.185.353 0 .05 0 .1.093.151.093 0 .093.05.093.1-.093.051 0 .252.37.555 0 .05.093.251.186.453.093.15.185.352.278.453 0 .05.185.252.185.453.093.151.186.353.279.403.092.201.37.856.37 1.007 0 .1 0 .151.093.151 0 .05.093.201.186.352 0 .151.092.303.092.303.093.1.186.453.464 1.007 0 .201.093.402.185.453 0 .05.093.201.093.352 0 .151 0 .302.093.302 0 .05.37 1.158.464 1.612 0 .15.092.302.092.352.093.05.186.252.186.453v.957c.092.302.092.604.092.654 0 .05 0 .152.093.152 0 .05.093.302.093.553 0 .303 0 .605.093.655.092.1.092.151.092.201-.092 0 0 .454 0 .957.093.554.093.957.093 1.007-.185.05-.742-.15-1.02-.302-.093-.1-.185-.201-.278-.201-.278 0-2.874-1.159-2.874-1.31l-.093-.05c-.093 0-.371-.1-.556-.201-.279-.05-.464-.151-.557-.151l-.556-.302a9.03 9.03 0 0 0-1.02-.454c-.186-.05-.65-.251-.927-.402a3.302 3.302 0 0 1-.464-.303c-.093 0-1.02-.503-1.205-.654 0-.05-.186-.1-.186-.1-.185 0-.556-.202-.556-.253 0-.05-.278-.201-.65-.352-.277-.151-.555-.302-.555-.353 0 0-.093-.1-.279-.1-.278-.101-.741-.353-.741-.403 0 0-.093-.1-.278-.201-.186-.05-.371-.202-.464-.303-.186-.15-.371-.302-.556-.352-.186-.05-.279-.151-.279-.151 0-.05-.092-.1-.185-.151-.185 0-.278-.05-.278-.1 0-.051-.186-.152-.835-.555l-.556-.302a1.96 1.96 0 0 0-.65-.403c-.277-.15-.463-.302-.463-.352.093-.05-.092-.151-.37-.302a3.302 3.302 0 0 1-.464-.302c0-.05-.278-.202-.65-.403-.37-.202-.648-.453-.648-.504l-.186-.1c-.185 0-.649-.303-.649-.403 0 0-.185-.1-.278-.202-.185-.05-.37-.15-.37-.15 0-.051-.279-.252-.65-.454-.463-.201-.742-.403-.742-.403 0-.05-.185-.15-.37-.302-.186-.1-.371-.252-.371-.252 0-.05-.093-.1-.093-.1-.093-.05-.278-.202-.464-.302-.092-.101-.556-.302-.834-.504-.278-.15-.557-.352-.65-.453-.092-.05-.277-.201-.556-.302a2.883 2.883 0 0 1-.556-.403c-.093-.151-.463-.403-.834-.604a8.375 8.375 0 0 1-1.02-.655c-.278-.15-.557-.352-.742-.453-.186-.05-.278-.151-.278-.201 0-.101-.278-.353-.464-.403-.278-.05-.742-.302-.742-.453-.092-.05-.278-.202-.556-.353-.185-.15-.37-.252-.37-.302 0 0-.094-.1-.279-.151-.185-.05-.278-.1-.278-.1 0-.051-.464-.353-1.02-.706-.556-.302-1.113-.654-1.205-.755-.093-.1-.65-.503-1.113-.705-.278-.1-.371-.201-.556-.453-.093-.05-.371-.252-.65-.352-.278-.101-.463-.202-.463-.252 0-.1 0-.151-.093-.151s-1.39-.705-1.39-.756c0 0-.279-.2-.742-.453-.371-.201-.742-.453-.835-.503 0-.1-.185-.202-.37-.252-.186-.05-.279-.151-.279-.201l-.093-.05c-.092 0-.185-.051-.278-.101 0-.05-.278-.252-.649-.454-.37-.201-.834-.453-1.112-.654l-.835-.453c-.093-.05-1.02-.554-2.04-1.058-.927-.554-1.762-1.007-1.854-1.007-.093-.05-.278-.1-.278-.201l-.279-.151c-.092 0-.278-.101-.463-.202-.278-.1-.742-.352-1.113-.503-1.02-.453-1.947-.957-1.854-.957.278 0 .37-.15.278-.252-.093-.05-.186-.1-.186-.15 0-.101-2.04-.756-2.318-.756 0 0-.185-.05-.463-.151-.278-.1-.65-.201-.742-.302-.556-.151-.834-.302-1.02-.453 0-.101-.278-.202-.37-.252-.186-.05-.464-.151-.464-.252-.093-.05-.186-.1-.279-.1 0 0-.463-.202-.834-.403-.37-.202-.927-.403-1.113-.504a3.449 3.449 0 0 1-.649-.252c-.278-.1-.556-.251-.741-.251-.186-.05-.279-.101-.279-.151 0-.05-2.04-.856-2.318-.856l-.37-.202c-.279-.05-.464-.15-.557-.15-.093 0-.185-.051-.278-.051-.093-.1-1.113-.403-1.39-.403-.186 0-1.763-.655-2.133-.856-.093-.05-.371-.201-.742-.352-.371-.101-.742-.252-.927-.353a.694.694 0 0 0-.279-.151c-.185 0-1.112-.352-1.205-.453 0 0-.093-.05-.185-.05l-.186-.101-.185-.1c-.278 0-1.02-.504-1.02-.605 0-.1-.093-.151-.093-.202-.093 0-.185-.05-.185-.1 0-.202-.65-.957-.928-1.007-.092 0-.092-.05-.092-.101 0-.1.463-.151 2.225-.201.278-.05.742-.05.927-.101.186-.05.371-.05.464 0 .093.05.278.05.556 0 .186 0 .371-.05.464 0 .185.05 1.947 0 2.04-.05.092 0 .649 0 1.298-.05.834 0 1.205 0 1.39-.051 0-.05.186-.05.371-.1.464 0 .742-.051.928-.102.092-.05 1.02-.201 1.483-.201h.556c.279-.05.464-.05.464-.1.093-.051.186-.101.371-.101.093 0 .278-.05.37-.05.186-.051.372-.101.464-.101.093 0 .464-.05.742-.152.186-.1.557-.2.742-.2.093-.051.37-.051.556-.102.557-.05.65-.05 1.298.101zM112.1 60.777c.278.05.463.1.556.1 0 .05.093.05.185.05.371 0 .742.253.742.555 0 .352 0 .352-.463.1-.186-.1-.65-.302-1.02-.503-.835-.453-.835-.453 0-.302zm1.947 1.158c.093 0 .185.05.37 0 .279 0 .372 0 .557.15.185.152.278.152.65.152.463 0 .648.1 1.019.453.185.252.185.252 1.947 1.36 1.298.755 1.576.906 3.338 1.36.464.1.927.352 1.67.704.185.1.555.252.834.302.278.05.649.202.741.252.186.1.464.201.65.252.278.05.648.15 1.39.352.371.1.835.202 1.113.202.093 0 .278.05.37.1.093.05.279.1.464.1.186 0 .371.051.557.102 0 .05.185.1.278.1.093 0 1.947.605 1.947.655 0 .05.093.05.185.1.186 0 .464.101.65.202.185.1.463.252.649.302.278.1 1.02.453 2.596 1.259.185.1.463.201.556.201 0 .05.093.101.093.101 0 .05.185.201.463.302.186.151.742.453 1.113.705.464.302.927.554 1.02.604.185 0 .278.101.37.202 0 .1.464.403 1.392.906.185.1.463.252.556.353.093.1.37.2.464.251.092.101.185.151.185.151 0 .05.185.101.37.202.094.1.28.201.28.252 0 .1.555.453.74.453.094 0 .094.05.094.05 0 .05.092.1.185.1l.278.152c.093.15.742.654.835.654.092 0 .092.05.092.05 0 .051.093.101.279.152.092.05.185.1.185.15 0 .051.185.202.464.303.278.151.463.302.463.352 0 0 .278.202.65.454.463.201.741.402.741.402 0 .101 1.113.806 2.874 1.813.186.1.371.252.464.302 0 .05.185.202.37.302.186.151.464.252.557.302 1.298.856 1.484.957 1.484 1.007 0 0 .092.05.278.101.093 0 .185.1.185.1 0 .051.371.303.742.504.464.252.835.504.742.504 0 .05.185.151.463.252.186.1.371.201.464.302 0 .05.37.302.835.554.463.251.834.453.834.503 0 0 .093.1.278.202 1.02.654 1.298.856 1.298.906 0 0 .093.1.278.1l.557.303c.092.1.37.302.556.403.186.1.371.2.371.251 0 0 .093.101.185.101.093.05.186.151.186.151 0 .1.556.504.742.554.185.05.37.151.37.252.093.1.279.201.371.251.093.05.279.152.371.252.093.1.278.151.371.151 0 0 .186.05.186.151.092.05.185.151.278.202.092.05.278.201.463.302l.557.302c.092.05.185.151.185.201 0 .05 1.576 1.058 2.133 1.41.185.05.37.202.37.302.093.101.279.202.464.252.093.05.186.1.186.151 0 .05.834.504.927.504 0 0 .185.1.278.201.093.151.464.403.835.604.463.202.834.453.927.554 0 .1.185.151.185.151.093 0 .186.05.278.151.186.151 1.206.705 1.298.705l.186.1c0 .051.37.303.649.454.37.201.927.554 1.298.806.37.201.742.453.835.453.092.05.185.1.185.15 0 0 .093.051.185.051 0 0 .093.05.093.101 0 .05.093.1.186.1.092.051.463.202.927.404.37.251.834.402.927.453.185.05.278.1.278.1 0 .101.556.454.742.454a.45.45 0 0 1 .185.05c0 .05.371.302.928.604l1.112.604c.093.101.186.202.278.202.186.1.093.15-.185.15-.093 0-.371-.05-.464-.1-.37-.15-.834-.252-1.298-.352-.278-.05-.463-.101-.556-.151-.093 0-.371-.05-.556-.101-.186-.05-.835-.151-1.299-.302l-2.04-.504c-.092 0-.278-.05-.556-.15-.185-.051-.463-.102-.556-.102-.185 0-.464-.1-.742-.2-.37-.102-.834-.253-1.02-.353-.649-.151-1.112-.302-1.298-.353-.093-.05-.463-.15-.834-.252-.464-.15-.742-.251-.742-.251 0-.05-.093-.05-.093-.05-.093 0-.278-.051-.278-.101l-.37-.202c-.186 0-.557-.15-.743-.252-.278-.15-.556-.251-.741-.352-.093-.05-.371-.151-.464-.201-.093-.101-.37-.202-.556-.252-.186-.1-.464-.202-.65-.302-.185-.101-.463-.202-.556-.252-.092-.05-.463-.151-.649-.252-.278-.1-.463-.201-.556-.201l-.742-.302c-1.576-.806-2.225-1.058-2.318-1.058-.093 0-.093-.05-.093-.05 0-.05-.185-.151-.463-.252-.557-.252-1.576-.806-1.576-.856 0-.05 0-.05-.093-.05s-.278-.05-.927-.403c-.557-.252-1.02-.504-1.113-.504-.093 0-.835-.352-1.669-.805-.185-.1-.464-.202-.464-.202-.092 0-.556-.251-1.112-.553-.557-.303-1.02-.554-1.113-.554 0 0-.37-.202-.834-.403l-.835-.453c-.093 0-.278-.05-.278-.151-.093-.05-.093-.101-.185-.101 0 .05-.186-.05-.464-.201l-.371-.202c-.185 0-.649-.302-.649-.352 0-.05-.093-.05-.185-.05a.588.588 0 0 1-.371-.152c-.093-.05-.186-.1-.279-.1-.092 0-.092-.05-.092-.05 0-.051-.186-.152-.371-.253-.278-.1-.464-.201-.371-.201 0-.05-.093-.05-.093-.1-.092 0-.185-.051-.185-.051 0-.05-.093-.1-.186-.1-.185-.051-.278-.101-.37-.152 0-.05-.279-.252-.557-.403-.278-.15-.463-.251-.463-.302 0-.05-.557-.302-.742-.302-.093 0-.186-.1-.186-.15 0-.051-.185-.202-.37-.253-.093-.05-.371-.251-.557-.352-.185-.151-.37-.252-.37-.252-.093 0-.279-.1-.372-.201l-.278-.151c-.092 0-.37-.151-.37-.202 0 0-.279-.201-.65-.403-.278-.15-.741-.402-.834-.503-.093-.1-.278-.201-.371-.201-.093 0-.186-.05-.186-.101 0-.05-.278-.252-.834-.554-1.02-.554-1.576-.806-1.669-.806a.588.588 0 0 1-.37-.15c-.372-.253-.743-.504-.835-.555-.093 0-.186-.05-.186-.1-.093 0-.185-.05-.278-.05l-.37-.202c-.279-.1-.65-.202-.835-.252-.186-.1-.464-.201-.742-.302-.186-.1-.371-.151-.464-.151-.092 0-.37-.1-.556-.252-.185-.1-.464-.201-.556-.201l-.371-.1c-.186-.102-.371-.152-.371-.102 0 0-.186-.05-.278-.15-.093-.051-.278-.101-.371-.101l-.371-.101c-.093-.05-.278-.1-.37-.151-.094 0-.28-.05-.372-.1-.093-.102-1.669-.555-1.947-.555l-.185-.1s-.093-.05-.186-.05-.278-.051-.463-.051c-.557-.202-1.113-.302-1.206-.302-.093 0-.185-.05-.37-.05-.279-.152-1.392-.353-1.67-.353-.092 0-.278-.05-.463-.05-.093-.05-.371-.101-.464-.101a2.9 2.9 0 0 1-.649-.1c-.37-.152-1.298-.303-1.854-.353-.186-.05-.279-.101-.371-.202 0-.15-.278-.402-.371-.453-.093-.05-.093-.1-.186-.15 0-.051-.092-.253-.278-.353-.092-.151-.185-.353-.185-.454 0-.1 0-.251-.093-.352-.185-.252-.278-1.762-.185-2.316.092-.252.092-.252.092-1.007 0-.302 0-.604-.092-.655 0-.1-.093-.453-.093-.906-.093-.755-.186-.957-.835-1.712 0-.1-.092-.202-.092-.252 0-.05 0-.1-.093-.15-.093 0-.093-.051-.093-.102 0 0-.092-.15-.185-.251s-.186-.302-.278-.403c0-.1-.093-.202-.186-.202-.092-.05-.185-.1-.185-.15 0-.051-.093-.152-.186-.252l-.185-.202c0-.05 0-.1-.093-.201-.093-.1-.278-.252-.278-.353-.093-.1-.278-.251-.37-.352-.464-.453-.743-.705-.835-.705-.093-.05-.279-.201-.464-.353-.185-.15-.464-.302-.464-.302-.092 0-.092-.05-.092-.05 0-.1-.371-.302-.557-.302 0 0-.092-.05-.092-.1 0-.102.185-.152.278-.051zm68.613 36.052c.279.1.464.201.464.201s.093.05.185.151c.093.101.186.151.279.202.37.05.649.1.649.15 0 .101 1.39.806 1.947.957.37.101.649.202 1.112.403 0 0 .186.101.279.202.185.1.37.15.463.15.093 0 .278.051.371.101.186.152.556.202.835.202.185 0 .556.302.556.403 0 .05-.278.05-.65 0-.092-.05-.37-.101-.555-.101-.186-.05-.464-.1-.557-.1l-.742-.202c-.185 0-.463-.1-.556-.1-.093-.051-.278-.102-.37-.102-.186-.05-.279-.1-.372-.15 0-.101-.556-.554-.649-.554 0 0-.185-.05-.278-.101-.185-.05-.37-.202-.556-.252-.186-.05-.278-.151-.278-.151 0-.1-1.02-.806-2.04-1.36-.278-.15.092-.1.463.05zm-76.124 94.259c-.927.302-.834.453.186.453.927-.05 1.02-.05.927-.353-.185-.251-.556-.302-1.113-.1z"/></svg>