<svg version="1.0" xmlns="http://www.w3.org/2000/svg" width="266.667" height="266.667" viewBox="0 0 200 200"><path d="M76.76 9.518c-.304.154-.608.72-.81 1.594 0 .206-.203.618-.406.926-.202.309-.405.72-.506.926-.101.206-.202.412-.304.463 0 .103-.101.154-.101.206-.101.103-.202.309-.304.463-.202.206-.304.411-.304.514 0 .052-.1.206-.202.257-.101.052-.203.258-.304.412-.304.617-.506.874-1.215 1.543-.203.309-.81.617-1.114.617-.101 0-.304.052-.506.155-.102.103-.304.154-.304.154-.101 0-.304.052-.405.103-.203.103-.507.154-.71.206-.202.051-.404.103-.404.154 0 .051-.101.051-.203.051-.1 0-.202 0-.202.052-.203.103-2.43.154-3.443 0a36.146 36.146 0 0 0-2.127-.103c-.202 0-.506-.051-.709-.103-.202-.051-.506-.103-.506-.051-.203 0-.911-.052-1.924-.257-.405-.052-.911-.103-1.114-.155-.203 0-.608-.051-.709-.103-.304-.051-.607-.051-1.62-.154-.101 0-.506 0-.709-.051-.304 0-1.013-.103-1.418-.155-.506 0-1.114-.103-1.316-.103-.203 0-.709-.103-1.013-.103a47.676 47.676 0 0 1-3.443-.565 11.87 11.87 0 0 0-.81-.155c-.203-.051-.608-.103-.709-.205a8.65 8.65 0 0 0-1.013-.206c-.303-.052-.607-.155-.708-.155 0-.051-.102-.051-.203-.051-.101 0-.506-.103-1.013-.206-.405-.103-.81-.205-.911-.205-.101 0-.405-.103-.709-.258a18.87 18.87 0 0 1-.911-.36 2.576 2.576 0 0 1-.507-.206c-.1-.102-1.721-.823-2.227-1.028-.608-.258-.912-.36-1.013-.36 0 0-.506-.206-1.114-.515-.608-.257-1.114-.514-1.215-.514-.101 0-.304-.052-.304-.103-.304-.309-.405-.412-.709-.514-.405-.155-1.012-.258-1.215-.155-.304.155-.405.875-.405 1.595 0 .411 0 .771-.101.874v.206l-.71-.051h-.708l-.304.205c-.304.309-.405.258.912 1.595.1.103.303.412.405.669.202.257.405.566.506.668.101.103.304.36.304.566 0 .206.202.566.304.772.303.463.405.823.607 1.234 0 .103 0 .206.101.258 0 .103.102.205.203.926 0 .36.101.72.101.771.101.103.203.515.203 1.183 0 .103.101.309.202.463 0 .155.102.463.102.618.1.205.1.411.202.411.101.103.101.257.101.823 0 .257.203.566.304.669.304.103.304.36.101.617-.202.309 0 .926.304 1.235.101.103.203.36.304.514 0 .36 0 .36-.203.463a.44.44 0 0 0-.303.103s-.203.154-.304.257c-.81.412-.912.515-.912.566 0 .051-.1.103-.1.103-.203 0-.912.463-1.216.823a1.277 1.277 0 0 1-.405.36c-.101.051-.203.154-.203.206 0 .154-.1.205-.303.205-.203 0-.304.052-.405.155 0 .154-.203.36-.304.411-.102 0-.304.155-.405.309a1.277 1.277 0 0 1-.405.36c-.405.257-.912.669-1.013.875 0 .205-.203.462-.506.617 0 .051-.102.206-.203.36-.101.463-.202.514-.304.72-.101.103-.202.309-.304.412-.1.102-.202.308-.202.411-.101.103-.101.309-.101.412-.102.514-.304 1.08-.405 1.131-.102.052-.203.206-.203.412-.101.72-.202 1.029-.405 1.08 0 .051-.101.309-.203.72 0 .412-.1.72-.1.772-.102.103-.203.411-.203.771-.102.36-.102.772-.203.875-.101.309-.101.977 0 1.08.101.052.101.103 0 .206 0 .051-.101.309-.101.463-.101.206-.101.514-.203.669v1.286c0 .051-.1.154-.1.205v.926c-.102.823-.102 1.8 0 2.52v.875c0 .309 0 .566.1.618.102 0 .102.154.102.36 0 .36.1 1.646.1 2.109.102.154.102.308.203.36.102 0 .102.154 0 .257 0 .257.102.463.304.772.101.051.101.102.101.154-.1 0 0 .103.102.206.101.051.101.205.101.36a.336.336 0 0 1 .101.257c.102 0 .102.154.203.309 0 .154.101.257.101.308.101 0 .101.103.101.155 0 .102 0 .205.102.205.1.052.1.103.1.206 0 .051.102.206.203.257.102.103.203.206.203.309 0 .463.202.977.405 1.132.304.154.304.205.203.411 0 .103 0 .257.1.36.102.103.203.257.203.36 0 .206.102.412.405.669.102.051.102.154.102.257 0 .052.1.154.1.206.203.103.305.309.305.669.101.205.202.36.304.565.1.052.202.31.303.515.203.463.203.514.81 1.286.102.206.304.463.304.566 0 .051.102.154.203.154.101.103.202.206.202.36s.102.257.102.36c.1.052.202.103.202.155 0 .051.101.154.203.205.1.052.202.257.202.412.101.154.101.308.203.36.304.257.506.566.506.617 0 .052.101.206.203.36.202.155.405.412.405.566.1.154.303.412.405.617.202.206.405.515.506.67.203.205.304.41.405.462 0 .103.101.206.203.257 0 .052.202.36.506.618.304.308.506.617.608.771.1.206.405.515.607.617 0 .052.101.206.203.309.202.257.607.669 1.215 1.235.202.205.506.565.607.771l.71.72c.1.206.303.36.303.412 0 .051 1.317 1.389 2.33 2.263.202.257.404.515.506.566.1.052.303.257.405.36.202.154.506.412.607.515.203.102.405.308.507.411.1.154.303.36.506.463.101.154.405.309.506.412.203.102.304.205.304.257 0 .051 0 .154.101.206 0 .051.203.205.405.411.203.154.405.36.405.412.102 0 .203.102.203.154 0 .051.101.154.202.206.203.154.507.463.507.514 0 .051.202.257.506.514.304.258.709.618.912.772.506.566.81.772.91.823.102.052.102.103.102.154 0 .052.203.258.912.772.202.103.303.257.405.309 0 .103.1.205.202.257.101.051.203.103.203.154 0 0 .101.103.304.206.1.103.405.36.607.566.203.154.405.36.506.411.102.103.304.206.406.309 0 .103.303.309.506.463l.405.309c0 .051.101.154.304.257.101.154.506.463.81.771.304.309.709.618.911.72.101.103.304.206.304.258 0 .051.81.668.911.72.203.103.608.411.71.514 0 .103.202.257.404.36.203.103.304.206.304.258-.101 0 0 .102.203.154l.202.206c0 .102 1.215 1.183 1.418 1.234l.101.052c0 .102 1.317 1.44 1.52 1.543 0 .051.303.308.607.566.304.308.607.565.709.617.1 0 .1.051.1.051-.1.052 1.115 1.286 1.52 1.646.202.103.304.31.405.412.101.103.202.257.405.36.101.051.203.154.203.154 0 .052.1.103.202.206.101.052.203.154.203.206 0 .103.405.463.506.566.101.051.202.154.202.205 0 .103.102.258.304.36l.203.206c0 .052.304.309.607.618.304.36.71.72.912.926.101.205.304.36.405.411.101.051.202.103.202.154 0 .052.203.258.405.463.203.258.406.463.406.463 0 .103.81.926.91.978 0 0 .102.051.203.154 0 .103.203.36.406.566.202.257.405.514.506.617.101.154.304.36.405.566.202.154.304.309.304.36 0 .051.202.309.506.566.304.308.608.669.81.823.101.154.304.36.304.463.101.103.203.257.304.308.101.103.202.155.202.206 0 .052.203.257.304.463.203.155.608.617.81.926.203.309.507.566.507.617.1.052.303.309.405.566.202.257.405.515.506.566 0 .052.101.206.202.36.102.154.203.36.304.463.102.103.304.309.304.515.101.205.304.36.304.411a.434.434 0 0 1 .202.36c.102.154.203.309.304.36 0 .103.101.206.101.309 0 .103 0 .206.102.257.101 0 .101.103.101.154 0 .103.101.206.203.258 0 .102.1.205.1.308 0 .103.102.206.203.257 0 .052.102.052.102.103-.102 0 0 .052 0 .155.202.205.405.617.506.823 0 .154.202.36.304.514.101.206.202.463.304.617.1.206.202.36.202.36 0 .052.101.309.101.566 0 .309.102.515.203.566.202.103.506.823.607 1.286 0 .206.102.463.203.566.101.103.203.36.203.463.1.103.1.36.202.514 0 .155.203.515.203.772.1.309.202.669.303.874.102.206.102.463.102.618.1.205.1.463.202.565.101.155.101.36.203.463 0 .103 0 .206.101.258.101.103.101.257.101.617.102.154.102.309.102.36.1 0 .1.206.1.412.102.154.203.462.203.565.102.155.203.412.102.566 0 .155.1.309.1.309.102.051.203.566.203 1.029.102.514-.1 4.526-.1 4.835-.102.154-.102.617-.102.977a15.288 15.288 0 0 1-.405 2.315c-.101.154-.203.309-.203.36.102.052-.101.926-.506 1.852-.101.154-.101.412-.203.566 0 .154-.1.257-.1.309-.102 0-.102.051-.102.154 0 .051 0 .206-.101.309-.102.308-.405 1.028-.507 1.44-.101.206-.202.411-.202.463a1.024 1.024 0 0 0-.304.72c-.101.154-.203.36-.203.463-.1.154-.1.309-.1.411 0 .103-.102.206-.203.258 0 .051-.102.103-.102.154 0 .103 0 .154-.1.206-.102 0-.102.154-.203.257 0 .257-.102.566-.304.977-.102.206-.304.412-.304.515-.203.514-.304.668-.405.874-.101.103-.203.309-.203.412 0 .103 0 .257-.1.308 0 .052-.102.206-.203.36 0 .155-.203.412-.304.566-.203.309-.304.412-.507 1.08-.1.258-.405.72-.607 1.08-.203.36-.405.824-.507 1.03-.1.257-.202.617-.303.823-.102.205-.203.565-.304.771 0 .206-.203.515-.304.617-.101.155-.202.36-.304.463 0 .155-.101.258-.101.309-.101 0-.101.051-.101.103 0 .103-.102.309-.304.514-.101.206-.203.412-.203.463.102.052 0 .155-.1.206-.203.154-.507.617-.608.823 0 .103-.203.36-.405.617-.406.618-.608.978-.81 1.44-.102.206-.203.412-.304.464 0 .103-.203.36-.304.617-.101.257-.304.514-.304.617-.203.206-.405.72-.911 1.8-.102.206-.203.515-.304.618-.101.154-.203.257-.203.309.102.102-.202.823-.607 1.44a9.014 9.014 0 0 1-.405.72c0 .206-.203.669-.405.977-.507.978-.71 1.338-.912 1.75 0 .257-.202.565-.304.72-.1.205-.202.36-.202.462 0 .052 0 .103-.101.103 0 .052 0 .052-.102.412-.101.154-.202.308-.202.36-.102.051-.203.206-.203.411-.101.155-.202.412-.304.515-.1.154-.202.36-.202.463 0 .103-.101.257-.203.36 0 .103-.1.309-.1.514 0 .155-.102.36-.203.463 0 .103-.102.206-.102.309 0 .051-.101.257-.101.411-.101.155-.203.515-.304.772 0 .257-.101.514-.202.617 0 .052-.102.309-.203.515-.101.463-.202.668-.607 1.183-.102.206-.203.411-.203.514 0 .052-.101.206-.203.36 0 .103-.1.206-.1.309.1.051 0 .154-.102.257 0 .052-.101.154-.101.257 0 .052-.102.206-.203.309-.101.257-.202.36-.304.72 0 .103-.1.309-.202.463-.405.566.304 1.132 1.114.926.202 0 .506-.051.607-.051.203 0 .507-.103 1.013-.412.405-.206.911-.463 1.114-.514.101-.103.405-.206.608-.309.1-.103.405-.257.607-.309.304-.051.506-.205.608-.257.202-.051.304-.103.405-.103 0 0 .202-.051.304-.103.1-.102.303-.154.303-.154.102 0 .912-.309 1.013-.36 0-.051.101-.051.304-.051.101 0 .202 0 .202-.052 0 0 .304-.154.71-.257.404-.103.708-.206.708-.206 0-.051 0-.051.101-.051.102 0 .304-.052.507-.155.304-.051.709-.205 1.012-.257l.608-.206c.101-.051.405-.205.81-.308.405-.155.81-.309.911-.36.203-.052.507-.206.71-.257.202-.052.404-.206.607-.258.202-.051.304-.103.304-.103.101 0 .506-.154 1.012-.308.507-.155 1.013-.309 1.216-.36l.405-.103.607-.206c.203-.051.507-.154.608-.154.202-.103.911-.257 1.823-.36.607-.052 4.658-.103 4.86 0 .102 0 .405 0 .81.051.304 0 .81.052 1.013.052.101.051.608.154 1.114.205.506.052.912.155 1.013.155.101.051.202.051.304.051.1 0 .405.103.81.206.405.154 1.114.308 1.417.411 1.418.309 2.026.618 2.532 1.39.203.205.405.41.506.462 0 .052.102.103.102.103 0 .052.1.154.303.257.102.103.203.257.203.257 0 .052.101.155.203.258.202.051.303.154.405.205 0 .103.202.258.506.412.202.154.405.309.405.36 0 0 .101.103.304.206.405.206.81.514.81.566 0 .051.101.051.202.051 0 0 .102 0 .102.052 0 .051.101.102.202.154.304.154 1.52.977 1.52 1.029l.404.205c.203.155.507.36.71.463 1.012.515 2.328 1.235 2.53 1.235 0 0 .203.103.203.154.203.257.912.618 1.52.772.202.051.607.206.81.308.303.103.708.31.91.412.203.051.608.206.811.309.203.103.405.205.506.205 0 0 .304.103.507.155.202.103.81.308 1.215.411.405.103.911.206 1.012.309.203.051.507.154.81.206.203.051.71.205.912.308.203.052.709.155 1.013.206.303.051 1.114.206 1.721.309.608.103 1.317.205 1.62.257.203 0 .507.051.71.051.303.052 1.518.155 2.531.206 1.114.052 3.038.257 3.443.36.203 0 .709.103 1.215.103.507.051 1.317.103 1.823.206 1.519.257 1.722.257 1.823.257.101 0 .506.051.81.103.405.051 1.114.154 1.62.154.405.052 1.114.206 1.418.257.405.103.709.155.81.155 0 0 .304.051.709.154.304.103.607.154.709.154 0 0 .101 0 .101.052 0 0 .203.051.506.103.304.051.608.154.81.154.102 0 .406.103.81.154.406.052.71.155.71.155.1.051.202.051.303.051.102 0 .507.052.912.154.303.103 1.012.258 1.417.36.405.103 1.013.206 1.317.31.202.05.607.102.709.153.101 0 .303.052.303.052.203.103.912.257 1.418.36.203 0 .405.103.608.154.101.052.607.155 1.012.309.304.103.71.206.71.206l.607.205c.506.103.81.155 2.127.412a8.65 8.65 0 0 0 1.012.206c.304.103.709.154.81.154.102 0 .203 0 .304.051 0 .052.101.052.203.052.1 0 .202.051.202.103.101.051.101.051.203.051 0-.051.405.052.911.155.506.051.911.154 1.013.154l.405.103c.405.103 2.126.308 2.734.308.101 0 .405.052.608.155.303.103.81.257 1.215.36.405.051.81.154.911.206.405.102.912.102 1.215.051.912-.257 1.317-.412 1.418-.566.101-.154-.202-.566-.608-.617-.1-.052-.303-.103-.405-.154-.1 0-.202-.052-.202-.052-.203 0-1.013-.206-1.114-.309-.101 0-.304-.051-.506-.102l-.608-.155c-.101-.051-.202-.103-.304-.103-.101.052-.709-.154-.911-.308-.101-.103-.304-.155-.304-.103-.101 0-.101 0-.101-.052 0-.051-.101-.051-.101-.051-.102 0-.507-.103-.81-.257-.406-.155-.912-.309-1.216-.36-.202-.052-.506-.155-.607-.155-.102-.051-.304-.102-.405-.154a4.176 4.176 0 0 1-.608-.206c-.203-.103-.304-.154-.405-.154-.101 0-.203-.051-.405-.103-.101-.051-.304-.103-.304-.103 0 .052-.203 0-.304-.051-.101-.052-.202-.103-.304-.103-.1 0-.303-.052-.911-.36-.202-.103-.608-.257-.81-.36a2.576 2.576 0 0 1-.506-.206c-.102 0-.203-.103-.405-.103-.304-.103-1.216-.566-1.317-.771l-.506-.258c-.203-.051-.507-.257-.71-.36-.202-.154-.404-.257-.404-.257-.101 0-.203-.154-.405-.309-.102-.154-.507-.463-.71-.72-.303-.257-.607-.566-.708-.771-.101-.155-.304-.309-.304-.36-.101-.052-.101-.103-.101-.155 0-.051-.203-.257-.405-.463-.203-.257-.405-.463-.405-.514 0-.052-.203-.257-.405-.412a6.653 6.653 0 0 1-.608-.72c0-.206-.202-.411-.304-.514-.1-.052-.202-.206-.202-.309 0-.154-.101-.308-.304-.463-.304-.154-.405-.308-.405-.411 0-.103-.101-.309-.203-.463-.202-.155-.303-.36-.202-.412l-.203-.411c-.202-.206-.405-.566-.506-.772a3.126 3.126 0 0 0-.506-.72c-.102-.154-.203-.309-.203-.36 0-.052-.101-.154-.202-.206l-.203-.206c0-.051-.101-.205-.202-.36l-.405-.411c0-.052-.203-.257-.304-.412-.203-.154-.304-.308-.304-.308 0-.052-.101-.155-.203-.258-.202-.103-.303-.308-.405-.411-.202-.36-.607-.926-.81-1.08-.202-.103-.709-.67-.709-.72 0-.052-.202-.206-.506-.412a3.089 3.089 0 0 0-.608-.463c-.1-.103-.202-.257-.405-.36a7.99 7.99 0 0 0-.607-.515 3.395 3.395 0 0 0-.81-.617c-.507-.257-.71-.463-1.114-.926-.102-.051-.304-.205-.507-.308-.202-.103-.303-.206-.405-.258 0-.102-.202-.257-.303-.463-.203-.205-.406-.411-.406-.565-.1-.103-.202-.258-.303-.309-.203-.103-.71-.669-.71-.772 0 0-.1-.051-.202-.154-.101-.051-.202-.257-.304-.36-.1-.103-.303-.412-.506-.566-.202-.206-.506-.514-.607-.669-.102-.205-.304-.36-.304-.36-.102-.051-.102-.154-.102-.205 0-.206-.303-.566-.506-.618 0-.051-.101-.051-.101-.103.101-.051-.203-.565-.506-1.08-.102-.103-.304-.411-.406-.617-.1-.206-.303-.412-.506-.566-.101-.103-.304-.309-.405-.566 0-.206-.101-.411-.202-.463-.102 0-.203-.257-.304-.463a2.126 2.126 0 0 0-.405-.617c-.203-.206-.608-1.235-.608-1.595 0-.154-.101-.308-.304-.463-.101-.102-.304-.308-.304-.514-.1-.206-.202-.411-.202-.566-.101-.103-.101-.257-.101-.308 0-.206-.304-.926-.507-1.184 0-.102-.1-.257-.1-.36-.102-.205-.507-.823-.608-.823-.203 0-.406-.257-.304-.308.101-.103.202-.618 0-.772-.102-.154-.405-.617-.405-.72 0-.052-.102-.154-.102-.206-.1-.103-.202-.206-.202-.308-.101-.103-.101-.31-.203-.412 0-.103-.202-.309-.405-.463-.304-.36-.405-.463-.101-.772.101-.205.101-.771 0-.925-.101-.052-.101-.258-.101-.463-.102-.412-.102-.515-.405-.67 0-.05-.102-.205-.102-.36-.1-.154-.202-.36-.202-.514-.101-.103-.203-.411-.304-.72-.101-.566-.202-.771-.608-1.337-.202-.36-.202-.463-.202-.72.101-.206.101-.309 0-.36-.101-.052-.203-.155-.203-.206 0-.103-.1-.309-.202-.412 0-.154-.101-.463-.203-.617a.691.691 0 0 0-.202-.514l-.304-.31c0-.05-.101-.205-.203-.256-.1-.052-.1-.155-.1-.257.1-.052 0-.258-.102-.412-.405-.566-.608-1.183-.81-1.646 0-.103-.101-.257-.101-.309-.102-.051-.203-.308-.304-.668-.102-.72-.203-.823-.507-1.338-.202-.257-.303-.514-.303-.617 0-.052 0-.154-.102-.257-.303-.258-.405-.515-.506-.772 0-.154-.101-.36-.304-.514-.101-.155-.202-.258-.202-.515s-.102-.36-.304-.566c-.101-.102-.304-.257-.304-.308-.101-.103-.202-.36-.304-.618-.101-.411-.101-.462-.405-.668-.304-.155-.304-.155-.304-.515s-.303-.977-.607-1.028c-.101-.052-.304-.31-.405-.618 0-.103-.101-.257-.203-.308-.101 0-.101-.155-.202-.258 0-.102-.102-.205-.203-.257 0 0-.101-.206-.101-.514-.101-.36-.203-.566-.304-.669 0-.051-.101-.154-.101-.206.101-.103 0-.257 0-.411-.101-.154-.203-.515-.304-.823-.101-.309-.101-.617-.202-.617-.102-.103-.102-1.08-.102-3.704-.101-1.543-.101-2.52-.202-2.624v-.771c.101-.515.101-.72 0-.926-.102-.103-.102-.617-.203-1.029 0-.463 0-.874-.101-.926-.101-.051-.101-.154 0-.257 0-.051 0-.154-.101-.206-.203-.103-.405-.926-.405-1.389 0-.257-.102-.36-.203-.411 0-.052-.101-.103-.101-.155.101 0 0-.102-.101-.154-.102-.103-.102-.206-.102-.308.102-.052.102-.155 0-.155 0-.051-.101-.206-.101-.411 0-.309-.101-.566-.203-.669 0 0-.1-.103-.1-.206 0-.154-.102-.463-.305-.823a.772.772 0 0 1-.202-.463c-.101-.154-.203-.411-.203-.514-.1-.103-.202-.257-.202-.309 0-.103 0-.154-.101-.154 0-.052-.102-.154-.102-.257 0-.103-.101-.258-.101-.309-.101-.103-.203-.257-.304-.36 0-.309-.202-.669-.304-.72 0-.052-.1-.206-.1-.412-.102-.154-.203-.36-.203-.411-.102-.103-.102-.155-.203-.257 0-.206-.101-.36-.202-.566-.102-.155-.203-.309-.203-.412.101-.051.101-.103 0-.154-.101 0-.101-.052-.101-.052v-.154c-.102-.103-.203-.309-.304-.669-.101-.154-.203-.36-.304-.463-.202-.102-.202-.257-.304-.411 0-.154-.1-.412-.1-.566-.102-.154-.203-.36-.203-.463 0-.051 0-.154-.102-.206-.101 0-.101-.051 0-.051.203-.103.102-.257-.101-.36-.203-.103-.304-.257-.405-.566-.101-.257-.203-.463-.203-.514-.1-.103-.607-.72-.708-.978-.304-.411-.507-.771-.81-.926-.203-.103-.304-.308-.406-.411a.434.434 0 0 0-.202-.36c0-.052-.101-.206-.203-.36-.202-.36-.709-.926-.911-.926 0 0-.101-.052-.101-.155l-.304-.308c-.304-.206-.608-.515-.608-.618 0 0-.101-.102-.202-.154-.102-.051-.203-.154-.203-.206 0-.051-.101-.154-.202-.205-.102 0-.203-.103-.203-.155 0-.051-.101-.154-.304-.257-.202-.103-.303-.206-.303-.257 0-.052-.102-.154-.203-.257-.304-.103-.405-.258-.405-.463 0 0-.101-.052-.101-.155-.102-.051-.405-.257-.71-.463-.202-.154-.506-.36-.506-.36-.1 0-.1-.051-.1-.103 0-.051-.102-.154-.203-.205-.608-.412-.71-.463-.71-.566 0-.052-.607-.566-.91-.72-.102-.052-.406-.257-.71-.618a6.424 6.424 0 0 0-1.012-.617c-.101-.103-.101-.154-.101-.154 0-.052-.203-.206-.405-.309-.203-.154-.405-.308-.405-.36 0 0-.203-.154-.406-.257-.1-.103-.303-.206-.303-.257 0 0-.102-.103-.304-.206-.608-.309-.912-.514-.912-.72a2.523 2.523 0 0 0-.708-.515c-.304-.154-.608-.36-.608-.463a2.116 2.116 0 0 0-.405-.308c-.203-.052-.304-.155-.304-.155 0-.051-.202-.154-.405-.257-.202-.051-.405-.205-.405-.308-.101-.103-.203-.206-.304-.258-.101-.051-.202-.154-.304-.257 0-.103-.1-.206-.303-.206-.203-.102-.304-.154-.405-.36-.304-.463-.608-.668-1.418-1.08-.203-.051-.304-.154-.304-.206 0 0-.101-.154-.304-.257-.101-.103-.202-.257-.304-.308-.1-.206-.405-.515-.708-.618-.102 0-.203-.103-.203-.154 0-.103-1.013-.823-1.316-.926-.102-.051-.203-.103-.102-.103 0-.051-.405-.411-.911-.669a2.182 2.182 0 0 1-.506-.36c-.102-.103-.405-.257-.507-.36a2.116 2.116 0 0 0-.405-.308c-.101-.052-.202-.206-.405-.309-.81-.514-1.215-.823-1.316-.926-.102-.051-.102-.103-.203-.103-.101 0-.101-.051-.101-.051 0-.052-.203-.155-.405-.257-.203-.103-.405-.31-.507-.412 0-.051-.1-.154-.202-.154-.101-.052-.101-.103-.101-.155 0-.051-.102-.154-.304-.257-.203-.103-.304-.257-.405-.36 0-.154-.203-.309-.405-.411-.203-.155-.405-.258-.405-.309 0 0-.102-.103-.304-.154-.101-.052-.405-.309-.608-.566a3.089 3.089 0 0 0-.607-.463c-.203-.052-.304-.154-.304-.154 0-.155-.304-.412-.81-.72-.203-.104-.405-.258-.405-.31 0-.05 0-.102-.102-.154 0 0-.1-.154-.202-.257a1.277 1.277 0 0 0-.405-.36c-.101-.051-.203-.103-.203-.154 0-.052-.405-.36-.911-.617-.203-.103-.304-.206-.304-.31 0-.102-.101-.153-.101-.205-.304 0-.608-.309-.608-.463 0-.051-.101-.154-.202-.206-.203-.154-1.114-1.028-1.418-1.44-.101-.103-.203-.206-.304-.206a1.109 1.109 0 0 1-.506-.566c0-.102-.101-.205-.203-.257l-.202-.103c0-.051-.101-.102-.101-.154-.102-.051-.203-.103-.102-.103 0-.051-.101-.206-.304-.308-.202-.155-.405-.31-.405-.36 0-.052-.1-.103-.1-.206-.102-.052-.203-.103-.203-.155 0-.051-.102-.205-.203-.308-.202-.103-.304-.257-.304-.257 0-.052 0-.103-.101-.103 0-.052-.101-.103-.101-.206-.102-.103-.203-.154-.304-.206 0-.051-.101-.154-.101-.206 0-.102-.102-.205-.304-.308-.101-.103-.304-.257-.304-.36-.101-.103-.304-.258-.405-.412-.202-.154-.304-.257-.304-.36.102-.103-.202-.463-.607-.669L64 67.028c0-.052-.101-.155-.202-.206-.203-.154-.405-.412-.405-.617-.102-.052-.203-.155-.203-.206-.203-.103-.203-.257-.101-.309.101 0 .101-.051 0-.103-.203-.103-.507-.566-.507-.771 0-.206-.1-.412-.405-.566-.1-.103-.202-.36-.202-.669 0-.103-.101-.257-.203-.309-.101-.051-.202-.154-.101-.36 0-.154-.101-.308-.101-.36-.102-.051-.203-.154-.203-.257 0-.309-.101-.566-.202-.617 0-.052-.102-.309-.102-.617 0-.258-.1-.515-.202-.566-.101-.103-.203-.463-.101-.669.1-.103 0-.257 0-.463-.102-.206-.102-.36-.102-.411 0-.103 0-.258-.1-.36-.102-.36-.203-.67 0-.926.1-.103.1-.36.202-.566v-.36c.1 0 .1-.052.1-.103 0-.206.305-.36.507-.257.203.051.608 0 .608-.103 0-.052.202-.206.405-.309.202-.154.405-.257.405-.36 0-.052.101-.103.202-.103 0 0 .102-.051.102-.103 0-.103 0-.154.101-.206.101 0 .101-.051.101-.154 0-.051.102-.103.203-.103.405 0 1.012-.514 1.215-.977 0-.206.101-.257.304-.309l.304-.154c0-.154.303-.309.405-.257 0 0 .1-.052.1-.103.102-.052.507-.206.912-.36.507-.103.912-.257.912-.309.101 0 .202-.051.303-.051 0 0 .203-.052.406-.155.202-.103.405-.154.506-.154.101 0 .506-.051.81-.154.709-.155 1.418-.155 2.633.051.405.103 1.013.154 1.215.206.203.051.608.103.81.154.203 0 .507.103.81.155.304 0 .507.102.608.154.101 0 .405.103.608.154.405 0 .708.103.911.206.101.103.304.154.304.154.202 0 .607.257.607.36 0 .052.102.206.304.258.101.102.203.205.203.257 0 .051.1.154.303.257.203.154.304.257.304.36 0 .103.102.154.203.206 0 .051.101.103.101.154 0 .052.101.154.203.257.202.103.405.309.506.463.101.155.304.309.405.36 0 .052.203.206.405.412.203.206.405.36.506.463.203.051.507.36.912.771l.405.206c.202 0 .304.103.405.154 0 .052.101.103.101.155.101.051.101.154.101.206 0 .051.203.154.406.308.1.103.303.206.303.257 0 .155 1.013.772 2.026 1.338.303.154.506.308.506.308 0 .103.81.463 1.114.566l.405.206c.101.154.202.257 1.519.977.709.36.911.463 1.823 1.03.304.205.709.41.911.514a.548.548 0 0 1 .304.205c0 .052 0 .103.101.103 0 0 .203.103.405.257.203.155.405.258.507.31.1 0 .405.153.607.308.304.154.81.463 1.114.617l.709.36c0 .052.608.36 1.114.566.202.103.607.309.709.411.304.258.81.515 1.215.67 1.013.514 1.418.72 1.519.72.101 0 .101.05.101.102 0 .052.101.155.304.206.203.051.506.206.608.257.202.206 1.822 1.029 1.924 1.029 0 0 .1.051.1.103l.406.206c.203.051.405.154.405.154s.506.309 1.215.617c.608.36 1.114.618 1.114.669 0 0 0 .051.101.051.102.052 3.14 1.492 3.545 1.698.101.103.405.257.506.309.203.051.506.257.81.36.304.154.912.411 1.215.565.304.155.71.36.912.412.101.103.506.206.81.309.304.154.709.308.81.36.101.103.304.154.304.154.101 0 .304.051.405.103 0 .051.202.103.202.103.102 0 .304.103.507.206.607.36 1.924.874 2.025.874.101 0 .304.051.405.154.101.052.405.155.709.206.203.052.506.206.709.257.202.155.81.412 1.519.618.101.051.405.154.709.308.304.103.607.206.709.206.1 0 .303.051.506.154.202.103.506.206.709.258.101.051.405.154.607.205.203.103.405.155.405.155.203 0 .507.051 1.114.257.203.103.507.154.507.154.101 0 .202 0 .303.052 0 .051 1.114.308 1.52.36.202.051.303.103.405.103.202.102 1.62.462 1.721.411.101 0 .101 0 .101.051.102.103 1.317.36 1.823.412.304.051.506.103.608.154.101.052.304.155.607.155.507.103.912.205 1.52.36.202 0 .607.051.91.103.304 0 .81.102 1.216.154.405.103.81.206 1.114.257.202.052.607.103.911.103.405 0 .71 0 .912.103.1.051.405.051.911.051.405 0 .81.052.911.052.203.103.81.154 1.114.103.405-.052 1.418.051 1.722.154.101.103.304.103.506.103.203 0 .506.051.709.103.203.051.608.051 1.013.051.506 0 .607 0 .709.103.202.103.202.103.303.051.102 0 .304-.051.405 0 .102 0 .608 0 1.013.052.304 0 .709.051.911.103.102 0 .304.051.406.051.1 0 .303.052.607.103.203.052.608.103.81.103.203 0 .405 0 .507.051 0 .052.303.052.708.052.304 0 .608 0 .608.051 0 .052.203.052.405.052.203 0 .506.051.608.051.101.052.405.103.709.103.202 0 .405.052.506.052 0 .051.202.102.81.102.608 0 .911 0 1.013.052.202.051.506.103.81.103.304 0 .506 0 .506.051 0 .052.101.052.203.052.1 0 .506.051.911.051.304.051.911.154 1.418.206 1.418.206 1.924.257 2.329.36.202 0 .506.051.709.103.202 0 .405.051.506.051 0 0 .405.103.911.103a14.76 14.76 0 0 1 1.216.206c.303.051.81.103 1.316.103 1.013.051 1.823.103 2.025.154 0 .051.406.103.912.103.405.051.911.103.911.154.102.052.203.052.405.052.102 0 .304.051.405.051.304.103 2.33.206 3.747.257 4.152.052 3.747.103 4.152-.411l.304-.257-.203-.206c-.1-.103-.303-.206-.506-.257-.202-.052-.304-.103-.304-.155 0-.103-.101-.154-.304-.205-.303-.103-.303-.155-.303-.36 0-.155 0-.31-.102-.31 0-.05-.1-.153-.1-.256-.102-.103-.203-.155-.305-.206-.1 0-.202-.052-.202-.052 0-.051-.101-.102-.101-.154-.203-.051-.203-.411 0-.566.1-.051.1-.051 0-.103-.102-.051-.203-.102-.203-.154 0 0-.101-.103-.101-.154-.102-.103-.102-.103.101-.206l.203-.154-.203-.052a1.254 1.254 0 0 0-.506-.103c-.102 0-.203-.051-.304-.051 0-.052-.203-.154-.405-.154a2.576 2.576 0 0 1-.507-.206c-.202-.103-.202-.103-.506-.052-.405 0-.405 0-.405-.102 0-.103-.101-.155-.202-.206 0-.052-.203-.155-.304-.257-.405-.412-1.013-.926-1.114-.978-.203-.103-.304-.308-.203-.308.102-.052.102-.103 0-.155-.202-.257-.202-.36-.202-.411-.101 0-.101-.052-.101-.103 0 0-.102-.154-.102-.257a2.85 2.85 0 0 0-.304-.412c-.1-.103-.1-.257-.1-.514 0-.309-.102-.412-.203-.515-.203-.103-.304-.257-.405-.823a.434.434 0 0 0-.203-.36c0-.051-.101-.103-.101-.154 0-.052-.101-.154-.203-.206-.202-.103-.202-.103-.101-.206.203-.154.203-.617.101-.72-.101-.051-.101-.308-.202-.617-.102-.36-.102-.514-.304-.514-.101-.052-.101-.103 0-.155.101-.154-.203-.566-.506-.72-.203-.103-.203-.154-.203-.36.101-.154.101-.257-.101-.36-.203-.103-.304-.257-.304-.309 0-.154-.203-.566-.405-.771-.101-.052-.203-.206-.304-.258 0-.102-.101-.205-.304-.308-.1-.052-.202-.155-.202-.206.101 0 0-.051 0-.103-.203-.051-.304-.308-.304-.463 0-.051-.101-.206-.203-.308-.1-.103-.202-.258-.202-.31 0 0-.203-.256-.405-.462-.203-.206-.405-.514-.405-.669-.101-.206-.203-.308-.304-.36a1.23 1.23 0 0 1-.506-.514c-.507-.566-.912-1.029-1.317-1.44-.202-.155-.405-.412-.405-.464 0-.102-.101-.205-.101-.205-.101-.052-.304-.257-.304-.412a.925.925 0 0 0-.405-.463c-.101-.051-.304-.154-.304-.257 0-.103-.101-.206-.304-.206-.1-.051-.202-.103-.1-.154 0-.051-.102-.103-.203-.206-.102-.051-.203-.103-.203-.154.101-.154-.506-.823-.709-.926-.101 0-.101-.051-.101-.103 0-.051-.101-.154-.304-.257-.202-.103-.304-.154-.304-.309 0-.103-.1-.206-.506-.463-.304-.205-.608-.411-.608-.463a2.182 2.182 0 0 0-.506-.36c-.304-.206-.506-.308-.506-.514-.101-.206-.203-.309-.304-.36-.203-.052-.304-.155-.304-.206 0-.051-.202-.206-.506-.36s-.506-.257-.506-.309c0 0-.102-.154-.304-.308-.203-.155-.304-.258-.304-.309l-.203-.206c-.405-.206-.911-.668-.911-.72 0-.051-.203-.206-.506-.411-.203-.206-.608-.515-.71-.618a1.224 1.224 0 0 0-.505-.308c-.203-.103-.912-.823-.912-.926 0-.052-.101-.155-.304-.206a1.253 1.253 0 0 1-.303-.206c0-.154-.406-.566-.608-.617-.304-.052-.81-.36-.81-.514 0-.052-.203-.206-.405-.31-.203-.153-.507-.41-.81-.565-.203-.154-.507-.36-.608-.36-.101-.051-.203-.103-.203-.154-.1-.052-.202-.103-.405-.155-.1 0-.202-.103-.202-.103 0-.051-.101-.102-.203-.154-.1-.051-.303-.154-.405-.257-.202-.206-1.215-.772-1.417-.772l-.406-.205-.405-.206c-.1 0-.303-.052-.405-.155-.1-.102-.709-.36-1.215-.565a15.12 15.12 0 0 1-1.519-.618c-.202-.154-.81-.36-1.316-.514-.507-.154-.912-.36-1.013-.463-.101-.103-.506-.257-.81-.36-.304-.103-.506-.206-.506-.206 0-.051-.102-.103-.203-.103a1.615 1.615 0 0 1-.304-.103c0-.102-.405-.308-.607-.308 0 0-.102-.052-.102-.103-.1-.052-.303-.154-.405-.206a5.22 5.22 0 0 1-.81-.309c-.304-.102-.709-.36-1.012-.514-.608-.257-1.013-.463-1.418-.669-.506-.257-2.228-.874-2.532-.874 0 0-.202-.052-.304-.103-.1-.154-1.114-.463-1.316-.463-.101 0-.405-.103-.506-.154-.304-.206-.81-.36-1.216-.463-.202 0-.303-.103-.405-.155a1.177 1.177 0 0 0-.405-.102s-.101-.052-.202-.052l-.203-.103c0 .052-.202 0-.304-.103-.1-.051-.303-.103-.303-.103-.102 0-.304-.051-.507-.154a1.177 1.177 0 0 0-.405-.103s-.101-.051-.202-.051c-.102-.052-.203-.154-.405-.154-1.114-.31-1.418-.36-1.62-.412-.203 0-.71-.206-.71-.309 0-.051-.202-.051-.405-.103-.202 0-.506-.051-.506-.102a3.828 3.828 0 0 0-.81-.258c-.405-.102-.911-.205-1.215-.308-.304-.103-.608-.206-.71-.206-.202 0-1.214-.206-1.417-.257-.101 0-.607-.103-1.114-.206-.405-.051-1.012-.154-1.114-.206a1.177 1.177 0 0 0-.405-.103s-.202 0-.304-.051c-.1 0-.303-.051-.405-.103-.405-.103-.405-.103.102-.309.607-.154.709-.257.506-.463-.101-.154-.405-.257-.81-.257-.304 0-.608-.154-.405-.205.304-.103.607-.72.405-.72-.101 0-.203-.052-.405-.155-.304-.154-.608-.154-.912.103 0 .051-.202.154-.405.206-.405.103-1.215.514-1.316.668-.203.463-1.013.412-1.722-.154-.1-.103-.303-.206-.405-.206-.202 0-.506-.205-.506-.36 0-.103 0-.154-.101-.154 0-.052-.102-.206-.102-.36-.1-.154-.1-.36-.202-.412 0-.051-.101-.205-.101-.411-.102-.206-.102-.412-.203-.463-.101-.052-.101-.154-.101-.206 0-.103 0-.257-.101-.411-.102-.155-.304-.412-.304-.566a1.504 1.504 0 0 1-.203-.72c-.101-.258-.202-.566-.202-.72 0-.155-.102-.36-.102-.464v-.257c.102-.103 0-.206-.1-.257 0-.103-.102-.154 0-.154.1-.052 0-1.75-.102-2.058-.101-.206-.101-.617 0-1.234l.101-.926-.202-.155c-.203-.103-.304-.154-.507-.154-.506 0-1.012-.412-.709-.617.102-.052.406-.618.406-.823 0-.103.1-.258.202-.36.203-.155.304-.309.304-.36 0-.052.101-.155.101-.206.203-.103.405-.463.405-.669 0-.051 0-.154.101-.206.102 0 .406-.411 1.013-1.389.203-.205.304-.463.405-.617l.203-.309s.101-.051.202-.154c0-.103.102-.206.102-.257 0 0 .1-.103.1-.206.102-.103.203-.257.305-.36 0-.051.202-.257.303-.411.405-.566.71-.978 1.013-1.338.203-.206.405-.463.405-.514 0-.052.203-.206.304-.309.202-.103.405-.257.405-.309.101-.102.203-.257.405-.36.101-.102.203-.205.203-.257 0-.051.1-.103.202-.206.304-.205 1.013-.771 1.215-.977.203-.206.507-.411.912-.72.101-.103.405-.309.405-.36.101-.103.405-.309.709-.463.506-.257 1.012-.566 1.012-.669l.203-.103c.101-.051.405-.308.607-.514.203-.257.507-.463.608-.515.304-.154 0-.668-.405-.565-.101.051-.203 0-.405-.052-.304-.154-.304-.154-.709-.051-.709.154-1.114.206-1.215.308-.101.052-.304.052-.507.103-.202 0-.607 0-.81.052-.202.051-.607.051-.81.051-.202 0-.506.052-.607.103-.102.051-.507.103-.81.103-.304.051-.608.103-.71.154-.1 0-.303.052-.404.052-.203 0-.304 0-.304.051 0 .052-.101.052-.101.052-.102 0-.203 0-.203.051s-.506.154-1.114.206c-.506 0-.608.051-.81.154-.101.052-.304.103-.81.154-.405.052-.81.103-1.013.155-.101 0-.405.051-.709.051-.202 0-.506.052-.607.052 0 .051-.203.102-.405.102-.102 0-.304.052-.405.052-.304.103-1.114.206-1.418.206-.203 0-.506.051-.709.103-.203.102-.506.102-2.025.102-2.127.052-2.43.052-3.038.155a8.401 8.401 0 0 1-.81.103c-.102 0-.507.051-.81.103-.81.154-1.722.205-3.747.205-.912.052-1.823.052-2.026.103a10.91 10.91 0 0 1-2.228-.051 19.317 19.317 0 0 0-1.721-.103c-.709 0-1.013 0-1.114-.103-.203 0-.304-.051-.405-.051-.506 0-2.43-.566-3.038-.978-.608-.257-2.127-1.492-2.127-1.646 0-.051-.1-.103-.1-.154a1.277 1.277 0 0 1-.406-.36c-.405-.36-.405-.36-.81-.669-.203-.154-.405-.309-.405-.36 0-.103-1.418-1.44-1.62-1.543-.203-.103-1.013-.103-1.114 0zm-41.62 3.6c1.113.463 1.62.72 2.328 1.03.405.205.81.41 1.013.462.101.103.506.206.709.36 1.215.566 2.633 1.03 4.05 1.44.81.155 1.418.31 1.52.31 0 0 .202.05.405.05.202.052.506.155.708.155.203.051.406.103.507.103.101 0 .304.051.506.154.203.052.608.155.912.206.303.051.607.103.708.154.102.052 1.216.258 2.127.36.304 0 .911.103 1.316.103a14.76 14.76 0 0 1 1.216.206c.303 0 .607.051.81.051.202 0 .607.052 1.012.103.406.052 1.013.155 1.418.155.304.051.912.103 1.215.103.304 0 .81.102 1.013.154.304.051.506.103.608.103 0-.052.1-.052.1 0 .102.051.305.051.507.051.405.052 1.013.103 2.026.257.405.052 1.113.103 1.62.155.405 0 .911.051 1.012.051 0 .052.912.103 1.924.103l1.823.051.405-.154c.405-.103 1.62-.257 1.62-.206 0 .052-.506.618-.81.823-.1.103-.202.206-.202.258 0 .051-.203.205-.405.308-.203.103-.506.257-.506.309-.203.206-1.114.257-2.127.206-.405-.052-1.013-.052-1.316-.052-.304 0-.71-.051-.912-.051-.101-.052-.709-.103-1.215-.155-.506-.051-1.114-.154-1.317-.154a6.758 6.758 0 0 0-1.012-.103c-.405 0-.912-.103-1.215-.103-.304-.051-.81-.154-1.013-.154-1.013-.103-1.215-.103-2.025-.309-.304-.051-.608-.102-.71-.102a1.177 1.177 0 0 0-.404-.103c-.405-.052-1.418-.206-1.62-.206 0 0-.304-.052-.406-.052-.202-.051-.607-.102-.911-.154-.709-.103-1.215-.154-1.62-.257-.102-.051-.507-.051-.81-.051-.405.051-.608 0-.71 0a1.254 1.254 0 0 0-.506-.103c-.1-.052-.405-.103-.506-.155-.101-.051-.506-.154-1.013-.257-.506-.051-1.316-.206-1.822-.309-.507-.102-1.013-.205-1.114-.257-.203-.051-1.215-.308-1.317-.308-.101 0-.405-.052-.607-.103-.203-.052-.608-.103-.81-.155-.304-.051-.608-.102-.71-.154-.404-.206-1.316-.463-1.72-.514-.203-.052-.507-.103-.71-.206-.101-.103-.304-.154-.405-.154-.101 0-.405-.103-.607-.206-.304-.103-.507-.206-.608-.206l-.405-.206c-.203-.103-.506-.205-.608-.308-.405-.155-.607-.309-.911-.463-.203-.052-.304-.155-.405-.206-.203-.051-.203-.103-.101-.669.1-.72.202-.977.202-1.131 0-.155.304-.155.81.102zm42.126.36c.101 0 .202.103.202.155 0 0 .304.411.71.771.404.412.708.772.708.824 0 .051.405.36.71.514 0 .051.1.103.1.154 0 .103.608.618 1.216.926.303.206.607.36.607.412 0 .051.203.205.405.257.203.103.507.257.608.36.506.309 1.924 1.029 2.329 1.132.202 0 .405.103.506.154.102.051.304.103.507.154.1.052.303.103.405.103.303.052.911.206 1.519.257.607.103 2.227.103 3.24.052.506-.052 1.215-.052 1.62-.103.912-.052 2.228-.206 2.43-.257l.406-.103c.202 0 .405-.052.405-.052 0-.051.101-.051.202-.051.102 0 .304 0 .405-.051.102 0 .406-.052.507-.052.101-.051.405-.103.607-.206.203-.103.507-.154.71-.154.1 0 .404-.051.506-.103.1-.051.303-.103.405-.103.1 0 .405-.051.709-.154.303-.103 1.012-.257 1.519-.412l1.012-.308c.101-.052.71-.206.81-.206 0 .051.203 0 .304-.051.203-.155 1.215-.463 1.52-.463.1 0 .303-.052.607-.155.405-.154 1.012-.308 1.114-.308.1 0 .303-.052.506-.155.202-.103.506-.154.709-.205.101 0 .304-.052.405-.052 0 0 .506-.154.911-.257l1.013-.309c.101 0 .304-.051.405-.051.203-.052.304-.052.304-.103s.101-.051.202-.051c.102 0 .304 0 .405-.052.102 0 .304-.051.507-.103.202-.051.304-.103.304-.103 0-.051.202-.051.405-.103.202-.051.506-.102.708-.205.406-.155 1.013-.258 1.52-.258.405 0 .506.052.303.103-.101.052-.202.155-.304.309-.1.103-.202.206-.303.206-.102 0-.102.051-.102.103 0 .051-.202.205-.303.308-.203.155-.507.36-.608.463-.101.155-.304.257-.405.309l-.203.103c0 .051-.202.257-.405.463-1.012 1.029-1.316 1.337-1.417 1.337-.102.052-.102.103-.102.206 0 .051-.1.154-.202.257-.101.103-.405.309-.507.463a1.277 1.277 0 0 1-.405.36c0 .052-.1.154-.1.206-.102.103-.203.309-.406.463-.101.206-.202.309-.101.411 0 .103 0 .206-.101.258a1.277 1.277 0 0 0-.406.36c-.1.154-.303.36-.405.411-.202.257-.405.669-.405.772 0 .051-.202.308-.405.566-.304.308-.506.565-.506.771-.101.103-.203.36-.304.463-.202.155-.304.309-.304.36 0 0-.1.206-.303.412-.102.257-.203.463-.203.463 0 .051-.101.257-.304.411-.202.206-.304.515-.405.669-.101.36-.506.617-1.012.514a15.466 15.466 0 0 0-1.925-.36c-.506-.051-1.519-.205-1.721-.257 0-.051-.203-.051-.506-.051-.203 0-.608-.052-.81-.103-.203-.052-.608-.103-.81-.155-.203 0-.406-.051-.507-.051 0-.051-.101-.051-.203-.051-.1 0-.303-.052-.506-.103-.202-.052-.405-.052-.607-.052-.304.052-1.52-.103-2.026-.205-1.114-.258-1.215-.258-1.823-.258-.202 0-.405-.051-.607-.103-.203-.051-1.418-.154-2.33-.154-.91-.051-1.62-.103-1.822-.206-.101 0-.405-.051-.81-.103-.405 0-.709-.051-.709-.051-.101 0-.608-.051-1.013-.103a20.414 20.414 0 0 0-1.316-.103c-.101-.051-.608-.051-.912-.051-.708-.052-2.025-.154-2.936-.309-.405-.051-1.215-.051-2.026-.051-1.215-.052-2.329-.103-3.341-.257-.102-.052-.507-.052-.81-.052-.304 0-.912-.051-1.418-.051-.71-.103-2.127-.155-5.064-.155-.91-.051-1.417-.051-1.62-.103-.101-.051-.405-.102-.506-.051h-1.52c-.81-.051-3.34-.051-3.746 0h-1.013c-.405.051-1.012.103-1.316.103-.304.051-.608.051-.709.051 0 0-.202.052-.405.052-.101.051-.405.103-.608.103-.202 0-.405 0-.506.051 0 .052-.101.052-.304.052-.101 0-.303 0-.506.051-.101 0-.405.051-.608.051-.202 0-.506.052-.708.052-.304.051-3.241.36-4.557.463-.304 0-.71.051-.81.103-.102.051-.71.103-1.115.154-1.417.154-1.721.206-2.126.309-.203.051-.506.103-.709.154-.304.051-.506.103-.608.154-.202.052-.506.155-.708.206-.203.103-.71.206-.912.309-.304.051-.709.154-.911.154-.304.051-.507.103-.608.154 0 0-.101.052-.202.052-.203 0-.81.206-1.114.36-.203.051-.405.206-.608.309l-.405.205c0 .052-.608.257-.709.257 0-.051-.304-.977-.405-1.697-.101-.309-.202-.926-.405-1.389-.101-.411-.202-.926-.304-1.08 0-.206-.101-.412-.101-.463-.101-.052-.101-.154 0-.257 0-.206-.101-1.235-.304-1.8 0-.155-.101-.412-.101-.515-.101-.206-.304-.72-.506-1.338-.102-.154-.203-.36-.304-.514 0-.103-.101-.257-.101-.411-.102-.103-.203-.36-.405-.566-.406-.515-.102-.618.607-.258.203.103.506.206.506.206.102 0 .203.052.304.103.101 0 .507.154.81.257.405.103.81.206.81.258.102 0 .304.051.406.051.202.051.405.103.506.103.101.051.304.103.607.154.203.052.608.103.71.154.202.052.404.155.607.155.202.051.506.103.709.154.911.309 2.937.72 3.038.669.101 0 .202 0 .304.051.1.052.506.155 1.012.206.405.051.81.103 1.013.154.304.103.911.155 1.519.258.304.051.709.102.709.154.101.051.202.051.405.051.101 0 .304.052.506.052.101.051.506.103.81.154.304.052.81.103 1.114.154.304.052.71.155.912.155.202 0 .405.051.607.103.101 0 .405.051.81.102.304.052.71.103.81.155.203 0 .406.051.507.051.101 0 .405.052.607.103.507.103.81.154 1.924.309.304 0 .81.103 1.013.103.203.051.608.103 1.013.154a102.3 102.3 0 0 1 2.835.309c.608.051 1.114.102 3.038.205.405 0 .912.052 1.013.103.101 0 .405 0 .607-.051.304-.052.507-.103.608-.103.203.051 1.114-.154 1.418-.309.202-.051.405-.154.405-.154.101 0 .202-.103.304-.257.1-.103.303-.257.405-.36.202-.052.303-.155.405-.258.101-.051.202-.205.304-.257.202-.103.202-.205.202-.257 0-.051.101-.154.101-.206.102-.051.203-.154.203-.257.101-.103.304-.257.506-.411.203-.155.304-.309.304-.412 0-.103.101-.309.304-.411.101-.103.304-.31.405-.463l.506-.515c.203-.154.304-.36.405-.411 0-.052.102-.206.203-.258.101-.102.202-.154.202-.205 0-.052.102-.155.203-.206.101-.103.304-.309.304-.463.1-.206.202-.412.303-.514.304-.463.507-.823.608-1.03.101-.36.304-.616.608-.925.303-.257.303-.309.506-.154zm4.658 1.595c.71.412 1.215.617 1.52.669.202.051.506.154.708.154 1.418.463 2.228.566 3.342.618.607 0 1.316 0 1.519.051.911.103 2.126.103 3.443.103.81-.052 3.14-.052 3.24-.052 0 .052.102 0 .304 0 .101-.051.506-.102.709-.102 1.519-.155 3.443-.36 3.544-.412.102-.051.507-.051 1.013-.051.405 0 1.013 0 1.316-.052.406 0 .608 0 .71.052.1.102-.203.205-1.52.514-.303.103-.911.257-1.215.36-.304.103-.709.206-.81.206-.203.051-.405.103-.506.154-.102.052-.304.103-.304.103-.101 0-.203 0-1.62.36-1.418.36-2.836.566-3.95.669-.202 0-.607.051-.709.103-.202.051-3.24.103-4.05.051-.405-.051-.81-.103-.912-.154a1.254 1.254 0 0 0-.506-.103c-.405 0-.608-.052-1.519-.566-.608-.257-1.013-.463-1.114-.463-.101 0-.709-.309-.709-.36 0-.051-.405-.309-.607-.463 0-.051-.102-.103-.102-.103l-.607-.411c-.405-.206-.71-.412-.71-.463 0-.052-.1-.155-.303-.257-.202-.052-.304-.155-.304-.206 0-.052-.1-.155-.303-.257-.304-.206-.406-.36-.203-.258.101 0 .608.258 1.215.566zM64.81 24.487h1.52c.91.103 2.328.103 3.442.154.507 0 1.215 0 1.52.051.303 0 .81.052 1.214.052.304 0 .81.051 1.013.051.405.103.81.103 2.33.155.303.051 1.012.051 1.518.103.405.051 1.013.051 1.215.051.507 0 1.722.103 2.026.154.101.052.202.052.304.052.1-.052.303 0 .405.051.1 0 .708.052 1.316.052.608.051 1.114.103 1.215.103 0 0 .304.051.507.051.303 0 .607 0 .607.051.101 0 .304.052.507.052.506 0 1.721.103 2.531.206.405 0 .709.051.81.051 0-.051.405 0 .71.051.303.052.91.103 1.113.103.304.052.709.052.911.103.102 0 .507.052.71.103 1.012.103 1.822.206 1.923.257.102.052.405.052.608.052.203 0 .608.051.81.103.405.103 1.317.205 2.228.308.202 0 .506.052.608.052 0 .051.405.103.81.154.303.051.709.154.81.154.101.052.405.103.709.155.303.051.81.103 1.012.154.203.051.71.154 1.013.206.405.051.709.103.709.154.405.103 2.025.36 2.329.36.304-.051.405-.051.506 0 .102.103.102 1.132-.101 1.183-.101.052-.202.36 0 .412 0 .051.101.514.101.72-.101.772 0 1.337.102 1.44a.423.423 0 0 1 .1.566c-.1.154 0 .977.305 1.492 0 .154.1.309.1.36-.1.051.305.772.406.823.101.051.101.206.101.309 0 .154.101.463.203.668.101.155.101.515.202.72 0 .258.102.463.102.463 0 .052.1.155.1.31.102.102.203.205.305.256 0 .052.1.103.1.155 0 .051.203.205.507.308.203.155.405.257.405.309 0 0 .304.206.71.411.404.206.708.412.708.412 0 .051-.405.206-1.215.514-.304.155-.81.36-1.114.515a5.218 5.218 0 0 1-.608.257c-.101 0-.405.154-.911.36l-.506.257a4.29 4.29 0 0 0-1.216.206 3.685 3.685 0 0 1-.607.103c-.101 0-.304.051-.507.103-.202.103-.405.154-.506.154-.101 0-.202.052-.405.052-.101.051-.202.102-.304.102-.101 0-.202.052-.304.052-.303.154-2.227.206-2.632.103-.102-.052-.406-.052-.608-.052-.203 0-.608-.051-.911-.051-.203-.052-.608-.103-.81-.052-.203 0-.304 0-.507-.102a1.254 1.254 0 0 0-.506-.103c-.102 0-.304-.052-.405-.103-.203 0-.304-.052-.507-.052-.1 0-.202-.051-.405-.051-.101-.052-.202-.103-.303-.103-.102 0-.304 0-.406-.051-.202-.052-1.012-.155-1.62-.206-.506 0-.506-.052-.202-.309.303-.206.202-.257 0-.411-.203-.103-.203-.103-.102-.206.102-.052.102-.154 0-.206 0-.103.203-.411.71-.72.202-.154.303-.309.303-.463 0-.257 0-.257-.506-.412-.608-.205-.912-.205-1.317.052-.202.154-.304.257-.304.257 0 .052-.1.103-.303.206-.405.154-.405.154-1.216.617l-.607.309s-.203-.103-.304-.257c-.202-.258-.304-.309-.608-.36-.303-.052-.607-.052-.607.051 0 .051-.101.103-.304.103-.304.051-.709.308-.709.617-.101.103-.101.309-.202.36 0 .052 0 .206.101.36.101.257 0 .309-.709.463-.911.309-1.215.412-1.418.515 0 .103-.1.154-.202.154 0 0-.203.103-.405.257a1.269 1.269 0 0 1-.608.36c-.101 0-.202.052-.202.103-.102 0-.203.052-.304.052-.101 0-.203.051-.405.051a1.177 1.177 0 0 1-.405.103c-.507.103-1.62.566-1.52.617 0 0 0 .052-.1.052-.304.102-.102.308.405.463l.506.154 1.215-.206a14.568 14.568 0 0 0 1.722-.411c.303-.052.607-.155.708-.155.102 0 .304-.051.406-.103.202-.051.506-.051.506.052 0 .051.101.154.304.154.1.052.202.154.202.154 0 .103.405.31.81.412.507.051.507.051.912-.103.405-.206.607-.154.81.052.202.205.405.925.304 1.028-.102.206-1.013.618-1.418.72-.608.103-1.114.463-1.114.618.202.36 1.013.617 1.62.463.405-.103.507-.103.507.103 0 .205-.406.771-.608.771-.101.052-.304.103-.405.206-.101.103-.405.36-.709.566-.304.206-.608.411-.608.463l-.202.103c-.101.051-.608.566-.608.668 0 0-.202.155-.506.309a3.634 3.634 0 0 0-.506.309c0 .051-.102.103-.102.103-.1.051-.303.154-.405.257-.202.206-1.114.72-1.316.72-.101 0-.304.051-.405.154-.203.103-.405.155-.507.155-.1 0-.202 0-.303.051 0 .051-.405.051-.71.103-.404 0-.81.051-1.012.103-.81.103-1.013.103-1.316 0-.102-.052-.405-.103-.507-.103-.1 0-.202 0-.202-.052-.101 0-.203-.051-.405-.102a.775.775 0 0 1-.405-.103s-.203-.052-.507-.103c-.303-.052-.607-.103-.81-.206-.101-.103-.304-.154-.506-.154-.203 0-.506-.052-.709-.103-.304-.103-.709-.206-.911-.206-.304-.051-.71-.154-.81-.206-.203-.051-.406-.051-.507-.051-.101.051-.304 0-.405-.052-.304-.102-2.228-.102-2.43 0-.102 0-.203.052-.304.052-.203 0-.405.051-.506.103-.203.103-.304.154-.405.154-.102 0-.203.052-.304.103-.203.103-.304.103-.608.103-.202 0-.405 0-.506.103 0 .051-.203.103-.304.103 0 0-.101 0-.101.051l-.405.103c-.203.051-.71.257-1.114.463-.405.206-.71.36-.81.36-.102 0-1.013.566-1.013.72-.101.206-.405.257-.608.103-.202-.103-.303-.103-.81-.154-.607 0-.607 0-1.012.205-.507.258-.507.31-.608.72-.101.155-.203.31-.304.36 0 .052-.101.104-.101.155 0 .051-.101.154-.304.257-.304.155-.304.206-.304.463 0 .154 0 .257-.1.257 0 0-.102.155-.203.36 0 .155-.203.463-.203.67-.101.205-.203.514-.203.72-.1.257-.1.462-.202.462-.101.103 0 .412.202.566.102.154.102.154-.1.309a.39.39 0 0 0 0 .617c.1.051.202.257.202.514v.72c.101.103.101.464.202.772 0 .309.102.566.203.566 0 .051.101.206.202.309 0 .103.102.257.102.308.1 0 .1.103.1.103-.1.052 0 .155.102.257.203.103.203.258.203.618.1.257.202.566.303.771.406.566.608 1.03.71 1.183 0 .206.202.36.404.463 0 .052.102.103.102.206 0 .052.1.206.1.257.102.103.203.206.102.258 0 0 .101.102.101.154.102.103.203.206.203.257 0 .103 0 .154.101.206.102 0 .102.051.102.103-.102.051 0 .103 0 .154l.202.103c0 .051.203.206.405.36.101.206.304.36.304.411 0 0 .101.155.304.258.101.103.202.205.202.257 0 .051.102.154.203.257.202.103.304.257.304.309.1.051.202.154.202.205.101.052.203.206.304.31.101.153.304.308.304.308.101.051.101.103.101.154 0 .052.101.154.203.206.1.051.202.154.202.206 0 0 .101.154.304.257.101.103.202.206.202.308 0 .155.507.67.608.67 0 0 .304.205.506.514.304.257.608.565.608.617.101.051.304.308.506.463.203.206.405.411.405.463 0 .051.507.566.71.668.1.103.404.412.81.72.303.31.708.67.81.772.202.155.303.257.303.257 0 .052.203.206.405.36.203.155.405.36.608.463.101.103.304.31.506.463.203.155.507.412.71.566.202.206.404.36.404.36l.203.103c0 .052.202.206.405.412.304.154.506.36.607.411.102.103.203.206.304.206.101.051.203.103.203.154 0 .052.1.155.202.206.101.103.203.154.203.206 0 0 .101.103.202.154.203.103.608.412.912.72.708.566 1.822 1.39 2.531 1.955.203.103.405.206.507.206.202 0 .202 0 .202.103-.101.051.101.257.506.514 1.52 1.183 2.735 2.006 3.038 2.16.102.052.304.206.406.31.202.256.81.77 1.113.925l.203.206s.203.206.506.411c.405.31 1.418 1.184 1.823 1.44 0 .052.304.207.506.412.304.206.507.36.507.412 0 0 .202.154.405.257.304.154.709.514 1.114.772.607.514 1.012.771 1.721 1.286.102.102.304.257.304.308.506.412 1.114.823 1.215.823.102 0 .203 0 .203.052v.154c.101.051.304.206.506.36.203.154.405.309.405.36 0 0 .101.103.304.155.101.102.203.154.203.205 0 0 .202.155.506.36.405.36 1.316 1.08 1.721 1.39.102.102.203.154.203.205l.607.514c.304.206.507.463.608.515 0 .051.101.154.304.206l.506.514c.203.206.405.411.507.463.1.103.303.309.506.463.202.206.506.463.709.617.101.206.405.412.506.566.101.103.405.463.709.72.304.309.506.566.506.617l.203.103c0 .052.101.103.101.103 0 .103.304.566.405.617.101.052.101.155.101.206 0 .052.102.155.102.257.1.052.202.103.202.155 0 0 .101.154.203.257.101.154.202.36.304.463.303.514.303.669.405.669.1.051.202.205.303.463 0 .102.102.205.102.257 0 .103.1.206.1.257.102.103.203.309.305.412 0 .102.202.411.202.617.102.257.203.514.304.566 0 .103.101.154.101.205-.101 0 0 .052 0 .103.102.103.203.206.203.309 0 .154.101.36.202.463.102.103.203.411.203.566.101.205.202.411.304.463.101.051.101.154.101.154-.101.051 0 .206 0 .309.202.36.304.565.506 1.028.102.31.203.463.304.515.203.051.203.103.101.308 0 .155 0 .258.102.31 0 .05.1.153.1.256 0 .155.305.72.507.875 0 .051.101.154 0 .206 0 .051 0 .154.101.205.102.052.203.258.203.36 0 .155 0 .36.101.412.102.103.102.36.203.566.101.514.304.977.506 1.183.203.154.203.36.304.617v.617c.101.206.304.72.405 1.03 0 .205.101.462.304 1.13 0 .207.101.515.101.721 0 .154 0 .36.101.412.102.051.203.668.102.926 0 .257 0 .617.1.668 0 .052.102.669.102 1.39 0 .72 0 1.44.101 1.542v.515c-.1.154-.1.411-.1.566v.463c-.102.617 0 1.903.1 2.057 0 .103.102.36.102.617 0 .258.1.515.1.618.102.103.203.463.203.823.102.36.203.668.304.72.102.051.102.206.102.309.202.72.607 1.44.91 1.594 0 .052.102.154.102.309 0 .206.304.669.507.823.1.051.202.257.405.72.1.154.202.257.202.309.101 0 .101.051.101.154 0 .051 0 .103.102.154.1 0 .1.052.1.103 0 .052.102.257.305.463.202.257.405.515.405.823.101.257.202.617.405.823.101.206.304.515.304.669.1.154.202.36.303.514.304.412.608.978.608 1.132-.101.103-.101.206 0 .206 0 .051.101.257.203.463.1.205.202.411.202.463l.304.308c0 .155.101.258.101.309 0 .051 0 .206.101.411 0 .206.102.412.203.463.202.31.304.566.405.772 0 .103.101.206.101.257.102 0 .102.155.102.309s.1.309.202.463c.203.206.304.36.506.874.203.463.405.978.507 1.08.101.103.101.31.202.515 0 .257 0 .411.203.514a.657.657 0 0 1 .202.463c.102.463.304.926.507 1.183 0 .103.1.31 0 .36 0 .103.202.824.405.978.202.206.405.669.304.771 0 .052.1.206.202.31.304.256.405.668.203.976v.463c.202.566.405 1.08.607 1.235 0 .103.101.206.101.257-.1 0 0 .155.102.309.405.308.405.411.506.566 0 .463.203 1.08.405 1.131 0 .052.101.155.101.258 0 .102.304.771.507.925 0 .052.101.155.101.31 0 .102 0 .256.101.308 0 .051.102.206.203.308 0 .155.101.309.101.309 0 .051.101.257.101.463.102.514.405 1.286.608 1.44.101.103.202.206.202.309 0 .103 0 .257.102.309.202.36.81 1.337 1.215 2.16.101.412.304.617.506.823 0 .103.203.309.203.463.101.154.202.309.304.36.202.257.405.669.607.926.101.206.203.36.203.36 0 .052.1.154.1.257.102.258.305.463.71.823.101.155.202.309.202.412.102.206.405.617.608.772.101.102.202.308.304.462.202.36.405.67.709.824.202.051.303.205.405.36 0 .102.1.308.202.36.101.103.203.205.203.257 0 .154 1.721 1.8 1.924 1.852.101.051.202.154.304.308.1.103.303.309.405.36.1.103.202.155.202.206 0 0 .101.052.203.052.101 0 .304.154.405.308.101.103.304.309.506.36.101.103.304.309.506.463.102.155.405.36.608.515.101.154.304.308.304.36 0 0 0 .051.101.051l.203.103c0 .052.1.154.1.154.305.103 1.317 1.08 1.317 1.235l.203.103c.101.051.304.257.405.411.101.206.405.463.608.67.1.153.303.41.405.514.1.154.202.36.405.462.1.052.303.206.303.31 0 .102.203.308.406.565.202.206.405.463.405.514 0 .103.1.258.202.412.203.154.304.411.405.514l.203.309c.101.051.101.154.101.206 0 .051.203.308.405.566.101.257.304.462.304.514 0 .103.405.669.506.823.101.051.304.309.304.566.101.257.304.514.405.566 0 .051.203.257.304.411.101.206.202.36.304.36 0 .052.202.257.405.515.101.205.405.617.709.823.506.566.81.977.81 1.131l.303.309c.203.051.304.206.406.36.1.103.1.206.202.206 0 0 .101.051.203.154 0 .052.202.154.303.257l.203.103c0 .052.202.206.405.412.203.154.405.36.405.36 0 .206 2.228 1.44 2.937 1.594.607.206 1.012.36 1.012.515 0 .103 0 .103-.202.103-.101-.052-.405-.052-.506-.052-.102 0-.203-.051-.203-.051s-.101-.052-.304-.103a1.615 1.615 0 0 1-.304-.103c0-.051-.303-.103-.607-.206-.405-.103-.912-.257-1.317-.36a5.989 5.989 0 0 1-.911-.308c-.101-.052-.304-.103-.304-.103-.101 0-.405-.103-.81-.155-.405-.102-.709-.205-.709-.154-.101 0-.202 0-.202-.051-.102 0-.405-.103-.81-.155-.406-.051-.71-.154-.81-.154-.102-.051-.304-.051-.406-.103-.506 0-1.215-.154-1.519-.308-.202-.052-.303-.103-.405-.103h-.202c-.101-.052-.405-.052-.81-.103-.507-.052-.71-.103-.912-.206-.202-.103-.506-.154-.709-.206-.607-.103-1.012-.154-1.62-.308a3.46 3.46 0 0 0-.81-.155c-.101 0-.405-.051-.506-.103-.304-.154-1.216-.308-2.127-.411-.81-.052-1.721-.206-1.823-.257-.101 0-.303-.052-.506-.052l-.405-.103c-.101-.051-.304-.051-1.013-.154-.101 0-.607-.051-1.114-.103-.506-.051-1.114-.103-1.417-.154-.304 0-.507-.052-.507-.052s-.304-.051-.607-.051c-.405-.051-.71-.103-.81-.103-.102-.051-.71-.051-1.216-.103-1.215 0-3.038-.154-3.949-.308-.405-.052-.709-.103-.911-.103-.102 0-.203 0-.304-.052 0 0-.405-.103-.81-.154-.507-.052-.912-.103-1.114-.206-.102-.051-.304-.103-.304-.103-.101 0-.405-.103-.709-.205-.405-.103-.709-.155-.709-.155-.304-.051-2.126-.514-2.228-.566 0-.051-.303-.154-.506-.257-.202-.103-.506-.206-.608-.257-.1-.051-.303-.103-.405-.154-.1 0-.81-.309-1.417-.618-1.114-.565-1.823-.874-2.026-.874l-.506-.257a5.218 5.218 0 0 0-.608-.258c-.1 0-.1 0-.1-.051 0 0-.305-.206-.608-.36-.304-.154-.608-.309-.608-.36 0-.103-.304-.257-.506-.257-.102 0-.203 0-.203-.052 0-.051-.202-.154-.304-.257-.202-.103-.405-.257-.405-.309-.101-.102-.405-.257-.709-.411-.303-.154-.607-.36-.708-.412-.203-.257-1.013-.771-1.216-.771-.101-.052-.202-.103-.202-.206-.101-.051-.304-.206-.507-.36-.202-.103-.405-.257-.506-.309 0-.103-.101-.257-.304-.36-.202-.154-.303-.308-.405-.36 0-.103-.101-.154-.202-.206 0-.051-.102-.103-.102-.154 0-.051-.1-.154-.202-.206-.101-.103-.304-.257-.405-.411-.101-.155-.405-.412-.709-.618-.203-.154-.405-.36-.405-.36 0-.051-.101-.102-.304-.154-.101-.051-.304-.103-.405-.154-.101-.052-.202-.103-.304-.103-.101-.052-.304-.103-.405-.206-.101-.103-.304-.154-.405-.206-.202 0-.405-.051-.405-.103-.101 0-.405-.102-.608-.154l-.607-.103c-.101-.051-.203-.051-.304-.051-.101 0-.202-.052-.304-.103-.101-.051-.304-.051-.304-.103-.405 0-1.316-.154-1.316-.206 0 0-.202-.051-.405-.051-.203-.052-.709-.103-1.013-.206-.405-.103-.607-.103-1.215-.103-.506 0-.709 0-1.013-.051-.202-.103-.81-.103-2.025-.103h-1.721c-1.62 0-2.228.051-3.038.206l-.608.205c0 .052-.506.31-.506.31-.102 0-.203.05-.405.102a1.254 1.254 0 0 1-.507.103c-.202 0-1.215.206-1.721.411-.81.258-.912.309-1.013.36 0 .052-.101.052-.101.052-.203 0-1.62.463-1.823.566-.101.103-.202.154-.304.154-.101 0-.202.051-.202.051 0 .155-1.215.618-1.418.566-.101 0-.202 0-.304.052a9.102 9.102 0 0 1-1.012.36c-.507.154-.912.308-.912.308 0 .103-.709.412-.911.412-.101 0-.304.051-.405.103-.203 0-.405.051-.507.051-.1 0-1.417.412-1.822.618-.608.257-1.013.411-1.114.411-.102 0-.304.206-.304.36v.052c-.101 0-.203 0-.203.051-.303 0-.202-.154 0-.309.203-.102.304-.257.304-.514 0-.206.203-.566.304-.823.101-.206.304-.514.304-.669.101-.103.202-.36.304-.514 0-.103.1-.309.1-.36 0-.103.102-.206.102-.309.101-.103.203-.257.203-.308 0-.36.202-1.08.405-1.39.1-.154.202-.41.202-.565 0-.155 0-.257.101-.257l.102-.052c0-.566.304-1.337.607-1.594.102-.103.203-.31.203-.412 0-.103 0-.206.101-.257.101-.052.101-.155.203-.206 0-.154.1-.257.303-.823.304-.617.507-1.029.406-1.08 0-.052.1-.103.1-.155.102-.051.203-.102.203-.205s.102-.412.304-.618c.101-.051.101-.205.101-.308.102-.103.102-.206.102-.257.1 0 .1-.052.1-.155 0-.051.102-.257.203-.411.102-.206.203-.412.203-.515 0-.051.101-.205.101-.308.102-.052.203-.155.203-.258 0-.051 0-.154.101-.257.101-.051.203-.308.203-.514.202-.566.405-.977.708-1.389.102-.206.203-.463.304-.617 0-.155.102-.309.102-.309l.202-.309c.101-.154.203-.411.304-.514 0-.154.101-.309.101-.36-.101 0 0-.154.101-.206.102-.103.203-.308.304-.463.101-.206.203-.411.304-.514.101-.206.506-.926.608-1.183 0-.103.1-.309.303-.463.304-.309.81-1.08.912-1.39.202-.462.607-1.234.709-1.388.202-.206.506-.669.506-.823 0-.051.101-.257.202-.463.406-.772.608-1.183.71-1.595 0-.257.1-.514.202-.514 0-.051.101-.154.101-.257 0-.103 0-.206.101-.257 0 0 .203-.206.203-.412.101-.206.304-.566.506-.772.203-.308.507-1.131.71-1.491 0-.103.1-.258.202-.309.1-.103.202-.257.202-.309 0-.205.101-.565.507-1.234.1-.257.303-.617.303-.72 0-.103.102-.309.203-.412 0-.103.101-.308.101-.411.101-.155.203-.258.304-.309 0-.051.101-.154.101-.257 0-.155.101-.309.405-.875 0-.154.102-.257.102-.308-.102 0-.102-.052 0-.052.1-.051.1-.154 0-.308 0-.155 0-.258.202-.36 0-.103.101-.206 0-.258 0-.103.101-.411.304-.566.101-.102.405-.823.506-1.234 0-.154.101-.309.203-.412.101-.102.202-.36.303-.874 0-.257.102-.463.203-.514 0-.052.101-.155.101-.258 0-.051 0-.154.102-.154.1-.051.1-.051.1-.772.102-.308.203-.617.203-.668.102-.052.102-.309.203-.566 0-.257.101-.515.101-.669.101-.103.101-.411.203-.72 0-.257 0-.514.101-.617 0-.052.101-.412.101-.875-.101-.411 0-.771 0-.823.101 0 .101-.206.101-.463v-.874c.102-.257.102-.412 0-.412-.1-.051-.1-.823 0-.874.102-.052.102-1.03 0-1.44-.1-.155-.1-.515-.1-.772 0-.463-.102-.875-.305-1.39-.1-.205-.202-.462-.202-.616 0-.103-.101-.463-.203-.772-.202-.566-.303-1.132-.506-1.697 0-.155-.101-.31-.101-.31-.102-.05-.102-.205-.102-.308 0-.36-.202-1.183-.303-1.286-.304-.257-.405-.566-.304-.72.101-.154.101-.309-.304-.874-.202-.309-.304-.515-.304-.823 0-.206-.202-.566-.303-.67-.102 0-.102-.102 0-.153 0-.052 0-.155-.102-.258-.101-.051-.101-.154-.202-.205-.102-.052-.102-.258-.102-.463-.1-.155-.1-.36-.202-.463a.772.772 0 0 1-.203-.463c0-.206-.1-.412-.607-1.03-.101-.102-.405-.565-.71-1.182-.1-.206-.202-.412-.202-.463-.1-.052-.1-.155-.202-.206 0 0-.101-.154-.203-.36-.1-.154-.202-.412-.303-.566 0-.309-.102-.514-.304-.566-.102-.051-.102-.103-.102-.154.102-.103-.202-.566-.405-.72a.567.567 0 0 1-.303-.515c0-.154-.304-.514-.608-.72-.101-.103-.203-.206-.101-.308 0-.052 0-.103-.102-.103 0 0-.1-.103-.303-.257-.102-.155-.203-.31-.304-.31 0-.05-.101-.102-.101-.153 0 0 0-.103-.102-.155-.1-.051-.1-.154-.202-.206-.101-.051-.101-.154-.101-.205 0-.052-.102-.103-.102-.155-.101-.051-.202-.102-.202-.154 0-.051-.102-.206-.203-.309-.101-.102-.202-.205-.202-.257 0 0-.102-.103-.203-.103-.101-.051-.304-.205-.304-.411-.1-.154-.303-.36-.405-.515-.607-.617-1.012-1.131-1.316-1.44-.101-.206-.304-.411-.304-.411a.347.347 0 0 1-.202-.309c0-.206-.102-.309-.203-.412a.986.986 0 0 1-.506-.514c0-.103-.102-.206-.203-.257-.101-.103-.304-.257-.405-.36-.101-.103-.202-.257-.304-.309l-.202-.103c0-.051-.102-.206-.203-.308-.304-.309-.405-.463-.709-.772 0-.154-.202-.309-.303-.36-.102-.052-.203-.154-.304-.257l-.507-.515c-.202-.154-.405-.36-.405-.36 0-.051-.1-.103-.202-.154-.101 0-.101-.103-.101-.154.1-.052 0-.103-.102-.155 0-.051-.101-.103-.101-.103 0-.051-.101-.102-.203-.205-.1-.052-.202-.155-.202-.206 0-.052-.101-.103-.101-.154-.102-.052-.203-.103-.203-.155 0-.051-.101-.154-.202-.257-.203-.103-.304-.257-.304-.257 0-.052-.101-.103-.101-.154-.102-.052-.203-.103-.203-.206 0-.052-.101-.155-.203-.257-.202-.052-.303-.206-.303-.31-.102-.05-.203-.205-.405-.256-.102-.052-.203-.155-.102-.155l-.202-.308c-.203-.103-.304-.257-.304-.257 0-.052-.101-.155-.203-.206-.303-.103-.405-.309-1.012-.926 0-.103-.101-.206-.101-.257 0-.052-.102-.155-.203-.206-.203-.103-.506-.36-.709-.617a2.234 2.234 0 0 0-.607-.515c0-.051-.102-.103-.102-.154 0-.052-.202-.206-.405-.412-.101-.154-.405-.411-.506-.565-.203-.155-.405-.258-.506-.31-.102-.05-.203-.102-.203-.102 0-.103-.405-.514-.608-.669 0 0-.1-.103-.1-.205-.102-.052-.305-.206-.507-.36-.101-.103-.304-.258-.304-.258 0-.051-.101-.154-.202-.257-.203-.051-.304-.206-.304-.257 0-.052-.102-.154-.203-.206-.101 0-.202-.103-.202-.103 0-.051-.203-.206-.405-.36-.203-.154-.507-.36-.608-.463-.101-.154-.304-.257-.304-.36-.405-.206-.911-.514-1.012-.669-.102-.051-.203-.154-.304-.257-.102-.051-.203-.154-.304-.206 0-.102-.101-.154-.203-.205 0-.052-.1-.103-.1-.155l-.203-.103s-.102-.051-.102-.102c0-.052-.1-.155-.202-.206-.101-.052-.203-.154-.304-.257-.101-.103-.203-.206-.304-.206-.101 0-.101-.052-.101-.052 0-.051-.608-.565-.709-.617 0 0-.202-.154-.304-.308-.202-.155-.405-.36-.607-.412l-.304-.154c.101 0-.203-.36-.405-.463-.101-.103-.203-.206-.203-.309-.101-.051-.202-.206-.405-.309-.101-.102-.304-.257-.304-.36-.1-.103-.202-.205-.303-.257 0-.051-.203-.206-.405-.36-.304-.309-.71-.514-.912-.566-.101-.051-.202-.103-.101-.103 0-.051-.101-.257-.304-.463-.202-.154-.405-.411-.405-.463-.101-.051-.202-.205-.304-.257a1.253 1.253 0 0 1-.304-.206c0-.051-.202-.154-.405-.308-.1-.103-.303-.257-.303-.257 0-.052-.203-.206-.304-.412-.203-.206-.507-.463-.71-.669-.1-.154-.404-.411-.505-.514-.102-.154-.304-.257-.405-.309 0-.051-.102-.103-.102-.103 0-.102-1.316-1.337-1.62-1.44 0-.051-.101-.206-.203-.308a1.277 1.277 0 0 0-.405-.36c-.303-.155-.911-.72-.911-.824 0-.051-.101-.154-.304-.308-.202-.103-.304-.257-.405-.309 0-.103-.101-.154-.202-.154 0-.052-.102-.103-.102-.155 0-.102-.1-.205-.202-.257-.203-.154-.608-.566-.608-.668 0 0-.101-.103-.202-.155-.102 0-.203-.103-.203-.154 0-.052-.101-.154-.202-.206 0-.103-.102-.206-.102-.206 0-.051-.202-.154-.405-.308-.202-.155-.303-.309-.303-.412 0-.103 0-.154-.102-.206-.101 0-.101-.051-.101-.102l-.203-.206c-.1-.052-.202-.154-.202-.206 0-.154-.405-.514-.506-.617-.102-.052-.203-.103-.203-.155 0-.154-.506-.668-.709-.771 0-.052-.101-.103-.101-.154 0-.052-.101-.103-.203-.206-.1-.052-.202-.155-.202-.206 0-.051-.101-.257-.304-.463-.202-.206-.304-.36-.405-.411 0 0-.101-.206-.304-.412-.202-.206-.405-.514-.506-.669-.101-.103-.203-.257-.203-.308-.202-.155-.506-.515-.506-.566 0 0-.101-.103-.203-.257-.1-.103-.1-.258-.1-.309-.102-.051-.102-.154-.203-.154-.203-.052-.203-.052-.102-.155.102-.051.102-.103-.1-.257-.507-.514-.608-.669-.507-.771 0-.052-.101-.206-.203-.31-.405-.462-.709-.822-.709-.925 0-.103-.1-.154-.202-.206 0-.103-.101-.154-.101-.206 0-.051-.102-.154-.203-.205 0-.103-.101-.257-.202-.36a.347.347 0 0 0-.203-.309c0-.051-.202-.257-.202-.463l-.406-.617c-.506-.669-.607-.772-.81-1.646-.1-.36-.303-.669-.405-.72 0-.052-.101-.103-.101-.155 0-.103-.304-.566-.405-.617-.101 0-.101-.103-.101-.154 0-.103 0-.155-.102-.155 0-.051-.1-.154-.1-.257 0-.154-.102-.463-.305-.72-.202-.257-.303-.566-.303-.72-.102-.103-.203-.36-.304-.566-.203-.206-.304-.463-.304-.566 0-.103-.101-.206-.101-.257-.102 0-.102-.206-.203-.36 0-.206 0-.463-.101-.669-.101-.206-.203-.463-.203-.566l-.303-.463c-.102-.103-.203-.257-.203-.36 0-.103-.101-.257-.101-.411-.102-.103-.203-.309-.203-.412.101-.103 0-.206 0-.206 0-.051-.101-.257-.101-.514s0-.514-.101-.669c-.102-.103-.102-.308 0-.514v-.412c-.102-.051-.102-.154-.102-.205.102 0 0-.309 0-.67-.202-.668-.202-3.188 0-4.063.102-.309.102-.72 0-1.08v-.772c.102-.154.102-.411.203-.566v-.308s0-.309.101-.617c0-.824.101-1.852.304-1.904.101-.051.304-.926.203-1.029 0-.051.1-.154.1-.308.102-.155.203-.36.102-.412 0-.051.101-.463.304-.874.202-.36.304-.823.405-.978 0-.154.101-.308.101-.36.101-.103.203-.463.304-1.028.101-.155.203-.31.506-.67 0-.05.102-.205.203-.308 0-.103.101-.206.101-.257.101 0 .101-.051.101-.103 0-.103.203-.309.81-.977.203-.257.406-.463.406-.515 0 0 .202-.205.506-.463.405-.257.608-.463.608-.463 0-.051.202-.205.506-.36.304-.154.506-.36.506-.411.101-.052.203-.206.304-.257.203-.052.405-.206.506-.309.304-.206.304-.257 1.013-.617.202-.155.405-.309.506-.36.102-.155.304-.103.405.051l.304.154c.101 0 .203.052.405.052.203.051.81 0 1.013-.103 0 0-.101-.154-.101-.257-.304-.309-.405-.772-.304-.875.101-.051.202-.154.405-.205.202-.052.304-.103.304-.103 0-.103.709-.463.911-.463.101 0 .506-.155.911-.412.304-.206.71-.36.81-.36.102 0 .203-.051.304-.103.203-.051 1.52-.411 1.823-.411.101 0 1.114-.155 1.317-.206.202-.052 1.519-.103 1.721-.052 0 .052.506.052 1.013.052.506 0 1.316.051 1.721.103.71.051 1.823.154 2.937.206.304 0 .81.102 1.114.154 1.013.257 1.316.257 1.519-.206 0-.154 0-.206-.304-.309a1.177 1.177 0 0 0-.405-.102c-.101 0-.101-.052-.202-.052 0-.051-.102-.103-.304-.154-.203 0-.608-.052-.912-.154a2.908 2.908 0 0 0-.708-.155c-.102 0-.102 0-.102-.051h.203l.202-.103c.102-.052.405-.103.912-.103.304 0 .709-.051.81-.103.101 0 .405-.051.81-.051.405-.052.81-.052.911-.052.102-.051.507-.051.81-.103.304 0 .608-.051.81-.103.304-.102 1.418-.154 3.444-.205 1.114 0 2.025-.052 2.126-.052 0-.051.203-.051.304 0 .203 0 .81 0 1.215.052zm48.912 15.843c.304 0 .607.103.607.103.102.052.203.052.405.052.102 0 .405.051.608.102.203.052.608.103.911.155.203 0 .405.051.405.051 0 .052 1.62.412 1.924.412.102 0 .304.051.406.103.202.051.607.154.91.205.406.052.912.155 1.216.258l.608.102c.101 0 .304.052.405.103.101.052.405.103.506.103.101.052.405.103.506.206.102.051.406.103.507.154.202 0 .304.052.405.103.101 0 .202.052.304.052.1 0 .303.051.303.102.102.103.406.155.608.206.304.052.608.103.709.206.101.051.304.103.506.103.101 0 .203 0 .304.051 0 .052.608.258 1.519.515.304.103.709.205.81.257.101.051.405.154.912.257.202.052.506.154.708.257.203.155 1.317.515 1.418.515 0 0 .203.051.304.103.202.102.608.205.911.257.405.103.71.206.71.308.1.052.607.36 1.214.618.608.308 1.216.566 1.317.668.202.103.607.31 1.012.463.406.206.81.36.912.412.101.103.405.206.607.257.203.052.406.154.608.257.101.052.304.155.405.155 0 0 .101.051.101.103.102.051.203.102.405.102.203.052.304.103.406.206a.875.875 0 0 0 .202.154c.101 0 .203.052.304.052.101.051.202.103.304.103.1 0 .303.103.607.206.203.154.81.411 1.215.617.406.206.81.36.912.36.101 0 .304.103.506.206.203.103.608.308 1.013.411 1.012.412 3.038 1.492 3.95 2.11.1.102.303.256.506.308.202.103.303.206.405.257 0 .154.708.72.911.72 0 0 .203.155.304.309a.909.909 0 0 0 .304.257c.1 0 .202.103.202.206.101.051.304.206.506.308.102.052.304.206.406.31.1.153.202.308.303.36.203.102.304.256.405.308.102.103.304.257.507.36.101.154.405.36.607.566.203.206.405.36.507.411 0 .052.202.155.303.309.102.103.406.309.507.411.202.103.506.31.607.463.304.258.81.618.912.67.101 0 .202.102.202.205.102.103.304.257.507.309.202.102.303.257.405.308 0 .206.607.72.709.72 0 0 .202.155.303.309.203.154.507.411.71.566l.404.308c0 .052.102.206.304.31.101.153.304.308.304.41.101.052.202.155.304.206 0 .052.1.103.1.155 0 0 .203.308.507.617s.71.772.912.977c.202.258.506.515.607.566 0 .103.102.206.102.206 0 .051.1.206.303.309.203.154.304.36.405.463.102.102.203.257.304.257 0 .051.101.103.101.154 0 .103.304.412.507.514 0 .052.101.103.101.155-.101.051 0 .206.101.36.203.103.304.257.304.308 0 .052 0 .103.101.155.102 0 .203.257.405.463.507.771.608.823.912 1.131.101.206.405.463.405.618.202.411.607.771.709.771.101.052.101.103.101.155 0 .051.203.36.405.72.203.308.506.72.608.926 0 .154.202.36.303.411 0 .103.203.36.203.618.101.257.203.462.304.514.101 0 .101.154.202.463 0 .206.102.566.203.823.101.257.202.566.304.72 0 .154.1.309.1.36.102.103.203.257.203.36 0 .103 0 .309.102.412.101.154.202.36.202.514.102.154.102.36.203.412.101.051.101.257.202.463.102.205.203.411.203.514.304.309.405.463.101.463-.202 0-.405-.051-.506-.154a1.177 1.177 0 0 0-.405-.103l-.102-.052c-.1-.051-.202-.154-.405-.154a4.176 4.176 0 0 1-.607-.206 3.143 3.143 0 0 0-1.013-.205s-.202-.052-.405-.155c-.202-.154-1.316-.463-1.62-.463-.101 0-.203-.051-.203-.051-.101-.052-.304-.155-.607-.155-.304-.051-.71-.205-1.013-.257-.304-.103-.506-.205-.608-.205-.303 0-.708-.412-.506-.463.304-.052.203-.103-.101-.206h-.405c-.101.103-.608-.052-.81-.155-.102-.051-.203-.102-.304-.102-.101 0-.304-.103-.608-.206-.202-.103-.709-.257-1.012-.36a35.94 35.94 0 0 1-2.33-.926c-.708-.309-1.215-.463-1.417-.463-.102 0-.203-.103-.405-.206-.203-.206-.203-.257.202-.103.101.052.203.103.304.103.101-.051-.101-.206-.405-.309-.203-.051-.506-.102-.709-.205-.304-.103-.405-.103-.405.103 0 .102 0 .102-.202-.052-.102-.103-.304-.154-.304-.154-.102 0-.304-.052-.405-.154a4.176 4.176 0 0 0-.608-.206c-.202-.052-.506-.206-.81-.309-.203-.103-.405-.154-.506-.154l-.203-.103c-.101-.052-.202-.103-.405-.103a.725.725 0 0 1-.304-.051c0-.103-.607-.36-.709-.36-.1 0-.303-.052-.506-.155-.304-.103-.506-.154-.506-.154-.304 0-1.722-.566-1.722-.617 0-.103 0-.103-.202-.052-.102 0-.304 0-.405-.051a4.997 4.997 0 0 0-1.013-.309c-.405-.103-.912-.257-1.013-.309l-.202-.102c-.102 0-1.317-.412-1.317-.463-.101-.052-.202-.052-.304-.052-.202 0-.91-.36-1.012-.514 0-.103-.101-.155-.304-.155-.203 0-.911-.154-1.013-.205 0-.052 0-.052.102-.052.1 0 .1-.051-.102-.103-.202-.103-.202-.103-.405-.051-.304.051-.304.051-.202-.052 0-.205-.507-.411-1.215-.462-.406-.052-.608-.103-.71-.155-.1-.154-.708-.308-.91-.257-.203.051-.203.051-.102-.051 0-.155-.911-.515-1.316-.515-.203 0-.304-.051-.304-.154 0-.052-.203-.154-.507-.257-.303-.103-.708-.309-1.012-.463a81.644 81.644 0 0 1-2.026-.875c-.1 0-.303-.103-.405-.206-.1-.102-.303-.205-.303-.205-.304-.052-.912-.309-1.52-.618l-.708-.36c-.102 0-.203-.051-.203-.051 0-.052-.81-.463-1.012-.515-.102-.051-.203-.102-.102-.102 0-.103-.709-.515-.81-.515-.101 0-.304-.051-.405-.154-.101-.052-.304-.103-.304-.103-.101 0-.506-.206-1.012-.463-.405-.206-.81-.411-.912-.411-.101 0-.709-.36-.911-.566-.203-.206-.912-.618-1.114-.618-.101 0-.304-.102-.405-.154-.304-.206-.405-.257-.101-.257.202.051.1-.052-.203-.154-.202-.103-.405-.155-.506-.155-.102 0-.203-.051-.203-.103-.101-.103-1.519-.823-1.62-.823 0 0-.203-.051-.304-.154-.101-.051-.405-.206-.607-.206-.304-.103-.608-.206-1.418-.566-.203-.102-.608-.205-.81-.308-.203-.103-.507-.257-.507-.309a2.576 2.576 0 0 0-.506-.206c-.203-.051-.506-.205-.709-.308-.506-.206-.709-.257-.607-.103.1.154-.203.103-.304-.052-.203-.102-.203-.154 0-.154.202-.051 0-.154-.405-.309-.304-.102-.608-.257-.71-.36-.1-.103-.303-.205-.404-.205-.203-.052-.304-.103-.304-.155-.203-.103-1.519-.617-1.62-.566 0 .103-.203.052-.507-.051-.202-.103-.303-.154-.202-.206 0-.103-.506-.411-1.114-.617-.101-.051-.506-.154-.709-.257-.304-.103-.506-.206-.506-.206-.102 0-.304-.103-.608-.309-.405-.154-.709-.257-.81-.257-.304 0-1.114-.411-1.013-.463 0-.103-2.43-1.389-2.633-1.389-.1 0-.1.052-.1.052 0 .051-.102.051-.203-.052-.102 0-.203-.103-.203-.154 0-.103-.304-.257-.607-.463-.304-.154-.608-.309-.507-.309 0 0-.101-.051-.202-.051l-.405-.206c0-.051-.203-.206-.405-.308-.203-.103-.406-.206-.406-.258 0 0-.202-.154-.506-.308-.304-.206-.607-.36-.709-.412 0-.051-.101-.154-.101-.154 0-.103-.405-.515-.709-.72-.304-.206-.506-.36-.607-.515 0-.051-.203-.103-.203-.154-.101-.051-.203-.103-.203-.154 0-.052 0-.103-.1-.103-.102 0-.102 0-.102-.052 0-.051-.101-.154-.203-.257-.202-.103-.303-.257-.303-.257 0-.051-.203-.154-.304-.257-.405-.155-.405-.412-.101-.72.202-.206-.203-.463-.71-.618-.404-.051-.708-.308-.708-.411 0-.052.202-.155.405-.257.81-.258 1.215-.67.81-.875-.203-.051.101-.154.304-.051.101 0 .304.051.405.051.101.052.304.103.405.154.101.052.304.052.506 0 .304-.051.507-.051.71.052.202 0 .404.051.505 0 0-.052.406-.052.81-.103.406 0 .81-.051.912-.051 0-.052.101-.052.203-.052.202.052.607-.051.607-.103 0-.051.101-.051.304-.051.202 0 1.215-.206 1.316-.309.102-.051.405-.154 1.114-.308.203-.052.507-.103.507-.155 0 0 .405-.103.911-.257 1.013-.257 1.418-.412 2.43-.823.304-.206.71-.36.71-.36s.303-.154.708-.309l.608-.308 1.114-.566c.607-.257 1.215-.515 1.316-.515l.608.103zm-20.253 3.241c0 .051.1.051.202 0 .203 0 .304 0 .405.051.101.052.203.103.304.103.304 0 .81.103 1.215.257l.203.103h-.203c-.202 0-.304 0-.405.052-.202.103-.709 0-.81-.206-.101-.154-.608-.257-.608-.051 0 .051-.101.102-.202.154-.405.206-1.114-.103-.81-.412.1-.102.506-.154.709-.051zm-.912 3.446c.203.103.405.206.405.258.101 0 .304.154.507.308.202.155.506.36.607.412.203.154.608.514.912.823.1.103.303.257.506.308.202.103.304.206.304.258l.607.411c.304.155.608.36.608.412 0 0 .101.103.304.154.1.051.303.206.506.36.202.257.608.566 1.215.926.101.051.304.206.405.257.203.206 1.317.823 1.62.926.203.052.406.206.507.309.304.206.709.411.81.411l.709.36c.304.206.709.463.911.566.203.103.507.257.608.412.202.103.405.257.506.308.101.052.304.155.405.258.101.102.507.308.81.463.405.257.912.514 2.228 1.286.304.154.506.308.608.36.101.103.304.154.506.154.203.051.304.051.304.154 0 .103.202.206.405.36.304.103.506.258.608.309.1 0 .506.257 1.012.463 3.038 1.44 4.152 2.006 4.962 2.47.608.256 1.114.513 1.114.513.101 0 .203.052.304.103 0 .052.202.103.202.103.102 0 .203.052.203.052.101.051.203.103.304.103.101 0 .202.051.202.102 0 .103 4.152 2.16 5.671 2.83.608.257 1.52.72 2.127.977.709.309 1.316.566 1.519.617.202.052.405.155.506.257.101.052.405.206.709.31.203.102.608.256.81.308.101.103.304.154.405.154l.405.206c.203.103.507.206.71.257.1 0 .505.154.708.206.203.103.506.206.608.257 0 0 .303.103.506.206.202.051.405.154.405.154.101 0 .304.052.405.103 0 .051.203.103.304.103 0 0 .202.051.202.103a.875.875 0 0 0 .203.154c.101 0 .506.154.81.309.405.154.81.36.911.36.304.103 1.013.36 1.317.514.202.103.405.206.607.206.102.051.507.206.81.309.203.154.608.308.81.36.203.051.406.154.406.154.101.051.202.051.304.051.1-.051.202 0 .303.052.102.103.405.308.608.308.101 0 .304.052.506.155.203.103.304.154.405.154l.608.206c.203.103.506.206.608.206 0 0 .202.103.506.205.202.103.506.206.709.258.101.051.304.102.405.154 0 .051.202.103.405.103.101.051.405.103.506.154l.507.257c.202.052.506.155.607.206.101.052.405.103.608.154.202.103.607.155.709.258.1.051.607.205 1.012.308.405.155.912.309 1.114.36.203.052.405.103.507.155.1 0 .202.051.303.051.102.052.203.052.405.103.102 0 .304.103.405.154.102.103.304.155.406.155.1 0 .405.051.607.154.608.257.912.36 1.722.566.405.103.911.257 1.114.36.303.103.607.206.708.206.102 0 .304.051.507.154.202.103.405.154.506.154.101 0 .203.052.304.052.101.051.202.103.304.103 0 0 .303.102.607.154.203.103.507.206.608.206.202.051.607.154.709.257.101 0 .304.051.506.103.203.051.506.103.608.205 0 .052.202.103.303.155.102 0 .304.051.406.103.1.051.405.154.607.205.203.052.709.258 1.114.463.304.155.709.36.911.412.102.051.912.463 1.62.874.81.412 1.823.926 2.33 1.132.911.514 1.215.617 1.62.926.203.154.405.309.506.309.102.051.405.205.608.36.506.257 1.418.617 1.62.617l.203.103c0 .051.101.103.202.103.102 0 .304.103.507.206.303.102.506.205.506.205s.405.155.81.36l.709.36h-.608c-.303 0-.708-.051-.911-.051-.101-.051-.405-.103-.506-.103-.102 0-.405-.051-.71-.103-.303-.103-.404-.103-.607-.051-.101.051-.202 0-.304-.052-.202 0-.405-.051-.506-.051-.202 0-.304 0-.304-.052 0-.051-.607-.102-1.316-.102-.203-.052-.304-.052-.507-.103-.1 0-.506-.052-1.012-.103-.507 0-.912-.052-1.013-.052 0-.051-.202-.051-.405-.051-.101.051-.405 0-.709-.051-.202 0-.607-.052-.81-.103-.304 0-.506-.052-.607-.052-.203-.103-.71-.206-1.418-.257-.304 0-.81-.103-1.013-.103-1.418-.257-2.532-.36-2.734-.309-.101.103-.203.103-.405 0a7.459 7.459 0 0 0-1.114-.205c-.405 0-.911-.052-1.114-.103a8.153 8.153 0 0 0-1.114-.103c-.405-.051-1.114-.103-1.519-.154a13.137 13.137 0 0 0-1.418-.103c-.708-.052-1.012-.103-1.316-.155-.203 0-.405-.051-.506-.051-1.216-.103-2.127-.206-2.33-.257-.1-.052-.607-.103-1.012-.103s-1.013-.103-1.317-.103c-.81-.154-2.734-.309-3.443-.309-.202 0-.709-.051-.911-.102a15.619 15.619 0 0 0-2.025-.31c-.102.052-.304 0-.608-.05a4.366 4.366 0 0 0-.81-.103c-.101 0-.506 0-.709-.052a15.238 15.238 0 0 0-1.519-.257c-.101 0-.203-.052-.304-.103-.101 0-.202-.051-.304-.051-.1 0-.405-.052-.708-.155a5.97 5.97 0 0 0-1.114-.257c-.304-.051-.608-.103-.608-.154-.101 0-.304-.052-.506-.052-.203-.051-.304-.103-.405-.103 0-.051-1.013-.308-1.216-.308 0 0-1.417-.36-2.126-.515-.101-.051-.304-.051-.304-.051-.202 0-1.418-.309-1.418-.36 0-.052-.709-.206-.911-.206 0 0-.101-.051-.203-.051-.202-.103-1.215-.36-1.417-.36-.102 0-.203-.052-.304-.155a2.576 2.576 0 0 0-.506-.205 2.576 2.576 0 0 1-.507-.206c-.202-.052-.405-.103-.506-.103-.101-.052-.304-.103-.506-.206-.102-.103-.203-.206-.405-.206-.102 0-.203-.051-.304-.103-.203-.102-.608-.205-.81-.257-.102 0-.203-.051-.203-.103l-.405-.205a1.615 1.615 0 0 1-.304-.103c0-.052-.202-.052-.405-.103-.304-.052-.607-.154-1.114-.412-.405-.205-.81-.36-.911-.36-.101 0-.304-.103-.608-.308-.202-.155-.506-.258-.607-.309-.102 0-.405-.103-.608-.206-.203-.154-.608-.308-.911-.411a55.895 55.895 0 0 1-2.026-.875c-.303-.154-.709-.308-.81-.36-.202-.103-.607-.257-.911-.411a6.434 6.434 0 0 0-1.215-.463c-.102-.052-.203-.103-.203-.206 0-.154-.709-.514-1.114-.566a3.238 3.238 0 0 1-.506-.309l-.507-.257c-.1-.051-.202-.103-.202-.154 0 0-.101-.052-.101-.103-.102 0-.405-.154-.71-.309-.404-.154-.607-.257-.708-.257l-.203-.103c-.1-.154-1.924-1.131-2.126-1.131l-.101-.052c0-.103-.608-.36-.71-.36 0 .052-.303-.103-.506-.257-.506-.412-.911-.669-1.114-.669-.1 0-.202-.051-.303-.103 0-.051-.405-.308-.912-.566-.506-.308-1.215-.668-1.519-.874-.405-.154-.911-.463-1.316-.617-.304-.155-.709-.36-.81-.515-.203-.103-.405-.205-.608-.257-.202-.051-.304-.103-.304-.154-.101-.103-.405-.309-.81-.515a7.298 7.298 0 0 1-.709-.411l-.506-.257c-.203-.155-.506-.309-.608-.412-.202-.206-1.316-.874-1.519-.874 0 0-.303-.155-.607-.36-.71-.463-1.215-.772-1.418-.772 0 0-.101-.051-.101-.103a11.391 11.391 0 0 1-.912-.514c-.405-.206-.81-.463-.911-.515a6.195 6.195 0 0 1-.608-.411c-.202-.155-.506-.257-.607-.309 0 0-.101-.051-.101-.103 0 0-.203-.103-.304-.205l-.405-.206c0-.052-.203-.155-.304-.206-.304-.051-.405-.154-.405-.257 0-.155-.506-.566-1.215-1.08-.203-.103-.507-.412-.71-.566-.202-.206-.404-.412-.607-.515-.101-.051-.202-.154-.202-.205 0 0-.102-.155-.304-.258-.203-.257-.203-.514.202-.514.203 0 .507-.257.405-.463 0-.206.203-.309.608-.309.405 0 .608-.103.709-.36l.202-.103c.203 0 .608-.257.608-.36 0-.051.203-.205.405-.308a5.64 5.64 0 0 0 .81-.515c.101-.103.304-.257.405-.308.102-.052.304-.258.507-.463.202-.258.607-.515.911-.669.608-.309 1.013-.617 1.013-.72 0-.052.202-.155.303-.257.406-.155 1.317-.978 1.52-1.39.1-.102.202-.205.202-.256 0 0 .101-.103.203-.258 0-.103.1-.205.1-.257.203-.103.305-1.08.203-1.08-.1 0-.1-.052-.1-.154 0-.155.202-.155.404.102zm-8.607 5.607s-.203.103-.406.155c-.303.103-.506.205-.506.205 0 .155-.506.31-.911.31-.507-.052-.507-.155-.102-.258.203-.052.406-.103.507-.154 0-.052.101-.052.202-.052.102.052.203 0 .203-.051.101-.103 1.013-.257 1.013-.155zM57.418 28.602c-.507.206-.405.411.202.669.608.257.912.308 1.216.103.405-.206.405-.31-.304-.618-.71-.36-.71-.36-1.114-.154zm12.05.309c-.405.102-.91.205-1.215.205-.405.052-.506.103-.81.258-.202.154-.405.205-.405.205 0-.154-2.025.926-2.228 1.183 0 .052-.101.258-.304.412-.1.154-.202.309-.202.36.101.154 0 .206-.203.154-.303-.154-1.114-.154-1.62.052l-.405.206s0 .102-.101.205c-.101.36.709.463 1.62.257.608-.102.709-.102.81.258.101.205.203.411.203.514.101.103.101.257.101.412 0 .102.101.257.101.36.102.154.203.36.203.463.101.103.202.36.405.463l.202.308c0 .155.81.618 1.722.978.709.308 1.013.411 1.316.411.102 0 .304.052.507.103.1.103.405.154.506.206.203.051.405.154.506.206.203.154 1.013.514 1.418.668.405.103 1.52.155 1.722.052.1 0 .303-.052.506-.052.202-.051.405-.103.506-.154.102 0 .203-.052.405-.052.304 0 1.62-.205 1.823-.308a8.76 8.76 0 0 1 .709-.257c.304-.052.608-.155.709-.206.101-.052.304-.154.506-.206.405-.103.608-.309.912-.617 0-.103.202-.257.303-.36.102-.052.203-.155.203-.206 0-.051.101-.154.101-.206.304-.154.405-.668.405-1.543.101-.411.101-.772.101-.823.102-.154-.303-.669-.607-.669-.203 0-.608-.205-.709-.411 0-.052-.101-.155-.203-.206 0-.103-.1-.154-.1-.206 0-.051-.608-.411-.81-.411 0 0-.507-.257-1.115-.515-.607-.308-1.114-.514-1.215-.514 0 0-.203-.052-.405-.154-.304-.103-1.215-.309-1.52-.309-.1 0-.303-.051-.404-.154-.506-.206-1.114-.36-1.418-.36-.101 0-.304 0-.405-.052-.101 0-.405-.051-.81-.051-.608-.052-.709-.052-1.317.103zm1.823 2.469c.507.051.71.103.81.051.102-.103.405 0 .405.103 0 .051.102.154.304.257l.304.155-.304.051c-.81.154-1.823.669-2.025 1.08 0 .052-.101.206-.304.36-.202.103-.304.309-.405.463 0 .103-.101.257-.202.257 0 .052-.102.258-.203.463 0 .463-.101.515-.405.515-.304-.052-.608-.206-1.013-.515-.101-.102-.304-.205-.304-.205-.202-.052-.81-1.75-.607-1.8 0 0 .101 0 .202.05.203.052.203.052.405 0 .608-.257 1.013-.565 1.216-.925.303-.463.607-.515 2.126-.36zm58.836 13.734c-.101.052-.203.103-.203.154-.304 0-.202.155 0 .155.102 0 .203 0 .102.051 0 .052.1.052.1.103.102 0 .203.052.203.052-.1 0 0 .051.102.051.202.051.202.051.202-.103l-.101-.103.405.155c.405.102.81.102.608 0-.102-.155-1.013-.618-1.114-.618-.203-.051-.203 0-.304.103zm38.076 42.335c0 .155-.304.206-.709.206-.304 0-.304 0-.203.103.102.206.102.206.608.309.304.051.304.051.405 0 .101-.052.101-.052.101 0 0 .051.102.102.203.102.101 0 .202 0 .202-.051s.102-.051.203-.051c.304 0 .506-.052.506-.155 0-.154-.405-.36-.709-.36-.303 0-.405 0-.405-.103s-.202-.154-.202 0z"/></svg>