<svg version="1.0" xmlns="http://www.w3.org/2000/svg" width="266.667" height="266.667" viewBox="0 0 200 200"><path d="M72.894 7.553c-.183 0-1.74.056-3.297.056-2.473.056-3.755.111-5.037.223-.183 0-.457.056-.55.056-.182.056-.457.112-.64.056-.183 0-.366 0-.55.056-.183.056-.366.112-.457.112-.092 0-.275.056-.458.112l-.55.168c-.091 0-.366.056-.64.056-.184.056-.642.112-1.008.112s-.641 0-.733.056c0 .056-.091.056-.091.056-.092-.056-.275 0-.367.055-.091 0-.274.056-.366.056-.64.112-1.007.112-1.282.112-.275 0-.366.056-.458.056 0 .056-.183.168-.366.168-.183.056-.366.168-.458.168 0 .056-.092.112-.183.112-.275 0-1.007.28-1.099.335 0 .056-.092.112-.275.112-.091.056-.183.056-.183.112 0 0-.091.056-.275.112-.732.168-.915.224-1.373.504-.367.167-.55.335-.641.447 0 .056-.092.112-.275.112-.092 0-.183 0-.183.056s-.092.056-.275.112l-.275.168c-.091.112-.732.503-.915.503l-.183.112c0 .056-.184.168-.367.28-.183.112-.275.224-.275.28 0 0-.091.055-.274.111-.183.056-.275.112-.275.168 0 .056-.275.28-.733.56-.457.28-.824.503-.732.503 0 0-.092.168-.275.336-.183.224-.275.391-.275.391 0 .056-.183.168-.457.336-.275.168-.458.28-.367.392 0 .056 0 .112-.183.112-.183.056-.183.112-.183.223 0 .336-.275.448-.824.392-.367 0-1.282-.224-1.649-.392-.091-.056-.366-.111-.55-.167-.274-.056-.457-.112-.457-.112-.092-.056-.183-.056-.275-.056-.091 0-.274-.056-.458-.112-.091-.056-.366-.112-.549-.112-.183 0-.366-.056-.55-.112-.183-.168-.549-.28-.824-.28-.091 0-.366-.056-.64-.112-.459-.167-1.1-.28-1.466-.28-.183 0-.275-.055-.366-.111a2.465 2.465 0 0 0-.641-.224c-.55-.112-1.74-.447-1.74-.503-.092 0-.55-.224-1.099-.392-.458-.224-1.007-.392-1.007-.448a.923.923 0 0 0-.367-.111c-.183-.056-.366-.112-.457-.168l-.184-.112c-.091 0-.274-.056-.458-.168-.366-.224-1.282-.671-1.465-.727l-.274-.168c-.184-.056-.275-.112-.367-.112-.183-.056-1.19-.503-1.648-.84-.916-.559-1.099-.67-1.099-.726 0-.056-.641-.28-1.007-.28-.275-.056-.367-.056-.458.112l-.458.28c-.183.055-.183.167-.183.335 0 .224.275.671.458.671.091 0 .64.728.824 1.007.091.168.183.28.183.28 0 .056.092.224.183.392 0 .168.183.447.183.503.092.112.183.28.275.392 0 .112.092.224.183.28 0 .056.092.111.092.167 0 .056.64.84 1.099 1.399.183.168.274.336.274.392 0 0 .184.167.367.28.183.167.366.335.458.503l.366.447.366.336c0 .056.092.168.183.168.092.056.183.168.183.224 0 .112.092.223.184.28.091.055.183.167.183.223 0 .112.366.504.55.616 0 .055.09.111.182.223 0 .056.092.224.183.336.092.168.184.336.275.448 0 .111.092.335.275.503l.183.336c0 .056.092.112.092.223.091.056.183.168.183.224 0 .112.091.168.091.224.092.056.184.112.092.224 0 .112.092.335.275.671.091.28.366.671.366.951.092.28.275.727.458.951.183.28.275.616.366.728 0 .111.092.223.183.28 0 .111.183.279.275.39.092.169.183.392.366.504.092.112.183.336.275.448.092.112.183.28.275.28.091.056.091.223.091.447 0 .28.092.392.184.56.274.28.366.783 0 .895-.092.056-.184.168-.184.223 0 .112-.091.224-.183.392-.183.224-.183.336-.183.671-.092.168-.092.28-.183.336-.275.056-.733 1.063-.641 1.287 0 .112-.092.224-.183.335-.092.112-.183.224-.092.336 0 .224-.091.448-.366.448-.183.056-.275.223-.183.727 0 .168 0 .336-.092.447-.091.056-.183.168-.183.224 0 .056-.092.168-.183.224-.092.056-.092.28-.183.56 0 .223-.092.447-.092.503-.091 0-.091.112 0 .224 0 .168 0 .224-.183.335-.183.168-.275.392-.366.951 0 .056 0 .336-.092.616-.091.28-.091.56-.091.727 0 .168-.092.224-.184.28-.183.056-.183.168-.183.391-.091.224-.091.392-.091.448-.092.168-.275.895-.184.951.092 0 .092.056 0 .056-.091.056-.091.224-.091.392 0 .167 0 .28-.092.335-.091.112-.091.56 0 .672.092.056.092.111 0 .167-.091 0-.091.392-.091.896v1.566c-.092.168.091 1.902.183 2.461 0 .504.091 1.455.091 1.679 0 .112.092.335.092.391.183.168.183.224.092.224-.092 0-.092.056-.092.112.092 0 .092.056 0 .056-.092.056-.092.336 0 .504.183.111.183.28.092.391-.092.056-.184.168-.092.392s.092.615.183.95c0 .784.183 1.903.275 2.07.092.057.092.169 0 .169 0 .055 0 .223.092.335.091.28.274.84.274 1.623.092.839.275 1.454.367 1.734.183.503.366 1.343.366 1.734 0 .112.091.336.183.448 0 .168.092.391.092.503 0 .112.091.392.183.56.091.28.183.391.091.447-.091.112 0 .616.092.671.091 0 .091.112.091.28 0 .336.184 1.175.275 1.231 0 .056 0 .224.092.392 0 .167 0 .391.091.503.092.056.183.168.092.224-.092.112 0 .56.091.671.092 0 .092.112.092.224v.336c.092.056.183.447.275.783 0 .391.183.895.274 1.063 0 .224.092.503.092.615.092.112.183.336.275.504.091.28.183.391.091.447-.091.112-.091.168 0 .168 0 .056.092.224.184.448 0 .167.091.335.091.391.092.112.092.28.183.392 0 .168.092.391.092.447.091.112.183.28.183.392 0 .168.183.392.183.503.092.168.183.448.275.56.091.112.183.336.275.392 0 .111.091.28.183.391 0 .168.091.28.183.336 0 .112.091.224.091.335 0 .056.092.28.184.392.091.168.183.336.183.504.091.111.183.28.274.391 0 .112.092.28.184.392 0 .112.091.28.183.335.183.112.183.168.091.28-.091.056-.091.168 0 .168.092.056.275.336.183.392 0 .056.092.111.184.167 0 .112.091.168.091.224-.091 0 0 .168.092.28.091.168.274.336.274.392 0 .111.184.503.367.839.183.391.366.727.366.839 0 .056 0 .168.092.224.091.056.274.391.458.783.091.112.183.28.274.336.092.055.183.335.183.559.092.056.092.112.092.168.092 0 .092.168.092.28 0 .167.091.28.091.28.092 0 .092.055.092.111s.091.168.183.28c.091.28.275.503.366.839.092.168.275.56.641 1.007.092.168.183.336.183.392.092.335.458.95.641 1.063.092.055.092.223.184.335 0 .224.274.616.366.783.091.056.091.168.091.224 0 .168.275.672.458.84a.475.475 0 0 1 .183.335c0 .112.092.224.184.28 0 .056.091.223.183.391 0 .168 0 .336.091.336 0 .056.183.28.275.56 0 .223.183.559.275.67.366.448.366.448.458.672 0 .112.091.28.183.392.091.112.183.168.183.223-.092 0 0 .112 0 .168.091.112.183.336.183.448.092.224.275.615.55 1.119 0 .168.183.56.366 1.23.091.336.183.672.275.728.091 0 .091.168.183.335 0 .168.091.392.183.448 0 .112.091.224.091.336 0 .112 0 .335.092.503 0 .168.092.448.183.671.092.224.183.448.275.56.183.224.183.224.091.28-.183.112-.183.223.092.839.092.447.183.727.183 1.51 0 .392.092.504.183.616.183.112.183.223 0 .615 0 .112.092.224.092.336.091.056.091.168.091.223v.224c.092.056.092.224.092.336-.092.112 0 .224.092.336 0 .111.091.167 0 .167-.092.056 0 .728 0 1.287.091.56.183.84.183 1.399 0 .224.091.447.091.503.092 0 0 .168 0 .28-.091.112-.091.28 0 .336.092.28.275 1.902.092 2.293 0 .112 0 .28.091.392.092.056.092.168.092.336-.092.223-.092.839-.092 1.398 0 .112.092.392.092.616.183.839.183.895.183 1.622 0 .448.092.671.183.727.092.056.092.112 0 .224-.091.168-.183.448-.091 1.063v1.846c0 .671.091.951.183 1.007.092.112.092.112-.092.112-.091.056-.183.112-.091.112 0 .056 0 .336.091.615v.895c.092.224 0 .392 0 .392-.091.112-.091.615 0 .727.092 0 .092.168.092.28-.092.168-.092.448-.092.671v3.805c0 .615 0 1.062-.091 1.286-.092.224-.092.616-.092.951 0 .336 0 .616-.091.616-.092.056-.092.391-.184.783 0 .391-.091.95-.091 1.23-.092.392-.183.616-.092.784.092.168.092.224 0 .28-.274.111-.366.839-.458 2.965-.091.447-.091.783-.274 1.286-.092.672-.183 1.343-.183 1.958 0 .504-.092.84-.184.951-.091.112-.183.728-.183 1.12 0 .111 0 .335-.091.447-.092.056-.092.391-.092.671-.091.224-.091.84-.183 1.287-.092.671-.092.895 0 .95.092.057.092.057 0 .113 0 0-.092.112-.092.224 0 .167-.091.335-.183.503-.091.168-.091.28 0 .727.092.392.092.504 0 .56-.274.112-.366.839-.366 1.846 0 .615-.092 1.063-.183 1.175-.092.28-.183 1.622-.092 1.622.092 0 .092.168 0 .336-.091.056-.183.28-.183.56-.091.279-.091.615-.183.726 0 .112-.092.616-.183 1.063-.092.784-.092.84.091.896.184.111.092.391-.183.503-.091.056-.183.168-.275.336 0 .112-.091.447-.091.727-.092.28-.092.56-.092.671.092.112 0 .224 0 .28-.274.336-.55 1.79-.458 1.958.092.112.092.168 0 .28 0 .056-.091.224-.091.391-.092.112-.183.28-.275.336-.091.112-.091.28-.091.56s0 .559-.092.67c-.183.504-.275.952-.183 1.064.091.112.091.168-.092.224-.091.055-.091.167 0 .335 0 .28-.091.56-.458 1.51-.091.224-.274.56-.274.784-.092.224-.183.503-.275.615-.092.168-.092.392-.092.504.092.168 0 .28-.091.335 0 .112-.092.28-.183.448-.183.503-.275.783-.275.84-.183.111-.366.67-.458 1.006 0 .168-.092.448-.275.671-.183.336-.274.672-.366 1.007v.336c0 .056-.092.168-.183.28-.183.056-.366.336-.458.615-.092.28-.275.672-.458.84-.275.503-.458.894-.55 1.23 0 .168-.09.336-.182.448-.092.056-.184.223-.275.335-.092.168-.183.336-.183.392-.092.112-.183.336-.183.448-.092.111-.184.28-.275.391 0 .056-.092.168-.183.336 0 .112-.092.28-.184.335-.183.224-.549 1.231-.64 1.567-.092.168-.184.447-.275.671-.092.224-.275.56-.367.783-.091.448-.457 1.175-.64 1.343-.184.28-.458 1.175-.458 1.287.091.056 0 .112 0 .112a1.04 1.04 0 0 0-.367.447c-.091.224-.274.448-.366.504 0 .112-.092.28-.092.447 0 .224-.091.336-.183.448-.091.056-.183.391-.274.671-.184.504-.275.727-.642 1.063-.183.224-.549.84-.64 1.063 0 .112-.092.336-.275.504-.092.167-.183.391-.183.447 0 .056-.092.112-.092.168-.092 0-.183.168-.183.28 0 .28-.366.839-.55.95a2.193 2.193 0 0 1-.549.504c-.275.392-.641.727-1.19 1.231-.092.112-.184.224-.184.28 0 .056-.183.223-.366.391-.275.168-.458.336-.458.392 0 .056-.183.224-.275.336-.183.111-.366.28-.366.391-.091.112-.183.224-.183.28-.092 0-.183.112-.275.224 0 .056-.091.223-.183.335-.091.168-.183.28-.183.336 0 .112-.275.727-.458.951-.091.056-.091.112-.091.168-.092.056-.092.168-.184.168-.366.223 0 .671.641.727.184.056.458.056.55.112.275 0 .824-.224.824-.392 0-.056.458-.615.641-.783 0 0 .183-.168.275-.392a1.04 1.04 0 0 1 .366-.447c0-.056.092-.112.092-.168 0-.056.458-.56 1.099-1.175.366-.391.549-.503.64-.615 0-.056.184-.224.367-.336.183-.168.366-.28.366-.335 0-.112.366-.504.55-.728 0 0 .091-.112.183-.28.091-.111.274-.335.366-.391.092-.112.183-.168.183-.224 0-.056.092-.168.183-.336.275-.391.367-.447.458-.727.092-.112.183-.224.183-.28.092-.055.916-1.622 1.282-2.405.092-.112.184-.392.367-.615.091-.168.183-.392.274-.56 0-.112.092-.392.275-.615.366-.56.824-1.567.824-1.679 0-.056 0-.167.092-.223 0-.056.183-.336.275-.616.183-.28.366-.671.458-.95.183-.28.366-.672.457-.952.092-.28.275-.727.367-1.063.183-.28.274-.615.366-.783 0-.112.092-.336.183-.504.275-.335.641-1.007.641-1.118l.183-.336c.183-.168.275-.392.367-.504 0-.111.183-.559.457-1.007.275-.447.458-.895.458-.95 0-.057 0-.168.092-.224.092-.112.275-.504.458-.896.091-.335.366-.727.366-.839.183-.28.55-1.063.641-1.342 0-.112.275-.672.458-1.231.275-.615.458-1.119.458-1.175 0-.056.091-.28.183-.447.092-.224.275-.616.275-.896.091-.28.274-.727.366-.895 0-.223.092-.503.092-.615 0-.112.091-.336.091-.448.092-.111.183-.447.183-.727.092-.28.184-.615.275-.727 0-.112.092-.448.183-.783.092-.336.183-.84.183-1.175.092-.28.184-.84.275-1.287.092-.392.092-.783.183-.895 0-.056.092-.336.183-.56.092-.503.275-.95.367-1.454.091-.224.091-.503.091-.671.092-.168.092-.448.183-.616.092-.168.092-.447.092-.671 0-.224 0-.448.092-.504.091 0 .091-.28.091-.559 0-.28.092-.56.092-.671.183-.392.274-1.007.274-1.623.092-.56.184-1.342.275-2.517.092-.168.092-.392.092-.504.091-.056.091-.503.183-1.007 0-.447.091-.95.183-1.119.092-.28.183-1.398.183-2.629.092-.28.092-.56.183-.615.092-.056.184-.84.184-1.735.091-.111.091-.335.091-.447.092-.112.092-.336.183-.56 0-.167 0-.447.092-.559.091-.224.183-.84.275-1.734v-.672c.183-1.062.274-1.454.366-1.51 0-.056.091-.56.183-1.622.092-1.12.092-1.343.183-1.623.092-.112.092-.615.092-1.063.091-.447.183-.95.183-1.175.091-.167.183-.391.183-.503 0-.112 0-.392.092-.615.183-.672.274-3.86.183-6.658V118.434c-.092-.056-.092-.392-.092-1.847v-2.07c-.091-.503-.091-1.454-.091-2.125-.092-1.12-.184-2.126-.184-2.965-.091-.224-.091-.84-.183-1.399 0-1.51-.091-2.014-.274-2.014-.184 0-.275-.112-.184-.224.184-.112.184-.168.184-.615-.092-.28-.092-.727-.092-1.063-.092-.336-.092-.84-.183-1.23-.092-.336-.092-.84-.183-1.12 0-.447 0-.56-.092-1.119-.091-.111-.091-.391-.183-.503 0-.112 0-.336-.092-.504-.091-.111-.091-.335-.183-.503 0-.112-.091-.392-.091-.56-.092-.111-.183-.391-.183-.615-.092-.336-.367-1.454-.55-1.958-.092-.112-.183-.392-.183-.615-.092-.28-.183-.504-.275-.56-.091-.056-.091-.112-.091-.168.091-.055-.367-1.118-.458-1.174-.092 0-.092-.112-.092-.168 0-.056 0-.224-.091-.392-.092-.168-.184-.56-.275-.839a2.968 2.968 0 0 0-.366-.615c0-.056-.092-.224-.184-.392-.091-.112-.183-.28-.274-.392 0-.056-.092-.167-.092-.223 0-.112-.091-.224-.091-.336-.092-.112-.275-.336-.367-.56 0-.167-.183-.335-.183-.447 0-.056-.091-.224-.183-.392-.092-.167-.183-.391-.183-.447 0-.056-.183-.28-.183-.504-.092-.167-.275-.335-.275-.391-.092-.056-.092-.168-.092-.224 0-.056-.274-.504-.915-1.734-.092-.112-.184-.336-.367-.504-.091-.224-.183-.391-.183-.447 0-.056-.091-.168-.183-.28-.183-.112-.275-.28-.275-.392 0-.056-.091-.223-.091-.335-.092-.112-.275-.504-.458-.84-.366-.727-.458-.95-.55-1.118-.091-.112-.366-.56-.55-1.063-.09-.224-.182-.448-.274-.504 0-.112-.091-.168-.091-.28 0-.055-.092-.28-.184-.503-.183-.224-.366-.56-.366-.783-.091-.168-.275-.392-.275-.448-.091-.056-.183-.28-.274-.447a4.846 4.846 0 0 1-.367-.895c-.183-.28-.366-.616-.366-.784-.091-.112-.091-.28-.183-.335-.092-.056-.092-.168-.092-.224 0-.056-.091-.168-.091-.224-.183-.168-.275-.392-.366-.615 0-.056-.092-.224-.184-.448-.183-.335-.183-.447-.55-.95 0-.113-.182-.504-.365-.896-.092-.336-.367-.951-.55-1.287-.183-.335-.275-.727-.366-.895 0-.112 0-.28-.092-.28 0-.055-.091-.223-.091-.391 0-.112-.092-.336-.092-.448-.091-.056-.183-.391-.275-.671 0-.28-.091-.56-.183-.671 0-.056 0-.28-.091-.504-.092-.224-.183-.447-.183-.503-.092 0-.092-.056-.092-.112.092-.056-.183-1.175-.275-1.343-.091-.056-.091-.336-.091-.671-.092-.28-.092-.616-.092-.672-.183-.559-.183-.727-.366-1.007 0-.167-.092-.335 0-.391 0 0 0-.28-.092-.504 0-.28-.091-.727-.183-1.007-.091-.28-.183-.615-.183-.727-.092-.112-.092-.28-.092-.447 0-.112-.091-.224-.091-.28-.092-.056-.092-.224-.092-.336 0-.168-.091-.839-.183-1.175-.092-.056-.092-.391-.183-.671-.092-.28-.183-.615-.183-.727-.092-.224-.275-1.231-.458-2.406-.092-.28-.092-.615-.183-.671 0-.056 0-.28-.092-.504 0-.223 0-.447-.091-.447 0-.056 0-.448-.092-.84 0-.783-.092-1.957-.092-2.797-.091-.223-.091-.95-.183-1.566-.091-.615-.091-1.23-.183-1.399-.091-.783 0-4.307.183-4.867 0-.168.092-.447.092-.615 0-.224 0-.392.091-.392 0-.056.092-.28.092-.503 0-.224.092-.56.183-.783.183-.504.366-1.12.458-1.455.092-.168.092-.448.183-.671 0-.224.092-.392.092-.448 0 0 .183-.224.274-.503.184-.84.367-1.287.458-1.679.092-.168.184-.391.184-.503.091-.112.274-.504.457-.895.458-1.063.641-1.455 1.19-2.462.092-.112.184-.391.276-.56.183-.39.549-1.118.732-1.286.092-.056.183-.168.275-.224.091-.112.183-.112 1.099-.168.55 0 1.282-.056 1.648-.056.366-.055.824-.111 1.007-.111a.974.974 0 0 0 .458-.112c.184 0 .458-.056.733-.056.366 0 .733-.056.916-.112.183-.056.458-.112.64-.168.184-.056.55-.168.825-.28.183-.056.366-.168.458-.168 0 0 .275-.055.458-.111 1.007-.28 1.373-.392 1.556-.392.092 0 .275-.056.367-.056.091-.056.458-.112.64-.168.184-.056.55-.112.642-.112.091-.056.275-.056.366-.056.092 0 .275 0 .366-.056.092-.056.55-.111 1.1-.223.549-.112 1.007-.224 1.098-.224.275-.168.733-.28 1.282-.28.183-.056.458-.112.55-.112 0-.056.274-.056.64-.056.55-.056.916-.112 1.374-.223.183 0 .458-.056.641-.056.092 0 .275 0 .367-.056 0-.056.183-.056.366-.056s.458-.056.733-.056c.183-.056.549-.112.824-.112.915-.112 1.557-.168 1.831-.28.183-.056.641-.112 1.008-.168.366 0 1.007-.112 1.556-.223.458-.112 1.008-.168 1.1-.224.09 0 .274 0 .274-.056.092-.056.183-.056.366-.056.092 0 .183-.056.275-.056 0-.056.275-.112.458-.112s.366 0 .366-.056c.092 0 .366-.056.55-.056.274-.056.55-.112.64-.112.092-.112.275-.112 1.832-.223.366 0 .641-.056.733-.056.091-.056.366-.112.732-.168.275-.056.641-.112.733-.112.183-.056.366-.056.55-.056.091 0 .457-.056.824-.168.732-.224.824-.224 1.373-.28.366 0 .733-.056 1.008-.112.183-.055.64-.167.915-.167.275-.056.641-.112.824-.168.184 0 .55-.056.825-.112.366 0 .824-.056 1.099-.112.274-.056.732-.112 1.007-.168.275 0 .64-.056.732-.112.092-.056.458-.056.733-.056.366 0 .641-.056.916-.112.183-.055.55-.111.916-.167.274-.056.64-.168.824-.168.091-.056.366-.056.55-.112a.974.974 0 0 0 .457-.112c.183 0 .366-.056.641-.056.183 0 .641-.056 1.007-.168.367-.056.733-.112.825-.112.183 0 .366 0 .457-.056.092 0 .275-.056.55-.056.183 0 .458-.055.64-.111.092 0 .55-.056.917-.056.366 0 .64-.056.64-.056.092 0 .459-.056.825-.056 1.19 0 2.29-.056 2.472-.112.184-.056.733-.056 1.649-.112 1.19 0 2.106 0 4.853-.056.55-.056 1.19-.056 1.374 0 .366.056 1.465 0 1.557-.112 0-.056.274-.056.824 0 .55.056.824.056 1.099 0h.55c.182.056.274.056.365 0 .092-.112.184-.112.458-.056.092.056.641.056 1.19.112.55 0 1.191.112 1.558.168.274.056.732.056 1.098.112h.641c.092.056.275.056.367.112.183 0 .458.056.64.112.184.056.459.111.55.111.183 0 .458.168.641.392.092.112.367.336.55.448.183.112.366.28.366.28 0 .055.092.167.275.28.183.167.274.279.274.335 0 0 .092.112.184.112.091.056.183.167.183.223 0 .112.458.672.824 1.007.183.168.275.336.275.448.091.112.183.224.274.28 0 .056.092.112.092.168 0 .055.55.727.641.783.092 0 .092.056.092.168 0 .056.091.167.274.28.183.111.275.279.367.503.091.168.183.391.274.447.092.112.183.28.183.336 0 .056.092.168.092.224.092.112.183.224.183.335.092.168.183.28.275.336 0 .056.092.224.183.392.092.391.275.671.458.839.092.056.183.168.183.224 0 .112.733.391 1.099.391.183 0 .366 0 .458-.112.183-.112.275-.167.366-.167.275 0-.091-.504-.458-.728-.274-.168-.274-.28-.366-.56 0-.223-.092-.39-.366-.615-.183-.223-.275-.391-.275-.559 0-.168-.092-.28-.275-.392-.091-.112-.183-.223-.183-.335 0-.336 0-.448-.275-.728-.183-.223-.366-.447-.366-.503 0-.112-.091-.224-.091-.224-.092-.056-.184-.112-.184-.168 0-.056-.091-.167-.274-.28-.184-.111-.275-.335-.275-.391 0-.112-.092-.168-.092-.224-.091-.056-.458-.391-.732-.783-.367-.392-.641-.671-.733-.727-.091 0-.183-.056-.183-.168 0-.224-.641-.951-1.099-1.287-.366-.28-.366-.28-.275-.447.183-.336.183-.616 0-.84-.183-.111-.274-.335-.366-.503-.092-.168-.183-.392-.275-.56-.091-.111-.183-.28-.183-.391-.091-.168-.275-.56-.458-.727-.091-.056-.091-.224-.091-.28 0-.28-.275-.84-.458-1.063 0-.056-.092-.224-.092-.336 0-.112-.091-.28-.091-.447-.092-.112-.183-.392-.183-.56 0-.28-.092-.447-.184-.615-.183-.224-.183-.615 0-.615 0 0 .092-.056.184-.168.091-.28.64-.504 1.74-.895.915-.336 1.19-.728.64-1.12l-.183-.223.183-.112c.184-.056.275-.168.367-.336 0-.111.091-.28.275-.391.366-.336.457-1.007.091-1.063-.091-.056-.275-.168-.366-.336-.367-.28-.55-.28-1.1-.112-.274.056-.457.112-.64.056-.458-.112-.733-.056-1.19.112-.275.056-.55.112-.55.056-.092 0-.55.224-.641.336 0 .112-.275.168-.458.224-.183 0-.458.056-.458.111-.183.112-.824.336-.916.336 0 0-.366.224-.64.504-.367.223-.916.615-1.191.783-.275.168-.55.336-.55.391 0 0-.183.168-.366.28-.183.112-.366.28-.366.28 0 .056-.824.503-.916.503 0 0-.091.056-.183.056-.183.112-.916.336-1.007.336-.092 0-.275.056-.458.112a1.046 1.046 0 0 1-.55.168c-.091 0-.274.056-.366.056-.092.112-.275.112-.275-.056 0-.112-.64-.392-.915-.392-.092 0-.184-.056-.275-.112a.923.923 0 0 0-.366-.112c-.092 0-.367-.056-.55-.168-.275-.111-1.282-.335-1.831-.447-.184 0-.458-.056-.641-.112-.275-.056-.458-.112-.55-.112-.091 0-.275-.056-.458-.056-.64-.224-.916-.28-1.19-.28-.275.056-.916-.055-1.923-.391a13.496 13.496 0 0 0-1.1-.28c-.182 0-.457-.056-.549-.056-.091-.112-.366-.112-1.282-.28-.183 0-.458-.055-.55 0-.182 0-.365 0-.457-.111-.275-.112-1.648-.28-1.832-.168-.091.056-.183.056-.274-.056-.183-.056-.275-.056-.916-.056-.275 0-.55 0-.641-.056-.092-.056-.366-.056-.641-.056a3.32 3.32 0 0 1-.733-.112c-.183 0-.366-.056-.366-.056 0 .056-.092 0-.183 0-.092-.056-.458-.112-.733-.112-1.007-.112-1.74-.223-2.198-.335a2.571 2.571 0 0 0-.64-.112c-.092 0-.184 0-.184-.056-.091-.056-.915-.168-1.648-.168-.366-.056-1.374-.224-1.465-.28-.092 0-.367-.056-.55-.112-.274 0-.55-.056-.64-.056-.184-.111-.916-.167-1.924-.223h-1.19c-.092-.056-.367 0-.641 0zm1.465 1.622c1.374 0 2.106.056 2.564.224.275.056.458.112.55.112.091-.056.274 0 .366.056.274.056.55.112 1.099.167.458 0 .824.056.824.056s.275.056.64.112c.276.056.825.168 1.283.28.366.056 1.099.168 1.648.224.55.056 1.282.168 1.557.168.366.056.733.112.824.112.641 0 1.374.055 1.465.111 0 0 .458.056.916.056 1.007.056 2.564.224 2.656.336.091.056.275.056.458.056.091 0 .366.056.55.056.09.056.365.112.549.112.183 0 .366.056.457.056a.613.613 0 0 0 .367.112c.091 0 .274.056.458.056.091.055.183.111.274.111.092 0 .092 0 1.374.28.55.112 1.282.28 1.557.28.274.056.55.112.64.168.092.056.276.112.55.168.183 0 .458.055.733.167.183.056.458.112.458.112.183 0 .55.224.55.28l-.55.112c-.275.056-.733.056-1.008.112-.274.056-.732.056-1.099.056-.274 0-.824.056-1.007.056-1.373.167-3.571.223-5.677.167-.55-.055-1.1-.055-1.191-.055-3.755 0-4.762 0-5.22-.168-.274-.112-.458-.112-.824-.112-.275.056-.458 0-.733-.112a2.823 2.823 0 0 0-.549-.112c-.183 0-.366-.056-.55-.112-.091 0-.549-.056-1.007-.112-.366 0-.824-.056-.915-.112-.367-.112-1.008-.28-1.1-.28-.091 0-.274-.055-.549-.111a2.823 2.823 0 0 0-.55-.112c-.182 0-.274 0-.274-.056 0 0-.092-.056-.275-.112-.183 0-.274-.056-.274-.112s-.184-.112-.458-.168c-.641-.168-3.297-1.79-3.389-2.07l-.274-.335c-.367-.168-.183-.336.274-.28.275 0 .458 0 .458-.056.092-.056.183-.056.183 0 .092 0 .641 0 1.19.056zm-8.608.336c-.092.112-.733.727-.824.839a1.996 1.996 0 0 0-.367.336c-.183.167-.457.391-.55.503-.182.112-.457.336-.64.448-.183.111-.458.335-.733.503-.458.28-1.373 1.007-1.556 1.23-.184.057-.367.28-.641.448-.184.168-.367.28-.367.336l-.366.224a4.54 4.54 0 0 0-.916.727c-.091.112-.275.224-.366.28-.092 0-.275.112-.366.224-.55.503-1.008.839-1.282.839-.092 0-.367.056-.458.112-.184.056-.367.112-.458.112-.092 0-.183 0-.183.055 0 0-.184.056-.458.112l-.55.112c-.183.112-1.74.224-2.38.224h-1.283c-.55.056-1.007.056-1.373 0-.367-.056-.733-.056-.916-.112-.275 0-.458-.056-.55-.056-.183 0-.366-.056-.549-.056-.183-.056-.458-.112-.55-.168l-.183-.111.275-.28c.183-.112.458-.392.55-.504.457-.447.64-.671 1.007-.895.183-.112.366-.28.458-.391.458-.56 1.465-1.231 2.747-1.958.55-.224.916-.392 2.198-1.007.091-.056.366-.112.458-.112l.183-.112c0-.056.091-.112.275-.112.274-.112.457-.168.732-.28.092-.056.275-.112.458-.224.183-.111.366-.167.458-.167.092 0 .275-.056.458-.112s.458-.112.732-.112c.275 0 .825-.056 1.19-.112.459-.056.917-.168 1.191-.168.916-.112 1.466-.224 1.649-.28.366-.112.915-.223 1.282-.223a.974.974 0 0 0 .458-.112c.183 0 .458-.056.732-.056.367 0 .733 0 1.008-.056.366-.056.549 0 .366.112zm5.494 4.084c.183.056.367.167.367.28.183.111 1.648 1.062 1.74 1.062 0 0 .366.168.64.336.367.168.733.336.916.392.092.055.275.111.275.167a.41.41 0 0 1 .183.056c.092 0 .183.056.275.056.092.056.275.168.55.224.183 0 .549.112.64.112.184.112.55.168 2.565.503.274 0 .824.056 1.19.056s.641.056.824.112c.092.056.458.112 1.832.112h2.838c.733 0 1.008 0 1.1-.056.183-.056.183-.056.366 0 .183.112 1.373.168 2.014.112h1.282c.458.056 1.466-.056 1.832-.168.091-.056.183-.056.183 0 .183.168 2.381.168 2.656.056l.366-.112c.275 0 1.374-.223 2.198-.447.366-.112.458-.112.916-.168.183 0 .366 0 .366-.056.183-.056.916-.112 2.472-.168.641 0 1.19 0 1.282-.056.092 0 .367-.112.733-.168.458-.056 1.465-.335 1.74-.447.092-.056.275-.112.55-.168.366-.112.366-.112.64.056.092.056.275.168.458.224.092.056.275.223.458.335.183.168.367.28.458.28l.641.392c.366.223.733.503.916.615.183.112.366.224.366.28 0 0 .092.112.275.168a.602.602 0 0 1 .275.167c-.092.112-.733.056-1.19 0-.276-.055-.917-.055-1.466-.055-.641-.056-1.465-.056-1.74-.056h-.641c-.092 0-3.48.056-3.755.056-1.282-.056-3.754-.056-4.395-.056-.367.056-.824.056-1.19.056-.367 0-.642 0-.825.055-.183.056-.366.112-.55.056-.274-.056-2.38.056-2.655.112-.183.056-.641.056-1.374.056-.824-.056-4.945.392-5.22.504 0 0-.183.056-.366.056-.091.056-.458.056-.732.112-.367.055-.733.111-.916.111-.55.168-.916.224-1.282.28-.275 0-.55.056-.824.112-.183.056-.641.168-.824.168-.641.056-1.282.168-1.374.224 0 .056-.092.056-.275.056-.183 0-.916.111-1.465.223-.183 0-.733.112-1.19.112-.367.056-.825.112-1.008.168-.183 0-.366.056-.458.056-.183 0-.274.056-.366.056-.092.056-.275.112-.641.112-.275 0-.55 0-.733.056-.091.056-.64.112-.915.168-.092 0-.367.056-.55.112-.183.055-.55.111-.64.167-.092 0-.367 0-.55.056-.183 0-.55.056-.733.112-.183.056-.55.112-.64.112-.184.056-.642.056-1.008.112-.458.056-1.008.112-1.19.168-.184.056-.459.056-.55.112-.641.056-1.007.168-1.099.168-.092.055-.641.167-2.106.391-.183 0-.367.056-.367.112-.091.056-.274.056-.457.056-.184 0-.367.056-.55.056a.974.974 0 0 1-.458.112c-.366 0-.915.056-1.19.168-.183 0-.458.056-.824.112-.367.055-.825.111-1.008.111-.183.056-.824.112-1.282.112-1.19.168-2.014.28-2.29.392-.09 0-.274.056-.365.056-.367 0-2.015.28-2.29.336-.091.055-.458.111-.64.167-.184 0-.459.056-.55.056-.183.056-.367.112-.55.112-.366.056-1.282.224-1.831.392-.092 0-.367.056-.367.056-.091 0-.366.056-.549.112-.55.112-.641.167-.916.167-.55.112-1.099.168-1.282.28-.091 0-.366.112-.55.168-.366.112-.915.224-1.098.336a.974.974 0 0 0-.458.112.923.923 0 0 0-.366.111c-.275.112-1.466.28-2.29.336-.732 0-.824 0-1.099-.112a.547.547 0 0 0-.366-.168c-.091 0 0-.503.092-.56.091 0 .091-.055.091-.11l.183-.113s.092-.056.092-.112.183-.223.366-.391c.092-.168.275-.336.275-.448 0-.056.092-.224.275-.391.091-.112.183-.224.274-.28 0-.056.184-.28.367-.56.183-.223.366-.503.458-.615.091-.112.183-.224.274-.28 0-.056.275-.391.55-.783.366-.336.64-.727.732-.84.092-.111.184-.279.184-.335 0-.168.274-.224.549-.112.183.056.641.112 1.099.168.366 0 .824.112 1.007.112.275.112.916.224 2.015.392.916.112 3.846.112 3.938 0 .091-.056.732-.168 1.098-.168.184 0 .367-.056.55-.112.55-.224 1.831-.504 2.106-.448.092.056.275 0 .366-.056a.974.974 0 0 1 .458-.111c.183 0 .458-.056.733-.112.183 0 .366-.056.55-.056a.42.42 0 0 0 .366 0c.55-.112 1.282-.224 2.197-.28.55-.056 1.1-.168 1.374-.224.275-.112.55-.168.641-.168.092 0 .824-.223 1.007-.335.184-.056.275-.112.367-.112.183 0 1.19-.28 1.465-.448.092-.056.275-.112.458-.223a2.42 2.42 0 0 0 .732-.28c.275-.112.641-.336 1.008-.448l.64-.391s.184-.168.459-.336c.274-.168.458-.336.458-.504l.183-.223c.183-.056.458-.448.55-.728 0-.167.09-.28.274-.391.091-.056.183-.168.183-.168 0-.056.092-.168.183-.336.092-.112.183-.223.183-.28 0-.223.183-.223.641 0zm-7.692.335c0 .168 0 .28.183.392.183.224.092.503-.275.727-.183.056-.274.168-.274.168s-.092.112-.275.224a2.89 2.89 0 0 0-.55.447c-.366.336-.64.504-.915.504-.183 0-.275.056-.366.056-.092.056-.184.112-.275.112l-.366.112c-.092.111-.275.167-.458.223-.092 0-.367.056-.458.112-.275.112-.367.056-.183-.112.091-.056.183-.168.183-.223 0-.112.091-.168.183-.168.091 0 .732-.392.732-.448 0-.056.367-.28.733-.615l.733-.56c0-.056.091-.168.274-.223.184-.056.275-.168.275-.224 0-.112.092-.224.275-.28.183-.056.366-.168.55-.28.274-.168.366-.168.274.056zm46.978.28c0 .224.366 1.007.733 1.902.183.28.091.392-.092.168-.092-.112-.275-.28-.458-.336-.091-.056-.366-.224-.55-.391-.457-.28-1.281-.784-1.648-.895-.091-.056-.091-.056.092-.112.366-.056 1.19-.28 1.374-.392.274-.168.457-.112.549.056zm-76.099 3.413c.458.167.916.28 1.008.335 0 .056.091.056.183.056.091 0 .458.112.824.224.366.112.732.224.824.224 0 0 .275.056.458.112.275.056.55.111.732.167.275 0 .55.056.733.112.183.056.366.112.458.112.183 0 1.374.336 1.374.448.091 0 0 .112-.092.224-.092.111-.275.28-.275.335-.091.056-.183.28-.274.392-.184.168-.275.391-.367.503l-.183.224c-.091 0-.183.112-.183.224-.092.112-.275.336-.458.447-.091.168-.183.336-.183.392 0 .112-.092.168-.092.168-.091.056-.366.447-.366.671 0 .056-.092.168-.275.224-.183.112-.55.448-.366.448l-.183.111-.092.112-.274-.112a1.252 1.252 0 0 1-.367-.391c-.091-.112-.183-.28-.366-.28-.183-.112-.275-.112-.183-.336 0-.111 0-.223-.092-.223-.091-.056-.183-.168-.183-.28 0-.056-.183-.336-.366-.56-.092-.223-.275-.391-.275-.447 0-.056 0-.056-.091-.056 0 0-.092-.056-.092-.168-.092-.112-.092-.28-.183-.391 0-.056-.183-.28-.275-.504-.091-.168-.275-.448-.458-.56-.091-.111-.183-.223-.183-.28 0-.223-.458-.95-.733-1.118-.091-.056-.091-.112-.091-.168.091 0 0-.112-.092-.28-.183-.447-.183-.447 1.1-.111zm56.868 2.74c-.091.057-.274.113-.366.169-.183 0-.55.167-.916.391-.916.616-1.19.783-1.557 1.231-.091.224-.366.504-.457.615a.785.785 0 0 0-.184.504c0 .224-.091.392-.183.447 0 .112-.091.224-.183.336 0 .168-.091.28-.091.336-.184.112-.092.895 0 1.342.091.336.183.504.366.728.091.056.091.168.091.223 0 .056.092.168.184.224.091.112.183.168.091.168 0 .056 0 .112.092.168a.475.475 0 0 1 .183.336c.091.056.183.223.366.335.092.112.183.28.275.336 0 .112.091.168.183.224.092 0 .183.056.183.168 0 .111.092.28.275.335.092.112.183.224.183.28 0 .056.366.28.458.28 0 0 .183.056.275.167.366.28 1.465.952 1.648.952l.366.223c.092.112.275.28.367.28.091 0 .457.168.824.28.732.28 1.74.335 2.198.112l.366-.112c.183 0 .824-.168.824-.224 0-.056.092-.112.275-.112.183-.056.458-.168.55-.224.09-.112.274-.223.366-.28.274-.167.366-.335.366-.447 0-.056.091-.224.183-.392.55-.67.916-1.79.733-2.181 0-.112-.092-.28 0-.336 0-.112 0-.336-.092-.504-.092-.223-.183-.559-.275-.783-.091-.503-.458-1.286-.55-1.454-.274-.28-.365-.56-.365-.616 0-.056-.367-.503-.55-.615-.091-.056-.183-.168-.275-.336-.091-.112-.366-.391-.64-.503-.184-.168-.367-.336-.367-.392 0 0-.183-.168-.458-.336-.366-.111-.55-.28-.55-.335l-.182-.112c-.092-.056-.367-.168-.55-.28-.366-.224-.64-.335-1.74-.503-.55-.112-.824-.112-1.007-.056-.092.056-.092.056-.183 0-.275-.112-.458-.112-.55-.056zm2.656 1.455c.183.112.824.672.824.728 0 0 .183.112.275.223.366.168.458.392.366.504-.091.112-.366.056-.824-.112-.641-.224-1.923-.224-2.564-.056-.275.112-.458.224-.55.224 0 .056-.091.056-.183.056 0 0-.274.056-.366.112-.183.112-.366.168-.458.168l-.55.335c-.457.336-.549.336-.549.224V24s.092-.112.092-.168c.091-.223.55-.895.732-1.007 0-.112.184-.28.367-.391.183-.168.366-.28.366-.28.092 0 .183-.056.275-.112.183-.224.824-.336 1.74-.336.55.056.824.056 1.007.112zM91.3 25.063c0 .168-.183.448-.458.671-.091.056-.183.224-.183.448-.091.671-.732.615-.732-.056 0-.336.091-.448.732-.84.367-.279.641-.335.641-.223zm3.389 0c.091 0 .183.056.183.224s.091.28.183.391c.275.168.275.28 0 .112-.092-.056-.366-.112-.733-.112-.64 0-.916.056-1.19.336-.275.28-.458.28-.458 0l.183-.224c.092-.056.183-.112.275-.223.274-.336 1.099-.616 1.557-.504zm29.578 5.259a1.371 1.371 0 0 1-.64.168c-.092.056-.275.056-.275.112s-.458.223-.733.28c-.366 0-.824.111-1.282.39-.183.057-.458.169-.55.169-.091 0-.274.112-.366.168-.091.111-.275.223-.366.223-.183 0-.366.056-.458.168a.974.974 0 0 1-.458.112c-.183 0-.366.112-.733.336-.366.223-.732.391-.824.447-.183 0-.458.168-.732.336-.275.168-.458.28-.55.28 0-.056-.183-.056-.274 0-.367.112-1.008.28-1.283.28-.091.055-.366.055-.549.111-.183.056-.366.112-.458.112-.091-.056-.458.056-.55.112-.09.056-.274.056-.457.112-.275 0-.55 0-.55.056-.091 0-.366.056-.64.056-.367 0-.825.056-1.1.112-.732.112-2.564.112-3.296 0-.275-.056-.458-.112-.458-.056-.092 0-.733-.112-1.099-.224-.183-.056-.366-.112-.458-.056-.091 0-.183-.056-.275-.112-.091-.056-.183-.112-.274-.112 0 0-.275-.056-.55-.168-.366-.111-.64-.167-.732-.167 0 0-.092 0-.092-.056s-.183-.112-.366-.168c-.183-.056-.458-.112-.641-.224-1.008-.448-1.374-.503-1.832-.112-.458.224-.64.224-.64-.112 0-.224-.367-.503-.733-.56-.184-.055-.458-.111-.641-.167C98.077 32 97.894 32 97.344 32h-.64l-.092.392c0 .224-.092.335-.184.447-.274.112-.274.28.092.336.183 0 .183.056.183.168-.091.168 0 .168.275.28.183.055.275.111.366.223.092.168.367.504.641.728.092.056.092.056-.091.111-.183.112-.367.616-.275.784.092.112.275.223.366.28.458.111.733.559.916 1.454.092.671.183 2.35.092 2.853-.184.671-.275.951-.55 1.51-.183.336-.366.616-.275.616 0 .056-.091.112-.183.224-.091.056-.274.28-.366.447-.092.168-.458.616-.733 1.007-.274.336-.55.728-.55.784-.09.055-.182.167-.182.223-.092.056-.275.224-.458.448s-.366.447-.366.503c-.184.168-.641 1.007-.733 1.231 0 .056-.092.224-.092.336-.091.168-.091.391-.091.56-.092.39-.183.447-.641.39h-1.1c-.457 0-.823-.055-.915-.055-.091-.056-.55-.112-1.282-.168-.366 0-.732-.056-.916-.056C89.47 48 89.194 48 88.92 48c-.184 0-.55-.056-.733-.056-.275-.056-.641-.056-.916-.056-.183 0-.458-.056-.55-.112-.091-.056-1.007-.167-2.289-.28-.275 0-.458-.055-.55-.055 0-.056-.274-.056-.457-.056-.458.056-.458.056-.458-.056s0-.112-.183-.112a.42.42 0 0 1-.367 0h-.641c-.183-.056-.549-.056-.732-.056-.183-.056-.641-.056-.916-.112s-.824-.112-1.19-.056c-.458 0-.733 0-.825-.112-.091 0-.183-.056-.274-.056 0 .056-.275.056-.55 0-.366-.056-.915 0-2.198.056-.457.056-2.472.112-2.93.112-.183 0-.366 0-.458.056-.091.056-.091.056-.275 0-.091-.056-.457-.056-.732-.112h-.824c-.275-.056-.458-.056-.641 0-.092.056-.367.112-.55.168-.183 0-.458.056-.458.112-.091.056-.274.112-.64.112-.459 0-.733.056-2.198.503-.367.112-.916.672-.825 1.007.092.224.458.448.733.448.092 0 .275 0 .366.056.275.056.275.056.092.224-.092.111-.183.223-.275.223-.275.056-.824.504-.824.616 0 .112-.641.56-1.099.727-.092 0-.183.112-.275.224a.495.495 0 0 1-.183.28c-.091.111-.275.28-.275.335-.091.056-.183.224-.366.336-.091.112-.183.224-.183.28 0 .111-.55.67-.641.727-.092 0-.092.112-.092.168 0 .112-.091.391-.183.671-.091.56-.091 1.846.183 2.238 0 .112.092.615.092 1.119.092 1.119.183 1.51.275 1.622.091.056.183.224.183.448 0 .335.091.559.458 1.398.091.224.183.504.183.671 0 .112.091.224.183.28.092.056.092.168.092.448 0 .224 0 .447.091.503.092 0 .092.224.183.504.092.727.367 1.51.458 1.622 0 .056.092.28.092.504.091.28.091.503.183.56.092.111.183.279.183.503 0 .223.092.447.092.503.091.056.183.168.091.224 0 0 .092.335.183.615.092.336.092.616.184.672v.111s0 .168.091.392c0 .224 0 .504.092.615.091.112.183.392.183.56 0 .168.091.28.091.336.092.055.184.167.092.391 0 .168 0 .336.092.336 0 .056.091.224.091.391.183.728.183.84.275 1.12.091.167.091.447.183.559.092.335.458 1.175.55 1.454.091.056.091.224.091.28 0 .056 0 .168.092.224 0 .056.091.28.183.503 0 .224.183.504.183.616a.475.475 0 0 1 .183.335c0 .112.092.224.183.28 0 .112.092.224.092.28 0 .112.091.28.183.391.092.168.183.336.183.616 0 .168.092.391.092.447.091 0 .091.112.091.112-.091.168.092.616.367.951.091.112.183.28.183.336-.092.056.091.503.183.671.091.112.366 1.063.55 1.51 0 .113.09.224.182.224.092.056.092.112 0 .168 0 .056 0 .168.092.224.092.056.183.168.183.28.183.503.366 1.063.458 1.119.183.112.366.503.458.783 0 .168.091.392.183.503.092.168.183.336.183.448.092.168.183.28.275.336 0 .112.092.223.092.28 0 .111.091.28.274.447.092.224.183.392.183.447 0 .056.092.168.184.28.091.056.183.168.183.224 0 .168.091.224.732 1.23.275.392.458.728.458.784l.092.056c.091.056.183.112.183.168 0 .056.091.168.183.223 0 .112.092.224.092.28 0 .112.091.28.274.392l.183.335c0 .056.092.112.092.168.092.056.183.112.183.168 0 .056.092.224.183.336.092.112.184.224.184.335 0 .056.091.168.183.224.183.168.64.728.64.783 0 .056.55.784.733.952 0 .055.183.167.183.28.092.111.184.223.275.279.092 0 .092.056.092.112s.091.112.183.168c0 0 .091.112.091.167.092.112.092.224.184.28.091 0 .183.224.366.448.091.224.275.503.275.56.183.223.55.67.732.894l.55.672c.458.671.458.56 1.099 1.398.366.392.732.783.824.84.091.055.183.223.274.335.092.112.184.28.367.336.091.056.183.168.183.224 0 .055 0 .111.092.111.091 0 .091 0 .091.056 0 .112.641.895.916 1.12.091.055.183.167.183.223 0 .056.092.168.183.28.092.112.275.391.458.615.183.224.366.448.458.504l.183.111c0 .112.458.728.641.896.092.056.183.167.183.223.092.112.275.28.367.336.091.056.274.336.457.504.733.95 1.1 1.342 1.282 1.398.092.112.184.224.275.28 0 .112.092.168.092.168.091 0 .183.112.274.223.092.224.458.616.733.896.092.055.183.167.275.28.091.111.183.223.275.223.091 0 .091.056.091.112s.092.168.275.28c.091.112.183.223.183.28 0 .055.092.167.183.28.183.055.275.223.366.335.092.112.275.391.458.56.183.167.458.447.55.615.091.111.274.223.274.28.092.055.184.167.275.279.092.112.183.28.275.336.091.056.183.223.275.28.091.055.274.223.458.391.183.112.366.392.549.56.092.223.275.391.366.447l.183.112c0 .056.184.224.367.336.091.111.366.391.458.503.091.112.274.28.366.336l.275.335c.091.112.274.336.457.448.184.168.367.336.367.392 0 0 .091.055.091.111.184.056 1.1 1.007 1.282 1.287.092.112.275.28.367.392.183.112.274.224.274.28 0 .055.092.167.275.28.092.111.366.279.366.39.092.169.367.392.55.56.091.112.275.28.275.336 0 0 .091.112.183.168.091.112.183.224.275.28 0 .111.091.167.091.167s.183.224.458.448c.183.28.366.503.366.503l.183.224.458.56.55.67c.091.113.274.28.274.337.092.055.367.335.55.615.183.28.458.56.458.615.183.224.55.616.916 1.12.183.279.366.615.549.726l.183.224c0 .056.092.168.092.224.091.056.274.28.366.504.092.223.275.447.458.559.091.056.183.168.183.224 0 .056.183.28.366.56.275.279.55.67.641.782.092.168.275.336.458.448.092.112.183.28.183.392.092.111.092.223.184.223.091 0 .091.056.091.112s.183.336.458.56c.183.28.366.56.366.615l.183.224c.092.056.275.335.367.56.183.223.366.447.458.503.091.056.183.112.183.168 0 .111.091.167.091.28.092.055.275.335.367.559.183.28.366.615.458.671 0 .056.274.392.457.727.184.392.458.728.55.784.091.111.183.28.275.447 0 .112.183.448.366.727.183.28.366.56.366.616 0 .056.092.168.183.224.275.447.824 1.342 1.008 1.902.091.223.183.391.183.447 0 .056.183.28.183.504.092.223.275.503.275.56a.475.475 0 0 1 .183.335c.091.168.183.28.275.391 0 .056.183.28.183.448.183.671.183.783.366.84 0 .111.092.335.183.559.092.223.183.447.183.559.092.056.275.392.367.615 0 .28.183.56.183.616.091 0 .091.168.183.28 0 .111 0 .28.091.28.092.055.092.111.092.223 0 .056.092.336.183.56.275.727.458 1.342.55 1.622 0 .224 0 .224.274.224.184-.056.184-.056.092.056-.092.111 0 .727.092.839.091.056.183.223.183.447.091.56.183.616.366 1.231.275.671.458 1.063.458 1.399.091.167.091.391.183.503 0 .168.092.336.183.392 0 .112.092.223.092.335 0 .112.091.28.183.336 0 .056.091.224.091.392 0 .112 0 .335.092.503.092.112.183.56.275.895.091.336.274.727.274.783.092.112.092.336.184.504 0 .224.183.783.274 1.343.275.895.458 1.622.641 2.685 0 .224.092.447.184.503.091.112.091.28.183.336 0 .056 0 .336.091.615 0 .28.092.504.183.56 0 .056.275 1.566.458 2.294 0 .223.092.503.183.67 0 .169.092.393.092.56 0 .112 0 .224.092.28.091 0 .091.112.091.28 0 .112 0 .28.092.335 0 .056.091.392.183.84 0 .391.091.727.091.727 0 .056.092.168.092.224 0 .112.092.503.092.839.091.335.091.727.091.839.092.112.092.503.183.84 0 .335.092.838.092 1.062.183 1.399.275 2.07.366 2.238.092.615.183 1.398.366 2.909 0 .392 0 .783.092.84 0 .223 0 1.23-.092 1.286l.184.112c0 .112.091.223.091.28 0 .335.641.615.916.391.092 0 .183-.056.366-.056.092 0 .367-.056.458-.112l.275-.112.091-.95c0-.504-.091-1.064-.091-1.232-.183-.447-.275-1.566-.275-2.125 0-.28 0-.56-.091-.672-.092-.112-.184-.391-.184-.671 0-.224 0-.56-.091-.727-.092-.168-.183-.336-.183-.392.091-.056 0-.28-.275-1.734-.092-.448-.092-.951-.092-1.175-.091-.168-.091-.504-.183-.783-.091-.28-.091-.84-.183-1.287a14.204 14.204 0 0 0-.366-2.126c-.367-.95-.458-1.454-.55-1.958-.091-.671-.274-1.175-.274-1.343-.092-.055-.184-.335-.184-.67-.091-.28-.183-.672-.274-.784-.092-.112-.092-.448-.183-.727 0-.224-.184-.616-.184-.895-.091-.28-.183-.672-.274-.951-.092-.28-.092-.616-.183-.784-.092-.112-.092-.447-.184-.671-.091-.168-.091-.504-.183-.727 0-.168-.091-.336-.091-.392-.092-.056-.092-.224-.183-.447 0-.224-.092-.448-.092-.56-.092-.168-.092-.168-.275-.783-.091-.28-.183-.615-.183-.783-.091-.112-.183-.448-.183-.672-.092-.223-.275-.56-.366-.671-.092-.168-.184-.336-.184-.392.092 0 0-.167-.091-.335 0-.168-.092-.504-.183-.728-.092-.391-.367-1.007-.458-1.23 0-.056-.092-.224-.183-.392 0-.112-.092-.28-.092-.336 0 0-.091-.335-.183-.727 0-.391-.183-.783-.183-.895-.092-.112-.275-.392-.275-.615-.091-.224-.275-.448-.275-.504a8.632 8.632 0 0 1-.457-1.175c-.092-.112-.184-.447-.367-.671-.091-.224-.183-.503-.274-.56 0-.167-.184-.447-.275-.895-.092-.167-.275-.447-.275-.67-.366-.728-.458-.952-.55-1.008-.091-.056-.091-.168-.183-.391 0-.224-.091-.448-.183-.616-.091-.112-.183-.335-.183-.391a.495.495 0 0 0-.183-.28c-.275-.336-.366-.56-.366-.84 0-.111-.092-.39-.275-.67a5.994 5.994 0 0 1-.458-.896 2.968 2.968 0 0 0-.366-.615c-.092-.056-.183-.168-.183-.224 0-.056-.092-.224-.183-.392a.608.608 0 0 1-.275-.447c-.092-.112-.275-.448-.55-.84-.274-.335-.55-.782-.55-.95-.09-.168-.365-.504-.457-.728-.183-.167-.366-.559-.55-.783-.366-.56-.915-1.286-1.281-1.678-.184-.224-.367-.392-.367-.448 0-.056-.091-.223-.183-.335-.183-.112-.275-.28-.275-.28 0-.056 0-.112-.091-.112 0-.056-.183-.224-.275-.392-.092-.167-.183-.335-.275-.391 0-.056-.091-.112-.091-.112 0-.224-1.008-1.287-1.282-1.455-.092-.055-.183-.111-.092-.167 0-.112-.64-1.063-1.099-1.51-.091-.113-.183-.28-.183-.28 0-.057-.183-.336-.366-.616-.275-.28-.641-.783-.824-1.063-.275-.336-.55-.615-.641-.727a.475.475 0 0 1-.184-.336 2.029 2.029 0 0 0-.457-.391c-.092-.112-.275-.28-.275-.28 0-.056-.092-.112-.092-.168-.091-.056-.183-.112-.091-.168 0 0-.092-.168-.183-.28l-.458-.559c-1.008-1.343-1.557-2.014-1.832-2.07 0-.056-.091-.112-.091-.168 0-.056-.092-.112-.092-.168-.092-.056-.183-.111-.183-.167-.092-.168-.733-.84-1.19-1.175-.184-.112-.275-.28-.275-.336 0-.056-.092-.168-.184-.28a2.029 2.029 0 0 1-.457-.391c0-.112-.184-.224-.275-.336-.092-.056-.183-.168-.275-.224 0-.056-.091-.223-.275-.391-.183-.112-.457-.392-.549-.56-.183-.168-.55-.503-.824-.727-.275-.28-.458-.503-.55-.56-.091-.111-.64-.67-.732-.727-.092-.056-.458-.391-.458-.447 0-.056-.733-.728-.824-.728-.092 0-.092-.055 0-.111 0-.112 0-.168-.183-.224-.092-.056-.184-.112-.184-.168 0-.056-.091-.168-.274-.28-.092-.112-.275-.335-.458-.503-.641-.84-.824-1.007-.916-1.007 0 0-.092-.056-.092-.168-.091-.112-.183-.168-.274-.224 0-.056-.092-.112-.092-.112 0-.056-.091-.168-.275-.335-.183-.112-.274-.28-.274-.28 0-.056-.092-.112-.183-.168 0-.056-.092-.112-.092-.112 0-.112-.275-.447-.366-.503-.092 0-.183-.112-.275-.168 0-.112-.183-.28-.275-.448-.183-.112-.366-.335-.458-.447-.091-.112-.183-.28-.274-.336 0-.056-.183-.224-.367-.447-.183-.168-.274-.336-.366-.336 0 0-.183-.168-.366-.392a2.906 2.906 0 0 0-.55-.503c-.091-.056-.183-.168-.183-.224 0-.056-.183-.224-.366-.448-.183-.167-.366-.335-.366-.391 0-.056-.733-.951-1.008-1.175a1.252 1.252 0 0 0-.366-.392c0-.056-.092-.167-.183-.223 0-.056-.183-.224-.275-.336-.366-.56-.824-1.119-1.374-1.79-.366-.336-.732-.783-.824-.895-.091-.112-.183-.28-.274-.28-.092-.056-.275-.224-.641-.671-.092-.224-.367-.504-.55-.616-.183-.168-.275-.28-.275-.335 0-.056-.091-.168-.183-.28-.275-.224-.64-.727-1.19-1.567-.092-.167-.275-.335-.367-.447-.091-.056-.183-.168-.274-.28a.608.608 0 0 0-.275-.447c-.092-.168-.275-.448-.366-.616-.092-.112-.275-.335-.367-.391-.091-.056-.183-.168-.183-.224 0-.056-.183-.224-.275-.392-.183-.168-.366-.335-.457-.391 0-.056-.184-.336-.367-.56-.183-.224-.274-.447-.366-.56 0-.055-.092-.167-.092-.223-.091 0-.183-.224-.366-.448-.183-.223-.366-.503-.458-.56-.091-.111-.274-.279-.274-.335 0-.112-.092-.335-.184-.503-.183-.168-.366-.392-.366-.504a3.132 3.132 0 0 0-.275-.447c-.091-.168-.183-.28-.183-.28 0-.056-.091-.224-.275-.448-.366-.447-.366-.503-.824-1.23-.183-.336-.366-.672-.458-.728-.091-.111-.183-.335-.274-.503-.092-.224-.183-.392-.183-.448-.092-.056-.092-.28-.184-.503-.091-.168-.091-.392-.183-.504 0-.056-.091-.167-.183-.335-.091-.336-.458-1.063-.732-1.679-.184-.223-.367-.56-.367-.671-.091-.112-.183-.336-.275-.56-.091-.223-.183-.503-.274-.67-.092-.169-.092-.336-.183-.392v-.224c-.092-.112-.184-.336-.55-1.399-.183-.335-.275-.783-.366-1.007a.929.929 0 0 0-.183-.503c0-.112-.092-.28-.183-.448 0-.112-.092-.28-.092-.335 0-.056-.092-.168-.092-.336-.091-.112-.183-.224-.183-.28-.091 0-.091-.112-.091-.168.091-.056 0-.223-.092-.335-.091-.168-.183-.448-.275-.616 0-.168-.091-.335-.183-.391-.091-.056-.091-.168 0-.224 0-.056 0-.224-.091-.336a1.625 1.625 0 0 1-.183-.727c-.092-.28-.092-.503-.184-.503 0-.056-.091-.224-.091-.448-.092-.168-.092-.392-.183-.448-.092 0-.092-.111-.092-.111.092-.056 0-.168-.092-.28 0-.112-.091-.28-.091-.448 0-.168 0-.335-.092-.391-.091-.056-.091-.168 0-.168 0-.056 0-.168-.091-.224-.092-.168-.183-.336-.183-.503 0-.224 0-.56-.092-1.007-.092-.224-.183-.56-.183-.616.091-.224-.092-.727-.275-1.175-.091-.167-.183-.503-.275-.783-.183-.727-.549-1.678-.64-1.79-.092 0-.092-.112 0-.168.091-.168.091-.671-.092-.84 0-.055-.183-.335-.183-.614-.092-.28-.183-.672-.275-.896-.092-.167-.183-.391-.275-.559v-.336c-.366-.727-.366-.95-.366-1.063 0-.056-.092-.167-.183-.335-.092-.168-.092-.28 0-.448 0-.112 0-.503-.092-1.063-.091-.783-.183-1.119-.366-1.454-.092-.056-.092-.224 0-.392.091-.224.091-.392 0-.447-.092-.056-.092-.224-.092-.336 0-.168-.091-.336-.091-.392-.092-.168-.092-.224 0-.391.091-.112.183-.28.183-.336 0-.168.183-.336.733-1.007.091-.112.457-.503.64-.727l.55-.56c.092 0 .183-.112.183-.168.275-.28.641-.559 1.099-.839.275-.168.458-.335.458-.391 0-.112.091-.168.275-.168.091 0 .366-.056.458-.112.091-.056.457-.168.732-.224.275-.056.55-.168.641-.224.092 0 .183-.056.183-.056.092 0 .275-.055.458-.111.458-.112 1.649-.112 1.74.056.092.055.733.28.916.28.091 0 .091-.057 0-.113-.183-.112.091-.28.275-.167.091.055.64-.112.732-.224 0-.112-.64-.504-1.19-.783l-.367-.224c.092 0 1.008 0 2.107-.056 1.099 0 2.014 0 2.106-.056.183-.056 1.74-.056 2.014 0 .367.056 2.107.168 2.656.168.183 0 .458.056.55.056 0 .056.366.056.732.112.367.055 1.1.111 1.649.167.457.056 1.007.112 1.098.112.184 0 .367 0 .458.056 0 .056.55.112 1.1.168.549 0 1.007.056 1.098.112.092 0 .366 0 .55.056 1.282.056 1.648.056 1.648.112.092 0 .366.056.55.056.183.056.915.112 1.465.168.549.055 1.373.111 1.74.167.64.056.824.056 1.007.224.183.112.458.224.64.28.184.056.367.168.459.224.091.056.274.112.274.112.092 0 .367.111.825.28.915.335 1.465.39 1.831.111.183-.056.275-.168.183-.224 0-.056.092-.112.183-.112.184-.055.092-.503-.274-.67-.183-.169-.367-.169-1.008-.28-.183 0-.458-.112-.732-.28-.183-.168-.458-.28-.55-.224-.183.056-.091-.112.092-.224.183-.056.183-.168.183-.447 0-.56.275-1.175.824-1.958.092-.168.183-.28.183-.336 0 0 .092-.168.275-.28.275-.28.366-.391 1.099-1.23.275-.336.55-.784.641-.952.092-.112.275-.391.366-.503.275-.392.55-.84.55-1.063.091-.112.183-.336.274-.504.275-.559.458-.895.55-1.286 0-.224 0-.504.092-.672v-.783c0-.224 0-.671-.092-.895 0-.447-.092-1.119-.183-1.734-.183-.616-.183-.616 0-.672.091 0 .183.224.366.56.092.447.458 1.007.824 1.51.275.28.458.56.458.616 0 .056.092.168.092.224.091.056.274.28.458.447.183.168.274.392.274.448 0 .112 0 .167.092.167.091 0 .458.56.55.896l.182.335c.092.056.092.168.092.336 0 .112.092.224.183.336.092.056.183.223.275.391 0 .168.092.392.092.448a.475.475 0 0 1 .183.335c.091.224.458.784.915 1.343.184.224.458.56.55.727.275.336.732.84 1.099 1.12.183.055.274.167.183.223 0 .056.091.224.275.336.183.112.274.223.274.223 0 .056.092.168.275.28.183.112.275.28.275.28 0 .056.183.224.366.336.092.055.275.223.275.223 0 .056.183.168.366.336s.366.336.458.392c.092.111.275.167.275.167.091 0 .183.112.274.224.092.112.184.28.275.28 0 .056.092.112.092.168 0 .056.091.112.183.168.092.056.183.111.275.223 0 .056.274.28.458.392.183.168.366.28.366.336 0 0 .275.167.64.335.367.224.642.392.642.448 0 0 0 .056.091.056.092 0 .184.056.184.112.183.223 1.465 1.007 1.648 1.063.275 0 .366.056.366.167 0 .056.092.112.275.168.092.056.275.168.458.336.275.28.458.392.824.56.183.055.275.167.275.223 0 .112 1.465 1.007 1.648 1.007.092 0 .092.056.092.056 0 .168.274.448.458.504.091 0 .274.056.457.167.092.056.458.28.825.392.366.168.824.448 1.19.615.275.112.641.28.824.336.183.056.275.112.275.168 0 0 .183.112.458.224s.732.335 1.007.447c.275.112.641.28.733.336.091.056.183.112.275.112.091 0 .274.056.457.168a.923.923 0 0 0 .367.112c0-.056.091 0 .183 0 .091.111 1.007.503 1.19.503.183 0 .916.168 1.19.28.55.28.917.391 1.283.447.458.056 1.099.28 1.282.392.091.056.183.056.183 0 0 0 .092 0 .183.056.275.168 1.282.503 1.649.503.183.056.457.168.824.392.274.168.458.28.55.28.09 0 .274.056.549.112.183.111.457.167.457.167.092 0 .275.056.275.112a.547.547 0 0 0 .367.168c.183 0 1.098.28 1.373.392.092.056.275.112.458.168.183.055.641.223.916.335.274.168.64.28.64.28.092 0 .184.056.276.112.091.056.274.168.457.224.092 0 .275.056.275.111.092 0 .275.112.458.168.641.168.916.28 1.74.784 0 0 .091.055.183.055s.183.056.275.112c.091.112.366.168.458.224.183.056.274.112.274.112s.184.112.458.224c.275.112.55.224.641.335a.547.547 0 0 0 .367.168s.183.112.274.224c.275.224.55.392 1.19.615.276.112.55.28.55.28 0 .056.092.112.183.112.092 0 .275.056.275.168.092.056.183.112.275.112.091 0 .366.112.64.28l.917.559c.274.168.55.28.55.336 0 .056.09.056.274.056.183 0 .366.111.916.447.824.504 1.556.895 1.74.895 0 0 .183.056.183.168.091.112.274.168.457.168.184.056.275.112.275.168 0 .056.183.223.458.335.641.392 1.19.784 1.19.84 0 .055 0 .055.092.055s.916.336 1.465.672c.275.168.641.335.825.391.366.112.64.336.64.392-.091.056.184.224.458.392.275.167.55.335.55.391l.183.112c.092.056.366.168.641.28.183.112.458.335.733.447.64.392 1.282.728 1.373.84.092.055.367.167.55.223.274.112 1.007.504 1.007.616 0 .112 1.923 1.51 2.106 1.51.092 0 .092.056.092.112s.091.168.183.224c.092.056.183.168.183.224 0 .056.092.167.275.28.366.167.55.447.458.503-.183.056-.092.112.183.168.091.056.275.112.275.223 0 .056.183.224.274.28.183.056.458.224.641.28.184.168.275.224.275.336 0 .167.092.223.366.391.184.112.367.224.275.224-.091.056.183.336.641.615l.366.224c0 .112-.274.056-.366 0-.091-.112-.458-.28-1.373-.615-.092-.056-.367-.168-.458-.168-.184-.056-.275-.112-.275-.168 0 0-.092-.056-.275-.112-.091-.056-.458-.112-.64-.224a2.571 2.571 0 0 0-.642-.111c-.091 0-.275-.056-.275-.112a.923.923 0 0 0-.366-.112c-.091 0-.183-.056-.275-.112-.183-.112-1.19-.504-1.373-.504-.183 0-.916-.223-1.374-.391-.091 0-.183-.056-.275-.056-.091-.056-.274-.112-.366-.168-.183-.056-.458-.168-.64-.224a2.823 2.823 0 0 0-.55-.112c-.092-.056-.367-.112-.55-.112-.183-.056-.458-.111-.64-.223-.276-.112-.459-.168-.55-.168-.092 0-.275-.056-.458-.168-.275-.056-.458-.112-.55-.168-.091 0-.183-.056-.274-.056-.092-.056-.275-.056-.367-.056-.183 0-.274-.056-.366-.112-.092-.056-.55-.223-1.007-.391-.55-.168-1.008-.336-1.1-.392-.09 0-.274-.056-.365-.056-.092 0-.184-.056-.184-.056 0-.056-.091-.112-.274-.168-.641-.223-1.832-.615-1.923-.615-.092 0-.184-.056-.184-.112-.091 0-.183-.056-.274-.112-.367-.112-.641-.224-.733-.28-.091 0-.183-.055-.366-.055a.923.923 0 0 1-.366-.112c-.184-.168-.55-.28-1.191-.392-.366-.056-.824-.168-1.007-.28-.183-.112-.641-.223-.916-.28a2.465 2.465 0 0 1-.641-.223c-.183-.056-.366-.112-.458-.168l-.916-.28c-.274-.112-.732-.223-.915-.28-.184-.055-.458-.111-.55-.223l-.183-.112c-.092 0-.366-.112-.733-.336-.274-.168-.55-.28-.64-.28-.092 0-.642-.223-1.832-.727a8.703 8.703 0 0 0-1.1-.447c-.182 0-.365-.056-.365-.112-.092 0-.184-.056-.275-.056-.092 0-.183 0-.183-.056 0-.112-.55-.392-.733-.392-.183 0-.275-.056-.275-.056 0-.111-.732-.503-.915-.503-.092 0-.275-.112-.458-.224-.275-.056-.458-.168-.55-.168 0 0-.183-.056-.274-.168a.923.923 0 0 0-.367-.111c-.091 0-.366-.168-.732-.336-.275-.168-.733-.392-.916-.448a7.037 7.037 0 0 0-.824-.391c-.183-.056-.366-.168-.458-.168-.092 0-.092-.056-.183-.112 0 0-.092-.056-.183-.056-.092 0-.184-.056-.184-.112 0 0 0-.056-.091-.056 0 0-.183-.056-.366-.168-.367-.167-1.19-.503-1.374-.503-.092 0-.275-.112-.458-.28l-.366-.224s-.183 0-.275-.055c-.183-.056-.366-.112-.458-.056-.091 0-.183 0-.275-.112 0-.168-.366-.448-.457-.448-.092 0-.367-.168-.733-.391-.275-.224-.641-.392-.824-.392-.092-.056-.458-.168-.733-.336-.274-.112-.64-.28-.824-.335-.366-.112-.824-.336-.733-.392 0-.056-.274-.28-.732-.504-.092-.111-.366-.28-.641-.447-.275-.168-.55-.336-.733-.336-.091-.056-.274-.112-.366-.224-.183-.28-1.557-1.062-1.832-1.062 0 0-.091-.056-.091-.112s-.092-.112-.092-.112c-.091 0-.183-.056-.183-.112-.091-.112-.732-.56-1.007-.56l-.275-.167c0-.112-.366-.336-.733-.616-.457-.224-1.007-.671-1.373-.895-.641-.447-1.923-1.23-2.015-1.23-.091 0-.183-.113-.275-.224-.091-.168-.183-.336-.274-.392-.092-.056-.275-.112-.275-.224-.092-.056-.183-.112-.458-.168-.366-.056-.366-.112-.366-.28 0-.167 0-.223-.275-.391-.183-.056-.275-.168-.275-.224l-.183-.112c-.091-.056-.183-.167-.274-.28 0-.055-.092-.167-.184-.223-.091-.056-.183-.168-.183-.224 0 0-.183-.168-.366-.28-.183-.167-.366-.28-.366-.335 0-.056-.184-.168-.367-.28-.183-.112-.366-.28-.366-.336 0-.056-.092-.112-.092-.112-.183 0-.549-.223-.732-.503a2.029 2.029 0 0 0-.458-.392c-.183-.056-.275-.112-.275-.167 0 0-.183-.056-.274-.056-.275-.056-.367-.112-.458-.224 0-.112-.092-.168-.183-.168 0 0-.092-.056 0-.168 0-.056 0-.168-.184-.224-.091-.112-.183-.223-.274-.391a5.037 5.037 0 0 1-.641-.504c-.275-.168-.55-.391-.55-.447-.366-.28-.732-.616-.824-.616l-.183-.223c0-.056-.183-.28-.366-.448-.184-.168-.275-.28-.275-.336 0-.112-.275-.168-.366-.112-.184.056-.184.056-.184-.056 0-.111-.091-.223-.183-.335-.183-.056-.366-.28-.55-.448a1.438 1.438 0 0 0-1.007-.447c-.183 0-.274 0-.274-.056-.092-.056-.55-.056-.55-.056 0 .056.092.168.183.28.092.167.184.28.092.391-.092.056-.092.168 0 .224.092.056.092.168.092.28 0 .112.091.223.183.28.183.055.274.223.366.335.092.112.183.28.366.392.183.056.275.223.275.28 0 .055.092.167.275.223.183.112.274.224.274.336 0 .056.092.168.092.224.092 0 .183.111.183.167 0 .056.367.336.824.728.184.112.367.28.367.28 0 .055.183.223.366.447.183.168.55.448.824.671.183.224.55.504.733.672.274.111.458.28.55.335.274.336.64.616.915.783.183.168.366.28.366.336 0 0 0 .056.092.056l.183.112c.183.224.733.727.824.727.092.056.275.224.458.392.183.224.366.391.458.447 0 .056.091.112.091.168l.184.112c0 .056.366.336.824.671.916.84 1.099 1.007 1.831 1.455.367.224.824.504 1.008.615.55.448 1.099.784 1.648 1.12.275.223.824.503 1.19.727.367.223.733.391.825.447l.183.112c0 .112 1.099.783 1.648 1.119.275.112.55.28.641.28.55.391 2.473 1.51 2.473 1.51.183 0 .55.224.732.448.092.056.458.223.733.335.275.112.55.224.64.28 0 0 .092.056.184.056.092.056.183.112.275.224.091.056.458.28.824.447.366.168.733.392.824.448a.923.923 0 0 0 .366.112s.092.056.184.056c.091.056.366.167.549.28.275.111.641.28.824.391.183.112.458.224.55.224.091.056.274.112.366.168.092.111.183.167.275.167 0 0 .183.056.274.112 0 .056.184.112.184.112.091 0 .274.112.457.224.275.112.458.168.55.224 0 0 .275.168.55.28.366.167.64.28.732.28 0 0 .092 0 .092.055.091.112 1.282.616 1.556.727.183 0 .367.112.367.168.091.056 1.098.504 1.282.504 0 0 .915.447 1.007.503 0 0 .275.112.55.168.274.112.549.168.549.224 0 .056.183.112.366.224.275.056.458.167.55.167.091.168.732.392 1.007.448.183.056.366.168.458.224a.923.923 0 0 0 .366.112c.092.056.366.168.55.28.183.111.549.223.732.335.183.056.458.112.55.224.091.056.274.112.457.168.092 0 .367.056.458.112.184.055.275.111.367.111 0 0 .183.056.183.112.091.056.183.112.275.112.091 0 .274.056.366.112.183.056.458.112.732.168.184.112.55.168.733.28.092.056.366.167.55.167l.366.112c.091.056 1.831.56 1.923.56l.366.112c.183.112.458.168.641.168.092.055.366.167.641.335a.96.96 0 0 0 .55.224c.183 0 .274 0 .274.056s.458.224.733.224c.092 0 .183.056.275.056.091.112.824.335 1.099.335.091 0 .274.056.732.336.183.112.458.224.458.224.092 0 .275.056.458.112.183.112.458.167.55.167.366 0 .549.056.549.112s.091.112.183.112c.092.056.275.112.458.168a.923.923 0 0 0 .366.112c.092.056.183.056.275.112.091 0 .458.112.916.224.366.112.732.223.824.223.183 0 .732.168.824.224 0 .056.092.056.183.056.092 0 .183 0 .183.056.092.056.824.28 1.19.336.184 0 .459.056.55.168.092.111.367.167.641.28.275 0 .641.111.733.223a.923.923 0 0 0 .366.112.41.41 0 0 1 .183.056c0 .056.092.112.275.112.275 0 1.557.391 1.557.447 0 .056.366.28.458.28.091 0 .183.056.366.168.183.112.458.168.641.224.183 0 .366.112.55.167a.923.923 0 0 0 .366.112c.274 0 .732.168.732.28 0 .112.184.168.641.224.092.056.367.112.55.224.275.167 1.007.391 1.19.391.092 0 .183 0 .183.056 0 0 .092.056.184.056l.274.168c.092.168.55.392.916.392.092 0 .275.056.366.111.092.056.367.168.458.224.092 0 .367.112.55.168.091.056.366.168.458.224.366.112 1.098.503 1.098.615 0 .056.275.168.916.504.092.056.367.224.458.391.275.28 1.648 1.12 2.106 1.231.092.056.275.168.367.168.091.056.183.112.274.112 0 0 .184.056.367.168.274.167 1.19.503 1.282.503.091 0 .183.056.183.112.091.112.091.112.275.112.183-.056.183-.056.183.056 0 .056.091.168.458.224.274.112.457.223.55.28.09.335.365.503.915.503.275 0 .64.056 1.373.224.55.167 1.1.28 1.19.28.092 0 .184 0 .276.055 0 .056.091.056.274.056.092 0 .458.056.733.168.366.056.733.112.824.112 0-.056.183 0 .366.056.092.056.275.112.275.112.092 0 .275.056.458.112.458.112 1.099.223 1.465.223.092 0 .275.056.367.056 0 .056.274.056.732.056.641-.056.641-.056 1.007-.28.55-.391.55-.839 0-1.062-.274-.112-.457-.224-.366-.336 0 0-.091-.168-.275-.336-.183-.167-.457-.447-.64-.615-.184-.168-.367-.28-.458-.336-.092 0-.184-.112-.184-.335-.091-.168-.091-.392-.183-.448-.091-.056-.183-.168-.274-.28a5.612 5.612 0 0 0-.458-.447c-.092-.112-.184-.224-.184-.28 0-.056-.549-.503-.732-.56 0-.055-.092-.167-.092-.223 0-.168 0-.28-.274-.448-.184-.112-.275-.28-.275-.335 0-.056-.092-.168-.183-.224-.092-.056-.183-.112-.183-.168 0 0-.092-.112-.184-.168-.091-.112-.183-.224-.183-.28 0-.111-.091-.167-.091-.223a.385.385 0 0 1-.183-.336c-.092-.336-.367-.727-.641-.951-.184-.112-.275-.224-.275-.392-.092-.167-.183-.335-.275-.391-.366-.28-.733-.783-.824-1.12 0-.223-.092-.39-.092-.447-.091 0-.091-.056-.091-.111.091 0 0-.112-.092-.168-.091-.168-.183-1.287 0-1.399v-.28c0-.112 0-.223.092-.223 0-.056 0-.336.091-.728 0-.335 0-.727.092-.783.091-.224.183-1.343.091-1.622v-.336c0-.112 0-.448-.091-.727-.092-.224-.092-.448-.092-.504 0-.168-.183-.503-.366-.56-.092 0-.092-.111 0-.279.092-.112.092-.336 0-.56-.092-.223-.092-.447-.092-.503 0-.056-.091-.112-.091-.168-.275-.167-.366-.447-.275-.56.092-.167-.183-1.23-.366-1.286-.092-.056-.092-.168-.092-.28 0-.055 0-.167-.091-.223-.092 0-.092-.056-.092-.168a.495.495 0 0 0-.183-.28c-.092-.056-.092-.112 0-.224.183-.223 0-.671-.183-.727-.092-.056-.183-.112-.183-.168 0 0-.092-.112-.092-.168-.092-.111-.092-.111 0-.223.183-.168.092-.504-.183-1.007-.183-.448-.275-.616-.458-1.175 0-.056-.092-.168-.183-.224-.092-.112-.092-.224 0-.336 0-.167 0-.28-.092-.28-.274-.111-.366-.335-.274-.39.091-.113 0-.56-.184-.84 0-.168-.091-.28 0-.336 0-.056 0-.168-.091-.168-.183-.223-.55-.95-.55-1.174 0-.224-.274-.504-.549-.616-.366-.112-.458-.224-.275-.28.183-.055.183-.111.092-.167-.092-.056-.092-.168-.092-.224 0-.056-.091-.168-.183-.224 0-.112-.091-.224-.091-.28 0-.056 0-.111-.092-.111 0-.056-.183-.224-.275-.448-.091-.168-.275-.392-.366-.504-.092-.055-.183-.167-.275-.335 0-.168-.366-.783-.55-1.007-.182-.168-.457-.672-.457-.727 0-.056-.183-.28-.366-.56-.184-.28-.367-.615-.458-.783-.275-.504-.733-1.007-.824-1.063-.184-.056-.367-.28-.367-.448 0-.112-.275-.447-.366-.447-.183 0-.824-.616-.824-.727 0-.056-.092-.112-.092-.112-.091-.056-.183-.168-.275-.336-.091-.168-.274-.336-.274-.336-.092 0-.275-.223-.458-.503-.275-.28-.641-.671-.824-.895-.183-.28-.367-.504-.367-.56 0-.112-.091-.168-.183-.223-.183-.112-.64-.56-.824-.952 0-.167-.092-.28-.183-.28-.092 0-.275-.335-.183-.447 0-.112-.275-.503-.458-.503-.092 0-.092-.056-.183-.112 0-.112-.183-.224-.275-.336-.183-.056-.366-.224-.458-.336 0-.111-.183-.223-.183-.28-.092 0-.183-.111-.183-.111 0-.056-.092-.168-.183-.224-.092 0-.183-.112-.183-.168 0-.056-.092-.168-.184-.223-.091 0-.183-.112-.183-.168 0 0-.091-.112-.275-.224-.366-.224-.732-.504-.732-.56 0-.055-.092-.055-.183-.055-.092-.056-.183-.112-.183-.168-.092-.056-.184-.112-.367-.168-.183-.056-.274-.168-.274-.224 0-.168-.275-.392-.641-.503-.458-.112-2.656-1.455-2.84-1.623-.09-.056-.182-.112-.274-.112-.092 0-.275-.056-.275-.112-.183-.167-1.007-.615-1.19-.615 0 0-.275-.112-.641-.28l-.55-.335c-.091 0-.274-.112-.55-.224-.274-.056-.457-.168-.549-.168-.091 0-.183-.056-.366-.112-.366-.168-1.007-.336-1.282-.336a.547.547 0 0 1-.366-.167.923.923 0 0 0-.367-.112s-.091-.056-.183-.056c-.183-.112-.732-.28-.824-.28-.091 0-.183-.056-.275-.112-.091 0-.274-.056-.457-.112-.184 0-.367-.056-.367-.056-.091-.167-.274-.223-.55-.223-.274-.056-.915-.168-1.464-.336-.092-.056-.275-.112-.367-.056 0 0-.183-.056-.366-.168-.183-.168-.366-.224-.458-.168-.183 0-.916-.167-1.19-.335-.184-.056-.458-.112-.641-.168-.275 0-.55-.056-.733-.168-.366-.168-1.099-.28-1.465-.224-.092 0-.275-.056-.55-.168-.183-.111-.366-.223-.458-.223 0 0-.183-.056-.366-.056a.923.923 0 0 0-.366-.112c-.092 0-.183-.056-.275-.112-.091-.056-.366-.112-.64-.112-.184-.056-.459-.112-.642-.168-.183 0-.366-.056-.55-.056-.09.056-.182 0-.274 0 0-.056-.183-.112-.275-.112a11.722 11.722 0 0 1-1.373-.391c-.092 0-.367-.056-.55-.056a3.32 3.32 0 0 1-.732-.112 2.823 2.823 0 0 0-.55-.112c-.091 0-.366-.056-.64-.112-.276-.112-.734-.168-1.008-.168a2.874 2.874 0 0 1-.916-.28c-.366-.223-1.007-.391-1.282-.335a.923.923 0 0 1-.366-.112.547.547 0 0 0-.367-.168l-.183-.112s-.091-.056-.275-.056c-.366 0-.915-.167-1.007-.28 0-.111-.183-.167-.366-.167-.183-.056-.275-.112-.366-.112 0-.056-.825-.392-.916-.392 0 0-.183-.056-.183-.112a.923.923 0 0 0-.367-.111l-.091-.056c0-.112-1.1-.728-1.19-.728-.092 0-.275-.112-.55-.223-.275-.056-.55-.168-.641-.168-.092 0-.183-.056-.275-.112-.091 0-.183-.056-.275-.056-.091 0-.274-.056-.458-.168-.183-.112-.366-.168-.457-.168-.184.056-.275 0-.275-.056-.092 0-.183-.056-.275-.056-.091 0-.366-.056-.64-.112a6.383 6.383 0 0 0-.733-.111c-.092 0-.367 0-.55-.056-.091-.056-.366-.112-.458-.112-.183 0-.458-.056-.732-.112-.916-.224-1.374-.224-1.649 0zm1.832 1.51c.366 0 .732.056.824.112.092 0 .458.056.733.056.366.056.824.168 1.007.224.183 0 .458.112.55.112.732.168 2.38.895 3.296 1.454.183.112.458.28.641.336.275.056.458.112.733.28.274.168.64.28 1.648.56.275.055.733.167.916.279.274.056.55.112.64.112.092 0 .276.056.55.168.183.056.367.112.458.112.092 0 .366.055.641.167.458.112.641.168 1.374.336.183.056.458.112.64.112.184.056.459.112.642.112.366.168 1.19.28 1.465.28.183 0 .366.055.55.111l.549.168c.183 0 .366.056.458.056 0 0 .275.112.64.168.55.112 1.008.224 2.015.504.184.055.458.111.641.111.184 0 .458.056.825.224.274.112.55.168.732.168.183.056.55.112 2.106.56.275.111.55.167.642.167.183 0 .732.112 1.282.28.183.112.64.168.824.168.458.056 1.282.335 1.282.447 0 .056.732.28.824.28 0-.056.183 0 .275.056.274.168 1.007.448 1.556.56.184.055.367.111.458.167.092 0 .367.112.55.168 1.465.504 4.03 1.623 4.03 1.734 0 .056.274.168.549.28.366.168.64.336.732.392.092.112.366.224.55.28.274.055.457.111.366.111 0 .056.275.28.55.448 1.74 1.119 2.93 1.902 2.93 1.958 0 .056.091.112.274.224.092.056.184.168.184.223 0 0 0 .056.091.056 0 0 .092.056.183.168l.183.224c.092.056.367.336.55.56 0 .111.183.223.183.28l.641.782c.092.112.275.336.275.392.091.056.366.336.55.615.182.28.366.504.457.56 0 .056.092.168.183.224.092.112.183.223.275.28 0 .111.275.391.458.615.458.615 1.19 1.342 1.282 1.398.092 0 .092.056.092.112 0 .112.183.28.366.504.183.168.366.391.458.447 0 .112.091.224.183.28 0 .056.183.28.366.448.183.223.366.559.55.727.183.224.274.447.274.503.092.056.183.28.367.448.091.168.183.28.183.336 0 .055 0 .055.091.055l.184.224c.091.168.183.392.274.504.092.112.275.391.367.56.091.279.183.39.549.782 0 .112.092.168.092.224 0 .056.091.112.183.168 0 .056.091.112.091.168 0 .112.092.224.183.391.092.112.184.28.184.336 0 .056.183.224.274.448.183.167.367.391.275.391 0 .056.183.336.366.728.183.391.367.727.367.783 0 .056 0 .112.091.112 0 .056.092.223.183.447.092.224.184.504.184.616.091.167.183.391.183.503.091.112.091.28.183.336.183.335.275.56.458 1.286 0 .224.183.616.366.896s.275.615.275.727c0 .056 0 .224.091.335.092.056.092.224.183.28 0 .056 0 .28.092.392.183.391.275 1.007.183 1.063 0 .056.092.056.092.112.183 0 .274.167.183.28-.092.055-.092.223.091.447.184.503.367 1.175.458 1.678l.092.056c.091 0 .183.224.275.56 0 .447.091.839.183 1.174 0 .112 0 .448.091.616v.895c.092.28.092.615.092.84v.726c0 .28 0 .728-.092.951-.091.392-.274 2.014-.274 2.462 0 .168.091.503.183.727.091.224.183.504.183.56 0 .112.092.28.275.447.183.224.274.392.274.448 0 .112.092.224.275.28.092.111.183.167.183.335 0 .112.092.28.183.392.367.391.55.727.55.727 0 .056.091.168.091.224.092.112.184.28.275.391.092.168.275.336.366.504.184.112.275.28.275.336 0 .056.092.167.183.28l.183.223c0 .112.458.56.733.783.183.112.275.224.275.28 0 .168.183.392.366.56.092.055.183.167.183.223 0 .112.092.168.275.168.183 0 .458.28.366.392 0 .056 0 .112.092.112.091.055.091.055.091.111-.091 0 .092.168.367.336.366.224.458.336.458.504 0 .111 0 .167.091.167.092 0 .092.056.092.056 0 .112-.092.112-.824.056a76.937 76.937 0 0 0-1.923-.335c-.092-.056-.458-.112-.825-.224-.366-.056-.824-.168-1.007-.28-.275-.112-.55-.168-.733-.224-.091 0-.366-.056-.457-.167a2.441 2.441 0 0 0-.733-.336c-.183-.056-.275-.168-.275-.224-.091-.056-.275-.168-.458-.224-.366-.167-.366-.167-.274-.335 0-.112 0-.168-.092-.224-.092 0-.183-.056-.183-.112 0-.224-1.832-1.175-2.29-1.23-.183-.057-.366-.113-.457-.225-.092-.055-.184-.111-.275-.111-.092 0-.458-.112-.824-.336-.367-.168-.641-.28-.733-.28l-.366-.112a.547.547 0 0 0-.366-.168c-.367-.111-.733-.28-.733-.391-.092-.056-.183-.112-.275-.112 0 0-.091-.056-.091-.112 0 0-.184-.224-.367-.392-.274-.167-.458-.335-.458-.335 0-.112-.64-.504-.824-.504-.091 0-.091-.056-.091-.112.091-.056 0-.111-.092-.223-.183-.056-.366-.224-.458-.336-.274-.28-.732-.671-1.373-1.175a5.03 5.03 0 0 1-.733-.671 16.952 16.952 0 0 0-1.282-1.007c-.183-.112-.366-.336-.458-.392-.091-.112-.275-.224-.366-.28-.092-.111-.183-.167-.183-.28-.092-.111-.458-.279-.641-.279-.092 0-.184-.112-.184-.224s-.091-.223-.183-.223c0-.056-.091-.168-.091-.224-.092-.168-.733-.616-1.008-.616 0 0-.091-.056-.091-.112 0-.111-.092-.167-.092-.167-.091-.056-.183-.112-.183-.224-.091-.056-.275-.28-.458-.392-.274-.168-.55-.391-.732-.503-.183-.112-.367-.224-.458-.224 0 0-.275-.112-.458-.224l-.366-.224s-.275-.111-.55-.335c-.275-.168-.732-.392-.916-.448-.274-.112-.549-.28-.732-.391-.092-.112-.366-.168-.366-.168-.092 0-.184 0-.184-.056 0 0-.274-.224-.64-.392-1.1-.671-1.191-.783-1.557-1.007-.184-.168-.733-.447-1.19-.727-.55-.224-.917-.504-.917-.56 0 0 0-.055-.091-.055-.092 0-.641-.336-.641-.392l-.367-.224c-.183-.112-.549-.28-.732-.391-.275-.112-.458-.224-.55-.224l-.274-.168c-.092-.168-1.1-.727-1.282-.783-.184-.056-1.19-.504-1.19-.56 0-.056-.092-.056-.092-.056-.092 0-.184 0-.184-.056s-.091-.111-.274-.111a1.309 1.309 0 0 1-.275-.112c0-.056-1.19-.784-1.557-.951-.275-.112-.458-.224-1.648-.895-.366-.168-.641-.336-.733-.336 0 0-.091 0-.091-.056s-.183-.168-.458-.336c-.458-.28-.733-.447-2.106-1.175l-.55-.223c-.091 0-.183-.056-.275-.112-.091 0-.183-.056-.274-.056-.092 0-.183-.056-.183-.112-.092-.056-.184-.112-.275-.112-.092 0-.183-.056-.275-.112-.092-.112-.641-.336-1.282-.503-.183-.056-.641-.28-1.007-.448-.733-.336-1.1-.447-1.374-.447-.092 0-.183-.056-.275-.112-.091-.168-1.282-.56-1.556-.56-.092 0-.275-.112-.458-.224-.183-.056-.458-.167-.458-.167-.092 0-.183-.056-.275-.112-.183-.112-1.007-.448-1.282-.504-.092 0-.458-.112-.733-.224-.274-.111-.732-.28-1.098-.391-.367-.056-.641-.168-.641-.224-.092-.056-.184-.056-.275-.056-.183 0-1.19-.28-1.465-.391-.092-.056-.275-.112-.55-.168l-.366-.112c0-.056-.183-.112-.366-.168-.641-.168-.825-.224-1.008-.336-.183-.056-.55-.168-.824-.223-.275-.056-.55-.168-.55-.224-.183-.056-1.098-.448-1.19-.448a.547.547 0 0 1-.366-.168c-.366-.223-1.008-.503-1.465-.671-.092-.056-.458-.168-.733-.336-.275-.167-.824-.447-1.19-.671-.458-.168-.733-.392-.733-.392 0-.056-.916-.447-1.007-.447-.184 0-.733-.28-.733-.336 0-.168-.366-.56-.55-.615-.091 0-.366-.112-.457-.224-.275-.28-1.008-.727-1.19-.727l-.092-.056c0-.112-.641-.56-.825-.56-.091-.056-.183-.111-.274-.223 0-.112-.183-.168-.275-.168l-.183-.112c0-.056-.275-.224-.641-.448-.366-.28-.824-.56-1.007-.727-.275-.168-.458-.28-.55-.28 0 0-.092-.056-.092-.167 0-.056-.091-.112-.274-.168-.183-.056-.367-.168-.55-.392-.091-.168-.183-.28-.274-.28l-.184-.223c-.091-.168-.183-.224-.366-.224-.091 0-.183-.056-.275-.224-.091-.112-.183-.224-.183-.28v-.056c-.091 0-.458-.447-1.007-.839a1.996 1.996 0 0 0-.366-.335c-.092-.112-.275-.336-.55-.448-.183-.168-.458-.448-.55-.615-.182-.336-.64-.672-.823-.672-.092 0-.184-.056-.184-.168 0-.055 0-.167-.091-.28 0-.055-.092-.167-.092-.223 0-.056-.091-.224-.183-.336-.183-.112-.275-.223-.275-.335-.091-.056-.183-.168-.274-.224-.092-.056-.183-.112-.183-.168 0 0 0-.056-.092-.056 0 0-.092-.112-.092-.28-.091-.167-.183-.28-.274-.391-.092-.056-.184-.112-.184-.224 0-.056-.091-.28-.274-.448-.275-.391-.458-.727-.55-1.286 0-.112-.091-.336-.183-.504a2.39 2.39 0 0 1-.366-.671 2.968 2.968 0 0 0-.366-.615c-.367-.224-.825-.896-.916-1.12 0-.055 0-.167-.092-.223-.091-.056-.274-.224-.458-.448-.183-.168-.366-.671-.366-.839 0-.056-.092-.28-.183-.391-.092-.168-.183-.28-.183-.336 0-.168.458-.112.824 0 .55.336 1.099.447 3.205.56.916.055 2.29.055 2.564-.057h.916c.091-.056.275-.056.366-.056.275.056.458 0 .916-.223.275-.112.366-.168.733-.112.274 0 .457 0 .732-.056.183-.056.458-.112.641-.168a.974.974 0 0 0 .458-.112c.092 0 .183-.056.275 0 .091 0 .183 0 .183-.056.092-.056.275-.056.55-.056.549 0 .824-.056 1.007-.224l.183-.111c.091 0 .183-.056.275-.112.091 0 .183-.056.274-.056.092 0 .183-.056.275-.112.092-.056.183-.112.183-.056.092 0 .824-.336 1.282-.616.092-.055.367-.167.458-.223.183-.112.641-.28.916-.448.275-.168.64-.336.732-.336.092 0 .458-.111.916-.335.092-.056.367-.112.641-.168.367-.112.55-.168.641-.224 0 0 .092-.056.183-.056.184 0 .275 0 .367-.056.091-.112.824-.223 1.099-.167.091.055.457.111.824.167zm-41.026 150.77c-.275.055-1.19.055-2.014.111-.825 0-1.74.056-1.924.112-.457.056-1.923.168-3.113.224-.366 0-.824.056-1.19.168-.367.112-.642.112-1.283.168-.458 0-1.099 0-1.373.056-.367.056-.916.056-1.282.111-.458 0-.824.056-.824.056-.092.056-.184.056-.275.056-.092 0-.275.056-.367.056-.183.112-1.098.336-1.74.448-.824.112-1.098.168-1.19.224-.091.056-.366.112-.55.112-.182 0-.457.055-.549.055a.974.974 0 0 1-.458.112c-.458.056-1.099.168-1.556.336-.275.112-.55.168-.733.168-.183.056-.458.056-.55.112-.274 0-1.282.28-1.648.447-.091 0-.183.056-.183.056-.092 0-.366 0-.55.056-.183 0-.549.056-.732.056-.183 0-.275 0-.275.056l-.366.112a5.721 5.721 0 0 0-.916.28c-.275.056-.55.112-.64.167-.092 0-.276 0-.276.056 0 .112-.549.448-.824.504a.246.246 0 0 1-.274 0c-.092-.168-.55-.168-.641-.056-.092 0-.275.112-.458.168-.184 0-.458.112-.641.168-.184.056-.367.056-.367.056-.183 0-.64.28-.64.447-.092.224-.55.392-1.008.392-.366-.056-.458-.056-1.099.224-.366.111-.641.28-.641.28s-.183.111-.458.223c-.366.112-.55.224-.55.336-.182.223-.366.28-.915.28h-.55l-1.007.615c-1.007.615-1.557.95-2.198 1.23-.091.057-.366.168-.55.28a1.8 1.8 0 0 1-.365.168c-.092 0-.55.28-2.107 1.175-.457.28-.915.56-1.007.56-.366.111-1.374.67-1.374.727 0 .056-.183.167-.366.335-.183.112-.55.448-.916.728-.457.335-.824.559-1.007.615-.091.056-.275.112-.275.168 0 0-.091.112-.183.112-.275.168-.275.895.092 1.007.458.223 1.557 0 1.923-.448.091-.112.275-.224.366-.28.183-.111.275-.223.275-.28 0-.167.275-.447.64-.615.184-.056.459-.223.642-.335.183-.112.458-.224.458-.224.091 0 .275-.168.458-.336s.55-.391.732-.56c.183-.111.458-.223.458-.279.092 0 .275-.112.366-.168.184-.056.458-.168.55-.224.091-.111.275-.167.275-.167.091 0 .274-.112.458-.224.183-.112.549-.28.824-.392.274-.168.64-.391.915-.503.184-.112.367-.28.367-.28.091 0 .458-.224 1.465-.783.366-.224.733-.392.824-.448.092 0 .183-.056.092-.056 0-.056.091-.056.183-.056a.923.923 0 0 0 .366-.112c.092-.055.183-.111.366-.111.092-.056.275-.168.55-.224l.366-.224c.092 0 .183-.056.275-.112.091-.056.458-.224.733-.28.366-.111.64-.223.732-.28l.366-.223c.092 0 .367-.112.55-.224.275-.112.55-.168.64-.168.184 0 .367-.056.55-.168l.367-.111c.091 0 .274-.056.458-.112.183-.112.457-.168.64-.224.092 0 .275-.056.367-.056.091-.056 1.373-.392 1.557-.392.091 0 .183-.056.274-.056 0-.056.092-.056.092-.056 0 .056.916-.223 1.282-.391.183-.056.366-.112.55-.112.274 0 .824-.112 1.281-.224.184-.056.367-.056.458-.056.092 0 .183-.056.275-.112.092 0 .366-.112.641-.112.366-.055.733-.167.916-.223.183-.056.55-.112.916-.168.366-.056.732-.112.824-.168.183 0 .55-.112.916-.168a17.8 17.8 0 0 0 1.007-.224c.183 0 .458-.055.55-.055.09 0 .182-.056.366-.112.274-.112 1.465-.336 2.106-.392.275 0 .55-.056.55-.056.09-.112.549-.168 1.373-.224.183 0 .732-.056 1.19-.112a10.79 10.79 0 0 1 1.1-.111c.182-.056.549-.056.823-.112.184 0 .458-.056.733-.056.183 0 .366 0 .458-.056 0-.056.55-.056 2.198-.112.458-.056 1.007-.056 1.282-.112 1.099-.112 3.937-.224 6.227-.168.183 0 1.007 0 1.831-.056H94.231c1.648.056 3.022.056 3.022.056h2.838c0-.056.184 0 .275.056.183.056.458.056.641.056.275-.056.733-.056 1.1 0 .274.056.823.056 1.006.056.184 0 .641.056.825.056.274.056.915.112 1.373.168.55.056 1.008.112 1.19.112.092.056.459.056.825.112.275 0 .64.055.824.055.183.056.55.112.824.168.183.056.641.112.824.168.184.056 1.008.224 1.649.336 1.099.224 1.465.28 2.472.615.183.056.367.112.458.112 0 0 .275.056.55.168.274.112.64.224.915.28.184 0 .55.111.733.167.183.056.275.112.366.112 0-.056.092 0 .183.056.092.056.458.168.825.224.366.056.732.168.824.224.183.112.64.224.824.224.183 0 .366.056.55.111a.388.388 0 0 0 .183.056c0-.056.091 0 .274.056.183.168.55.224.824.224.092 0 .55.112.55.168 0 0 .183.056.366.056.183.056.366.112.55.112.091.056.366.112.55.112.274.056.549.112.64.112.183.111 1.282.391 1.74.391.183.056.366.056.55.112.091 0 .183.056.274.056.092.056.275.112.55.168.183.112.458.168.64.168.184 0 .459.056.733.112.183.111.367.167.458.167.092 0 .183.056.275.056.64.224 1.099.28 1.465.112.183-.056.366-.112.458-.112.183-.056.183-.223 0-.447-.275-.224-1.19-.616-1.374-.616-.091 0-.366-.056-.55-.111-.274-.112-.823-.224-1.373-.336-.55-.112-1.099-.224-1.282-.28-.275-.056-.55-.112-.64-.112-.184-.056-.55-.168-.917-.224-.366-.111-.824-.223-1.007-.223-.458-.056-.916-.168-1.648-.392-.183-.056-.458-.112-.55-.056-.183 0-.274-.056-.458-.112-.274-.168-1.098-.391-1.556-.503-.183-.056-.55-.112-.916-.168a4.648 4.648 0 0 1-1.007-.28c-.184-.112-.458-.168-.55-.224-.091 0-.366-.055-.64-.111a1.353 1.353 0 0 0-.55-.168.923.923 0 0 1-.367-.112c-.091-.056-1.007-.28-1.19-.28-.092 0-.183-.056-.275-.112a.974.974 0 0 0-.458-.112c-.091-.056-.274-.112-.458-.167a3.843 3.843 0 0 0-1.098-.224c-.092 0-.367-.056-.642-.168-.274-.112-.457-.112-.732-.112-.275.056-.366.056-.366 0-.092-.112-.458-.28-.733-.28-.092-.056-.366-.056-.55-.112-.183-.056-.64-.111-1.007-.111-1.007-.056-1.923-.168-2.198-.224-.091-.056-.457-.056-.64-.112-1.1 0-2.198-.112-2.748-.28-.091 0-.366-.056-.55-.056-.274 0-.64 0-.732-.056-.183 0-.458 0-.64.056a.92.92 0 0 1-.55 0c-.184-.056-1.19-.056-2.656-.112-1.374 0-2.564 0-2.747-.056-.183-.056-1.1-.056-2.015 0h-5.22c-.366-.112-2.014-.112-2.564-.056z"/></svg>