<svg version="1.0" xmlns="http://www.w3.org/2000/svg" width="266.667" height="266.667" viewBox="0 0 200 200"><path d="M60.99.367c-.501.366-1.253 1.283-1.253 1.65 0 0 0 .183-.125.183s-.626 1.1-.752 1.65c0 .733-.25 1.466-.626 1.833-.125.183-.25.55-.25 2.2v2.2l.626.916c.5.733.877 1.1 1.002 1.1s.5.183.877.183c.25.184.75.367 1.252.367.751.183 1.628.55 1.628.733 0 .184 0 .184 1.002.184.876.183 1.127 0 1.753-.917.25-.367.626-.733.626-.733.125 0 .501-.367.752-.734.5-.733.626-.733 1.377-.733h1.253c.125.184.876.184 1.502.184.627.183 1.253.183 1.378.366.125 0 .5.183.751.183.25.184.627.367.752.367.25.367.876.183 1.628-.55l1.002-.733c.626-.183 1.002-.55 1.252-1.283.125-.367.376-.734.501-1.1.25-.367.25-.55.25-1.1-.125-.367-.125-.55 0-.55.126 0 .126-.183.251-.55.125-.183.125-.367.25-.367.126 0 .126-.55.25-1.65.126-.183 0-.366-.124-.55-.126 0-.126-.183 0-.916.125-.733 0-2.017-.126-1.833-.125 0-.125 0-.125-.184C79.524 0 78.147 0 75.266 0h-4.383v.55c-.125.367-.125.55-.25.55-.25 0-.627.733-.752 1.467 0 .55-.125.916-.125 1.1-.125 0-.125.55-.125.916 0 1.467 0 2.017-.126 2.566-.125.367-.125.55-.125.55.125.184 0 .367-.25.55-.376.184-.626.367-.626.367 0 .183-.25.183-.501 0-.376-.183-1.002 0-1.754.733-.125.184-.751.367-1.127.55-1.753.184-1.628.184-1.878-.55-.25-1.1 0-2.75.25-2.75.125 0 .626-.733 1.252-1.65 1.002-1.833 2.255-3.3 2.63-3.3.25 0 1.128-1.099 1.128-1.466C68.504 0 66.875 0 64.872 0c-3.131 0-3.632 0-3.883.367zM85.785 2.2c0 1.283 0 2.2.125 2.383.125 0 .125.55.125 1.1 0 1.833.376 2.566 1.253 2.75.626.183 1.252-.184 1.252-.917 0-.183.626-.367.752-.183.125 0 .125.183.125.366 0 0 0 .184.125.184s.25.183.376.366c.375.55 1.127.367 1.628-.183.25-.367.5-.55 1.252-.55 1.252 0 1.753-.183 2.254-.916.25-.184.627-.55.752-.55.5 0 1.753-1.65 1.628-2.017s.376-1.1.751-1.1c.25-.183.376-.366.501-.366.25-.367.626-.184.877.366.751 1.65 1.127 1.833 3.381 1.833 1.002 0 1.127 0 1.378-.55.25-.366.375-.733.375-.916 0-.184.126-.55.501-.733l.376-.55c0-.184.125-.367.25-.55.251-.184.251-.367.251-.734V0H85.786v2.2zM116.093.183c0 .184-.125.55-.125 1.1-.126 1.65 0 2.383.125 2.75.125 0 .125.183.125.367 0 .366.376.733.626.733.125 0 .125-.183.125-.55.126-.55.627-.733.752-.367.125.184.125.184.376-.183.125-.183.25-.367.375-.367.126-.183.25-.183.25-.366 0-.184.502 0 1.128.366.5.367.5.367-.125.917-.126.183-.501.55-.501.55-.126.183-.626.55-1.127.917-.627.55-1.128.916-1.253 1.1-.125.366-.375.55-.626.733-.125.183-.5.55-.626.733-.125.367-.376.55-.376.55-.125 0-1.252 1.467-2.88 4.033-.125.183-.25.367-.25.55 0 .183-.126.55-.376.733-.25.184-.501.733-.752.917-.125.366-.5.55-.751.733-.376.367-1.753 2.383-2.38 3.3-.125.366-.626 1.1-1.002 1.833-.751 1.283-1.377 2.383-1.377 2.75 0 .183-.25.55-.376.916-.25.367-.5.917-.5.917 0 .183-.126.367-.126.55-.125.183-.25.366-.25.733-.126.183-.25.55-.376.733-.25.367-.626 1.834-.752 2.75 0 .183-.125.917-.375 1.65-.25.733-.376 1.65-.376 2.017 0 1.283-.5 2.016-1.378 2.2-.25.183-.375.183-.375.183s-.126 0-.25.183h-.627c-.376.183-1.878 1.833-2.129 2.566-.25.184-.376.55-.626.734-.125.366-.25.55-.125.55 0 .183-.126.366-.376.55-.501.366-1.879 2.2-2.254 2.75-.126.366-.501.916-.752 1.283-.375.366-.626.916-.876 1.1-.126.366-1.002 1.466-1.754 2.75-.876 1.283-1.753 2.566-1.878 2.932-.25.367-1.253 2.017-2.38 3.667-1.252 1.65-2.129 3.116-2.129 3.3 0 .366-.5 1.1-.5.916-.126 0-.126 0-.126.183 0 .184-.751 1.65-.876 1.834-.126 0-.126.183-.126.183 0 .183-.125.366-.25.55 0 .183-.125.366-.125.55 0 .183-.25.733-.501 1.1-.25.55-.376 1.1-.501 1.1 0 0-.125.366-.376.916-.125.367-.376.917-.5 1.1 0 .183-.126.367-.126.367-.125 0-.125 0 0 .183 0 .183 0 .183-.125.183-.126 0-.126.184-.126.367s-.125.367-.125.55c-.125.183-.25.367-.25.55 0 0 0 .183-.126.183 0-.183-.125 0-.125.184-.125.366-.375.916-.751 1.65-.25.366-.501 1.1-.501 1.466-.125.367-.376 1.283-.626 1.833l-.501 1.467c0 .55-.626 2.566-.877 2.933-.125.183-.376.733-.5 1.283-.126.55-.377 1.1-.377 1.1-.125 0-.375.916-.5 1.466 0 .734-.126 1.467-.25 1.65-.251.367-.251.734-.251 2.017-.126 1.1-.126 1.65-.376 2.2-.376.916-.376 1.466-.376 5.5v1.466l.501.733.752 1.1c.876 1.283 1.377 1.833 1.628 1.833.125 0 .25 0 .25.183.125 0 .25 0 .501.184.25 0 .5 0 .5.183.126.183 1.253 1.1 1.379.917.125 0 .125 0 .125.183s1.127.733 1.753.733c.125.184.501.184.626.184.125.183.501.366.752.366.25 0 .751.367 1.002.55.25 0 .75.183 1.001.183.25 0 .501.184.877.734s.751.916 1.002 1.1c.125 0 .5.183.751.366 1.879 1.1 1.879.917 4.133 1.283 3.507.367 7.64 0 8.266-.733.375-.55.751-.55 1.252 0 .376.184.626.55.626.367.125 0 .25 0 .376-.183 1.127-.367 1.878-.55 2.505-.734.375-.183 1.001-.366 1.127-.55.25-.183.751-.366 1.002-.366.375 0 .626-.184.75-.55.251-.184.377-.367.377-.184 0 0 .125-.183.25-.183.125-.183.501-.367.626-.367.376 0 .626-.55.752-1.466.125-.55.25-.733.5-.917.126 0 .251-.183.251-.366 0-.184 0-.184.125-.184l.501-.366c.126-.367.376-.55.376-.367.125 0 .125-.183.25-.183.126-.184.25-.367.376-.367 0 0 .25-.183.501-.55.25-.366.501-.55.501-.55.125 0 .125 0 .125-.183s0-.183.126-.183h.375c.125-.184.376-.184.501-.184.125-.183.25-.183.376-.366l.5-.367c.251-.183.502-.55.502-.55 0-.183 0-.183.125-.183 0 .183.25 0 .376-.184.125-.183.25-.366.375-.366.126 0 .126 0 .126-.184 0-.183 1.628-2.566 1.753-2.566 0 0 .25-.183.5-.55l.502-.733c.25 0 1.878-2.2 1.878-2.383 0-.184.25-.55.501-.734.25-.183.501-.55.501-.55.25-.733 1.253.55 1.879 2.2.125.367.375.733.375.55.126 0 .126 0 .126.183 0 .184.125.367.25.367.752.733 1.628 1.283 1.879 1.283.5 0 1.878.734 2.38 1.284.375.366.75.55 1.251.55.376.183.877.183 1.128.366.25 0 .5 0 .5.183h1.002c1.253.184 2.756.55 3.382.917.5.183 1.503.367 2.88.733.877 0 2.755.917 2.755 1.284l.126.183c.751 0 1.878.55 1.878.733l.25.367c.376.183 1.754 1.466 1.754 1.65 0 .183.125.183.125.183.125 0 1.127.733 1.252.917.126 0 .126.183.25.183.126 0 1.128.916 1.253 1.1.25.366 2.63.733 3.382.55.751-.367 1.127-.55 1.127-.734 0-.183.125-.183.375-.183.376 0 1.002.733 1.002 1.1 0 .183.126.55.376.733.125.367.376.917.5 1.284.126.55.377 1.1.377 1.283.125.183.125.55.25.733 0 .55.752 2.566.877 2.75 0 0 .125.183.125.366.125.55.125.734.25 2.017.126.55.25 1.65.376 2.566.125 1.1.125 2.017 0 2.567v2.75c0 1.833 0 2.016-.25 2.566-.25.367-.376.733-.376.917 0 .366-.626 2.383-1.127 3.483-.25.733-.376 1.283-.376 1.283.125 0-1.753 2.383-1.878 2.2-.126 0-.126 0-.126.183s0 .183-.125.183-.376.184-.5.55c-.251.184-.502.367-.502.184-.125 0-.125 0-.125.183s0 .183-.125.183c-.125-.183-.877.55-.877.734-.125.183-.25.366-.5.366-.251.184-1.003.733-1.88 1.283-.75.55-1.502 1.1-1.627 1.1-.25.184-.376.184-.501.367-.126 0-.376.367-.626.55-.376.183-.627.367-.752.367-.125.183-.25.366-.376.366-.25 0-.5.184-.626.367-.125.183-.5.55-.876.733-.25.183-.752.733-1.253 1.1-.375.367-.876.733-1.002.733-.125 0-.375.184-.626.367-.5.733-2.129 1.833-2.38 1.65l-.124.183c-.126.183-.126.367-.251.367 0 0-.626.366-1.127 1.1-.626.55-1.127.916-1.252.916-.126 0-.126 0-.126.184.126.183-.751.733-1.002.733 0 0-.125.183-.25.55-.125.183-.25.366-.25.183 0 0-.126 0-.251.183-.125.367-.25.55-.376.55-.125 0-.626.367-.876.734-.376.366-.752.916-.877.916-.5.184-.751.55-1.127 1.1-.125.183-.25.367-.376.367 0 0-.25.366-.5.55-.251.366-.502.733-.502.55l-.375.55c-.25.366-.376.55-.376.733 0 .183-.125.183-.125.183-.126 0-.501.55-.752 1.1-.375.917-.626 1.283-1.002 1.283-.375.184-.876.734-.876 1.1 0 .184-.125.184-.25.367-.251.183-.502 1.1-.502 1.65 0 .55-.751 2.2-.876 1.833-.126 0-.752 1.1-.877 1.65v.916c0 .184-.125.734-.25.917-.126.183-.25.55-.25.55-.126 1.283-.377 2.2-.627 1.833-.125 0-.125 0-.125.183.125.184.125.184 0 .184-.126-.184-.25.183-.25 1.466-.126.367-.251.917-.376 1.284-.126.366-.25 1.1-.25 2.016-.126.733-.126 1.467-.251 1.467 0 0-.126.55-.126 1.1s0 1.283-.125 1.283c-.25.366-.25 1.833 0 2.016h.25c.251 0 .251 1.1-.125 2.017l-.375 1.1.375.916c.25.917.627 1.467 1.378 1.833.25.184.5.367.626.367.125.183.25.367.376.367.125 0 .25 0 .25.183.25.183 1.002-.183 1.253-.55.375-.733.25-2.016-.25-2.566-.126-.184-.377-.367-.377-.184-.125 0-.25-.55-.25-.733 0-.183 0-.183-.125-.183-.125.183-.125-.367-.125-1.284v-1.466c-.126 0 0-.183 0-.55.125-.183.125-.733.25-1.1 0-.367 0-.733.125-.917 0-.366.125-.916.25-1.833 0-.366.376-1.833.502-2.2.125-.183.125-.55.125-.733 0-.366.376-1.65.626-2.2.125-.183.25-.55.25-.55-.125-.183.752-1.466.877-1.466s.125-.183.125-.183c0-.184.126-.367.25-.55.126-.184.251-.55.251-.55s0-.367.126-.55c.125-.367.125-.734 0-.917-.126-.733 0-1.283.375-2.016.25-.184.376-.55.376-.734 0-.183 0-.366.125-.366s.125-.184.125-.367c0 0 0-.183.126-.183l.5-.367c.126-.367.376-.55.376-.55.126 0 .126 0 .126-.183-.126-.184 2.504-4.033 2.755-3.85v-.183c-.125-.183 0-.183.125-.183.125.183 1.002-.734 1.378-1.284.25-.366.626-.55.876-.733.376 0 .626-.367 1.754-1.833.25-.367.876-.917 1.252-1.283.25-.184.626-.55.626-.55 0-.184.25-.367.501-.367.25-.183.751-.733 1.002-1.283.376-.55.751-.917.876-1.1.126 0 .376-.183.501-.55.126-.183.376-.367.501-.367 0 .184.126 0 .126 0 0-.183.375-.366.876-.55 1.127-.366 1.628-.733 1.879-1.1.25-.183 1.377-1.1 1.753-1.283l1.503-1.1c.751-.55 1.377-1.1 1.503-1.1.125 0 .5-.55.876-1.1.501-.733.877-1.1 1.628-1.466.501-.367.877-.733.877-.733 0-.184 1.002-.734 1.002-.734.125 0 .125 0 .25-.183.126 0 .627-.183 1.128-.183.5-.184 1.001-.184 1.001-.367.126 0 .376-.183.501-.183.25 0 .376-.184.501-.184 0-.183.376-.55.752-1.1.5-.366.751-.733.876-.916 0-.183.126-.367.25-.183 0 0 .126 0 .126-.184 0-.183.376-.733.751-1.283.627-.916.752-1.1.752-1.65 0-.55.125-.916.125-1.1.125-.183.376-.733.626-1.466a5.772 5.772 0 0 1 .376-1.283c.25-.184.751-1.834.751-2.75.126-.367.25-.917.25-1.1.251-.733.126-3.3-.124-4.216-.126-.55-.25-.917-.25-1.1.124 0 .124-1.284.124-2.933.126-2.75.126-3.3-.375-3.667-.877-.733-1.127-1.283-1.127-2.2.125-1.1-.126-2.2-.627-3.116-.375-.917-.751-2.383-.626-2.933 0-.183-.125-.733-.375-1.1-.126-.367-.376-.917-.376-1.1 0-.183-.125-.55-.25-.916-.126-.367-.251-.55-.251-.55 0-.184-.125-.55-.376-1.1-.25-.367-.5-.917-.5-1.1v-.367c0-.183-.126-.55-.251-.733-.376-.55-.626-1.283-.626-1.65 0-.183-.126-.367-.25-.55-.251-.183-.377-.55-.502-.917-.25-.733-.5-1.1-1.002-1.466-.5-.367-.626-.367-1.252-1.283a1.205 1.205 0 0 0-.376-.55c0 .183-.375 0-.751-.367-.501-.183-1.127-.55-1.378-.55-.25-.183-.626-.183-.876-.183-.376-.184-2.505.366-2.88.55-.126.183-.377.183-.377.183s-.25.183-.375.183c-.125.184-.25.184-.376.184 0 0-.376.366-.751.916-.752.917-.877 1.1-1.378.55-.25 0-.376-.183-.376-.183 0 .183-.375 0-.751-.183-.376 0-.877-.184-1.127-.184-.125 0-.376 0-.376-.183-.125-.183-.5-.183-1.377-.367-.501 0-1.002 0-1.128-.183-.25-.183-.751-.183-1.127-.183-.375 0-1.127-.184-1.628-.367-.375-.183-.876-.183-1.002-.183-.751 0-2.38-.55-3.757-1.467-.5-.366-.876-.55-1.002-.55-.5 0-1.878-2.75-1.753-3.483 0-.183 0-.183-.125-.183s-.125 0-.125-.183c0 0-.126-.55-.376-1.284-.125-.55-.376-1.1-.376-1.283 0-.183-.25-.733-.626-1.283-.125-.183-.125-.367 0-1.1.376-1.283.376-1.833.125-2.75l-.5-1.466c-.126-.55-.376-1.1-.502-1.1-.25-.184-.5-.55-.5-.917h.5c.25.183.752 0 1.253-.183.376-.183.751-.367.751-.183 0 0 .125 0 .25-.184.126-.183.627-.366 1.003-.366 1.252-.184 2.003-1.284 1.502-2.017-.25-.367-.375-.367-1.502-.367-.877 0-1.378 0-1.378.184-.125.366-1.879.366-2.129.183-.25-.367-.5-1.466-.5-2.933 0-.733-.126-1.467-.126-1.65-.125-.367-.125-.733-.25-.916 0-1.284-.502-4.033-.877-4.95-.126-.367-.25-.733-.126-.733 0-.184 0-.184-.125-.184 0 0-.125-.183-.125-.366 0-.55-.751-2.383-1.127-3.117-.501-.733-1.503-2.75-1.503-3.116 0 0-.25-.367-.376-.733-.25-.367-.5-.734-.375-.734 0-.183-.126-.183-.25-.366-.251-.184-.377-.55-.377-.734l-.25-.733c-.125-.366-.25-.55-.125-.55s.751-.733.751-1.1c.125-.183.25 0 1.503 1.834.125 0 .376.366.5.733.627.733 1.88 2.016 1.88 1.833 0-.183.125-.183.25 0 .125 0 .877.183 1.628.183.751.184 1.252.367 1.503.55.125 0 .25.184.25 0 0 0 .126 0 .25.184 0 .183.126.183.126 0 0 0 .125 0 .125.183.125 0 .376.183.626 0 .627 0 1.253-.183 1.503-.367.125 0 .25 0 .501-.183.501-.183 1.002-.367 1.378-.917.25-.183.375-.366.375-.366 0 .183.376-.184.877-.734.752-.733 1.127-1.1 1.378-1.1.125 0 .25-.366.375-.55 0-.183.126-.366.126-.183.125 0 .125 0 .125-.183s.25-.55.5-1.1c.251-.367.502-.917.627-.917 0-.733.5-2.2.5-2.016.126 0 .251-.917.251-1.65l.501-1.466c.25-.917.376-1.834.376-2.2.125-.184.125-.734.25-.734.376-.916.501-3.483.251-6.599v-2.75c0-1.1-.125-2.016-.125-2.2l-.25-1.1c-.126-.55-.251-1.1-.376-1.1-.126-.183-.25-.366-.126-.366 0-.183 0-.367-.125-.55-.125-.183-.125-.55-.125-.55 0-.183 0-.183-.125-.183-.126 0-.126-.184 0-.184 0-.183 0-.183-.126-.183 0 .183-.125 0-.25-.367-.25-.183-.25-.366-.125-.366.25-.184 1.002.183 1.252.366 0 .184.125.184.125 0 0 0 .126 0 .25.184.502.55 2.38-.917 2.756-2.2.125-.55.5-1.283.877-1.833.751-1.1.876-1.467.751-2.2 0-.183 0-.55-.125-.733v-.367s-.126-1.1-.126-3.3c0-.55-.125-.916-.125-1.1-.125-.183-.5-.183-.626 0-.376.367-.877.367-1.002.184-.25-.55-1.252-.367-1.753.183-.125.183-.376.367-.501.367l-.376.55a3.58 3.58 0 0 1-.375.733c-.126 0-.126 0-.126.183.126 0-.125.734-.5 1.283-.376.55-.752 1.467-.877 2.017l-.25.733c-.126-.183-.376.917-.376 1.467 0 .916-.25 1.283-.752 1.1-.626-.184-1.002-.55-1.002-.917.126 0 .126-.183 0-.183-.25 0-.5-1.65-.375-2.383.375-1.834.125-2.567-.877-3.117-.25-.183-.626-.366-.751-.55a1.306 1.306 0 0 0-1.754.184 1.907 1.907 0 0 1-.375.366c-.126 0-.376.367-.627.55-.5.917-.751.917-1.002 0-.25-.733-.125-1.466.25-1.466l.251-.367c.126 0 .25-.183.376-.183.125 0 .25-.184.376-.184.125-.366.751-.733 1.127-.733.25 0 .5-.183.751-.55.25-.183.627-.366.877-.366s.626-.184 1.002-.55c.376-.367.877-.734 1.002-.917.25 0 .5-.183.626-.183 0 0 .125-.184.25-.184l.752-.366c.376-.184.876-.367 1.127-.367.125 0 .626-.183 1.002-.367.25-.183.876-.55 1.377-.55 1.127-.183 1.002-.183 1.754-.55 1.252-.55 1.878-.55 3.381-.55 1.002 0 2.004 0 2.254-.183h.752c.125 0 .5.184.751.184.376.183.751.183.751.366.126 0 .376 0 .501.184 1.628.183 2.255.183 2.505.366.125.183.752.367 1.378.367.626.183 1.503.55 2.003.916l1.503.734c.376 0 .877.366 1.002.55.376.366.752.55 1.002.55.376.183 1.002.733 1.628 1.65.376.55.752.916.752.916.125 0 .5.55 1.001 1.283.501.55 1.128 1.467 1.378 1.833.125.367.376.734.25.734 0 .183 0 .183.126.183.125-.183.125-.183.125 0s.125.367.25.55c.25.367 1.002 2.75.877 2.933 0 .183 0 .183.125.183s.125.184.125.367c0 .55-.25.733-1.127.733-.125.184-.5.367-.751.55-.751.55-1.127.55-1.127-.183-.125-.733-.501-1.283-1.252-1.467h-1.128c-.125 0-.375.184-.876.367h-.501v-1.833c.125-1.65.125-2.017.25-2.933.376-1.283.25-2.017-.25-2.75-.125-.183-.25-.55-.125-.733 0 0 0-.184-.126-.367-.125 0-.125 0 0-.183.126 0 0-.367-.25-.55-.376-.733-.877-.733-1.503 0-.25.366-.376.366-1.127.366s-.877 0-1.252.367c-.376.367-1.002 1.65-1.128 1.833-.125.734-.125 1.283-.25 2.383-.125.734-.25 1.65-.376 1.834 0 .366-.125.916-.25 1.283-.125 1.833-.501 4.583-.752 5.5-.25.55-.375 1.1-.25 1.1 0 .183-.125.366-.125.55-.126.366-.25.55-.126.55 0 .182-.125.366-.375.55a1.907 1.907 0 0 1-.376.366c-.125.183-.5.55-.877.916-.626.367-2.129 2.2-2.254 2.567 0 .183-.125.366-.125.366-.125 0-.501.55-.751 1.1-.376.734-.752 1.284-.877 1.467-.125 0-.125.183 0 .183 0 0 0 .183-.125.367-.126.183-.25.366-.25.55 0 .183-.251.733-.377 1.1-.25.366-.375.733-.375.916l-.25.367c-.126.183-.251.55-.251.55l-.25.733c-.251.367-.376.55-.376.733 0 .184-.25 1.467-.376 1.834-.125.366-.25.733-.25.916 0 .367-.126.917-.251 1.1 0 .367-.125.55 0 .55 0 .183 0 .367-.125.733 0 .184-.125.917-.125 1.65-.126.55-.126 1.283-.25 1.283-.126.184-.126.917-.251 1.65 0 .734 0 1.283-.126 1.467-.25.733.126 3.85.501 3.483.126 0 .25.55.25 1.1 0 1.283.126 1.283.502.733.5-.367 1.127.183 1.127.917l.5.733c.126.183.376.55.251.55 0 .183.125.183.25.183.376 0 .627.367.877 1.467.25.916.25 1.1.752 1.1.751 0 .876 0 1.002.55.25.366.25.733.25.733-.25 0 1.378 1.833 1.753 2.016h.627c.375.184.751.184 1.001 0 .376-.183.627-.183.877 0 .877.55 3.006.367 3.256-.366l.125-.184c.25 0 1.128-1.283 1.253-1.65 0-.183.125-.55.25-.733.126-.183.25-.733.25-.916.126-.184.251-.367.376-.367.126 0 .376-.183.627-.367.125-.366.375-.55.5-.55.126 0 1.378-2.016 1.378-2.2l.25-.733c.251-.183.376-.55.251-.55 0-.183 0-.183.125-.183.126 0 1.628-2.2 2.004-3.116.125-.367.376-.734.501-1.1.125-.184.501-.917.751-1.65.25-.917.501-1.467.501-1.283.126 0 .126-.184.126-.367s0-.367.125-.367c.125-.183.125-.366 0-.733s-.125-.55 0-.733c.125 0 .25-.367.376-.733 0-.367.125-.734.125-.917.125-.183.25-.55.25-.733 0-.367 0-.734.125-.734 0-.183.126-.55.126-1.1 0-.366 0-.916.125-1.1.125-.366.25-1.283.25-2.566 0-.366.126-.733.126-.916.125 0 .125-.55 0-.917v-1.65c0-.55-.126-1.1-.126-1.283-.125 0-.125-.183-.125-.367 0-.183-.125-.55-.125-.733-.125-.367-.125-.55-.125-.55.125 0 .125-.183 0-.367-.25-.366.5-1.283 1.252-1.283.376 0 .501.183.501.917 0 .183.125.55.125.55.125.366 0 3.116 0 3.85-.125.183-.125 1.283-.25 2.2-.125 2.199-.125 2.199-.25 2.566-.126 0-.126.55-.251 1.283 0 .55-.125 1.283-.125 1.466-.126.55-.501 1.834-.627 2.567 0 .367-.125.733-.125.916-.125 0-.125.184-.125.55 0 .184-.125.55-.125.734-.126 0-.126.183-.126.183.126 0 .126.183 0 .367-.125 0-.125.183-.125.366.125 0 0 .184 0 .367-.125 0-.125.183-.125.183.125 0 .125.184 0 .367s-.25.733-.25 1.1c0 .366-.126.916-.376 1.466-.125.367-.25.917-.25 1.1l-.251.734c-.125.183-.25.55-.125.55 0 .183-.376 1.466-.627 1.833-.125 0-.25.366-.125.55 0 .183-.125.366-.125.366-.125 0-.626 1.283-.626 1.467 0 .183-.125.183-.25.366 0 0-.126.184-.126.367-.125.183-.376.733-.626 1.283-.376.734-.751 1.467-.877 2.017-.25.733-2.003 3.483-2.504 3.85-.25.183-.627.55-1.002 1.1-.25.366-.626.733-.752.733 0 0-.25.183-.5.55-.251.366-.376.55-.376.366 0 0-.126.184-.25.184-.126.183-.376.366-.502.366-.125 0-.5.367-.876.917-.376.366-.752.916-.877.916-.25.184-.376.367-.5.55 0 .184-.126.734-.377 1.1-.375.55-.375.733-.375 1.467 0 .55.125 1.1.125 1.1.25.183.125 1.466-.125 2.016-.627 1.283-1.002 2.017-1.127 2.383-.126 0-.126.184 0 .184l-.126.183s-.25.733-.375 1.833c0 .183-.126.367-.126.367 0 .183-.125.733-.125 1.466.125 1.65.501 2.75 1.252 3.483 1.253 1.284 2.63.917 4.133-.916.25-.367.501-.734.752-.917.125-.183.5-.733.876-1.1.501-.733.877-1.283.877-1.833 0-.183.125-.183.25-.367.126 0 .25-.366.25-.733 0-.366.502-1.283.878-1.283 0 0 .25.183.5.55a34.1 34.1 0 0 0 2.88 2.566c.502.367 1.003.917 1.253 1.1l.376.55c0-.183.125-.183.125 0 .125 0 .376.184.626.184.126.183.752.366 1.127.733.501.366.877.55 1.002.55.126 0 .501.183.877.366.376.367.626.55.751.55 0 0 .501.367 1.127.917.627.733 1.128 1.1 1.253 1.1.25 0 1.127.733 1.127.916 0 .184.125.184.376.184.375-.184.5-.184.876.366.376.367.626.734.752.734 0 0 .125.183.125.366.125 0 .25.184.25.184.126-.184.501.183.752.55.376.366.751.733.876.733l.25.366c0 .184.251.184.502.367.25 0 .626.367 1.002.733.25.367.751.917 1.002 1.1.375.367.626.734.751.917 0 .183.25.55.501.733.25.183.626.55.877.917.25.366.751.916 1.127 1.283 1.377 1.65 1.878 2.383 2.129 3.3.125.55.5 1.1.876 1.466.25.367.501.734.501.917 0 .183 0 .366.126.55.125 0 .125.183 0 .183 0 .183 0 .183.125.183s.5 1.284.5 1.65c0 .184.126.184.126.184.125 0 .125 0 .125.183-.125 0 0 .183.125.55 0 .183.126.367.126.367-.126 0 0 .366.125.733 0 .366.125.916.125 1.1v1.1c.125 1.1.25 3.3.125 3.3 0 0-.125.366-.125.916 0 .367 0 1.1-.125 1.466-.125.734-.125.917-.376 3.117-.125.733-.25 1.65-.25 1.833-.25.367-.376 1.467-.376 1.833l-.25.367c-.126.183-.126.366-.126.366.126 0 0 .367-.25.734-.125.366-.25.733-.25 1.1 0 .733-.251 1.833-.752 2.933-.25.55-.376 1.1-.376 1.283 0 .183-.125.367-.25.733 0 .184-.125.55-.125.55 0 .55-.376 1.65-.627 2.017-.125.366-.25.55-.25.733 0 0-.125.183-.125.367-.25 0-.501 1.1-.501 1.283.125 0 0 .183 0 .366-.125.184-.376.734-.501 1.284l-.501 1.1c-.125 0-.125.183-.125.366 0 .367-.126 1.1-.376 1.65-.25.55-.376 1.283-.376 1.467-.125 0-.125.366-.25.55-.25.366-.501.916-.752 1.65-.125.55-.375.55-.626.366-.125-.183-.25-.367-.376-.367-.375 0-1.377.734-1.377 1.1-.125.184-.25.184-.626 0-.501 0-.626 0-.877.367-.125.367-.376.55-.5.55-.126 0-.377.183-.377.367-.125.183-.375.366-.5.366 0 0-.126 0-.126.184 0 .183-.375.366-.876.733-.376.366-.877.55-1.002.733-.376.367-.877.917-1.127 1.1-.126.183-.376.367-.501.367-.25 0-.376.183-.25.183v.183c-.251-.183-1.378.55-1.754 1.1a1.907 1.907 0 0 1-.376.367c-.25 0-2.505 1.65-2.755 2.016-.125.184-.376.367-.626.367s-.626.183-1.002.55c-.501.367-.877.55-1.002.55 0 0-.125 0-.125.183 0 .184 0 .184-.125 0-.126 0-.126 0-.126.184 0 .183-.25.366-.626.55-.375 0-1.878.916-2.755 1.466-.376.367-.751.55-.877.55l-.25.367c-.125 0-.25.183-.25.183 0-.183-.251 0-.376.183-.25.184-.501.367-.626.367 0 0-.501.183-.752.55-.376.366-.876.55-1.127.55-.626.183-1.002.366-1.002.55 0 .183 0 .183-.125.183 0-.183-.125 0-.376.183-.125.367-.5.55-.876.55s-1.002.367-1.378.734c-.376.366-.751.55-.751.366l-.25.367c-.126.183-.502.366-.752.366-.626.184-1.378.917-1.754 1.467-.125.183-.375.367-.5.55-.376 0-2.13 1.283-2.13 1.467 0 .183 0 .183-.125.183-.25 0-.375 0-.375.183.125.183 0 .183-.25.367-.126 0-.377 0-.502.183h-.25c-.126 0-.126 0-.126.183.126 0-.25.367-.626.55-.375.367-.751.734-.626.734 0 0-.25.366-.5.366-.627.367-1.629 1.467-2.255 2.2 0 .183-.125.183-.125.183 0-.55-1.879 2.384-2.505 3.667-.125.366-.501.916-.751 1.466-.25.367-.501.734-.501.917 0 .367.25.917.5.917.126 0 .376.366.752.733 1.127 1.1 1.878.916 2.505-.367.375-.916 1.127-2.016 1.252-1.833.125 0 .125-.183.125-.183 0-.184 0-.367.125-.367l.251-.733c.125-.55.25-.917.25-.734 0 0 .25-.183.376-.366l.501-.733c.877-.55 2.254-2.934 2.13-3.3 0-.183.124-.183.25-.183.125 0 .5-.367.876-.734.125 0 .376-.183.501-.183.25-.183.752-.55 1.127-.917.376-.366.752-.55 1.002-.55.125 0 .376-.183.376-.366.125-.184.376-.367.751-.55.376 0 .626-.184.626-.184l.126-.183c0 .183.375-.366 1.002-1.283.5-.55.5-.55 1.252-.55.877.183 1.127 0 1.628-.917.376-.55.5-.55 1.002-.55.626 0 .751 0 1.127-.55.125-.366.376-.733.5-.733.126 0 .377-.183.627-.55.25-.366.501-.55.751-.55.376 0 1.128-.55 1.128-.733-.126-.183 1.001-1.1 1.127-.917.125 0 .125 0 .125-.183s.376-.367 1.378-.55c.25 0 .5 0 .626-.183.125 0 .375 0 .751-.183.751 0 .751 0 .626-.184 0 0 .125-.183.25-.183.126.183.251 0 .251 0 .125-.183.125-.367.25-.367.251 0 1.378-.366 1.88-.733a4.99 4.99 0 0 1 .625-.367c.627 0 2.756-2.2 2.756-2.75 0-.183.375-.366.876-.733.501-.183 1.002-.366 1.002-.55.125 0 .25-.183.376-.183l.25-.367c.125 0 .25-.183.376-.183.25.183 1.002-.55 1.503-1.283.25-.367.5-.733.5-.55 0 0 .251-.183.502-.55.25-.367.5-.733.5-.55.126 0 .126 0 .126-.183-.125 0-.125-.184 0-.184.25 0 .376 0 .876-.733.376-.55.752-.916.877-1.1.25-.183.376-.55.25-.733 0 0 0-.183.126-.183 0 0 .125-.184 0-.367 0-.183.125-.367.376-.55l.25-.367c0-.183.125-.183.25-.183.376 0 .501.917.126 1.467-.126.183-.25.366-.25.55 0 .183-.126.366-.126.366-.125 0-.125.184-.125.367 0 .366-.25.733-.376 1.1-.25.366-.5.916-.626 1.283-.125.367-.25.917-.501 1.283-.125.184-.25.55-.25.55 0 .183-.126.367-.376.733-.376.55-1.002 1.834-.877 1.834l-.25.366c-.126.184-.376.917-.627 1.467-.125.366-.375.916-.375.916-.125.184-.376.55-.501.917-.125.55-.376 1.1-.501 1.283-.25.183-.25.55-.25.55.125.183-.627 1.467-1.629 2.75-.751.916-.876 1.283-.876 1.833 0 .367-.126.55-.126.733-.5.55-.125 2.2.501 2.017.627 0 1.879-1.1 1.879-1.833 0 0 .125-.184.25-.184.25 0 1.628-1.1 1.628-1.283 0-.55.126-.733.25-1.1.126 0 .251-.366.251-.55 0-.183 0-.183.126 0h.125c-.125-.183 0-.55.25-.916.126-.367.25-.734.25-.917 0-.183.251-.733.627-1.283.376-.55.626-1.1.5-1.1l.251-.367c.126-.183.25-.55.25-.55 0-.366.502-1.833.627-2.016.125 0 .376-.367.501-.917l.5-.733c.126 0 .126-.183.126-.367-.125-.183 0-.55.125-.733.25-.367.627-1.466 1.002-2.566.376-1.284.752-2.2.877-2.2 0 0 .376-1.1.376-1.283 0 0 .125-.367.25-.55.25-.367.376-.917.376-.917 0-.55.751-2.2 1.377-3.116.376-.55.627-1.1.627-1.284 0-.183.125-.55.25-.733.376-.55.877-1.65.877-2.2.125-.366.375-.733.5-1.1.376-.366.502-.916.877-2.016.126-.917.376-1.65.501-1.833 0 0 .125-.184 0-.184 0-.183 0-.183.125-.183 0 0 .376-1.1.376-1.65.125 0 .125-.183.25-.55 0-.183.126-.366 0-.366 0-.184 0-.184.126-.184.125 0 .125 0 0-.183s0-.367.125-.55c.125-.183.25-.55.376-.917 0-.183.125-.55.125-.916 0-.183.25-.733.25-1.1l.752-2.2c.626-1.283.751-2.383.877-5.5 0-1.466.125-3.116.125-3.666.125-.366.125-.916.25-1.1 0-.183.125-.733.25-1.283.376-.916.251-2.566-.125-3.116-.125-.184-.25-.734-.25-1.283 0-1.65-1.252-6.783-1.878-7.333 0-.184-.126-.367-.126-.55 0 0-.125-.367-.375-.733-.376-.734-.752-1.834-.752-2.384 0-.366-.125-.55-.25-.733-.126-.183-.25-.55-.25-.916-.126-.917-1.504-2.75-2.13-2.75-.375-.184-.626-.184-.751-.367-.125 0-.25.183-.376.367-.25.183-.5.183-.751-.184-.126-.183-.126-.183 0-.55.375-.366.375-.55-.376-1.65-.501-.733-.751-1.283-.751-1.466 0-.367-.877-.733-1.128-.367-.375.367-.5.184-1.252-.916-.5-.55-1.002-1.1-1.252-1.283-.25-.184-.501-.55-.501-.55l-.626-.917c-.752-.55-1.503-1.833-1.754-2.566-.25-.367-.5-.917-1.502-1.834-.25-.183-.501-.55-.627-.733-.125-.366-.751-.916-1.252-1.1-.25 0-.626-.183-.877-.55-.25-.183-.5-.366-.626-.366 0 .183-.125 0-.25-.184-.25 0-.376-.183-.501-.183-.626 0-2.63-2.2-2.38-2.566h-.125c-.125.183-.125.183-.125 0 .125-.184.125-.184 0-.184 0 .184-.125.184-.125 0l-.501-.733c-.376-.183-.627-.55-.752-.917-.125-.183-.25-.366-.5-.55-.126 0-.251-.183-.251-.366s0-.183-.125-.183c-.126.183-.126.183-.126 0 0-.184-.125-.184-.125 0h-.125c.125-.184 0-.367-.125-.55-.126 0-.376-.367-.376-.734-.125-.366-.376-.916-.501-1.283l-.25-.55.25-.183c.25-.184.376-.184.376-.367 0 0 .25-.366.5-.55l.376-.55c0-.183.126-.366.25-.733.126-.183.251-.55.251-.917 0-.183.126-.366.25-.55 0-.183.126-.366.126-.366 0-.367.877-1.65 1.002-1.467.125 0 .376-.55.376-1.283.125-.367.125-.733.25-.733.25-.367.501-.917.501-1.283 0-.367.501-1.1.877-1.467.25 0 .375-.367.5-.733 0-.184.126-.734.126-.917.125-.366.125-.733.125-.916-.125-.55.125-1.467.376-1.467 0 0 .125-.183.25-.55 0-.183.125-.55.25-.733.126-.367.502-1.467.502-2.017.125-.183.25-.733.25-1.283.125-.367.25-1.1.25-1.466a8.555 8.555 0 0 1 .627-2.017c.25-.183.375-.55.375-1.1.126-.733.376-1.466.627-1.833.125-.183.125-.733.25-1.1 0-.367.125-1.467.376-2.566.25-1.65.376-2.567.5-5.683 0-2.75.126-3.117.251-4.4.125-1.1.125-1.65 0-2.75-.25-1.65-.125-1.65-.375-2.383-.126-.183-.126-.733-.25-1.283 0-.367-.126-1.1-.251-1.65 0-.367-.25-1.283-.25-1.833-.126-.55-.251-1.1-.377-1.283v-.55c.126-.55-.125-1.1-.375-1.1-.126 0-.376-.917-.501-1.65 0-.917-.25-2.383-.376-2.383-.125 0-.125-.183-.125-.367 0-.366 0-.55-.125-.733-.25-.183-.627-1.467-.627-1.65.126 0 0-.183-.125-.367a2.664 2.664 0 0 1-.376-.733c0-.183-.125-.183-.25-.183 0 0-.25-.183-.376-.55 0-.367-.5-1.1-.876-1.833l-1.253-1.833c-.125-.367-.626-1.1-1.002-1.65L164.81 0h-24.295c-18.91 0-24.296 0-24.421.183zm6.512 13.383v1.283c-.125.366-.125 1.1-.25 1.466 0 .55-.126 1.467-.126 2.2 0 1.1-.125 1.65-.25 1.65 0 .183-.125.367-.125.367 0 .183-.25.733-.501 1.1-1.253 1.65-1.754 2.566-1.754 2.75 0 .183-.125.366-.125.366-.125.183-.25.367-.376.733l-.25.734c-.125 0-.376.366-.5.733-.126.366-.377.916-.502 1.283-.125.367-.25.733-.125.733l-.25.734c-.126.366-.251.916-.251.916 0 .183-.125.367-.25.55-.126.183-.251.183-.251.367.125 0 0 .366-.125.733a30.24 30.24 0 0 0-.376 2.933v1.833c-.125.184-.125.734 0 1.1.125.55 0 .917-.125 1.283-.25.367-.25.917-.25 1.834 0 1.283-.126 1.283-.627.55-.376-.55-2.129-1.834-2.505-2.017-.25 0-.626 0-1.001-.183-.376-.184-1.378-.184-2.255-.184-1.878 0-2.003-.183-2.129-1.466 0-.733 0-.917.25-1.467.251-.366.377-.916.377-1.283.125-.183.25-.733.375-.916.25-.55.376-.734.501-1.1v-.55c0-.184.25-.734.376-1.1.25-.734.5-1.833.5-2.567 0 0 .251-.183.377-.366.5-.367 1.127-1.1 1.127-1.284 0-.183.5-.916 1.002-1.65l1.001-1.466c-.125-.183.25-.733.627-1.1.5-.55 1.377-1.65 1.377-2.016 0 0 .125-.184.25-.184.126 0 .376-.366.752-.916.25-.55.501-.917.501-.917.125 0 .376-.183.501-.55.25-.183.5-.733.751-.916.126-.184.627-.734.877-1.1.501-.55 1.753-2.017 2.88-2.933.376-.55 1.002-.367.877 0zm8.516 11.549c.25.55.501 1.283.501 1.833 0 0 0 .183.125.183s.125.733.25 1.467v1.466c.126 0 0 .184 0 .184-.125.366-.876.183-1.126-.184-.126 0-.376-.183-.501-.183-.25 0-.501-.183-.627-.183 0-.184-.125-.184-.125-.184 0 .184-.125 0-.375 0-.25-.183-1.002-.183-1.754-.183-1.377 0-1.377 0-2.129.55-.876.916-1.377 1.1-1.377.733 0-.183 0-.366-.126-.55 0-.55.501-1.466 1.128-1.833.25-.183.626-.55.75-.55.126 0 .377-.183.627-.183.125-.184.501-.55.752-.734.5-.55.626-.733 1.502-1.283.25-.183.501-.366.627-.55.125-.366 1.502-.183 1.878.184zm26.8 6.05c.25.182.501.366.627.366 0 0 .25.366.375.733.376.733.376.733.376 2.75-.125 1.1-.125 2.383-.25 2.75-.126.916-.251 1.466-.376 2.016 0 .367 0 .917-.125 1.1v.55c0 .367-.752 2.75-1.002 3.3-.25.366-.376.733-.376.916 0 .184-.25.734-.626 1.283-.376.55-.752 1.284-.877 1.467-.376 1.1-1.002 1.1-1.002 0 .125-.183 0-.367 0-.367l-.125-.183c-.125-4.4-.376-5.866-1.378-7.333-.25-.55-.375-.916-.375-.916 0-.184-.877-1.467-1.002-1.467s-.25 0-.376-.183c-.751-.55-1.252-.917-1.503-.917-.25 0-.25 0-.125-.733.25-1.283.751-1.65 1.378-1.283.626.55 1.628.366 3.005-.55.501-.367 1.253-1.283 1.253-1.65l.375-.55c.25-.183.501-.55.501-.733.126-.734.877-.734 1.628-.367zm-54.727 16.131c.25.917.751 1.283 1.252 1.283.5 0 .751 0 .751.184-.25.366.877.55 1.503.183.376 0 2.254-.367 2.88-.183.251 0 .752.183 1.128.366.375.367.751.55.876.55.126 0 .376.184.501.367.25.183.376.367.501.367s.125 0 .125.183c0 0 .501.916 1.128 1.833.751 1.1 1.377 2.2 1.628 2.566.375 1.1 1.002 2.2 1.127 2.384.125 0 .125.183 0 .183 0 .183 0 .183.125.183s1.002 2.383 1.002 2.567c-.125 0 0 .366.125.733.125.183.25.55.25.55-.125 0 0 .367.126.916.125.55.25.917.125.917 0 0 0 .183.125.367.126 0 .126.183.126.366-.126 0 0 .367 0 .55l.25.734c0 .183 0 .366.125.366.25 1.833.25 5.316-.125 5.866-.125.367-.25.917-.25 1.1-.25 1.467-.25 1.65.125 2.383.5.734.626 1.65.375 1.834-.125.183-.125.55-.125.916 0 .55 0 .917-.125 1.1-.125 0-.125.183 0 .183 0 .184-.25.55-.5.917-.251.55-.502.917-.627 1.1 0 0-.25.367-.501.55-.626.916-2.38 3.3-2.254 3.3 0 0-.501.916-1.378 2.016-.751 1.1-1.377 2.2-1.503 2.567-.125.183-.25.55-.5.733-.251.183-1.629 1.833-2.505 3.116-.126.184-.25.367-.376.367-.125 0-.125 0 0 .183 0 .184-.125.184-.25.367-.126 0-.251.183-.251.183.125 0 0 .183-.125.367-.125.183-.501.55-.752.916-.25.367-.5.55-.626.55l-.25.367c-.125.183-.376.367-.376.183h-.125c.125.184-.376.734-.752.734-.125 0-.25.183-.375.366-.126.367-.376.55-.501.55 0 0-.125 0-.125.183 0 0-.251.367-.501.55-.25.184-.501.367-.627.55-.125 0-.375.184-.626.184-.25 0-1.127.366-1.878.733-.25 0-.752.183-1.127.183-.376 0-.752.184-.877.184 0 .183-.25.183-.626 0-.376 0-.752-.184-1.002 0-1.252.183-6.888.183-7.389 0-.25-.184-.626-.184-.626-.184s-.125 0-.376-.183c-.125 0-.5-.183-.751-.367-.376 0-.752-.183-1.127-.366-.25-.184-.627-.367-.752-.367-.25 0-1.002-.367-1.377-.733-.25-.367-1.002-.733-1.503-.733-.376-.184-1.127-.734-1.378-1.1-.125-.184-.25-.184-.25-.184 0 .184-.125.184-.125 0-.126 0-.376-.183-.752-.183-.25-.183-.5-.367-.5-.55-.126 0-.126-.183-.251-.183 0 .183-.126 0-.25-.184-.126 0-.251-.183-.376-.183-.501 0-.752-1.833-.376-3.116.125-.184.125-.734.25-1.284 0-.366 0-.916.126-.916 0 0 .125-.183.125-.367 0-.55.125-.916.375-1.466.126-.184.376-.917.501-1.65.126-.55.501-1.467.627-2.017.25-.366.375-.916.25-.916 0-.184 0-.184.125-.184 0 0 .126-.183.126-.366 0-.184.125-.55.25-.55 0-.184.125-.367 0-.367 0 0 0-.183.125-.366.125-.184.25-.367.125-.367 0-.183.126-.367.25-.733.251-.367.377-.917.878-2.567.125-.366.375-.733.5-1.1.251-.183.376-.733.501-1.1.126-.366.25-.916.25-.916.377-.55 1.003-1.833 1.253-2.567.126-.366.376-.916.501-1.1.125-.366.25-.55.25-.733 0-.183.251-.916.502-1.466.375-.55.626-1.284.751-1.467 0-.183.25-.55.25-.55.126-.183.251-.367.251-.55 0 0 0-.183.125 0 .125 0 .125-.183.25-.367.126-.733.251-.916 1.503-2.75.501-.55.877-1.283.877-1.283l1.252-1.833 1.253-1.833c0-.366.876-1.65 1.628-2.566.5-.367.877-.917.877-1.1l.626-.917c.25-.55.751-1.283 1.127-1.833.25-.55.626-.917.626-.733.125 0 .125 0 .125-.184 0 0 .125-.366.376-.55.125-.366.25-.55.25-.366 0 0 .126-.183.376-.367.125-.366.501-.733.752-.916.25-.184.75-.734 1.127-1.284.25-.366.626-.916.751-.916s.25-.184.376-.184c.375-.55.626-.366 1.002.367zM48.215 80.843c-.125.184-.375.184-.5.184 0-.184-.126-.184-.126 0 0 .183-.125.183-.25.183s-.501.183-.752.367c-.25.183-.626.366-1.001.366-.501 0-1.002.184-1.253.367-.376.183-.751.366-.876.366-.126.184-.627.367-.877.55-.376.367-.752.55-.752.367-.125 0-.125 0 0 .183 0 .184 0 .184-.125.184 0-.184-.125 0-.25 0-.125.183-.25.366-.25.183h-.126c.125.183-.125.367-.376.55-.375.183-.626.55-.626.55l-.125.183c0-.366-1.252.734-1.503 1.283-.25.367-.376.55-.5.55-.377 0-1.253.734-1.504 1.284l-.5.733c-.126 0-.251.183-.376.183-.376.55-1.127 1.283-1.253 1.283-.125 0-2.38 3.484-2.504 4.033l-.626.917c-.251.367-.501.917-.627 1.467-.125.366-.5 1.1-.876 1.833-.25.55-.501 1.283-.501 1.466 0 0-.125.734-.376 1.467-.25.55-.376 1.283-.376 1.283 0 .183-.125.55-.25.917-.125.366-.125 1.1-.125 4.216.125 4.033.125 4.033.375 4.4.126 0 .126.183.126.183-.126 0-.126.183 0 .183 0 .184.125.734.125 1.1 0 .367.125 1.1.25 1.467.126.183.25.55.126.733h.125c.125-.183.125-.183.125 0-.125 0 0 .183.125.367.25.55.25 1.283-.125 1.833-.25.183-.376.733-.501 1.1 0 .366-.125.916-.125 1.283a1.657 1.657 0 0 0 0 1.1c0 .366 0 .55-.125.55-.126-.184-.126-.184-.126 0 0 0 0 .366-.125.55 0 .366-.125.733-.125.733 0 .183-.125.367-.125.367-.126.183-.25 0-.25-.184 0 0 0-.183-.126-.183 0 0-.125.367-.125.733 0 1.1 0 1.65-.126 1.65-.125 0-.125 0-.125.183.125 0 0 .184 0 .184-.125.183-.25.183-.5-.184l-.251-.366v1.1c0 .183 0 .183.125.183s.125.367 0 .55c-.125 0-.125.183 0 .183 0 .184-.376 1.284-.5 1.284-.126 0-.126.183-.126.183 0 .183-.125.367-.125.55-.126.183-.25.366-.25.55 0 .183-.126.55-.251.733 0 0-.126.367-.126.55 0 .55-.375 1.1-.5.917-.126-.184-.376.733-.376 1.1.125.183 0 .366-.125.55l-.25.366c0 .367-.377.733-.627.917 0 0-.125-.184 0-.367 0-.183-.125 0-.25.183-.126.367-.376.734-.501 1.1-.376.367-.376.55-.501 2.75-.126 1.833-.25 2.933-.501 2.933-.126 0-.126.367-.25.733 0 .55-.126.734-.251.734-.126 0-.126 0 0 .183.125.183 0 .917-.25.917-.126 0-.126.183-.126.183 0 .183-.25.733-.626 1.1-.501.916-.877 1.1-1.127.55-.126 0-.25-.184-.25-.184-.126 0-.376-.366-.752-.916-.752-1.1-1.253-1.65-1.378-1.467-.125 0-.125 0-.125-.183h-.376c-.125.183-.626.367-.876.55-.877.367-1.754 1.1-2.004 1.833-.25.733-.125 3.3 0 3.667.125 0 .125.366.125.55 0 .916.501 1.833 1.753 3.116.376.55 1.128 1.65 1.128 1.833 0 .183.125.183.25.183 0 0 .125 0 .125.184l.501.733c.376.183.752.733 1.002 1.1.25.366.626.733.751.733l.251.367c.125.366 1.378 1.65 1.378 1.65 0-.184.125-.184.125 0 .125.183.5.55.876.916 1.002 1.283 2.505 3.483 2.38 3.483 0 .184 0 .184.125.184 0-.184.25 0 .376.183.125.183.376.367.5.55.126.183.251.366.251.55 0 0 .25.55.626 1.283l1.002 1.467c.126.183.626 1.1 1.253 2.016 1.002 1.65 1.377 1.833 2.003 2.017.25.183.501.183.627.366.125 0 .25.184.375 0 .126 0 .126 0 0 .184 0 .183 0 .183.126.183 0-.183.25 0 .375.183.125.367.25.55.376.55l.125.183c.125.367 1.628.367 1.753 0 .126 0 .25-.183.25 0 .878.367 1.629 0 1.754-.916 0-.733.25-1.467.376-1.467.25 0 .5-.55.5-1.283.126-1.1-.5-2.75-1.126-3.483-.877-.917-1.378-1.467-1.628-2.2-.126-.366-.25-.733-.126-.733 0 0-.25-.183-.375-.55-.25-.367-.501-.733-.376-.733 0-.184 0-.184-.125-.184 0 .184-.376-.55-.752-2.016-.375-1.467-.375-1.467-.25-1.833.125-.184.376-.367.877-.184.25 0 .876.734.751.734s0 .183 0 .55c.25.916 1.252.916 1.879.183.25-.367.25-.367.375-1.833.125-.55.25-1.1.25-1.283.376-.55.502-1.1.502-1.467 0-.183 0-.367.125-.367 0 0 .125-.183.125-.366.125-.367.626-1.65.751-1.833.251-.184.877-1.834 1.002-2.384.126-.366.25-.733.376-.916 0-.183.125-.367.125-.55 0 0 0-.183.126-.183 0 0 .25-.367.375-.917 0-.55.376-1.283.501-1.65.626-.916 1.002-1.833 1.002-2.016 0 0 0-.184.125-.184.126-.183 1.378-2.75 1.378-2.933 0-.366.751-1.833.877-2.016l.125-.184c-.125 0 0-.366.25-.733.626-.916 2.004-4.216 2.254-4.95.126-.366.25-.733.376-.916.125-.367.501-1.65.877-2.567l.25-.916 1.127-.183h2.63c2.756 0 3.131-.184 4.258-.734.627-.366 1.253-.733 1.378-.916.25-.184.626-.55 1.127-1.1.376-.367.877-.917 1.002-1.283.25-.367.376-.734.5-.734 0 0 .377-.183.627-.733.25-.367.501-.733.501-.55l.25-.367c.126-.183.25-.55.25-.733.878-1.466 1.629-3.3 1.629-3.85 0 0 0-.183.125-.183.125.183.25-.183.25-.55 0-.183 0-.366.126-.366.125 0 .125-.184.125-.367.125-.183.25-.733.376-1.1.125-.367.376-.917.376-1.1 0-.367.125-1.466.375-1.833 0-.183.125-.733.125-1.467.126-1.65.251-4.4.251-5.132-.125-2.017-.125-2.567-.125-2.567 0-.183-.126-1.1-.126-2.2-.125-1.466-.5-3.483-1.001-4.766-.25-.733-.376-1.65-.501-1.833 0-.184-.126-.733-.376-1.283l-.25-.734c-.126-.183-.752-1.65-1.002-2.016-.126 0-.126-.184-.126-.367s0-.183-.125-.183c-.125.183-.125 0-.125-.183 0-.367-2.505-4.4-2.505-4.033 0 0-.125 0-.125-.184l-.501-.733c-.25-.183-.5-.367-.626-.55-.125-.183-.25-.367-.376-.367 0 0-.125 0-.125-.183 0 0-.25-.367-.501-.55-.376 0-.626-.367-.626-.367 0-.183-.125-.183-.125 0-.126 0-.126 0 0-.183v-.183c-.126.183-.25 0-.501-.184-.376-.366-1.503-1.1-1.754-1.283-.25 0-.626-.183-1.002-.183-.5-.183-.876-.367-.876-.183-.125 0-.125 0-.125-.184 0-.183-2.88-.183-3.257 0zm1.002 8.433c.376 0-.125 1.283-.5 1.283 0 0-.251.367-.502.917-.25.733-.5 1.1-.626 1.1-.626 0-1.127 0-1.503-.184-.375-.183-.375-.183-.876.367-.626.55-1.253 1.65-1.127 1.833 0 .183 0 .183-.126.183-.25.367-.125 2.2.126 2.567.25.183.25.367.25.733v.55c.125 0 .125 0 0 .183 0 .184-.125.184-.25 0-.126-.183-.25-.366-.376-.366 0 0-.125 0-.125-.183 0-.367-1.253-2.017-1.628-2.2-.126 0-.376 0-.501.183h-.25c-.126 0-.126.183-.126.183 0 .55-.125.55-.5.367-.377-.183-.878 0-.878.367.126 0 0 .183-.125.366-.626.367-.626 1.833 0 1.833.125 0 .376.917.376 1.467 0 .183 0 .367.125.367s.125 0 .125.183.126.55.376.917c.125.366.25.916.25 1.283 0 .366.126.733.126.733.125 0 .125 0 .25 1.283 0 1.283-.5 1.65-1.127.917-.125-.183-.25-.367-.376-.367-.125 0-.25-.183-.25-.183l-.25-.367c-.126 0-.376-.183-.501-.55-.126-.183-.501-.733-.752-.916-.376-.184-.626-.55-.626-.734 0-.183 0-.183-.125-.183 0 .183-.25 0-.501-.367-.25-.366-.501-.55-.501-.366-.125 0-.125 0-.125-.183 0-.184-.126-.184-.25 0-1.003.733-.126-2.2 1.001-3.484.25-.366.501-.55 1.503-2.2.376-.55.751-.916.751-.916.126 0 .25-.183.376-.367.501-.733 1.879-2.016 2.38-2.383 0 0 .5-.183.876-.55.501-.366.877-.55 1.002-.55s.376-.366.626-.55c.376-.366 1.879-1.283 2.254-1.283.126 0 .25-.183.376-.183.125-.183.501-.367.752-.55.626-.183 1.001-.183 1.502 0zm7.64 5.5c.375.55.5 1.1.5 1.65 0 .183-.375.916-.876 1.833-1.127 1.65-2.004 3.116-2.38 4.033-.5 1.283-1.127 2.75-1.252 2.75l-.25.733c-.501 1.466-.877 1.65-.877.366.125-.55.626-2.016.877-2.016.125 0 .25-.55.375-.917 0-.183.126-.367.376-.733.25-.367.376-.733.376-.733-.125 0 0-.184 0-.367.125-.367.125-.55.125-.55.125 0 .25-.55.376-.917.25-.366.375-.916.375-.916 0-.184 0-.184.126-.184 0 0 .25-.366.375-.916.126-.55.376-1.1.501-1.283l.25-.367c-.124 0 .126-1.467.251-1.833.25-.183.25-.183.752.366zM34.815 106.69c0 .367.126.733.25.917 0 .183.126.55.126.916 0 1.1 0 1.284.25 1.284 0 0 .126 0 .126.183l.5.733c.376.183.627.55.627.55 0 .183.125.367.25.55l.376.55v.183c.125 0 .25 0 .376.367.125.183.5.367.626.367.125.183.626.55 1.002 1.1.375.55.751.916.876.916.126-.183.126-.183 0 0 0 .183 0 .183.126.183 0-.183.25-.183.5 0 .126.184.376.184.627.184.125.183.5.366.751.733.626.55 1.127.917 2.13 1.283.375.184.75.55.876.917l.376.55-.25.183c-.126 0-.377.183-.502 0-.376 0-.877.733-.877 1.1 0 0 0 .183-.125.183 0-.183-.125 0-.125.367-.125.367-.25.733-.5 1.1-.502.733-.627 1.283-.627 2.383 0 .55 0 .917-.25 1.283l-.251.733c-.125.184-.25.55-.376.917-.125.55-.375.917-.375.917 0 .733-.501 2.75-.752 3.3-.125.183-.25.916-.376 1.283 0 .366-.125.733-.25.916-.25.367-.501.917-.751 1.65-.376 1.1-.877 2.2-1.002 2.383l-.501 1.467c-.501 1.466-.752 2.016-1.002 2.383 0 0-.125.367-.25.55 0 .183-.126.366-.126.366-.125 0-.125.184-.125.184 0 .183-.125.55-.25.916-.251.184-.501.917-.627 1.284-.125.55-.375.916-.5 1.1 0 .183-.126.366-.126.55 0 0 0 .183-.125.183s-.125 0-.125.183c.125 0 0 .55-.25 1.1-.126.367-.377 1.1-.502 1.283-.626 1.65-1.002 2.567-1.628 3.483-.25.55-.5.917-.5 1.1 0 .367-1.003 2.383-1.253 2.383-.125 0-.501-.366-.877-.733-1.127-1.1-2.504-.55-2.504 1.1 0 .183-.126.367-.25.367-.126 0-.502-.367-.502-.734 0-.183-.125-.183-.125-.183-.125 0-.376-.367-.626-.733-.376-.55-.877-1.1-1.127-1.467-.376-.366-.627-.733-.752-.916-.125-.367-.25-2.384-.125-2.933v-.184c0-.183.125-.733.376-1.283.125-.733.25-1.283.375-1.467.126-1.1.501-3.116.627-3.3.25-.183.5-1.1.5-1.283 0-.183 0-.183.126-.183l.25-1.1c.125-.55.25-1.1.25-1.283 0 0 .126-.367.126-.917.125-.366.25-.916.376-1.1.125-.366.375-.733.626-1.1.25-.366.5-.733.5-.55.126 0 .126 0 0-.183 0-.183 0-.183.126-.183 0 .183.125.183.125 0 .125-1.65.501-3.116 1.002-3.85.25-.366.626-.733.626-.733.125.183.376-.367.877-1.466.125-.734.626-1.65.877-2.017.375-.55.75-1.283.75-1.65l.251-.733c.25-.367.877-1.65.752-1.65 0-.183 0-.183.125-.183 0 0 .125-.184.125-.367 0 0 0-.183.126-.183.375 0 .5-2.567 0-3.85 0-.367 0-.367.125-.367.125.184.125.184.125 0-.125 0 .25-.183.877 0 .876 0 1.002 0 1.502-.366.501-.55.752-1.1.627-1.467 0-.183 0-.183.125 0 .125 0 .125 0 .125-.183-.125 0-.125-.183 0-.183l.125-.184v-1.1c.126-.55.126-.916-.125-1.466-.125-.367-.25-.733-.125-.733.25 0-.877-.917-1.378-1.1-1.377-.184-1.252-.184-1.503-2.017 0-.55-.125-1.283-.125-1.65 0-.366-.125-.916 0-1.1v-.733c0-.183.125-.366.25-.733.376-.367.376-.367.627 0 .125.183.25.55.25.733zm24.922-.366v1.1c-.125.366-.125 1.1-.25 1.466 0 1.283-.25 2.566-.376 3.3-.125.55-.25.916-.25.916-.126.55-.376 1.467-.501 1.467-.126 0-.126.183-.126.183 0 .367-1.002 2.567-1.628 3.483-.375.367-.626.917-.626 1.1-.125.183-.25.367-.376.367 0 0-.125 0 0 .183 0 .183-.125.183-.125.183-.125 0-.25.184-.376.367-.375.367-2.504 1.65-2.755 1.65 0-.183-.125 0-.25 0 0 .183-1.628.183-3.256 0-.627-.183-1.253-.55-1.378-1.1 0-.183-.25-.55-.5-.917-.502-.733-.502-.733-.126-.55h1.002c.751.184 1.127.184 1.753.55.125.184.626.184.877.184.375.183.751.183.876.366.376.184 1.002 0 1.628-.366 1.128-.917 1.128-.917 1.128-2.2 0-1.1.375-2.567 1.127-3.483l.25-.367c-.125 0 0-.183.125-.55.126-.183.25-.55.25-.733 0 0 0-.183.126-.183.125-.184 1.127-2.384 1.002-2.384s.125-.55.5-1.1c.126-.183.251-.366.251-.55 0 0 .25-.55.627-1.1.25-.366.626-.916.75-1.282.126-.367.502-.367.627 0z"/></svg>